<svg xmlns="http://www.w3.org/2000/svg" viewBox="0 0 512 512"><defs><style>.cls-1{fill:#24b5bf;}.cls-2{fill:#fff;}.cls-3{fill:#203243;}</style></defs><title>依赖服务</title><path class="cls-1" d="M248 435a74.85 74.85 0 0 1 28.73-59c-.71-9.76-1.24-19.12-1.24-28.26 0-32.3 28.38-14.46 35.76-5.91l73.66-72.91c-3-6.3-3.8-13.33-3.86-19 23.59-25.59 37.79-58.58 37.79-94.6C418.85 74 346.36 8 256.94 8S95 74 95 155.33c0 34.92 13.36 67 35.68 92.25.27 10.78-2 29.07-19 35.33-53.67 19.74-86.38 19.24-94.17 65.82-3.46 19-1 29.4 0 34.43s3.35 21.26 17.94 21.45 18-14.84 17.5-19.43-5.06-46.07 37.46-55.69c33.44-7.56 48.35-14.18 55.69-26.83 10.25-10.51 38.48 13.67 14.18 39s-34.68 37.72-38.48 45.56C114.71 402 111.74 411 111.74 449s25.57 22.28 30.88 16.71 5.32-10.38 6.33-18.73.51-18.73 3.29-33.41c1.83-9.66 11.29-20.74 21.39-33.08 12.88-15.73 20.12-29.7 26.2-37.8s36.45-28.35 36.45 5.06-7.09 69.87-4.05 117.46c1.15 18 7.81 29.32 15.7 33.82a16.07 16.07 0 0 0 2.76 1.2c.36.13.7.34 1.06.45a14.74 14.74 0 0 0 2.7.4c.48 0 1 .18 1.44.18s1-.14 1.44-.18a14.74 14.74 0 0 0 2.7-.4c.36-.1.7-.32 1.06-.45a16.08 16.08 0 0 0 2.76-1.2 25.11 25.11 0 0 0 8.56-8.63A74.8 74.8 0 0 1 248 435z"/><circle class="cls-2" cx="256.94" cy="165.48" r="87.36"/><circle class="cls-3" cx="256.94" cy="165.48" r="45.04"/><path class="cls-1" d="M396.26 429l-39.72 39.72c-18 18-48.23 18-67.15 0-18-18-18-48.23 0-67.15l39.72-39.72a9.36 9.36 0 0 0-13.24-13.24l-39.72 39.72c-25.54 25.54-25.54 68.1 0 93.63s68.09 25.54 93.63 0l39.72-39.72a9.14 9.14 0 0 0 0-13.24 11.36 11.36 0 0 0-13.24 0zM383 282.4l-39.7 39.72a9.36 9.36 0 1 0 13.24 13.24l39.72-39.72c18-18 48.23-18 67.15 0 18 18 18 48.23 0 67.15l-39.72 39.72a9.36 9.36 0 0 0 13.24 13.24L476.65 376c25.54-25.54 25.54-68.1 0-93.63s-68.1-25.54-93.63 0zm0 0M336.68 422.37a13.71 13.71 0 0 0 19.86 0l60.53-60.53A14 14 0 0 0 397.21 342l-60.53 60.53c-5.67 5.68-5.67 15.13 0 19.86zm0 0"/></svg>