<svg xmlns="http://www.w3.org/2000/svg" viewBox="0 0 512 512"><defs><style>.cls-1{fill:#19b19c;}.cls-2{fill:#fff;}.cls-3{fill:#203243;}</style></defs><title>依赖服务</title><path class="cls-1" d="M229.11 439.49c-29.75-1.93-78.49-40.31-78.49-79.61 0-31.52 40.38-26.56 52.77-25.5-13.46-7.08-34.71-29.75-37.19-45 10.27 15.58 40 49.12 102 53.61 7.89.57 14.8 1.4 20.81 2.42l10.89-10.78c-34.61-7.63-64.52-15.63-84.46-33.54 34 15.94 52.77 20.19 84.65 23.38 2.9.29 5.85.72 8.82 1.28l10.63-10.52a307.73 307.73 0 0 0-33.26-9.53c-89.61-20.9-80.76-94.92-80.76-94.92s20.19-19.83 27.63-52.77 50-73.7 101.06-83.12h20.19V52.48h21.26v-37h-33.13v29.24h-23.31v19.13h-19.13V44.72h19.13V8.52c-2.68 0-19.36-1.18-47.11 0C243.8 9.73 86.87 29.78 99.62 226.71c0 0-43.92 58.8-47.46 101.3s-10 156.43 109.09 175.68c23.38 3.78 38-27.39 14.17-39-18.82-9.13-20.31 9.21-12.75 13.7-3.65-6.28-.71-16.77 10.39-9 11.68 8.2 5.45 27.91-11.81 21.72C108.59 472.28 79 438.59 78 374.76c-.35-23.38 29.4-22 39.32 0-5.67-16.29-12.75-59.86-3.54-86.78 2.48 69.42 18.29 140.72 96 161.87a73.81 73.81 0 0 0 21.23 2.8 74.9 74.9 0 0 1-1.9-13.16zM276 20.57h19.13V37.5H276z"/><path class="cls-2" d="M194.44 193.3c-8.1-1.73-10.56-15.52-5.49-30.81s15.75-26.28 23.85-24.55 10.56 15.52 5.49 30.81-15.75 26.25-23.85 24.55z"/><path class="cls-3" d="M201 177.31c-3.42-.73-4.46-6.55-2.32-13s6.65-11.09 10.07-10.36 4.46 6.55 2.32 13S204.42 178 201 177.31z"/><path class="cls-1" d="M368.96 62.83h17.75V81.8h-17.75zM383.62 44.42h20.84v20.84h-20.84zM397.08 72.32h18.68v16.5h-18.68zM414.39 89.53h14.74v14.74h-14.74zM426.68 107.59h10.38v10.38h-10.38zM379.26 429l-39.72 39.72c-18 18-48.23 18-67.15 0-18-18-18-48.23 0-67.15l39.72-39.72a9.36 9.36 0 0 0-13.24-13.24l-39.72 39.72c-25.54 25.54-25.54 68.1 0 93.63s68.09 25.54 93.63 0l39.72-39.72a9.14 9.14 0 0 0 0-13.24 11.36 11.36 0 0 0-13.24 0zM366 282.4l-39.7 39.72a9.36 9.36 0 1 0 13.24 13.24l39.72-39.72c18-18 48.23-18 67.15 0 18 18 18 48.23 0 67.15l-39.72 39.72a9.36 9.36 0 0 0 13.24 13.24L459.65 376c25.54-25.54 25.54-68.1 0-93.63s-68.1-25.54-93.63 0zm0 0M319.68 422.37a13.71 13.71 0 0 0 19.86 0l60.53-60.53A14 14 0 0 0 380.21 342l-60.53 60.53c-5.67 5.68-5.67 15.13 0 19.86zm0 0"/></svg>