<svg xmlns="http://www.w3.org/2000/svg" viewBox="0 0 512 512"><defs><style>.cls-1{fill:#22b0cf;}.cls-2{fill:none;}.cls-3{fill:#1c91a6;}</style></defs><title>EAMS日志</title><path class="cls-1" d="M423.87 3.82H87.77a33.85 33.85 0 0 0-34 34v436.79a33.85 33.85 0 0 0 34 34h336.1a33.85 33.85 0 0 0 34-34V37.81a33.85 33.85 0 0 0-34-33.99zM155.74 482.17h-50.35V29h50.35zM398 207.55l-58.19-67-58.19 67V29H398z"/><path class="cls-2" d="M53.86 3.5H458v505.72H53.86z"/><path class="cls-3" d="M319.99 61.76l-3.7-2.17-3.7 2.17v4.36l3.7 2.18 3.7-2.18v-4.36zM298.84 94.23v8.98l7.93 4.49 7.93-4.49v-8.98l-7.93-4.49-7.93 4.49zM287.56 82.14v5.79l4.93 2.9 4.94-2.9v-5.79l-4.94-2.9-4.93 2.9zM296.72 57.88v-3.4l-2.99-1.71-3 1.71v3.4l3 1.71 2.99-1.71zM292.14 73.32l8.11 4.64 8.11-4.64v-9.29l-8.11-4.64-8.11 4.64v9.29z"/><path class="cls-1" d="M362.89 41.32l-19 11-19-11L301.2 55v.05l9.25 5.33 14.4-8.29 14.41 8.29-14.59 8.15v16.75L310.35 77l-9.16 5.33v.08l18.89 11v22.14l23.75 13.78 23.75-13.78V93.22l18.89-10.84V55zm-19.06 60.29v16.84l-14.59-8.35V93.39l.33-.12 14.36-8.19 14.43 8.4zm33.48-41.21l-14.59 8.15v16.73L348.41 77V60.4l14.45-8.29 14.45 8.29z"/></svg>