<svg xmlns="http://www.w3.org/2000/svg" viewBox="0 0 512 512"><defs><style>.cls-1{fill:#22b0cf;}.cls-2{fill:#1c91a6;}</style></defs><title>EAMS监控</title><path class="cls-1" d="M491.47 223.33c-38.88-47.7-133.1-127-235.61-127-102.8 0-197 79.3-235.62 127-8.87 10.77-13.45 22.58-13.74 34.4.29 11.82 5.16 23.63 13.74 34.4 38.59 47.7 132.81 127 235.62 127s196.73-79.29 235.61-127c8.87-10.77 13.74-22.58 14-34.4-.59-11.81-5.16-23.63-14-34.4zM256 358.55c-57.4 0-104-45.16-104-100.83S198.56 156.9 256 156.9s104 45.16 104 100.83-46.66 100.82-104 100.82zm0 0"/><path class="cls-2" d="M225.81 230.35l-4.75-2.79-4.75 2.79v5.59l4.75 2.8 4.75-2.8v-5.59zM198.66 272.02v11.53l10.18 5.76 10.18-5.76v-11.53l-10.18-5.77-10.18 5.77zM184.18 256.5v7.44l6.33 3.71 6.34-3.71v-7.44l-6.34-3.71-6.33 3.71zM195.94 225.37V221l-3.84-2.18-3.85 2.18v4.37l3.85 2.19 3.84-2.19zM190.06 245.18l10.41 5.96 10.41-5.96v-11.91l-10.41-5.96-10.41 5.96v11.91z"/><path class="cls-1" d="M280.86 204.12l-24.39 14.14L232 204.12l-30.35 17.56v.07l11.87 6.84L232 218l18.49 10.64-18.69 10.44v21.46l-18.36-10.64-11.75 6.83v.1l24.24 14.14v28.41L256.4 317l30.48-17.69v-28.59l24.24-13.92v-35.12zm-24.46 77.37v21.61l-18.73-10.72v-21.44l.42-.15 18.43-10.51L275 271.06zm43-52.88l-18.73 10.46v21.46l-18.36-10.64V228.6l18.52-10.6 18.55 10.64z"/></svg>