<svg id="Layer_1" xmlns="http://www.w3.org/2000/svg" width="33.3" height="16" viewBox="0 0 33.3 16"><style>.st0{fill:#f22b29}.st1{fill:#fff}</style><path class="st0" d="M5.4 4.9c1.5 0 2.8.6 3.9 1.6s1.6 2.4 1.6 3.9-.6 2.8-1.6 4c-1.1 1-2.4 1.6-3.9 1.6s-2.7-.6-3.9-1.6c-1-1.2-1.6-2.6-1.6-4.1 0-1.5.6-2.8 1.6-3.9S4 4.9 5.4 4.9zm-3.5 5.5c0 1 .3 1.8 1 2.6.7.7 1.5 1.1 2.5 1.1.9 0 1.8-.3 2.5-1.1.7-.7 1-1.6 1-2.6s-.3-1.9-1-2.6C7.3 7 6.5 6.7 5.4 6.7c-.9 0-1.7.3-2.4 1.1-.7.7-1.1 1.6-1.1 2.6z"/><path class="st1" d="M14.2 8.9V0h-1.8v15.7h1.8v-4.4zM21.2 15c0-.8-.2-1.6-.6-2.4-.5-.8-.8-1.2-1.1-1.6-.3-.3-.6-.5-.8-.6l-.6-.3c1.7-.9 2.7-2.3 3.1-4l.2-.9h-2.2l-.1.7c-.2.9-.7 1.8-1.6 2.4-.7.6-1.5.8-2.3.9V11c.9.1 1.7.5 2.4.9.8.7 1.4 1.6 1.5 2.8l.1.8h1.9V15zM31.4 0v10.2c0 1.1-.3 2-1 2.8-.7.8-1.6 1.1-2.6 1.1s-1.8-.3-2.5-1-1-1.6-1-2.5c0-1 .3-1.9 1.1-2.6.7-.7 1.7-1.1 2.7-1.1h.3c.1 0 .3 0 .6.1s.7.2 1.1.5V5.4c-.5-.2-.9-.3-1.2-.3-.2-.1-.5-.1-1-.1-1.7 0-3 .5-4.1 1.5-1 1-1.6 2.3-1.6 4s.6 3 1.6 4 2.4 1.5 4 1.5c1.5 0 2.6-.3 3.5-1.1V16h1.9V0h-1.8z"/></svg>