<svg id="Layer_1" xmlns="http://www.w3.org/2000/svg" viewBox="0 0 191 14" width="191" height="14"><style>.st0{fill:#fff}</style><title>logo-origin-thin</title><g id="Page-1"><path id="OPENSHIFT" class="st0" d="M11.8 7c0 2-.5 3.6-1.5 4.7s-2.5 1.6-4.4 1.6c-1.9 0-3.4-.5-4.4-1.6S0 9 0 7s.5-3.6 1.5-4.6S4 .8 5.9.8c1.9 0 3.4.5 4.4 1.6s1.5 2.5 1.5 4.6zM3.5 7c0 2.3.8 3.5 2.4 3.5.8 0 1.4-.3 1.8-.9s.7-1.4.7-2.6c0-1.2-.2-2.1-.6-2.7s-1-.9-1.8-.9C4.3 3.4 3.5 4.6 3.5 7zm23.3-2.2c0 1.4-.4 2.4-1.2 3.1S23.7 9 22.2 9h-.9v4H18V.9h4.2c1.5 0 2.7.3 3.5 1s1.1 1.7 1.1 2.9zm-5.5 1.6h.6c.5 0 .9-.1 1.2-.4s.4-.7.4-1.1c0-.8-.5-1.2-1.4-1.2h-.8v2.7zm18.6 6.7h-7.2V.9h7.2v2.6H36v1.9h3.6V8H36v2.3h3.9v2.8zm17.7 0h-4.3l-4.4-8.5h-.1c.1 1.3.2 2.3.2 3v5.5h-2.9V.9h4.3l4.4 8.4c-.1-1.2-.1-2.2-.1-2.9V.9h2.9v12.2zm14.6-3.7c0 .8-.2 1.4-.6 2s-.9 1-1.7 1.4-1.6.5-2.5.5c-.8 0-1.5-.1-2-.2s-1.1-.3-1.7-.6V9.6c.6.3 1.3.6 2 .8s1.3.3 1.9.3c.5 0 .8-.1 1.1-.3s.3-.4.3-.7c0-.2 0-.3-.1-.4s-.4-.3-.6-.4-.7-.4-1.6-.8c-.8-.4-1.4-.7-1.8-1s-.7-.8-.9-1.2-.3-1-.3-1.6c0-1.1.4-2 1.2-2.6s1.9-.9 3.4-.9c1.3 0 2.5.3 3.8.9l-1 2.5c-1.1-.5-2.1-.8-2.9-.8-.4 0-.7.1-.9.2s-.3.4-.3.6c0 .2.1.5.4.6s.9.5 2 1c1 .5 1.8 1 2.2 1.5s.6 1.3.6 2.1zm16.3 3.7h-3.3v-5h-3.8V13h-3.3V.9h3.3v4.5h3.8V.9h3.3v12.2zm6.6 0V.9h3.3V13h-3.3zm13.1 0H105V.9h7.2v2.6h-3.9v2.3h3.6v2.6h-3.6v4.7zm15.3 0h-3.3V3.6h-3V.9h9.2v2.7h-3v9.5z"/><path id="ORIGIN" class="st0" d="M146.3 7c0 1.9-.5 3.5-1.5 4.6s-2.3 1.7-4.1 1.7c-1.8 0-3.2-.5-4.1-1.6S135.2 9 135.2 7s.5-3.5 1.5-4.6 2.4-1.6 4.2-1.6c1.7 0 3.1.6 4.1 1.7s1.3 2.5 1.3 4.5zm-9.6 0c0 1.6.4 2.9 1.1 3.7s1.7 1.3 3.1 1.3c1.3 0 2.4-.4 3-1.3s1-2.1 1-3.7-.3-2.9-1-3.7-1.7-1.3-3-1.3-2.4.4-3.1 1.3-1.1 2.1-1.1 3.7zm13.8 1v5H149V.9h3.3c1.5 0 2.6.3 3.3.9s1.1 1.4 1.1 2.6c0 1.6-.8 2.7-2.4 3.3l3.3 5.5h-1.7L153 8h-2.5zm0-1.2h1.9c1 0 1.7-.2 2.2-.6s.7-1 .7-1.8-.2-1.4-.7-1.7-1.2-.5-2.3-.5h-1.8v4.6zm9.1 6.3V.9h1.4V13h-1.4zm10-6.4h4.1v5.9c-.6.2-1.3.4-2 .5s-1.4.2-2.3.2c-1.8 0-3.3-.5-4.3-1.6S163.7 9 163.7 7c0-1.3.3-2.4.8-3.3s1.2-1.7 2.2-2.2 2.1-.8 3.3-.8c1.3 0 2.5.2 3.6.7l-.6 1.3c-1.1-.5-2.1-.7-3.2-.7-1.5 0-2.6.4-3.5 1.3s-1.2 2.1-1.2 3.7.4 2.9 1.2 3.7 2 1.3 3.5 1.3c.8 0 1.7-.1 2.5-.3V8h-2.7V6.7zm7.1 6.4V.9h1.4V13h-1.4zm14.2 0h-1.6l-6.6-10.2h-.1c.1 1.2.1 2.3.1 3.3v6.9h-1.3V.9h1.6l6.6 10.1h.1c0-.1 0-.6-.1-1.4s-.1-1.4 0-1.7v-7h1.3v12.2z"/></g></svg>