<svg version="1.2" baseProfile="tiny" xmlns="http://www.w3.org/2000/svg" width="132" height="55" viewBox="0 0 132 55"><path fill="#EF2E32" d="M21.321 23.118c0 2.448.647 4.383 1.942 5.806 1.329 1.44 3.078 2.163 5.254 2.163 2.192 0 3.941-.712 5.253-2.136s1.967-3.328 1.967-5.708-.655-4.282-1.967-5.708c-1.329-1.441-3.08-2.16-5.253-2.16-2.143 0-3.878.719-5.205 2.16-1.327 1.443-1.991 3.306-1.991 5.583m-5.727-.102c0-3.536 1.252-6.545 3.76-9.025 2.507-2.48 5.56-3.72 9.162-3.72 3.617 0 6.687 1.248 9.21 3.745 2.49 2.499 3.735 5.564 3.735 9.201 0 3.67-1.254 6.745-3.76 9.227-2.524 2.463-5.618 3.695-9.284 3.695-3.638 0-6.682-1.257-9.138-3.771-2.458-2.48-3.685-5.598-3.685-9.352"/><path fill="#FFF" d="M64.845 1.522c-.779 0-1.441.293-2 .867-.559.573-.842 1.255-.842 2.043 0 .829.283 1.528.842 2.103.559.575 1.229.867 2.021.867.791 0 1.463-.292 2.01-.867.559-.573.832-1.264.832-2.079 0-.813-.273-1.506-.832-2.065-.56-.575-1.24-.868-2.031-.869zm-2.726 8.684v25.173h5.475V10.206h-5.475zM106.777 35.378H101.3V10.205h5.477v25.173zm-5.59-30.949c0-.788.279-1.47.836-2.045.559-.573 1.229-.861 2.006-.861.793 0 1.467.288 2.025.861.559.562.838 1.25.838 2.064s-.279 1.51-.838 2.084a2.654 2.654 0 0 1-2.004.862 2.716 2.716 0 0 1-2.025-.862c-.559-.574-.838-1.275-.838-2.103"/><g fill="#FFF"><path d="M6.354 3.795c0-.598-.078-1.13-.236-1.592a3.364 3.364 0 0 0-.649-1.192 2.651 2.651 0 0 0-1-.747A3.02 3.02 0 0 0 3.193 0c-.473 0-.906.088-1.296.265-.391.176-.727.429-1.01.76-.28.323-.5.72-.657 1.19a5.24 5.24 0 0 0-.227 1.603c0 .597.076 1.13.227 1.602.157.463.372.86.648 1.192.281.323.615.57.999.747.39.169.824.253 1.298.253.467 0 .895-.088 1.288-.264a2.89 2.89 0 0 0 1.007-.748c.281-.33.498-.73.649-1.201a5.048 5.048 0 0 0 .236-1.603zm-1.483.021c0 .751-.153 1.326-.462 1.728-.303.4-.707.6-1.215.6-.508 0-.92-.203-1.236-.611-.315-.407-.473-.986-.473-1.738s.15-1.328.453-1.73c.309-.4.716-.6 1.224-.6s.92.204 1.237.612c.314.407.472.987.472 1.74zM13.643 2.455c0-.393-.064-.734-.195-1.022a2.07 2.07 0 0 0-.535-.739 2.131 2.131 0 0 0-.793-.432 3.079 3.079 0 0 0-.957-.147h-3.15v7.376h1.44V4.877h1.587c.37 0 .712-.045 1.03-.137.321-.091.599-.235.833-.432.233-.197.416-.446.545-.749.13-.305.195-.676.195-1.104zm-1.483.033c0 .64-.344.959-1.03.959H9.454V1.549h1.657c.322 0 .575.077.763.231.191.15.287.385.287.708zM20.427 7.493V6.049H16.71V4.27h2.07V2.836h-2.07V1.561h3.563V.117h-5.004v7.376h5.158zM28.059 7.493V.117h-1.421V3.626c.006.155.01.312.01.475v.44c.008.136.01.236.01.307a3.121 3.121 0 0 0-.227-.38 24.44 24.44 0 0 0-.277-.452L23.599.117h-1.38v7.376h1.422V4.248a7.75 7.75 0 0 0-.012-.39v-.463c0-.162-.004-.31-.01-.441v-.316c.047.098.121.228.215.39.104.154.199.301.289.441l2.647 4.026 1.289-.002z"/><g><path d="M34.617 5.554c0-.274-.035-.516-.104-.727a1.55 1.55 0 0 0-.35-.58 2.45 2.45 0 0 0-.636-.484 7.52 7.52 0 0 0-1-.442 8.976 8.976 0 0 1-.885-.368 2.464 2.464 0 0 1-.515-.338.938.938 0 0 1-.246-.358 1.294 1.294 0 0 1-.063-.42c0-.147.024-.285.072-.41a.958.958 0 0 1 .246-.35c.117-.097.264-.175.442-.23.178-.063.391-.097.64-.097.362 0 .675.06.935.181.268.113.53.28.792.506l.516-.643a3.803 3.803 0 0 0-.968-.58c-.336-.14-.746-.21-1.227-.21-.336 0-.645.042-.925.126-.275.084-.512.211-.711.379a1.71 1.71 0 0 0-.453.591 1.837 1.837 0 0 0-.164.79c0 .268.035.503.102.706.076.204.193.39.35.558.166.162.379.315.639.464.268.14.597.281.988.42.33.12.604.24.825.358.219.113.395.227.526.348a.987.987 0 0 1 .286.39c.057.14.082.294.082.463 0 .394-.14.701-.421.928-.274.225-.653.336-1.13.336-.372 0-.716-.08-1.032-.243a3.66 3.66 0 0 1-.885-.643l-.535.613c.29.294.639.54 1.05.738.419.19.875.285 1.37.285.377 0 .713-.054 1.008-.159a2.23 2.23 0 0 0 .751-.432c.205-.183.362-.4.463-.654.11-.253.167-.523.167-.812zM41.732 7.493V.117h-.805v3.15h-3.584V.118h-.802v7.376h.802V4.016h3.584v3.477h.805zM44.736 7.493V.117h-.803v7.376h.803zM51.172.865V.117H46.94v7.376h.802V4.059h1.978v-.75h-1.978V.868l3.43-.002zM57.443.865V.117h-5.047v.748h2.121v6.628h.805V.865h2.12z"/></g></g><path fill="#FFF" d="M84.435 10.271c-3.602 0-6.658 1.229-9.166 3.709-2.506 2.479-3.756 5.5-3.756 9.035 0 3.754 1.229 6.863 3.686 9.344 2.457 2.514 5.506 3.78 9.143 3.78 1.641 0 3.164-.256 4.576-.749l1.795 2.78c2.516 3.894 2.479 6.675-.107 8.334-.855.55-4.592 2.089-4.637 1.997l2.4 5.136c4.973-.896 14.586-6.548 8.668-16.049l-3.363-5.207c2.469-2.471 3.709-5.521 3.709-9.166 0-3.636-1.244-6.703-3.734-9.2-2.523-2.495-5.597-3.743-9.214-3.744zm0 5.101c2.174 0 3.928.722 5.254 2.163 1.312 1.425 1.961 3.327 1.961 5.706 0 2.38-.648 4.282-1.961 5.706-1.311 1.425-3.062 2.128-5.254 2.128-2.174 0-3.926-.709-5.254-2.151-1.293-1.424-1.938-3.364-1.938-5.812 0-2.278.658-4.134 1.984-5.575 1.328-1.441 3.066-2.164 5.209-2.164h-.001zM121.642 9.895a7.838 7.838 0 0 0-1.451.153c-.016.003-.031.01-.047.013a6.169 6.169 0 0 0-.412.096c-3.994.92-7.896 4.229-7.883 9.598l-.012 15.624h5.584V22.696c0-4.61 1.498-6.936 4.49-6.978 2.992.042 4.488 2.366 4.488 6.978v12.683h5.6l-.014-15.624c.014-5.364-3.893-8.675-7.883-9.598-.156-.036-.303-.078-.459-.107a8.62 8.62 0 0 0-.965-.131h-.023a6.833 6.833 0 0 0-.473-.022h-.035a10.643 10.643 0 0 0-.505-.002zM45.276 19.76c-.019-7.406 7.59-10.904 12.543-9.601l-.015 5.687c0-.103-1.103-.127-2.135-.127-3.121 0-4.679 2.327-4.679 6.98v12.68h-5.722"/></svg>