<svg width="194" height="14" viewBox="0 0 194 14" xmlns="http://www.w3.org/2000/svg"><title>logo-origin-thin</title><desc>Created with Sketch.</desc><g fill="#fff"><path d="M12.667 6.916c0 2.042-.5 3.594-1.502 4.656-1.002 1.063-2.47 1.594-4.4 1.594-1.904 0-3.363-.534-4.38-1.602C1.372 10.496.864 8.94.864 6.9c0-2.02.505-3.563 1.515-4.63C3.388 1.207 4.856.674 6.782.674c1.93 0 3.395.53 4.39 1.586.997 1.056 1.495 2.608 1.495 4.656zm-8.35 0c0 2.346.816 3.52 2.448 3.52.83 0 1.446-.286 1.847-.856.4-.57.602-1.458.602-2.664 0-1.212-.203-2.107-.61-2.686-.407-.578-1.014-.867-1.822-.867-1.644 0-2.466 1.184-2.466 3.553zm23.35-2.192c0 1.356-.4 2.403-1.2 3.142-.8.74-1.936 1.108-3.408 1.108h-.923V13h-3.28V.864h4.202c1.53 0 2.683.335 3.452 1.005.77.668 1.154 1.62 1.154 2.854zM22.136 6.3h.598c.492 0 .884-.137 1.174-.414.29-.276.435-.658.435-1.145 0-.818-.454-1.228-1.36-1.228h-.848v2.79zM40.805 13H33.6V.864h7.205v2.632h-3.927v1.91h3.636v2.63h-3.636v2.29h3.927V13zm17.68 0h-4.3l-4.433-8.55h-.075c.105 1.345.158 2.37.158 3.08V13H46.93V.864h4.283l4.416 8.434h.05c-.08-1.223-.117-2.205-.117-2.947V.865h2.92V13zm14.558-3.686c0 .753-.19 1.42-.573 2.005-.382.583-.932 1.037-1.652 1.36-.72.324-1.563.486-2.53.486-.81 0-1.487-.057-2.035-.17-.548-.114-1.118-.31-1.71-.594V9.48c.625.32 1.276.572 1.95.752.676.18 1.296.27 1.86.27.487 0 .844-.085 1.07-.254.228-.168.34-.386.34-.65 0-.167-.044-.313-.136-.437-.09-.124-.238-.25-.44-.377s-.74-.387-1.614-.78c-.792-.36-1.385-.708-1.78-1.046-.396-.338-.69-.725-.88-1.162-.192-.437-.287-.955-.287-1.552 0-1.118.407-1.99 1.22-2.615.814-.625 1.93-.938 3.354-.938 1.256 0 2.537.29 3.843.872l-1.004 2.53c-1.136-.52-2.115-.78-2.94-.78-.426 0-.736.076-.93.225-.193.15-.29.335-.29.556 0 .238.123.45.37.64.246.188.914.53 2.004 1.03 1.046.47 1.772.974 2.18 1.514.406.54.61 1.218.61 2.037zM89.32 13h-3.296V8.053h-3.81V13H78.92V.864h3.294v4.5h3.81v-4.5h3.296V13zm6.623 0V.864h3.295V13h-3.295zm13.147 0h-3.23V.864h7.173v2.632h-3.943v2.316h3.636v2.63h-3.636V13zm15.29 0h-3.28V3.545h-2.963V.865h9.197v2.68h-2.955V13z"/><path d="M147.202 6.916c0 1.942-.49 3.47-1.473 4.582-.984 1.112-2.35 1.668-4.098 1.668-1.787 0-3.166-.546-4.138-1.64-.97-1.092-1.456-2.635-1.456-4.627 0-1.977.487-3.508 1.46-4.596.974-1.087 2.358-1.63 4.15-1.63 1.744 0 3.105.553 4.085 1.66.98 1.106 1.47 2.634 1.47 4.582zm-9.67 0c0 1.643.35 2.89 1.05 3.74.7.848 1.717 1.273 3.05 1.273 1.345 0 2.36-.424 3.047-1.27.685-.848 1.028-2.095 1.028-3.744 0-1.633-.342-2.87-1.025-3.715-.684-.843-1.695-1.265-3.034-1.265-1.346 0-2.368.425-3.068 1.274-.7.85-1.05 2.084-1.05 3.706zm13.787 1.037V13h-1.412V.864h3.33c1.487 0 2.587.285 3.298.855.71.57 1.067 1.427 1.067 2.572 0 1.605-.813 2.69-2.44 3.254L158.458 13h-1.668l-2.94-5.047h-2.53zm0-1.212h1.933c.997 0 1.727-.197 2.192-.592.465-.396.697-.99.697-1.78 0-.803-.236-1.382-.71-1.736-.473-.354-1.232-.53-2.278-.53h-1.835v4.64zm9.097 6.26V.864h1.41V13h-1.41zm10.077-6.358h4.126v5.9c-.642.206-1.295.36-1.96.466-.663.105-1.433.158-2.307.158-1.837 0-3.268-.546-4.29-1.64-1.025-1.092-1.537-2.624-1.537-4.594 0-1.262.253-2.367.76-3.316.506-.95 1.235-1.674 2.187-2.175.95-.5 2.067-.75 3.345-.75 1.295 0 2.5.238 3.62.714l-.55 1.245c-1.095-.466-2.15-.698-3.16-.698-1.48 0-2.633.44-3.463 1.32-.83.88-1.245 2.1-1.245 3.66 0 1.638.4 2.88 1.2 3.727.8.846 1.974 1.27 3.523 1.27.84 0 1.663-.098 2.465-.29V7.902h-2.714v-1.26zm7.04 6.358V.864h1.41V13h-1.41zm14.218 0h-1.61L183.51 2.815h-.067c.09 1.195.133 2.29.133 3.287V13h-1.303V.864h1.594l6.615 10.144h.067c-.012-.15-.037-.63-.076-1.44-.04-.81-.052-1.39-.04-1.74V.865h1.318V13z"/></g></svg>