<svg version="1.2" baseProfile="tiny" xmlns="http://www.w3.org/2000/svg" width="132" height="55" viewBox="0 0 132 55"><g><path fill="#EF2E32" d="M21.32 23.118c0 2.448.648 4.383 1.943 5.806 1.33 1.44 3.078 2.163 5.254 2.163 2.192 0 3.94-.712 5.253-2.136s1.967-3.327 1.967-5.707-.655-4.282-1.967-5.708c-1.33-1.44-3.08-2.16-5.253-2.16-2.143 0-3.878.72-5.205 2.16-1.327 1.443-1.99 3.306-1.99 5.583m-5.728-.102c0-3.536 1.252-6.545 3.76-9.025 2.507-2.48 5.56-3.72 9.162-3.72 3.617 0 6.687 1.25 9.21 3.746 2.49 2.5 3.735 5.564 3.735 9.2 0 3.67-1.253 6.746-3.76 9.228-2.523 2.463-5.617 3.695-9.283 3.695-3.638 0-6.682-1.258-9.138-3.772-2.46-2.48-3.686-5.598-3.686-9.352"/><path fill="#fff" d="M64.845 1.522c-.78 0-1.44.293-2 .867-.56.572-.842 1.254-.842 2.042 0 .83.283 1.528.842 2.103.56.575 1.23.867 2.02.867.792 0 1.464-.292 2.01-.867.56-.573.833-1.264.833-2.08 0-.812-.273-1.505-.832-2.064-.56-.574-1.24-.867-2.03-.868zm-2.726 8.684V35.38h5.474V10.205H62.12z"/><path fill="#fff" d="M106.777 35.378H101.3V10.205h5.477v25.173zm-5.59-30.95c0-.787.28-1.47.836-2.044.56-.573 1.23-.86 2.006-.86.792 0 1.466.287 2.024.86.56.562.838 1.25.838 2.064s-.28 1.51-.838 2.084c-.545.575-1.213.862-2.004.862-.793 0-1.467-.287-2.025-.862-.56-.574-.838-1.275-.838-2.103"/><g fill="#fff"><g><path d="M6.354 3.795c0-.598-.078-1.13-.236-1.592-.152-.47-.367-.87-.65-1.192C5.194.68 4.86.433 4.47.265 4.085.087 3.66 0 3.192 0c-.473 0-.906.087-1.296.264-.39.176-.727.43-1.01.76-.28.323-.5.72-.657 1.19C.077 2.684 0 3.22 0 3.817c0 .597.076 1.13.227 1.602.156.462.37.86.647 1.19.28.324.615.572 1 .748.39.17.823.253 1.297.253.467 0 .895-.087 1.288-.263.39-.176.726-.425 1.007-.748.28-.332.497-.732.648-1.202.158-.473.236-1.008.236-1.603zM2113.026 258.64c0 .75-.155 1.326-.464 1.728-.303.4-.707.6-1.215.6-.506 0-.918-.203-1.235-.61-.315-.408-.473-.987-.473-1.74s.15-1.327.453-1.73c.31-.398.717-.598 1.224-.598s.92.203 1.236.61c.314.41.473.99.473 1.74z"/><path d="M13.643 2.455c0-.393-.064-.734-.195-1.022-.13-.295-.31-.542-.535-.74-.227-.196-.49-.34-.793-.43-.303-.1-.62-.148-.957-.148h-3.15V7.49h1.44V4.878h1.587c.37 0 .712-.045 1.03-.137.32-.09.6-.235.833-.432.233-.197.416-.446.545-.75.13-.304.195-.675.195-1.103zM2120.32 257.373c0 .64-.343.96-1.03.96h-1.676v-1.898h1.656c.322 0 .576.076.764.23.19.15.287.385.287.71z"/><path d="M20.427 7.493V6.05H16.71V4.27h2.07V2.835h-2.07V1.56h3.563V.118H15.27v7.376h5.157z"/><path d="M28.06 7.493V.117h-1.422V3.627c.006.154.01.31.01.474v.442c.008.135.01.235.01.306-.047-.098-.123-.226-.227-.38-.095-.16-.188-.31-.276-.452L23.6.116h-1.38v7.377h1.42V4.248c0-.105-.003-.235-.01-.39v-.463c0-.162-.005-.31-.01-.44v-.317c.046.098.12.228.214.39.104.154.2.3.29.44l2.646 4.027 1.29-.002z"/></g><g><path d="M34.617 5.554c0-.274-.035-.516-.104-.727-.068-.21-.186-.403-.35-.58-.158-.175-.37-.336-.636-.484-.27-.148-.602-.295-1-.442-.363-.132-.66-.255-.885-.367-.22-.115-.392-.226-.515-.338-.123-.12-.205-.238-.246-.358-.042-.125-.062-.267-.062-.42 0-.147.024-.285.072-.41.055-.136.137-.25.246-.35.117-.097.264-.175.442-.23.178-.063.39-.097.64-.097.362 0 .675.06.935.18.268.114.53.282.792.507l.516-.643c-.302-.246-.624-.44-.967-.58-.336-.14-.746-.21-1.227-.21-.336 0-.645.042-.925.126-.274.084-.51.21-.71.38-.192.16-.344.357-.453.59-.11.23-.164.496-.164.79 0 .268.035.503.102.706.076.204.193.39.35.558.166.162.38.315.64.464.267.14.596.28.987.42.33.12.604.24.825.358.22.113.395.227.526.348.137.12.233.25.286.39.056.14.08.294.08.463 0 .394-.14.7-.42.928-.274.225-.653.336-1.13.336-.372 0-.716-.08-1.032-.242-.315-.16-.61-.375-.885-.643l-.535.613c.29.294.64.54 1.05.738.42.19.875.285 1.37.285.377 0 .713-.053 1.008-.158.297-.105.546-.25.75-.432.206-.183.363-.4.464-.654.11-.253.167-.523.167-.812z"/><path d="M41.732 7.493V.117h-.805v3.15h-3.584V.118h-.802v7.376h.803V4.016h3.584v3.477h.805z"/><path d="M44.736 7.493V.117h-.803v7.376h.803z"/><path d="M51.172.865V.117H46.94v7.376h.802V4.06h1.978v-.75h-1.978V.867l3.43-.002z"/><path d="M57.443.865V.117h-5.047v.748h2.12v6.628h.806V.865h2.12z"/></g></g><path fill="#fff" d="M84.435 10.27c-3.602 0-6.658 1.23-9.166 3.71-2.507 2.48-3.757 5.5-3.757 9.035 0 3.754 1.23 6.863 3.686 9.344 2.456 2.513 5.505 3.78 9.142 3.78 1.64 0 3.164-.257 4.576-.75l1.795 2.78c2.516 3.894 2.48 6.675-.107 8.334-.855.55-4.592 2.09-4.637 1.997l2.4 5.137c4.972-.896 14.585-6.548 8.667-16.05l-3.363-5.206c2.47-2.47 3.71-5.52 3.71-9.165 0-3.636-1.245-6.703-3.735-9.2-2.524-2.495-5.598-3.743-9.215-3.744zm0 5.102c2.174 0 3.928.722 5.254 2.163 1.31 1.425 1.96 3.327 1.96 5.706 0 2.38-.648 4.283-1.96 5.707-1.312 1.425-3.063 2.128-5.255 2.128-2.174 0-3.926-.71-5.254-2.15-1.292-1.425-1.937-3.365-1.937-5.813 0-2.278.658-4.134 1.984-5.575 1.328-1.44 3.066-2.164 5.21-2.164h-.002z"/><path fill="#fff" d="M121.642 9.895c-.168.004-.332.01-.496.022-.326.025-.643.068-.955.13l-.046.014c-.14.03-.277.06-.412.097-3.994.92-7.896 4.23-7.883 9.598l-.013 15.624h5.584V22.695c0-4.61 1.5-6.936 4.49-6.978 2.993.042 4.49 2.366 4.49 6.978V35.38h5.6l-.015-15.625c.014-5.364-3.893-8.675-7.883-9.598-.156-.036-.303-.078-.46-.107-.31-.062-.638-.104-.964-.13-.008-.002-.018 0-.023 0-.16-.015-.314-.02-.473-.023h-.035c-.17-.005-.34-.005-.505-.002z"/><path fill="#fff" d="M45.276 19.76c-.02-7.406 7.59-10.904 12.543-9.6l-.016 5.686c0-.103-1.103-.127-2.135-.127-3.122 0-4.68 2.326-4.68 6.98v12.68h-5.722"/></g></svg>