<svg width="16" height="16" viewBox="0 0 16 16" xmlns="http://www.w3.org/2000/svg"><title>mask-icon</title><desc>Created with Sketch.</desc><g fill-rule="nonzero" fill="#000"><path d="M4.703 7.247l-2.54.925c.032.407.102.81.2 1.204l2.414-.88c-.078-.407-.106-.827-.074-1.25" id="Shape"/><path d="M15.93 4.438c-.176-.366-.38-.72-.618-1.052l-2.54.925c.295.303.543.643.746 1.006l2.413-.878zM10.342 3.718c.53.247.986.583 1.372.978l2.54-.925c-.703-.986-1.66-1.81-2.836-2.36C7.788-.28 3.454 1.295 1.76 4.926c-.547 1.175-.75 2.423-.655 3.632l2.54-.925c.043-.55.177-1.102.423-1.63 1.1-2.36 3.915-3.384 6.274-2.284M2.522 9.318l-2.414.88c.222.88.606 1.715 1.135 2.46l2.535-.923c-.65-.668-1.083-1.514-1.256-2.417" id="Shape"/><path d="M13.05 8.36c-.04.55-.178 1.102-.425 1.63-1.1 2.36-3.915 3.385-6.274 2.285-.528-.247-.99-.58-1.374-.976l-2.535.922c.703.987 1.66 1.812 2.836 2.36 3.63 1.694 7.963.117 9.656-3.514.55-1.175.75-2.423.654-3.63l-2.535.922zM13.676 5.26l-2.414.877c.45.804.66 1.73.59 2.66l2.536-.923c-.073-.91-.315-1.798-.712-2.615"/></g></svg>