<svg width="16" height="16" viewBox="0 0 16 16" xmlns="http://www.w3.org/2000/svg"><title>Shape</title><path d="M7.928 0c2.162 0 4.036.865 5.622 2.306 1.585 1.442 2.306 3.46 2.306 5.622s-.865 4.036-2.306 5.766C11.964 15.135 10.09 16 7.928 16s-3.892-.865-5.622-2.306C.865 11.964 0 9.946 0 7.784s.865-4.036 2.306-5.622C3.748.577 5.91 0 7.928 0zM2.883 7.928c0 1.441.432 2.595 1.441 3.748 1.01 1.009 2.162 1.585 3.604 1.585 1.297 0 2.595-.432 3.604-1.585 1.009-1.01 1.441-2.307 1.441-3.748 0-1.442-.432-2.739-1.441-3.748-.865-1.153-2.018-1.585-3.604-1.585-1.297 0-2.45.432-3.46 1.585C3.46 5.19 2.883 6.486 2.883 7.928z" fill="#000" fill-rule="nonzero"/></svg>