<svg xmlns="http://www.w3.org/2000/svg" width="216" height="216" viewBox="0 0 216 216"><g fill="#DB242F"><path d="M78.621 78.245l-23.025 8.379c.294 3.692.931 7.339 1.824 10.911l21.873-7.964c-.711-3.697-.963-7.509-.672-11.326M180.379 52.784c-1.605-3.312-3.463-6.514-5.615-9.53l-23.021 8.378c2.679 2.741 4.927 5.82 6.765 9.114l21.871-7.962z"/><path d="M129.725 46.263c4.789 2.235 8.938 5.284 12.437 8.859l23.022-8.38a65.469 65.469 0 0 0-25.705-21.39C106.569 10.006 67.305 24.296 51.96 57.2a65.423 65.423 0 0 0-5.946 32.912l23.024-8.378c.382-4.988 1.601-9.987 3.831-14.78 9.971-21.381 35.475-30.659 56.856-20.691M58.854 97.011l-21.875 7.967a66.668 66.668 0 0 0 10.287 22.297l22.973-8.361c-5.897-6.057-9.819-13.718-11.385-21.903"/><path d="M154.277 88.331a42.224 42.224 0 0 1-3.863 14.782c-9.971 21.383-35.476 30.661-56.854 20.692a42.337 42.337 0 0 1-12.463-8.844l-22.974 8.363A65.29 65.29 0 0 0 83.81 144.72c32.91 15.344 72.169 1.053 87.515-31.855a65.186 65.186 0 0 0 5.926-32.895l-22.974 8.361zM159.938 60.224l-21.873 7.962c4.062 7.279 5.981 15.662 5.354 24.091l22.973-8.357a66.347 66.347 0 0 0-6.454-23.696"/></g><g fill="#251F21"><path d="M37.346 175.777c-2.863 0-4.761 2.309-4.761 6.455 0 4.148 1.985 6.514 4.849 6.514 2.862 0 4.76-2.307 4.76-6.455s-1.986-6.514-4.848-6.514m.029 17.028c-5.346 0-8.996-3.912-8.996-10.514s3.709-10.574 9.055-10.574c5.315 0 8.967 3.916 8.967 10.516-.001 6.601-3.71 10.572-9.026 10.572M59.653 176.012H54.95v5.256h4.761c1.898 0 2.922-.877 2.922-2.656 0-1.782-1.17-2.6-2.98-2.6m-.205 9.23H54.95v7.242h-4.089v-20.445h8.938c3.855 0 7.039 2.133 7.039 6.484 0 4.733-3.154 6.719-7.39 6.719M71.066 192.484v-20.443h14.196v4H75.155v3.533h5.87v3.973h-5.87v4.935h10.544v4.002zM103.304 192.484l-7.507-11.158c-.496-.758-1.168-1.781-1.43-2.307 0 .76.058 3.33.058 4.469v8.996h-4.031v-20.443h3.914l7.244 10.805c.495.76 1.168 1.783 1.431 2.307 0-.76-.059-3.328-.059-4.469v-8.643h4.031v20.443h-3.651zM119.397 192.805c-2.775 0-5.259-1.197-6.864-2.832l1.52-1.695c1.547 1.49 3.328 2.455 5.432 2.455 2.717 0 4.411-1.344 4.411-3.506 0-1.898-1.14-2.979-4.878-4.322-4.41-1.578-5.9-3.008-5.9-5.959 0-3.27 2.571-5.229 6.396-5.229 2.746 0 4.498.818 6.222 2.191l-1.461 1.781c-1.489-1.227-2.862-1.898-4.906-1.898-2.804 0-3.973 1.402-3.973 3.008 0 1.695.76 2.658 4.849 4.121 4.527 1.635 5.93 3.152 5.93 6.191-.001 3.213-2.514 5.694-6.778 5.694M143.69 192.484v-9.638h-10.164v9.638h-2.278v-20.443h2.278v8.732h10.164v-8.732h2.279v20.443zM151.832 172.041h2.277v20.443h-2.277zM162.252 174.111v6.778h5.607v2.074h-5.607v9.521h-2.277v-20.443h12.004v2.07zM176.066 172.039v2.074h6.017v18.371h2.278v-18.371h6.018v-2.074z"/></g></svg>