<svg id="Layer_1" xmlns="http://www.w3.org/2000/svg" viewBox="0 0 181.9 193.7"><style>.st0{fill:#bb1c29}.st1{fill:#e12434}.st2{fill:#960f1b}</style><path d="M47 165.3l-2.6-5.3h-1.8v5.3h-4.3v-15.7h7c.9 0 1.7.1 2.5.3.8.2 1.4.5 1.9.9s1 .9 1.2 1.6c.3.6.4 1.4.4 2.4 0 1.2-.3 2.1-.8 2.9-.5.7-1.2 1.3-2.1 1.7l3.1 6H47zm-.2-11.6c-.3-.3-.8-.5-1.5-.5h-2.6v3.4h2.6c.7 0 1.2-.1 1.5-.4.3-.3.5-.7.5-1.3-.1-.5-.2-.9-.5-1.2zM55.1 165.3v-15.7h12v3.6h-7.7v2.1H64v3.6h-4.6v2.7h7.9v3.6H55.1zM83.7 161.2c-.4 1-.9 1.8-1.6 2.4s-1.6 1.1-2.7 1.3c-1.1.3-2.3.4-3.7.4h-5.1v-15.7h5.5c1.2 0 2.3.1 3.3.4 1 .3 1.8.7 2.5 1.3.7.6 1.2 1.4 1.6 2.4.4 1 .6 2.2.6 3.7.2 1.5 0 2.7-.4 3.8zm-4.1-5.6c-.1-.5-.3-.9-.6-1.3-.3-.3-.7-.6-1.1-.7-.5-.2-1-.2-1.7-.2h-1.1v8.2h.9c.7 0 1.2-.1 1.7-.2s.9-.4 1.2-.7c.3-.3.5-.7.7-1.3.1-.5.2-1.2.2-2 0-.6 0-1.2-.2-1.8zM104.9 165.3v-6.2H100v6.2h-4.4v-15.7h4.4v5.7h4.9v-5.7h4.4v15.7h-4.4zM123.3 165.3l-.9-2.8h-4.7l-.9 2.8h-4.7l5.7-15.7h4.4l5.7 15.7h-4.6zm-2.2-7.2c-.1-.5-.3-.9-.4-1.3-.1-.4-.2-.7-.3-1-.1-.3-.2-.6-.2-.8-.1-.2-.1-.5-.2-.8 0 .3-.1.5-.2.8-.1.3-.1.5-.2.8-.1.3-.2.6-.3 1-.1.4-.2.8-.4 1.3l-.3 1h2.6l-.1-1zM136.9 153.5v11.9h-4.3v-11.9h-4.4v-3.8h13.1v3.8h-4.4zM147.1 152.4c-.1.2-.2.5-.4.6-.2.2-.4.3-.6.4-.2.1-.5.2-.8.2s-.6-.1-.8-.2c-.2-.1-.5-.2-.6-.4-.2-.2-.3-.4-.4-.6-.1-.2-.2-.5-.2-.8s.1-.6.2-.8c.1-.2.2-.5.4-.6.2-.2.4-.3.6-.4.2-.1.5-.2.8-.2s.6.1.8.2c.2.1.5.2.6.4.2.2.3.4.4.6.1.2.2.5.2.8s-.1.5-.2.8zm-.3-1.5c-.1-.2-.2-.4-.4-.5-.2-.2-.3-.3-.5-.4-.2-.1-.4-.1-.7-.1-.2 0-.5 0-.7.1-.2.1-.4.2-.5.4-.2.2-.3.3-.4.5-.1.2-.1.4-.1.7 0 .2 0 .5.1.7.1.2.2.4.4.5.2.2.3.3.5.4.2.1.4.1.7.1.2 0 .5 0 .7-.1.2-.1.4-.2.5-.4.2-.2.3-.3.4-.5.1-.2.1-.4.1-.7 0-.3 0-.5-.1-.7zm-.8.6c-.1.1-.2.2-.3.2l.5.9h-.4l-.4-.9h-.4v.9h-.4v-2.2h1.3c.1 0 .2.1.2.1l.2.2c0 .1.1.2.1.3-.2.3-.3.4-.4.5zm-.3-.6c-.1-.1-.2-.1-.3-.1h-.6v.6h.6c.1 0 .2 0 .3-.1.1-.1.1-.1.1-.2s0-.2-.1-.2zM18.8 186.4c-.5 1.5-1.1 2.8-2 3.8-.9 1.1-1.9 1.9-3.1 2.5-1.2.6-2.5.9-4 .9s-2.8-.3-4-.9c-1.2-.6-2.2-1.4-3.1-2.5-.9-1.1-1.5-2.4-2-3.8-.4-1.4-.6-3-.6-4.8 0-1.8.2-3.4.7-4.9.5-1.5 1.1-2.8 2-3.8.9-1.1 1.9-1.9 3.1-2.5 1.2-.6 2.5-.9 4-.9s2.8.3 4 .9c1.2.6 2.2 1.4 3.1 2.5.9 1.1 1.5 2.4 2 3.8s.7 3.1.7 4.9c-.1 1.7-.3 3.3-.8 4.8zm-2.5-8.8c-.4-1.2-.9-2.2-1.5-3.1-.6-.9-1.4-1.5-2.3-2-.9-.5-1.8-.7-2.9-.7-1 0-1.9.2-2.8.7-.9.5-1.6 1.1-2.2 1.9-.6.8-1.1 1.9-1.5 3.1-.4 1.2-.5 2.5-.5 4s.2 2.8.6 4c.4 1.2.9 2.2 1.5 3.1.6.9 1.4 1.5 2.3 2 .9.5 1.8.7 2.9.7 1 0 1.9-.2 2.8-.7.9-.5 1.6-1.1 2.3-1.9.6-.8 1.1-1.9 1.5-3.1.4-1.2.5-2.5.5-4-.1-1.5-.3-2.8-.7-4zM41.4 180c-.4.9-.9 1.7-1.6 2.3-.7.6-1.5 1.1-2.5 1.4-1 .3-2.1.5-3.2.5h-5.7v9.2h-2.6v-23.5h8.8c1.1 0 2.1.1 3 .4.9.3 1.7.7 2.4 1.3.7.6 1.2 1.3 1.6 2.2.4.9.6 1.9.6 3.1-.2 1.1-.4 2.1-.8 3.1zm-3.3-6.6c-.9-.8-2.1-1.2-3.7-1.2h-6.1v9.5H34c3.5 0 5.3-1.6 5.3-4.8.1-1.5-.4-2.6-1.2-3.5zM47.5 193.3v-23.5h14.2v2.4H50.1v7.4h6.7v2.4h-6.7v9h12.1v2.4H47.5zM82.6 193.3l-10.2-16.1c-.1-.2-.3-.4-.4-.7-.2-.3-.3-.6-.5-.8-.2-.3-.3-.5-.5-.8-.1-.2-.3-.4-.3-.6v19h-2.6v-23.5h2.6l10.2 16.4c.1.2.3.4.4.7.2.3.3.6.5.8.2.3.3.5.5.8.1.2.3.4.3.6v-19.3h2.6v23.5h-2.6zM106.2 189.7c-.3.8-.9 1.5-1.5 2.1-.7.6-1.5 1-2.5 1.4-1 .3-2.1.5-3.3.5-1.6 0-3.1-.3-4.4-.9-1.4-.6-2.5-1.4-3.4-2.3l1.7-1.9c.9.9 1.9 1.5 2.9 2s2.1.8 3.4.8c1.6 0 2.8-.4 3.7-1.1.9-.7 1.4-1.7 1.4-3 0-.5-.1-1-.3-1.5-.2-.4-.5-.9-.9-1.2-.4-.4-1-.8-1.7-1.1-.7-.4-1.6-.7-2.7-1.1-1.3-.4-2.3-.9-3.2-1.4-.9-.5-1.6-1-2.1-1.5s-.9-1.1-1.1-1.8c-.2-.6-.4-1.4-.4-2.2 0-.9.2-1.8.5-2.5.4-.7.9-1.4 1.5-1.9s1.4-.9 2.3-1.2c.9-.3 1.9-.4 3-.4 1.6 0 2.9.2 4 .7 1.1.4 2.2 1.1 3.1 1.8l-1.7 2c-.9-.7-1.7-1.3-2.6-1.6-.9-.4-1.9-.6-3.1-.6-.8 0-1.5.1-2.1.3-.6.2-1.1.4-1.4.8-.4.3-.6.7-.8 1.1-.2.4-.3.9-.3 1.3 0 .5.1.9.2 1.3s.4.8.8 1.1c.4.4 1 .7 1.7 1.1.7.4 1.7.8 2.9 1.2 1.3.5 2.4.9 3.3 1.4.9.5 1.6 1 2.1 1.5.5.6.9 1.2 1.1 1.8.2.7.3 1.4.3 2.3.1 1.1 0 1.9-.4 2.7zM127.5 193.3v-11.1h-11.7v11.1h-2.6v-23.5h2.6v10h11.7v-10h2.6v23.5h-2.6zM137.5 193.3v-23.5h2.6v23.5h-2.6zM150.1 172.2v7.8h6.4v2.4h-6.4v10.9h-2.6v-23.5h13.8v2.4h-11.2zM174.9 172.2v21.1h-2.6v-21.1h-6.9v-2.4h16.5v2.4h-7z"/><g><path class="st0" d="M61 59.4l-23.2 8.4c.3 3.7.9 7.4 1.8 11l22-8c-.7-3.7-.9-7.5-.6-11.4M163.4 33.8c-1.6-3.3-3.5-6.6-5.7-9.6l-23.2 8.4c2.7 2.8 5 5.9 6.8 9.2l22.1-8z"/><path class="st1" d="M112.4 27.2c4.8 2.2 9 5.3 12.5 8.9l23.2-8.4c-6.4-9-15.2-16.5-25.9-21.5C89.1-9.2 49.6 5.1 34.1 38.3c-5 10.7-6.9 22.1-6 33.1L51.3 63c.4-5 1.6-10 3.9-14.9 10-21.5 35.7-30.9 57.2-20.9M41.1 78.3l-22 8c2 8 5.5 15.7 10.3 22.4l23.1-8.4c-5.9-6-9.9-13.8-11.4-22M137.1 69.6c-.4 5-1.6 10-3.9 14.9-10 21.5-35.7 30.9-57.2 20.8-4.8-2.3-9-5.3-12.5-8.9l-23.1 8.4c6.4 9 15.1 16.5 25.8 21.5 33.1 15.4 72.6 1.1 88.1-32.1 5-10.7 6.8-22.1 6-33.1l-23.2 8.5zM142.8 41.3l-22 8c4.1 7.3 6 15.8 5.4 24.2l23.1-8.4c-.7-8.3-2.9-16.4-6.5-23.8"/><path class="st2" d="M60.9 64.1c-.1-1.5 0-3.1.1-4.7l-23.2 8.4c.1 1.5.3 3 .5 4.4l22.6-8.1zM160 27.7c-.7-1.2-1.5-2.4-2.3-3.5l-23.2 8.4c1 1 2 2.1 2.9 3.3l22.6-8.2z"/><path class="st0" d="M40.3 104.8c1.8 2.5 3.8 4.9 5.9 7.2l25.2-9.2c-2.9-1.8-5.6-4-7.9-6.4l-23.2 8.4zm119.9-43.6l-23.1 8.4c-.2 3.3-.9 6.7-2 10l25.2-9.2c.2-3.1.2-6.2-.1-9.2"/></g></svg>