<svg xmlns="http://www.w3.org/2000/svg" width="216" height="216" viewBox="0 0 216 216"><g fill="#DB242F"><path d="M78.62 78.245l-23.024 8.38c.294 3.69.93 7.338 1.824 10.91l21.873-7.964c-.71-3.696-.963-7.508-.672-11.325"/><path d="M180.38 52.784c-1.606-3.312-3.464-6.514-5.616-9.53l-23.02 8.378c2.678 2.74 4.926 5.82 6.764 9.114l21.87-7.962zM129.725 46.263c4.79 2.235 8.938 5.284 12.437 8.86l23.022-8.38c-6.377-8.948-15.063-16.425-25.705-21.39-32.91-15.347-72.175-1.057-87.52 31.847-4.967 10.65-6.812 21.96-5.946 32.912l23.024-8.378c.382-4.988 1.6-9.987 3.83-14.78 9.972-21.38 35.476-30.66 56.857-20.69M58.854 97.01L36.98 104.98c2.01 7.977 5.495 15.553 10.286 22.297l22.973-8.36c-5.898-6.058-9.82-13.72-11.386-21.904"/><path d="M154.277 88.33c-.367 4.986-1.625 9.986-3.863 14.783-9.97 21.383-35.476 30.66-56.854 20.692-4.796-2.238-8.976-5.262-12.463-8.844l-22.974 8.364c6.36 8.947 15.04 16.428 25.687 21.396 32.91 15.344 72.17 1.053 87.515-31.855 4.97-10.644 6.804-21.952 5.926-32.895l-22.973 8.36zM159.938 60.224l-21.873 7.962c4.062 7.28 5.98 15.662 5.354 24.09l22.972-8.356c-.658-8.245-2.857-16.292-6.454-23.696"/></g><g fill="#251F21"><path d="M37.346 175.777c-2.863 0-4.76 2.31-4.76 6.455 0 4.148 1.984 6.514 4.848 6.514 2.862 0 4.76-2.307 4.76-6.455s-1.986-6.513-4.848-6.513m.03 17.028c-5.347 0-8.997-3.912-8.997-10.514s3.708-10.573 9.054-10.573c5.315 0 8.967 3.916 8.967 10.516s-3.71 10.572-9.025 10.572M59.653 176.012H54.95v5.256h4.76c1.9 0 2.923-.877 2.923-2.656 0-1.782-1.17-2.6-2.98-2.6m-.205 9.23H54.95v7.242h-4.09V172.04h8.94c3.854 0 7.038 2.132 7.038 6.483 0 4.733-3.154 6.72-7.39 6.72"/><path d="M71.066 192.484V172.04h14.196v4H75.155v3.534h5.87v3.973h-5.87v4.935H85.7v4.002zM103.304 192.484l-7.507-11.158c-.496-.758-1.168-1.78-1.43-2.307 0 .76.058 3.33.058 4.468v8.996h-4.03V172.04h3.913l7.244 10.806c.495.76 1.168 1.783 1.43 2.307 0-.76-.058-3.328-.058-4.47v-8.642h4.03v20.444h-3.65zM119.397 192.805c-2.775 0-5.26-1.197-6.864-2.832l1.52-1.695c1.547 1.49 3.328 2.455 5.432 2.455 2.717 0 4.41-1.344 4.41-3.506 0-1.898-1.14-2.98-4.877-4.322-4.41-1.578-5.9-3.008-5.9-5.96 0-3.27 2.57-5.228 6.396-5.228 2.746 0 4.498.818 6.222 2.19l-1.46 1.782c-1.49-1.228-2.863-1.9-4.907-1.9-2.805 0-3.974 1.403-3.974 3.01 0 1.694.76 2.657 4.85 4.12 4.526 1.635 5.93 3.152 5.93 6.19-.002 3.214-2.515 5.695-6.78 5.695"/><path d="M143.69 192.484v-9.638h-10.164v9.638h-2.278V172.04h2.278v8.733h10.164v-8.732h2.28v20.444zM151.832 172.04h2.277v20.444h-2.278zM162.252 174.11v6.78h5.607v2.073h-5.608v9.52h-2.277v-20.442h12.004v2.07zM176.066 172.04v2.073h6.017v18.37h2.278v-18.37h6.02v-2.074z"/></g></svg>