<svg version="1.2" baseProfile="tiny" xmlns="http://www.w3.org/2000/svg" width="128" height="42" viewBox="122.431 337.623 128 42"><g><path fill="#fff" d="M160.233 369.79c-.792-.182-1.632-.296-2.48-.296-1.454 0-2.776.25-3.752.658-.106.053-.183.166-.183.293 0 .047.012.094.03.134.114.332-.075.695-1.02.903-1.398.307-2.282 1.75-2.787 2.23-.594.564-2.27.91-2.018.574.197-.262.952-1.082 1.41-1.967.412-.792.777-1.017 1.28-1.772.148-.22.72-1 .888-1.615.187-.6.124-1.355.196-1.666.103-.448.526-1.42.558-1.968.02-.312-1.296.442-1.92.442s-1.23-.374-1.787-.4c-.69-.032-1.132.532-1.756.433-.354-.057-.655-.37-1.277-.394-.886-.03-1.97.494-4.003.43-2-.066-3.85-2.53-4.1-2.922-.296-.46-.658-.46-1.05-.098-.395.36-.88.077-1.02-.166-.26-.458-.962-1.8-2.05-2.082-1.502-.39-2.263.832-2.164 1.804.1.986.738 1.263 1.034 1.788.295.525.446.862 1.002 1.095.394.164.54.406.423.73-.103.28-.513.346-.782.36-.572.026-.974-.13-1.267-.315-.34-.218-.617-.52-.915-1.03-.343-.564-.884-.81-1.515-.81-.3 0-.582.078-.832.207-.99.515-2.165.82-3.432.82h-1.428c2.74 8.125 10.423 13.977 19.473 13.977 7.23-.003 13.587-3.735 17.248-9.38z"/><g><g fill="#fff"><path d="M163.322 368.693h.186l.28.46h.18l-.303-.47c.157-.018.276-.1.276-.29 0-.21-.123-.3-.373-.3h-.404v1.06h.16v-.46zm0-.136v-.33h.22c.11 0 .23.026.23.157 0 .163-.12.173-.257.173h-.193zM164.55 368.624c0 .572-.464 1.038-1.037 1.038s-1.04-.466-1.04-1.038c0-.573.467-1.04 1.04-1.04s1.038.467 1.038 1.04zm-1.037-.855c-.472 0-.855.382-.855.854 0 .47.383.852.855.852.47 0 .854-.38.854-.852s-.383-.855-.854-.855z"/></g><path d="M160.233 369.792c-.792-.183-1.632-.296-2.48-.296-1.454 0-2.776.252-3.752.657-.106.054-.183.166-.183.294 0 .046.012.095.03.133.114.334-.075.697-1.02.904-1.398.308-2.282 1.75-2.787 2.232-.594.562-2.27.91-2.018.574.197-.263.952-1.083 1.41-1.968.412-.79.777-1.017 1.28-1.77.148-.223.72-1 .888-1.617.187-.6.124-1.355.196-1.666.103-.45.526-1.42.558-1.97.02-.31-1.296.443-1.92.443s-1.23-.373-1.787-.4c-.69-.033-1.132.532-1.756.433-.354-.057-.655-.37-1.277-.394-.886-.033-1.97.493-4.003.427-2-.065-3.85-2.53-4.1-2.92-.296-.46-.658-.46-1.05-.1-.395.36-.88.078-1.02-.164-.26-.46-.962-1.802-2.05-2.083-1.502-.39-2.263.832-2.164 1.804.1.986.738 1.263 1.034 1.787.295.525.446.865 1.002 1.097.394.164.54.408.423.73-.103.283-.513.347-.782.36-.572.027-.974-.128-1.267-.316-.34-.216-.617-.518-.915-1.03-.343-.564-.884-.81-1.515-.81-.3 0-.582.08-.832.208-.99.514-2.165.82-3.432.82h-1.428c-.696-2.063-1.072-4.272-1.072-6.57 0-11.346 9.2-20.544 20.545-20.544 11.347 0 20.545 9.198 20.545 20.545 0 4.118-1.21 7.952-3.297 11.17z"/><path fill="#fff" d="M174.003 359.92c0-1.885-.04-3.27-.115-4.524h3.082l.132 2.673h.1c.693-1.982 2.335-2.993 3.854-2.993.348 0 .55.013.834.077v3.353c-.333-.066-.644-.102-1.072-.102-1.696 0-2.873 1.08-3.19 2.692-.06.313-.092.69-.092 1.074v7.3h-3.562l.03-9.55zM186.187 363.392c.094 2.55 2.068 3.667 4.348 3.667 1.637 0 2.808-.257 3.884-.653l.526 2.45c-1.204.51-2.876.892-4.918.892-4.57 0-7.25-2.824-7.25-7.136 0-3.885 2.357-7.56 6.885-7.56 4.577 0 6.066 3.763 6.066 6.845 0 .66-.06 1.19-.127 1.52l-9.416-.028zm6.19-2.48c.016-1.304-.55-3.43-2.935-3.43-2.19 0-3.102 1.988-3.262 3.43h6.197zM207.506 363.368c0 .373-.026.72-.108 1.038-.358 1.54-1.618 2.533-3.073 2.533-2.24 0-3.523-1.89-3.523-4.477 0-2.61 1.27-4.632 3.563-4.632 1.6 0 2.746 1.13 3.06 2.5.062.288.08.644.08.928v2.11zm3.556-13.392l-3.557-1.003v7.94h-.06c-.628-1.04-2.017-1.834-3.943-1.834-3.385 0-6.332 2.8-6.31 7.516 0 4.327 2.66 7.193 6.022 7.193 2.03 0 3.73-.97 4.57-2.545h.063l.16 2.23h3.17c-.065-.958-.117-2.508-.117-3.95v-15.55h.002zM220.474 355.062c-1.072 0-2.032.31-2.84.807-.837.49-1.518 1.247-1.924 2.03h-.056v-6.587l-1.394-.412v18.57h1.394v-8.614c0-.572.043-.97.19-1.388.6-1.753 2.252-3.19 4.248-3.19 2.884 0 3.882 2.313 3.882 4.85v8.343h1.392v-8.496c0-5.246-3.557-5.912-4.892-5.912zM237.87 366.125c0 1.114.046 2.268.207 3.346h-1.283l-.205-2.018h-.067c-.683 1.085-2.252 2.34-4.49 2.34-2.835 0-4.154-1.994-4.154-3.873 0-3.252 2.87-5.21 8.6-5.15v-.377c0-1.394-.27-4.173-3.603-4.15-1.233 0-2.517.33-3.536 1.048l-.442-1.012c1.287-.872 2.858-1.217 4.132-1.217 4.065 0 4.843 3.053 4.843 5.57v5.495h-.002zm-1.392-4.183c-3.067-.088-7.118.376-7.118 3.76 0 2.023 1.336 2.933 2.804 2.933 2.348 0 3.682-1.453 4.168-2.824.1-.3.146-.602.146-.843v-3.025zM243.418 352.28v3.104h4.016v1.13h-4.016v9.156c0 1.79.556 2.913 2.07 2.913.726 0 1.24-.095 1.6-.22l.17 1.078c-.456.192-1.095.34-1.945.34-1.028 0-1.88-.324-2.43-1-.64-.74-.857-1.922-.857-3.36v-8.907h-2.378v-1.13h2.378v-2.59l1.392-.513z"/><g fill="#fff"><path d="M249.194 368.722h.185l.278.458h.18l-.3-.468c.156-.02.275-.1.275-.29 0-.21-.125-.302-.375-.302h-.404v1.06h.16v-.458zm0-.137v-.33h.218c.11 0 .23.025.23.156 0 .164-.12.174-.257.174h-.19zM250.423 368.65c0 .574-.466 1.04-1.04 1.04-.57 0-1.037-.466-1.037-1.04 0-.572.467-1.037 1.038-1.037.574 0 1.04.465 1.04 1.038zm-1.04-.854c-.472 0-.853.383-.853.855s.38.853.854.853c.472 0 .854-.38.854-.852 0-.47-.383-.854-.854-.854z"/></g><path d="M147.51 367.907c.105.103.288.45.065.89-.125.233-.26.397-.5.59-.29.23-.854.498-1.63.007-.415-.264-.44-.354-1.016-.28-.412.055-.575-.36-.428-.705.148-.345.755-.624 1.51-.18.34.198.868.62 1.332.247.192-.154.307-.256.573-.565.013-.013.03-.02.048-.02.018 0 .034.006.045.015z"/></g><path fill="#c00" d="M141.386 347.86c-2.373.172-2.62.43-3.064.902-.627.667-1.453-.866-1.453-.866-.496-.104-1.097-.903-.773-1.65.32-.737.91-.515 1.094-.286.226.28.706.737 1.33.72.622-.015 1.34-.146 2.343-.146 1.016 0 1.7.38 1.737.705.032.277-.083.54-1.214.62zm2.493-3.92h-.012c-.037 0-.066-.028-.066-.062 0-.025.015-.046.038-.057.46-.242 1.146-.436 1.932-.516.236-.024.466-.036.688-.038h.117c1.317.03 2.37.553 2.355 1.168-.016.617-1.095 1.092-2.412 1.062-.426-.01-.827-.072-1.17-.17-.042-.012-.07-.046-.07-.087s.03-.078.07-.088c.822-.19 1.376-.5 1.337-.794-.05-.39-1.126-.602-2.4-.473-.14.016-.276.034-.408.055zm10.7 9.217c-.205.683-.493 1.555-1.777 2.215-.188.096-.26-.062-.172-.21.486-.824.573-1.03.714-1.356.197-.477.3-1.154-.092-2.567-.773-2.782-2.385-6.5-3.557-7.704-1.13-1.164-3.18-1.49-5.03-1.016-.684.175-2.017.87-4.492.312-4.282-.965-4.917 1.18-5.162 2.113-.245.935-.835 3.59-.835 3.59-.197 1.08-.454 2.96 6.195 4.228 3.098.59 3.255 1.39 3.392 1.966.247 1.03.64 1.622 1.082 1.917.442.296 0 .54-.49.59-1.32.137-6.196-1.26-9.08-2.9-2.36-1.442-2.4-2.74-1.86-3.842-3.565-.386-6.24.334-6.725 2.02-.834 2.897 6.366 7.845 14.565 10.328 8.604 2.605 17.454.786 18.438-4.622.446-2.458-1.624-4.276-5.114-5.063z"/></g></svg>