<svg version="1.2" baseProfile="tiny" xmlns="http://www.w3.org/2000/svg" width="128" height="42" viewBox="122.431 337.623 128 42"><path fill="#FFF" d="M160.233 369.79a11.134 11.134 0 0 0-2.481-.296c-1.453 0-2.775.251-3.751.658a.331.331 0 0 0-.184.293.35.35 0 0 0 .029.134c.115.333-.074.696-1.018.904-1.399.307-2.283 1.751-2.788 2.23-.594.564-2.271.91-2.018.574.197-.262.952-1.082 1.411-1.967.411-.792.776-1.017 1.28-1.772.147-.221.72-1 .887-1.615.187-.601.124-1.355.196-1.666.103-.448.526-1.419.558-1.968.019-.311-1.296.443-1.919.443s-1.23-.374-1.788-.4c-.689-.032-1.132.532-1.756.433-.355-.057-.656-.371-1.278-.394-.886-.032-1.969.493-4.003.428-2-.065-3.849-2.529-4.101-2.921-.295-.459-.657-.459-1.05-.098-.394.36-.879.077-1.018-.166-.262-.458-.963-1.8-2.05-2.082-1.503-.39-2.264.832-2.165 1.804.101.986.738 1.263 1.034 1.788.295.525.446.862 1.002 1.095.394.165.54.407.423.731-.103.281-.513.346-.782.359-.572.027-.974-.128-1.267-.314-.34-.218-.617-.519-.915-1.03-.344-.564-.885-.811-1.516-.811-.301 0-.582.079-.832.208a7.437 7.437 0 0 1-3.432.819l-1.429.001c2.74 8.125 10.423 13.977 19.473 13.977 7.229-.002 13.587-3.734 17.248-9.379z"/><g fill="#FFF"><path d="M163.322 368.693h.186l.28.459h.18l-.303-.468c.157-.019.276-.101.276-.29 0-.21-.124-.302-.374-.302h-.404v1.06h.16v-.459h-.001zm0-.136v-.329h.219c.111 0 .231.025.231.156 0 .163-.121.173-.257.173h-.193z"/><path d="M164.551 368.624a1.039 1.039 0 1 1-2.078-.002 1.039 1.039 0 0 1 2.078.002zm-1.038-.855a.853.853 0 1 0 0 1.707.853.853 0 1 0 0-1.707z"/></g><path d="M160.233 369.792a11.076 11.076 0 0 0-2.481-.296c-1.453 0-2.775.252-3.751.657a.333.333 0 0 0-.184.294.34.34 0 0 0 .029.133c.115.334-.074.697-1.018.904-1.399.308-2.283 1.751-2.788 2.232-.594.562-2.271.91-2.018.574.197-.263.952-1.083 1.411-1.968.411-.791.776-1.017 1.28-1.771.147-.222.72-1 .887-1.616.187-.601.124-1.355.196-1.666.103-.448.526-1.419.558-1.968.019-.31-1.296.442-1.919.442s-1.23-.373-1.788-.4c-.689-.033-1.132.532-1.756.433-.355-.057-.656-.37-1.278-.394-.886-.033-1.969.493-4.003.427-2-.064-3.849-2.528-4.101-2.919-.295-.46-.657-.46-1.05-.099-.394.36-.879.077-1.018-.165-.262-.459-.963-1.802-2.05-2.083-1.503-.39-2.264.832-2.165 1.804.101.986.738 1.263 1.034 1.787.295.525.446.865 1.002 1.097.394.163.54.407.423.73-.103.282-.513.346-.782.359-.572.027-.974-.128-1.267-.316-.34-.216-.617-.518-.915-1.03-.344-.564-.885-.81-1.516-.81-.301 0-.582.08-.832.208a7.45 7.45 0 0 1-3.432.819h-1.429a20.501 20.501 0 0 1-1.072-6.568c0-11.347 9.199-20.545 20.545-20.545 11.347 0 20.545 9.198 20.545 20.545 0 4.118-1.211 7.952-3.297 11.169z"/><path fill="#FFF" d="M174.003 359.919c0-1.884-.039-3.27-.115-4.523h3.082l.132 2.673h.101c.692-1.981 2.334-2.992 3.853-2.992.348 0 .55.013.834.077v3.353a5.169 5.169 0 0 0-1.072-.102c-1.696 0-2.873 1.079-3.19 2.692-.06.313-.092.69-.092 1.074v7.299h-3.562l.029-9.551zM186.187 363.392c.094 2.55 2.068 3.667 4.348 3.667 1.637 0 2.808-.256 3.884-.652l.527 2.449c-1.204.511-2.876.893-4.918.893-4.571 0-7.249-2.823-7.249-7.135 0-3.885 2.356-7.561 6.884-7.561 4.577 0 6.066 3.764 6.066 6.846 0 .661-.059 1.192-.126 1.521l-9.416-.028zm6.19-2.48c.016-1.304-.551-3.43-2.935-3.43-2.191 0-3.102 1.988-3.262 3.43h6.197zM207.506 363.368c0 .373-.026.721-.108 1.038-.358 1.541-1.618 2.533-3.073 2.533-2.241 0-3.523-1.889-3.523-4.476 0-2.611 1.271-4.632 3.563-4.632 1.601 0 2.746 1.128 3.061 2.499.061.288.08.644.08.928v2.11zm3.556-13.392l-3.557-1.003v7.939h-.059c-.629-1.04-2.018-1.833-3.944-1.833-3.385 0-6.332 2.801-6.311 7.517 0 4.327 2.662 7.193 6.023 7.193 2.031 0 3.729-.968 4.57-2.544h.063l.159 2.229h3.171a65.034 65.034 0 0 1-.117-3.948v-15.55h.002zM220.474 355.062a5.364 5.364 0 0 0-2.839.807 5.164 5.164 0 0 0-1.925 2.032h-.056v-6.588l-1.394-.412v18.57h1.394v-8.615c0-.572.043-.97.189-1.388.602-1.753 2.253-3.19 4.249-3.19 2.884 0 3.882 2.313 3.882 4.85v8.343h1.392v-8.497c.001-5.246-3.557-5.912-4.892-5.912zM237.871 366.125c0 1.114.045 2.268.206 3.346h-1.283l-.205-2.019h-.066c-.683 1.085-2.252 2.339-4.491 2.339-2.834 0-4.153-1.993-4.153-3.872 0-3.251 2.87-5.21 8.601-5.15v-.376c0-1.394-.271-4.173-3.603-4.151-1.233 0-2.517.33-3.536 1.049l-.443-1.013c1.287-.872 2.858-1.217 4.132-1.217 4.065 0 4.843 3.052 4.843 5.569v5.495h-.002zm-1.393-4.183c-3.067-.088-7.118.376-7.118 3.759 0 2.024 1.336 2.934 2.804 2.934 2.348 0 3.682-1.453 4.168-2.824.101-.301.146-.603.146-.844v-3.025zM243.418 352.28v3.104h4.016v1.13h-4.016v9.156c0 1.791.556 2.913 2.07 2.913.726 0 1.239-.095 1.6-.221l.169 1.079c-.455.191-1.094.339-1.944.339-1.028 0-1.88-.324-2.431-1-.638-.74-.856-1.922-.856-3.359v-8.908h-2.378v-1.13h2.378v-2.59l1.392-.513z"/><g fill="#FFF"><path d="M249.194 368.722h.185l.279.458h.181l-.302-.468c.157-.019.276-.101.276-.29 0-.21-.125-.302-.375-.302h-.404v1.06h.161v-.458h-.001zm0-.137v-.329h.218c.11 0 .231.024.231.155 0 .163-.121.173-.258.173l-.191.001z"/><path d="M250.423 368.651a1.04 1.04 0 0 1-2.077 0 1.04 1.04 0 0 1 2.077 0zm-1.039-.855a.854.854 0 1 0 0 1.708.854.854 0 0 0 0-1.708z"/></g><path d="M147.51 367.907c.105.103.288.451.065.89a1.75 1.75 0 0 1-.5.589c-.289.232-.854.499-1.629.008-.416-.264-.441-.354-1.017-.279-.411.054-.574-.36-.427-.706.148-.344.755-.623 1.509-.18.34.199.869.621 1.333.248.192-.154.307-.256.573-.565a.067.067 0 0 1 .048-.021c.018 0 .034.007.045.016z"/><path fill="#C00" d="M141.386 347.861c-2.373.171-2.619.428-3.064.901-.627.667-1.453-.866-1.453-.866-.495-.104-1.096-.903-.772-1.649.319-.738.909-.516 1.094-.287.225.28.705.737 1.328.721.623-.016 1.342-.147 2.344-.147 1.016 0 1.699.379 1.737.705.032.278-.083.54-1.214.622zm2.493-3.921h-.011c-.037 0-.066-.028-.066-.062 0-.025.015-.046.038-.057.46-.243 1.146-.437 1.932-.517a7.47 7.47 0 0 1 .688-.038h.117c1.317.03 2.371.553 2.355 1.168-.016.617-1.095 1.092-2.412 1.062a4.682 4.682 0 0 1-1.171-.171c-.041-.011-.07-.045-.07-.086s.03-.077.071-.087c.822-.19 1.376-.501 1.337-.794-.051-.389-1.126-.602-2.4-.473-.14.016-.276.034-.408.055zm10.7 9.217c-.204.683-.492 1.555-1.776 2.215-.188.096-.259-.062-.172-.209.485-.825.572-1.032.713-1.357.197-.477.301-1.154-.092-2.567-.773-2.781-2.385-6.498-3.557-7.703-1.13-1.164-3.179-1.491-5.031-1.016-.683.175-2.016.869-4.491.312-4.282-.965-4.917 1.18-5.162 2.113-.246.935-.836 3.589-.836 3.589-.197 1.082-.454 2.962 6.195 4.229 3.098.589 3.255 1.39 3.392 1.966.247 1.032.639 1.623 1.082 1.918.442.296 0 .54-.491.59-1.319.137-6.195-1.261-9.08-2.9-2.36-1.442-2.399-2.741-1.859-3.842-3.565-.386-6.241.334-6.725 2.021-.833 2.896 6.367 7.844 14.566 10.327 8.604 2.605 17.454.786 18.438-4.622.446-2.459-1.624-4.277-5.114-5.064z"/></svg>