<svg xmlns="http://www.w3.org/2000/svg" width="279.184" height="187.477"><title>Apache Cassandra</title><defs><clipPath id="b"><path d="M0 792h612V0H0v792z"/></clipPath><clipPath id="c"><path d="M0 792h612V0H0v792z"/></clipPath><clipPath id="d"><path d="M96.008 715.93h88.29v-62.176h-88.29v62.176z"/></clipPath><clipPath id="e"><path d="M0 792h612V0H0v792z"/></clipPath><clipPath id="f"><path d="M0 792h612V0H0v792z"/></clipPath><clipPath id="g"><path d="M0 792h612V0H0v792z"/></clipPath><clipPath id="h"><path d="M0 792h612V0H0v792z"/></clipPath><clipPath id="i"><path d="M121.202 708.378h45.9v-45.86h-45.9v45.86z"/></clipPath><clipPath id="j"><path d="M0 792h612V0H0v792z"/></clipPath><clipPath id="k"><path d="M40.403 726.188h212.402V664.37H40.403v61.818z"/></clipPath><clipPath id="l"><path d="M0 792h612V0H0v792z"/></clipPath><clipPath id="m"><path d="M39.52 688.644H238.9v-73.818H39.52v73.818z"/></clipPath><clipPath id="a"><path d="M0 792h612V0H0v792z"/></clipPath></defs><g><g><g clip-path="url(#a)" transform="matrix(1.25 0 0 -1.25 -43.551 915.936)"><g><path d="M61.49 609.137c1.825 0 3.553-.432 4.418-1.296.144-1.344-1.057-3.504-1.825-3.504-.912.336-1.776.53-2.832.53-4.367 0-6.528-4.514-6.528-8.978 0-2.784.96-4.465 3.17-4.465 2.35 0 4.75 1.584 6.095 2.784.336-.24.768-1.008.768-1.872 0-.96-.288-1.872-1.152-2.736-1.536-1.537-4.128-2.833-7.873-2.833-4.32 0-7.296 2.448-7.296 8.16 0 7.49 4.944 14.21 13.01 14.21h.047z" fill="#373535"/></g><g><path d="M75.602 591.664c2.352 0 6.625 4.13 7.825 12 .048.48.096.625.192 1.105-.53.19-1.25.335-1.97.335-1.776 0-3.6-.528-5.232-2.736-1.68-2.353-2.4-5.28-2.4-7.634 0-2.015.576-3.072 1.536-3.072h.048zm-7.73 2.16c0 2.832.96 7.777 4.562 11.377 3.072 3.17 6.816 3.938 10.225 3.938 2.255 0 5.327-.72 7.247-1.105-.48-2.112-1.632-10.08-2.16-14.688-.24-1.97-.336-4.705-.24-5.713-1.584-.672-4.56-.864-5.377-.864-.43 0-.528 1.968-.383 3.84.047.624.144 1.536.19 1.92-1.87-3.12-5.567-5.76-9.455-5.76-2.784 0-4.61 2.304-4.61 7.008v.048z" fill="#373535"/></g><g><path d="M101.858 609.137c1.968 0 3.84-.72 4.705-1.632-.048-1.345-1.104-3.6-2.785-2.976-.72.24-1.44.43-2.4.43-1.296 0-2.4-.576-2.4-1.775 0-.912.672-1.585 3.888-3.84 2.305-1.68 3.217-3.17 3.217-5.28 0-3.506-3.313-7.298-9.073-7.298-2.352 0-4.417.912-5.09 1.872-.863 1.44-.19 4.27.77 3.792 1.248-.624 3.312-1.297 4.992-1.297 1.584 0 2.592.72 2.592 1.68 0 .816-.72 1.537-3.648 3.6-2.45 1.825-3.217 3.505-3.217 5.425 0 3.984 3.408 7.297 8.4 7.297h.048z" fill="#373535"/></g><g><path d="M118.417 609.137c1.97 0 3.84-.72 4.705-1.632-.048-1.345-1.103-3.6-2.784-2.976-.72.24-1.44.43-2.4.43-1.296 0-2.4-.576-2.4-1.775 0-.912.672-1.585 3.888-3.84 2.304-1.68 3.216-3.17 3.216-5.28 0-3.506-3.313-7.298-9.073-7.298-2.353 0-4.417.912-5.09 1.872-.863 1.44-.19 4.27.77 3.792 1.247-.624 3.31-1.297 4.99-1.297 1.585 0 2.593.72 2.593 1.68 0 .816-.72 1.537-3.648 3.6-2.448 1.825-3.216 3.505-3.216 5.425 0 3.984 3.407 7.297 8.4 7.297h.047z" fill="#373535"/></g><g><path d="M133.536 591.664c2.353 0 6.625 4.13 7.825 12 .05.48.098.625.194 1.105-.53.19-1.248.335-1.97.335-1.775 0-3.6-.528-5.232-2.736-1.68-2.353-2.4-5.28-2.4-7.634 0-2.015.576-3.072 1.537-3.072h.046zm-7.73 2.16c0 2.832.962 7.777 4.562 11.377 3.072 3.17 6.816 3.938 10.225 3.938 2.256 0 5.33-.72 7.25-1.105-.48-2.112-1.633-10.08-2.16-14.688-.242-1.97-.337-4.705-.242-5.713-1.583-.672-4.558-.864-5.375-.864-.43 0-.528 1.968-.384 3.84.05.624.145 1.536.193 1.92-1.872-3.12-5.568-5.76-9.456-5.76-2.785 0-4.61 2.304-4.61 7.008v.048z" fill="#373535"/></g><g><path d="M158.688 602.897c2.21 3.552 5.088 6.24 9.12 6.24 3.41 0 4.513-3.168 3.89-7.68-.336-2.113-.912-5.137-1.297-7.92-.335-2.354-.575-4.465-.526-5.906-1.248-.623-4.897-.863-5.713-.863-.335 0-.384 2.64.05 5.425.382 2.304 1.2 6.48 1.583 8.88.24 1.392.192 3.073-1.152 3.073-1.776 0-6-2.833-8.112-14.45-.145-.96-.528-1.535-1.057-1.87-.718-.434-2.255-.818-5.374-.866.576 2.927 1.488 8.928 2.16 13.344.623 4.032.864 6.625.72 7.633.816.288 5.09 1.2 5.567 1.2.53 0 .625-1.488.145-5.09-.047-.335-.096-.862-.145-1.15h.145z" fill="#373535"/></g><g><path d="M183.073 591.71c2.11 0 6.385 3.938 7.584 10.898.05.384.193 1.104.29 1.537-.626.576-1.442.96-2.737.96-4.85 0-7.01-5.81-7.01-9.986 0-2.257.77-3.41 1.824-3.41h.05zm-3.168-4.943c-3.072 0-4.992 2.736-4.992 7.44 0 7.777 4.847 14.93 13.008 14.93 1.442 0 2.737-.384 3.553-.864.432 2.208 1.44 9.025 1.49 11.04 1.342.24 4.223.672 5.518.672.53 0 .675-.527.482-1.727-1.153-7.2-3.215-21.026-3.6-24.1-.29-2.59-.336-5.135-.29-6.575-1.534-.672-4.655-.816-5.47-.816-.338 0-.53 2.208-.433 4.176.048.624.143 1.537.143 1.68-2.4-3.936-5.713-5.856-9.36-5.856h-.048z" fill="#373535"/></g><g><path d="M208.032 602.224c2.545 5.665 5.568 6.913 7.537 6.913.624 0 1.583-.384 2.015-.864.193-1.584-1.055-4.752-2.16-5.952-.577.29-1.295.577-2.112.577-1.633 0-4.85-2.545-6.865-13.49-.145-.912-.432-1.296-.96-1.536-.815-.48-4.032-.863-5.567-.91.72 3.936 1.967 11.952 2.448 16.657.144 1.2.19 3.408.096 4.272.912.43 4.513 1.247 5.328 1.247.433 0 .77-2.64.095-6.913h.145z" fill="#373535"/></g><g><path d="M224.975 591.664c2.354 0 6.625 4.13 7.826 12 .048.48.097.625.193 1.105-.528.19-1.248.335-1.97.335-1.775 0-3.6-.528-5.232-2.736-1.678-2.353-2.4-5.28-2.4-7.634 0-2.015.577-3.072 1.538-3.072h.047zm-7.73 2.16c0 2.832.962 7.777 4.562 11.377 3.072 3.17 6.816 3.938 10.225 3.938 2.256 0 5.328-.72 7.25-1.105-.48-2.112-1.633-10.08-2.16-14.688-.24-1.97-.338-4.705-.24-5.713-1.585-.672-4.56-.864-5.378-.864-.43 0-.527 1.968-.384 3.84.048.624.144 1.536.193 1.92-1.873-3.12-5.568-5.76-9.457-5.76-2.785 0-4.61 2.304-4.61 7.008v.048z" fill="#373535"/></g></g></g></g><g><g><g><g clip-path="url(#b)" transform="matrix(1.25 0 0 -1.25 -43.551 915.936)"><g><path d="M210.878 690.483c1.584-18.452-27.455-36.014-64.86-39.223-37.403-3.21-69.01 9.15-70.59 27.602-1.585 18.455 27.454 36.016 64.858 39.225 37.404 3.208 69.01-9.15 70.592-27.604" fill="#bbe6fb"/></g></g></g><g><g clip-path="url(#c)" transform="matrix(1.25 0 0 -1.25 -43.551 915.936)"><g><g><g clip-path="url(#d)" opacity=".35"><g><path d="M141.384 715.923c-14.268.232-30.964-5.433-43.387-10.738-1.293-3.726-1.99-7.69-1.99-11.797 0-21.888 19.765-39.634 44.146-39.634 24.38 0 44.145 17.746 44.145 39.634 0 6.927-1.984 13.435-5.463 19.1-9.94 1.546-23.61 3.21-37.45 3.435" fill="#fff"/></g></g></g></g></g></g><g><g clip-path="url(#e)" transform="matrix(1.25 0 0 -1.25 -43.551 915.936)"><g><path d="M140.153 715.928c-7.9.482-21.514-3.64-32.867-7.75-1.725-4.07-2.683-8.526-2.683-13.2 0-19.18 17.388-34.726 35.782-34.726 18.273 0 34.44 15.572 35.782 34.725.436 6.237-1.71 12.114-4.692 17.18-11.77 2.074-24.26 3.34-31.322 3.77" fill="#fff"/></g></g></g><g><g clip-path="url(#f)" transform="matrix(1.25 0 0 -1.25 -43.551 915.936)"><g><path d="M119.882 697.495c.97 2.146 2.437 3.197 3.86 4.996-.16.427-.505 1.82-.505 2.303 0 2.156 1.75 3.906 3.906 3.906.51 0 .995-.102 1.44-.28 6.465 4.928 14.976 7.076 23.53 5.164.78-.176 1.546-.39 2.298-.623-8.452 1.173-17.98-1.82-24.46-7.052.197-.467.746-1.802.746-2.34 0-2.156-1.396-2.68-3.553-2.68-.49 0-.958.093-1.39.258-1.465-1.966-3.26-5.71-4.137-8.052 3.584-3.206 6.822-4.368 11.042-5.945-.01.2.145.386.145.59 0 6.504 5.725 11.79 12.23 11.79 5.827 0 10.653-4.24 11.595-9.8 2.908 1.85 5.72 3.27 7.863 6.01-.5.61-1.038 2.338-1.038 3.188 0 1.957 1.588 3.544 3.545 3.544.277 0 .543-.04.802-.1 1.087 2.236 1.908 4.606 2.433 7.05-10.17 7.53-29.847 6.502-29.847 6.502s-15.658.817-26.258-4.35c.707-5.11 2.746-9.97 5.754-14.08" fill="#373535"/></g><g><path d="M168.49 700.428c.72-.648 1.112-1.217 1.42-1.77.952-1.71-.956-3.276-2.913-3.276-.2 0-.39.027-.582.06-2.205-3.447-6.067-7.866-9.498-10.09 5.26-.862 10.222-2.97 14.17-6.225 2.875 5.15 5.08 12.59 5.08 18.907 0 4.81-2.123 8.334-5.328 10.92-.17-2.576-1.544-6.18-2.35-8.526" fill="#373535"/></g><g><path d="M125.784 667.803c1.753 4.84 6.065 8.592 10.144 11.892-.597.817-1.492 2.84-1.865 3.798-4.975 1.513-9.377 4.345-12.79 8.094-.026-.11-.057-.215-.083-.324-.643-2.88-.76-5.768-.44-8.584 2.38-.445 4.184-2.532 4.184-5.043 0-1.49-1.305-3.647-2.318-4.586 1.1-2.375 1.852-3.52 3.168-5.247" fill="#373535"/></g><g><path d="M125.476 663.74c-2.09 2.078-3.537 6.225-4.894 8.83-.254-.04-.514-.067-.78-.067-2.836 0-5.807 2.38-5.135 5.134.372 1.524 1.424 2.52 3.137 3.353-.39 3.157-.496 7.695.237 10.977.21.94.656 1.38.95 2.273-3.128 4.58-5.15 10.59-5.15 16.552 0 .218.01.433.016.65-5.288-2.653-9.253-6.83-9.253-13.408 0-14.548 8.38-28.82 20.846-34.413.008.04.016.08.026.12" fill="#373535"/></g><g><path d="M156.13 683.85c-1.61-4.58-5.966-7.872-11.1-7.872-2.745 0-5.264.947-7.266 2.52-4.127-3.213-7.87-8.86-9.774-13.757.854-.918 1.45-1.674 2.407-2.49 2.887-.75 6.863 0 9.988 0 12.57 0 23.703 5.593 30.086 15.4-4.243 2.938-9.25 5.735-14.34 6.2" fill="#373535"/></g></g></g><g><g clip-path="url(#g)" transform="matrix(1.25 0 0 -1.25 -43.551 915.936)"><g><path d="M119.56 695.794c.97 2.146 2.184 4.132 3.605 5.93-.158.426-.25.885-.25 1.368 0 2.156 1.75 3.906 3.906 3.906.51 0 .996-.1 1.44-.278 6.466 4.927 14.977 7.075 23.53 5.163.78-.176 1.547-.39 2.3-.623-8.454 1.172-17.188-1.42-23.67-6.65.2-.467.307-.98.307-1.518 0-2.157-1.75-3.906-3.906-3.906-.49 0-.957.094-1.39.26-1.464-1.967-2.66-4.14-3.54-6.48 3.08-3.318 6.857-5.94 11.076-7.518-.01.2-.03.4-.03.605 0 6.503 5.27 11.775 11.774 11.775 5.828 0 10.654-4.238 11.596-9.798 2.908 1.85 5.492 4.226 7.634 6.968-.5.61-.81 1.38-.81 2.23 0 1.956 1.588 3.543 3.545 3.543.277 0 .543-.04.802-.1 1.088 2.237 1.91 4.607 2.434 7.05-10.17 7.53-29.846 6.503-29.846 6.503s-15.658.817-26.258-4.35c.707-5.11 2.746-9.97 5.754-14.08" fill="#1287b1"/></g><g><path d="M169.04 699.848c.72-.648 1.18-1.577 1.18-2.62 0-1.958-1.588-3.546-3.545-3.546-.2 0-.39.027-.582.06-2.205-3.447-5.127-6.385-8.56-8.61 5.073-.792 9.847-2.944 13.794-6.2 2.875 5.15 4.518 11.084 4.518 17.402 0 4.81-2.123 8.334-5.328 10.92-.168-2.576-.672-5.06-1.477-7.406" fill="#1287b1"/></g><g><path d="M126.325 666.64c1.753 4.84 4.8 9.185 8.878 12.484-.597.818-1.09 1.71-1.462 2.67-4.975 1.512-9.376 4.344-12.79 8.093-.025-.11-.057-.215-.082-.324-.644-2.88-.762-5.768-.44-8.584 2.38-.445 4.184-2.532 4.184-5.043 0-1.49-.64-2.828-1.652-3.767.92-1.948 2.05-3.804 3.365-5.53" fill="#1287b1"/></g><g><path d="M125.462 663.798c-2.09 2.08-3.846 4.467-5.202 7.07-.255-.04-.515-.065-.78-.065-2.836 0-5.135 2.3-5.135 5.134 0 2.032 1.184 3.784 2.897 4.616-.39 3.156-.257 6.432.477 9.714.21.938.465 1.854.76 2.75-3.13 4.577-4.962 10.112-4.962 16.075 0 .218.01.433.015.648-5.288-2.65-9.253-6.83-9.253-13.406 0-14.55 8.688-27.06 21.155-32.654.01.04.017.08.027.118" fill="#1287b1"/></g><g><path d="M155.81 682.15c-1.612-4.58-5.968-7.872-11.1-7.872-2.747 0-5.266.947-7.268 2.52-4.127-3.213-7.242-7.594-9.144-12.493.853-.92 1.765-1.785 2.723-2.6 2.89-.75 5.918-1.154 9.043-1.154 12.57 0 23.62 6.49 30.004 16.296-4.244 2.94-9.168 4.84-14.258 5.305" fill="#1287b1"/></g></g></g><g><g clip-path="url(#h)" transform="matrix(1.25 0 0 -1.25 -43.551 915.936)"><g><g><g clip-path="url(#i)"><g><path d="M156.222 685.187l10.88 2.595-10.92.557 8.886 6.79-10.084-3.614 6.853 9.497-9.465-6.29 3.31 11.116-6.5-9.164-.15 11.58-4.276-10.315-3.566 10.438.193-12.295-6.163 11.02 3.335-11.7-9.997 7.27 7.83-9.84-12.41 4.563 9.795-7.247-12.56-.387 12.842-3.314-12.853-2.78 12.687-.92-10.7-6.85 11.017 3.993-7.644-9.68 9.66 7.79-3.48-12.992 7.458 10.573-1.044-12.486 4.233 11.32 3.602-11.898.876 11.932 5.348-10.18-3.16 11.644 9.793-7.586-6.323 9.672 10.744-4.186-8.214 8.073 11.016-.867-10.85 4.164z" fill="#fff"/></g></g></g></g></g></g><g><g clip-path="url(#j)" transform="matrix(1.25 0 0 -1.25 -43.551 915.936)"><g><g><g clip-path="url(#k)" opacity=".35"><g><path d="M40.403 664.37c33.74 33.74 60.687 44.155 85.143 48.91 3.236.63 3.848 7.7 3.848 7.7s.453-5.208 2.718-5.887c2.264-.68 5.207 8.152 5.207 8.152s-2.718-7.926 0-8.38c2.717-.452 7.698 7.7 7.698 7.7s-2.037-7.02-.678-7.472c1.357-.453 8.15 10.19 8.15 10.19s-4.076-7.02-.226-7.7c3.85-.68 9.467 4.79 9.467 4.79s-4.415-5.004-2.447-5.695c8.38-2.945 15.16 7.945 15.16 7.945s-1.572-4.775-5.648-9.983c8.83-2.264 15.39 11.04 15.39 11.04l-6.56-13.304c3.397-1.813 16.985 13.812 16.985 13.812s-7.02-12.228-11.096-14.718c2.264-1.812 10.416 5.434 10.416 5.434s-6.567-8.15-4.076-8.604c3.623-2.944 16.982 15.17 16.982 15.17s-5.207-10.64-12.906-19.02c6.435-3.22 22.418 17.436 22.418 17.436s-.453-6.567-12.002-16.983c8.605 1.132 19.7 17.436 19.7 17.436s-4.075-12.23-13.813-20.833c8.45.88 21.964 21.738 21.964 21.738s-5.207-14.492-15.85-22.87c11.776-2.605 28.76 14.944 28.76 14.944s-6.68-12.456-15.4-17.55c9.738-3.736 23.098 11.662 23.098 11.662s-13.36-20.607-34.645-19.7c-6.984.296-28.11 21.187-73.368 19.473-59.78-2.265-72.46-27.626-104.39-44.835" fill="#373535"/></g></g></g></g><g><path d="M41.786 666.933c33.74 33.74 60.686 44.154 85.142 48.91 3.237.63 3.85 7.7 3.85 7.7s.45-5.21 2.717-5.888c2.264-.68 5.207 8.15 5.207 8.15s-2.717-7.925 0-8.377c2.718-.452 7.7 7.7 7.7 7.7s-2.038-7.02-.68-7.473c1.358-.453 8.15 10.19 8.15 10.19s-4.075-7.02-.225-7.7c3.85-.68 9.467 4.79 9.467 4.79s-4.416-5.004-2.448-5.695c8.38-2.944 15.157 7.945 15.157 7.945s-1.57-4.775-5.645-9.983c8.83-2.265 15.39 11.04 15.39 11.04l-6.56-13.305c3.397-1.81 16.983 13.812 16.983 13.812s-7.017-12.227-11.093-14.718c2.264-1.812 10.416 5.434 10.416 5.434s-6.567-8.152-4.076-8.604c3.623-2.945 16.982 15.17 16.982 15.17s-5.21-10.642-12.907-19.02c6.435-3.22 22.418 17.436 22.418 17.436s-.452-6.568-12-16.984c8.604 1.133 19.7 17.437 19.7 17.437s-4.076-12.227-13.814-20.832c8.45.88 21.964 21.738 21.964 21.738s-5.207-14.492-15.85-22.87c11.776-2.604 28.76 14.944 28.76 14.944s-6.68-12.453-15.4-17.548c9.738-3.736 23.098 11.662 23.098 11.662s-13.36-20.607-34.647-19.7c-6.98.297-28.106 21.188-73.366 19.473-59.78-2.264-72.46-27.625-104.388-44.834" fill="#373535"/></g></g></g><g><g clip-path="url(#l)" transform="matrix(1.25 0 0 -1.25 -43.551 915.936)"><g><g><g clip-path="url(#m)" opacity=".35"><g><path d="M39.52 660.68c17.831-8.945 34.136 1.358 54.685-4.433 15.624-4.404 34.646-9.833 60.459-6.096 25.814 3.736 47.893 14.945 58.424 34.986 3.283 8.943 16.642-2.04 16.642-2.04s-9.736 4.077-9.51 2.152c.227-1.924 14.606-8.604 14.606-8.604s-13.02 4.076-12.228 1.02c.792-3.058 16.3-15.286 16.3-15.286s-17.547 13.36-19.018 11.55c-1.473-1.813 7.472-9.173 7.472-9.173s-14.832 9.172-20.04 6.467c-3.747-1.943 15.398-14.506 15.398-14.506s-12.455 9.512-15.4 7.02c-2.942-2.49 14.04-22.87 14.04-22.87s-19.248 20.833-21.17 19.814c-1.927-1.02 5.32-10.983 5.32-10.983s-9.51 10.417-12.114 8.605c-2.604-1.812 13.586-28.87 13.586-28.87s-17.55 27.737-24.795 23.097c11.38-24.967 7.134-28.534 7.134-28.534s-1.45 25.47-15.624 24.796c-7.133-.34 3.396-19.02 3.396-19.02s-9.69 17.06-16.145 16.72c11.894-22.51 7.654-31.666 7.654-31.666s1.968 19.226-14.165 29.925c6.113-5.432-3.836-29.924-3.836-29.924s8.75 36.09-6.456 29.21c-2.403-1.085-.17-18.002-.17-18.002s-3.057 19.362-7.64 18.342c-2.674-.593-16.985-26.833-16.985-26.833s11.718 28.362 8.152 27.173c-2.598-.867-7.473-12.568-7.473-12.568s2.376 11.55 0 12.228c-2.378.68-15.626-12.228-15.626-12.228s9.85 11.55 8.152 13.927c-2.574 3.603-5.59 3.772-9.17 2.377-5.21-2.03-12.228-11.548-12.228-11.548s6.996 9.637 5.773 13.247c-1.962 5.8-22.076-11.208-22.076-11.208s11.888 11.21 9.17 13.587c-2.716 2.376-17.47 1.64-22.077 1.654-13.586.042-18.294 3.23-22.418 6.496" fill="#373535"/></g></g></g></g><g><path d="M38.84 662.718c17.833-8.945 34.137 1.358 54.686-4.434 15.623-4.402 34.646-9.832 60.46-6.095 25.814 3.735 47.89 14.944 58.422 34.983 3.283 8.944 16.642-2.037 16.642-2.037s-9.736 4.075-9.51 2.15c.227-1.924 14.606-8.604 14.606-8.604s-13.02 4.075-12.228 1.018c.793-3.056 16.304-15.284 16.304-15.284s-17.55 13.36-19.02 11.548c-1.472-1.81 7.472-9.17 7.472-9.17s-14.833 9.17-20.04 6.467c-3.748-1.943 15.397-14.505 15.397-14.505s-12.454 9.51-15.397 7.02c-2.944-2.492 14.04-22.87 14.04-22.87s-19.25 20.832-21.173 19.813c-1.924-1.02 5.322-10.982 5.322-10.982s-9.512 10.416-12.115 8.604c-2.604-1.81 13.586-28.87 13.586-28.87s-17.55 27.738-24.795 23.096c11.38-24.965 7.133-28.532 7.133-28.532s-1.45 25.47-15.624 24.795c-7.133-.34 3.396-19.02 3.396-19.02s-9.69 17.062-16.144 16.722c11.896-22.512 7.654-31.668 7.654-31.668s1.967 19.227-14.166 29.926c6.113-5.434-3.836-29.926-3.836-29.926s8.754 36.09-6.453 29.21c-2.403-1.086-.17-18.002-.17-18.002s-3.06 19.36-7.642 18.342c-2.674-.593-16.985-26.833-16.985-26.833s11.72 28.363 8.153 27.173c-2.598-.865-7.473-12.566-7.473-12.566s2.378 11.548 0 12.227c-2.377.68-15.624-12.227-15.624-12.227s9.85 11.548 8.15 13.926c-2.573 3.603-5.59 3.77-9.17 2.376-5.21-2.03-12.227-11.548-12.227-11.548s6.995 9.638 5.773 13.247c-1.964 5.798-22.077-11.21-22.077-11.21s11.888 11.21 9.17 13.586c-2.717 2.378-17.47 1.642-22.078 1.656-13.586.043-18.293 3.23-22.417 6.496" fill="#373535"/></g></g></g></g></g></svg>