<svg xmlns="http://www.w3.org/2000/svg" width="600" height="600" viewBox="0 0 600 600"><path fill="#17569E" d="M229.908 352.192s-6.44 12.922-31.68 7.12c-25.22-5.804-70.498-32.978-82.78-45.278-12.28-12.282-49.145-38.798-29.746-58.216 0 0-10.988-3.212-19.4-11.644-8.412-8.394-11.66-25.84-4.525-32.958l20.038 8.396s-7.1 16.17.656 18.74c7.757 2.593 14.873-4.506 18.105-7.755 3.25-3.23 14.235-15.51 6.46-23.267-7.755-7.756-10.986.638-10.986.638l-9.69-9.69s16.808-10.347 32.32 5.165c15.53 15.53 10.986 30.404 10.986 30.404l100.242 118.345z"/><path fill="#fff" d="M186.367 344.712c-21.097-4.854-59-27.613-69.276-37.886-10.29-10.293-41.133-32.484-24.89-48.727 0 0 15.437-.348 21.387-6.297 0 0-8.723 27.65 18.89 52.012 27.61 24.363 53.89 40.897 53.89 40.897z"/><path fill="#17569E" d="M395.708 374.896s5.472 10.95 26.937 6.022c21.458-4.927 59.927-28.068 70.37-38.506 10.438-10.423 41.755-32.978 25.33-49.458 0 0 9.344-2.755 16.425-9.91 7.15-7.134 9.928-21.99 3.864-28.03l-17.004 7.154s6.06 13.742-.584 15.932c-6.573 2.208-12.63-3.833-15.407-6.607-2.697-2.737-12.04-13.193-5.475-19.78 6.642-6.608 9.344.546 9.344.546l8.25-8.25s-14.307-8.796-27.522 4.397c-13.14 13.213-9.268 25.86-9.268 25.86l-85.262 100.63z"/><g fill="#D5D5D5"><path d="M435.853 573.38c0-14.165-50.807-25.624-113.397-25.624-62.634 0-113.425 11.46-113.425 25.623 0 14.158 50.792 25.62 113.426 25.62 62.59 0 113.397-11.462 113.397-25.62zM248.05 570.75c0-6.79-19.637-12.374-43.89-12.374-24.236 0-43.893 5.585-43.893 12.375 0 6.86 19.657 12.408 43.892 12.408 24.254 0 43.89-5.548 43.89-12.407zM452.938 557.355c0-6.826-18.03-12.374-40.222-12.374-22.265 0-40.295 5.55-40.295 12.375 0 6.823 18.03 12.37 40.296 12.37 22.192.002 40.222-5.546 40.222-12.37z"/></g><path fill="#17569E" d="M342.857 497.35s3.577 24.746-.076 65.006c0 0 17.378 8.21 31.102 17.373 0 0 39.346-3.65 49.415-1.827V564.18l-23.793-13.725V500.16l-56.647-2.81zM377.604 313.158c0 31.59-31.535 57.175-70.41 57.175-38.89 0-70.425-25.584-70.425-57.175 0-31.572 31.534-57.158 70.425-57.158 38.874 0 70.41 25.586 70.41 57.158z"/><path fill="#fff" d="M344.204 295.22c-1.347 7.827-12.624 12.427-25.198 10.272-12.556-2.172-21.682-10.273-20.314-18.103 1.333-7.83 12.63-12.446 25.187-10.293 12.572 2.153 21.68 10.274 20.324 18.122z"/><path fill="#17569E" d="M431.255 335.567s1.244 93.93-18.246 160.98c0 0-78.075 28.03-184.177-3.65 0 0-19.49-12.23-26.826-12.23 0 0-8.542-159.72-23.16-182.876 0 .002 125.612-43.906 252.408 37.777z"/><path fill="#fff" d="M406.804 445.886c-.803 10-8.76 19.42-18.104 20.696-35.55 4.562-71.596 4.562-107.2.07-11.862-1.603-22.1-12.772-22.72-24.234-1.44-25.074-2.885-49.82-4.345-74.238-.73-13.14 9.583-25.586 22.85-26.425 39.527-2.044 79.66 2.373 119.148 10.586 10.22 2.263 17.594 13.47 16.644 24.672-2.112 22.52-4.156 45.478-6.273 68.874z"/><path fill="#EC7929" d="M358.55 423.55v.18c.8 1.46 1.167 3.177 1.243 5.04 0 5.765-4.238 10.585-9.494 10.728-5.183.11-9.45-4.598-9.45-10.438 0-2.628.84-4.964 2.224-6.826 0-.107 23.067-35.805-9.23-60.003.018.038 9.38 28.434-12.98 40.37 0 0-6.168 4.89.64-11.317 0 0-18.978 12.082-18.96 40.33 0 12.813 6.02 24.457 15.09 31.393-.272-1.205-.433-2.557-.433-4.162 0-11.462 9.23-24.82 12.096-24.82-.02 0 .716 13.725 4 20.223 2.574 5.474 1 11.53-2.408 14.525 1.515.292 3.08.474 4.672.438 8.76 0 16.717-4.16 22.625-10.583l-.068-.037c11.02-16.608 4.67-29.237.432-35.04z"/><path fill="#D5D5D5" d="M275.46 353.545c.31-.036.64-.036.968-.073 39.527-1.13 79.643 3.175 119.13 10.257 2.044.362 3.436 1.75 4.238 2.845 1.825 2.336 2.628 5.402 2.41 8.578-2.118 23.25-4.162 46.9-6.282 70.918V446.214c-.366 4.237-3.646 8.25-7.224 8.653-35.55 3.686-71.596 3.686-107.18.036-6.133-.656-11.535-6.204-11.827-12.044-1.478-25.77-2.92-51.247-4.36-76.466-.184-3.285.8-6.39 2.736-8.796 1.86-2.264 4.488-3.723 7.39-4.05m-.017-11.61c-12.375 1.863-21.7 13.69-21.008 26.244 1.46 24.42 2.904 49.164 4.346 74.238.62 11.462 10.858 22.632 22.72 24.235 35.605 4.49 71.65 4.49 107.2-.07 9.344-1.315 17.3-10.696 18.104-20.697 2.117-23.396 4.16-46.354 6.273-68.874.95-11.203-6.424-22.41-16.644-24.67-39.487-8.214-79.62-12.63-119.148-10.587-.62 0-1.223.074-1.842.182z"/><path fill="#fff" d="M195.6 300.82s41.17-2.736 41.17 145.394c0 0 35.66-148.13-41.17-145.393zM223.96 316.37s144.517-3.65 183.86 25.603c0 0-85.986-23.777-180.192-11.897l-3.668-13.706zM252.32 282.974h12.335s5.585-14.892 24.127-21.243c0 0-18.852 3.65-36.462 21.244z"/><path fill="#17569E" d="M230.365 482.824s0 42.96-5.493 79.566c0 0 29.27 9.162 35.68 20.11 0 0 52.117-5.475 60.348-3.648v-17.374l-24.672-10.986 1.807-52.12-67.67-15.548z"/><path fill="#fff" d="M257.5 522.132l2.43 43.947s28.668-3.07 40.24-3.07c0 0-23.177-5.473-34.126-5.473 0 0-4.27-28.69-8.543-35.405zM376.36 537.5l.584 28.066s25.62-1.823 34.747-.62c0 0-11.237-3.98-29.564-3.98L376.36 537.5z"/><g fill="#17569E"><path d="M90.83 70.86v106.046h116.377V70.86H90.83zm106.52 96.193h-96.664v-86.32h96.665v86.32zM130.833 162.034v-76.3"/><path d="M130.833 164.242c-1.225 0-2.19-.985-2.19-2.208v-76.3c0-1.224.965-2.21 2.19-2.21 1.205 0 2.19.986 2.19 2.21v76.3c0 1.223-.985 2.208-2.19 2.208zM112.875 162.034v-76.3"/><path d="M112.875 164.242c-1.225 0-2.208-.985-2.208-2.208v-76.3c0-1.224.984-2.21 2.208-2.21 1.205 0 2.19.986 2.19 2.21v76.3c0 1.223-.985 2.208-2.19 2.208zM148.79 162.034v-76.3"/><path d="M148.79 164.242c-1.204 0-2.207-.985-2.207-2.208v-76.3c0-1.224 1.003-2.21 2.208-2.21 1.206 0 2.21.986 2.21 2.21v76.3c0 1.223-1.005 2.208-2.21 2.208zM166.748 162.034v-76.3"/><path d="M166.748 164.242c-1.205 0-2.19-.985-2.19-2.208v-76.3c0-1.224.985-2.21 2.19-2.21 1.223 0 2.19.986 2.19 2.21v76.3c0 1.223-.967 2.208-2.19 2.208zM184.706 162.034v-76.3"/><path d="M184.706 164.242c-1.205 0-2.19-.985-2.19-2.208v-76.3c0-1.224.985-2.21 2.19-2.21 1.223 0 2.208.986 2.208 2.21v76.3c0 1.223-.985 2.208-2.208 2.208z"/></g><g fill="#17569E"><path d="M245.878 1v106.012H362.27V1H245.88zm106.54 96.156h-96.685V10.854h96.684v86.302zM285.88 92.175v-76.34"/><path d="M285.88 94.364c-1.204 0-2.207-1.004-2.207-2.19V15.837c0-1.222 1.003-2.208 2.208-2.208 1.206 0 2.19.986 2.19 2.208v76.338c0 1.186-.985 2.19-2.19 2.19zM267.905 92.175v-76.34"/><path d="M267.905 94.364c-1.206 0-2.19-1.004-2.19-2.19V15.837c0-1.222.984-2.208 2.19-2.208 1.223 0 2.208.986 2.208 2.208v76.338c0 1.186-.985 2.19-2.208 2.19zM303.84 92.175v-76.34"/><path d="M303.84 94.364c-1.206 0-2.19-1.004-2.19-2.19V15.837c0-1.222.984-2.208 2.19-2.208 1.22 0 2.187.986 2.187 2.208v76.338c0 1.186-.966 2.19-2.188 2.19zM321.795 92.175v-76.34"/><path d="M321.795 94.364c-1.205 0-2.187-1.004-2.187-2.19V15.837c0-1.222.98-2.208 2.187-2.208 1.207 0 2.193.986 2.193 2.208v76.338c0 1.186-.986 2.19-2.193 2.19zM339.756 92.175v-76.34"/><path d="M339.756 94.364c-1.205 0-2.193-1.004-2.193-2.19V15.837c0-1.222.988-2.208 2.193-2.208 1.2 0 2.226.986 2.226 2.208v76.338c0 1.186-1.027 2.19-2.226 2.19z"/></g><g fill="#17569E"><path d="M400.964 111.665v106.012h116.354V111.665H400.964zm106.5 96.156h-96.648v-86.3h96.65v86.3zM440.967 202.822v-76.34"/><path d="M440.967 205.012c-1.244 0-2.194-.968-2.194-2.19v-76.338c0-1.204.95-2.172 2.194-2.172 1.168 0 2.117.968 2.117 2.172v76.338c0 1.22-.95 2.19-2.117 2.19zM422.937 202.822v-76.34"/><path d="M422.937 205.012c-1.168 0-2.193-.968-2.193-2.19v-76.338c0-1.204 1.025-2.172 2.193-2.172 1.236 0 2.263.968 2.263 2.172v76.338c0 1.22-1.027 2.19-2.263 2.19zM458.92 202.822v-76.34"/><path d="M458.92 205.012c-1.236 0-2.262-.968-2.262-2.19v-76.338c0-1.204 1.025-2.172 2.262-2.172 1.168 0 2.194.968 2.194 2.172v76.338c0 1.22-1.026 2.19-2.194 2.19zM476.882 202.822v-76.34"/><path d="M476.882 205.012c-1.244 0-2.194-.968-2.194-2.19v-76.338c0-1.204.95-2.172 2.194-2.172 1.168 0 2.186.968 2.186 2.172v76.338c0 1.22-1.018 2.19-2.186 2.19zM494.835 202.822v-76.34"/><path d="M494.835 205.012c-1.236 0-2.186-.968-2.186-2.19v-76.338c0-1.204.948-2.172 2.185-2.172 1.168 0 2.194.968 2.194 2.172v76.338c0 1.22-1.027 2.19-2.195 2.19z"/></g></svg>