<?xml version="1.0" encoding="utf-8"?>
<!-- Generator: Adobe Illustrator 20.1.0, SVG Export Plug-In . SVG Version: 6.00 Build 0)  -->
<svg version="1.1" id="Layer_1" xmlns="http://www.w3.org/2000/svg" xmlns:xlink="http://www.w3.org/1999/xlink" x="0px" y="0px"
	 viewBox="0 0 32 32" style="enable-background:new 0 0 32 32;" xml:space="preserve">
<style type="text/css">
	.st0{clip-path:url(#SVGID_2_);}
	.st1{fill:url(#path3462_1_);}
	.st2{clip-path:url(#SVGID_4_);}
	.st3{fill:#777BB3;}
	.st4{clip-path:url(#SVGID_6_);}
	.st5{fill:#FFFFFF;}
</style>
<g id="g3438" transform="matrix(1.25 0 0 -1.25 -4.4 394.3)">
	<g id="g3440">
		<g>
			<defs>
				<path id="SVGID_1_" d="M3.52,302.63c0-3.72,5.73-6.73,12.8-6.73s12.8,3.01,12.8,6.73s-5.73,6.73-12.8,6.73
					S3.52,306.35,3.52,302.63"/>
			</defs>
			<clipPath id="SVGID_2_">
				<use xlink:href="#SVGID_1_"  style="overflow:visible;"/>
			</clipPath>
			<g id="g3442" class="st0">
				<g id="g3448">
					<g id="g3450">
						
							<radialGradient id="path3462_1_" cx="-227.537" cy="-14.4036" r="0.0463" gradientTransform="matrix(453.825 0 0 -453.825 103273.1953 -6229.7163)" gradientUnits="userSpaceOnUse">
							<stop  offset="0" style="stop-color:#AEB2D5"/>
							<stop  offset="0.3" style="stop-color:#AEB2D5"/>
							<stop  offset="0.75" style="stop-color:#484C89"/>
							<stop  offset="1" style="stop-color:#484C89"/>
						</radialGradient>
						<path id="path3462" class="st1" d="M3.52,302.63c0-3.72,5.73-6.73,12.8-6.73s12.8,3.01,12.8,6.73s-5.73,6.73-12.8,6.73
							S3.52,306.35,3.52,302.63"/>
					</g>
				</g>
			</g>
		</g>
	</g>
	<g id="g3464">
		<g>
			<defs>
				<rect id="SVGID_3_" x="-0.34" y="293.26" width="33.32" height="18.74"/>
			</defs>
			<clipPath id="SVGID_4_">
				<use xlink:href="#SVGID_3_"  style="overflow:visible;"/>
			</clipPath>
			<g id="g3466" class="st2">
				<g id="g3472" transform="translate(288 27.36)">
					<path id="path3474" class="st3" d="M-271.68,269.04c6.79,0,12.3,2.79,12.3,6.23c0,3.44-5.51,6.23-12.3,6.23
						c-6.79,0-12.3-2.79-12.3-6.23C-283.98,271.83-278.47,269.04-271.68,269.04"/>
				</g>
			</g>
		</g>
	</g>
	<g id="g3476">
		<g>
			<defs>
				<rect id="SVGID_5_" x="-0.34" y="293.26" width="33.32" height="18.74"/>
			</defs>
			<clipPath id="SVGID_6_">
				<use xlink:href="#SVGID_5_"  style="overflow:visible;"/>
			</clipPath>
			<g id="g3478" class="st4">
				<g id="g3484" transform="translate(161.73 145.31)">
					<path id="path3486" d="M-151.25,156.55c0.56,0,0.98,0.1,1.24,0.31c0.26,0.2,0.44,0.55,0.54,1.03c0.09,0.45,0.05,0.77-0.1,0.94
						c-0.16,0.17-0.5,0.26-1.01,0.26h-0.89l-0.49-2.55H-151.25z M-154.17,153.41c-0.04,0-0.08,0.02-0.11,0.05
						c-0.03,0.03-0.04,0.07-0.03,0.11l1.31,6.75c0.01,0.07,0.07,0.11,0.14,0.11h2.83c0.89,0,1.55-0.24,1.96-0.72
						c0.42-0.48,0.55-1.15,0.38-1.99c-0.07-0.34-0.18-0.66-0.34-0.94c-0.16-0.28-0.37-0.55-0.63-0.78
						c-0.31-0.29-0.65-0.49-1.03-0.62c-0.37-0.12-0.85-0.18-1.41-0.18h-1.14l-0.33-1.68c-0.01-0.07-0.07-0.11-0.14-0.11H-154.17
						L-154.17,153.41z"/>
				</g>
				<g id="g3488" transform="translate(159.22 197.31)">
					<path id="path3490" class="st5" d="M-148.86,106.96h0.78c0.62,0,0.84-0.14,0.91-0.22c0.12-0.13,0.14-0.42,0.07-0.82
						c-0.09-0.45-0.25-0.77-0.48-0.95c-0.24-0.18-0.63-0.28-1.15-0.28h-0.56L-148.86,106.96z M-147.53,108.58h-2.83
						c-0.13,0-0.25-0.09-0.27-0.22l-1.31-6.75c-0.02-0.08,0.01-0.17,0.06-0.23c0.05-0.06,0.13-0.1,0.21-0.1h1.47
						c0.13,0,0.25,0.09,0.27,0.22l0.31,1.57h1.03c0.58,0,1.07,0.06,1.46,0.19c0.4,0.13,0.76,0.35,1.08,0.65
						c0.27,0.25,0.49,0.52,0.65,0.82c0.17,0.3,0.29,0.63,0.35,0.99c0.17,0.88,0.03,1.59-0.42,2.1
						C-145.9,108.32-146.6,108.58-147.53,108.58 M-149.64,104.41h0.89c0.59,0,1.03,0.11,1.32,0.33c0.29,0.22,0.49,0.6,0.59,1.12
						c0.1,0.5,0.05,0.86-0.13,1.06c-0.19,0.21-0.56,0.31-1.12,0.31h-1.01L-149.64,104.41 M-147.53,108.3c0.85,0,1.47-0.22,1.86-0.67
						c0.39-0.45,0.51-1.07,0.35-1.87c-0.06-0.33-0.17-0.63-0.32-0.9c-0.15-0.27-0.35-0.52-0.6-0.75c-0.29-0.27-0.62-0.47-0.98-0.59
						c-0.36-0.12-0.82-0.18-1.37-0.18h-1.26l-0.35-1.79h-1.47l1.31,6.75H-147.53"/>
				</g>
				<g id="g3492" transform="translate(311.58 116.31)">
					<path id="path3494" d="M-294.17,184.21c-0.04,0-0.08,0.02-0.11,0.05c-0.03,0.03-0.04,0.07-0.03,0.11l0.58,2.98
						c0.06,0.28,0.04,0.49-0.04,0.57c-0.05,0.05-0.2,0.14-0.63,0.14h-1.05l-0.73-3.75c-0.01-0.07-0.07-0.11-0.14-0.11h-1.46
						c-0.04,0-0.08,0.02-0.11,0.05c-0.03,0.03-0.04,0.07-0.03,0.11l1.31,6.75c0.01,0.07,0.07,0.11,0.14,0.11h1.46
						c0.04,0,0.08-0.02,0.11-0.05c0.03-0.03,0.04-0.07,0.03-0.11l-0.32-1.63h1.13c0.86,0,1.44-0.15,1.78-0.46
						c0.35-0.32,0.45-0.83,0.32-1.51l-0.61-3.14c-0.01-0.07-0.07-0.11-0.14-0.11H-294.17z"/>
				</g>
				<g id="g3496" transform="translate(293.66 271.06)">
					<path id="path3498" class="st5" d="M-277.08,36.62h-1.46c-0.13,0-0.25-0.09-0.27-0.22l-1.31-6.75
						c-0.02-0.08,0.01-0.17,0.06-0.23c0.05-0.06,0.13-0.1,0.21-0.1h1.46c0.13,0,0.25,0.09,0.27,0.22l0.71,3.64h0.94
						c0.43,0,0.52-0.09,0.53-0.1c0.03-0.03,0.06-0.16,0-0.45l-0.58-2.98c-0.02-0.08,0.01-0.17,0.06-0.23
						c0.05-0.06,0.13-0.1,0.21-0.1h1.48c0.13,0,0.25,0.09,0.27,0.22l0.61,3.14c0.14,0.74,0.02,1.29-0.36,1.64
						c-0.37,0.34-0.98,0.5-1.88,0.5h-0.96l0.28,1.46c0.02,0.08-0.01,0.17-0.06,0.23C-276.92,36.58-277,36.62-277.08,36.62
						 M-277.08,36.34l-0.35-1.79h1.3c0.82,0,1.38-0.14,1.69-0.43c0.31-0.29,0.4-0.75,0.28-1.39l-0.61-3.14h-1.48l0.58,2.98
						c0.07,0.34,0.04,0.57-0.07,0.69c-0.11,0.12-0.36,0.19-0.73,0.19h-1.17l-0.75-3.86h-1.46l1.31,6.75H-277.08"/>
				</g>
				<g id="g3500" transform="translate(409.55 145.31)">
					<path id="path3502" d="M-387.61,156.55c0.56,0,0.98,0.1,1.24,0.31c0.26,0.2,0.44,0.55,0.54,1.03c0.09,0.45,0.05,0.77-0.1,0.94
						c-0.16,0.17-0.5,0.26-1.01,0.26h-0.89l-0.49-2.55H-387.61z M-390.52,153.41c-0.04,0-0.08,0.02-0.11,0.05
						c-0.03,0.03-0.04,0.07-0.03,0.11l1.31,6.75c0.01,0.07,0.07,0.11,0.14,0.11h2.83c0.89,0,1.55-0.24,1.96-0.72
						c0.42-0.48,0.55-1.15,0.38-1.99c-0.07-0.34-0.18-0.66-0.34-0.94c-0.16-0.28-0.37-0.55-0.63-0.78
						c-0.31-0.29-0.65-0.49-1.03-0.62c-0.37-0.12-0.85-0.18-1.41-0.18h-1.14l-0.33-1.68c-0.01-0.07-0.07-0.11-0.14-0.11H-390.52z"/>
				</g>
				<g id="g3504" transform="translate(407.04 197.31)">
					<path id="path3506" class="st5" d="M-385.21,106.96h0.78c0.62,0,0.84-0.14,0.91-0.22c0.12-0.13,0.14-0.42,0.07-0.82
						c-0.09-0.45-0.25-0.77-0.48-0.95c-0.24-0.18-0.63-0.28-1.15-0.28h-0.56L-385.21,106.96z M-383.88,108.58h-2.83
						c-0.13,0-0.25-0.09-0.27-0.22l-1.31-6.75c-0.02-0.08,0.01-0.17,0.06-0.23c0.05-0.06,0.13-0.1,0.21-0.1h1.47
						c0.13,0,0.25,0.09,0.27,0.22l0.3,1.57h1.03c0.58,0,1.07,0.06,1.46,0.19c0.4,0.13,0.76,0.35,1.08,0.65
						c0.27,0.24,0.49,0.52,0.65,0.82c0.17,0.3,0.29,0.63,0.36,0.99c0.17,0.88,0.03,1.59-0.42,2.1
						C-382.25,108.32-382.95,108.58-383.88,108.58 M-385.99,104.41h0.89c0.59,0,1.03,0.11,1.32,0.33c0.29,0.22,0.49,0.6,0.59,1.12
						c0.1,0.5,0.05,0.86-0.13,1.06c-0.19,0.21-0.56,0.31-1.12,0.31h-1.01L-385.99,104.41 M-383.88,108.3c0.85,0,1.47-0.22,1.86-0.67
						c0.39-0.45,0.51-1.07,0.35-1.87c-0.06-0.33-0.17-0.63-0.32-0.9c-0.15-0.27-0.35-0.52-0.6-0.75c-0.29-0.27-0.62-0.47-0.98-0.59
						c-0.36-0.12-0.82-0.18-1.37-0.18h-1.26l-0.35-1.79h-1.47l1.31,6.75H-383.88"/>
				</g>
			</g>
		</g>
	</g>
</g>
</svg>
