<svg xmlns="http://www.w3.org/2000/svg" viewBox="0 0 32 32" enable-background="new 0 0 32 32"><style type="text/css">.st0{fill:#EB6852;} .st1{fill:#F89883;} .st2{fill:#4296B4;}</style><path class="st0" d="M32 12.78l-.56-2.72c-.02-.1-.06-.2-.12-.28s-.14-.14-.22-.16l-1.5-.28c-.19-.42-.41-.8-.66-1.16-.25-.35-.52-.7-.81-1.03l.31-1.53c.02-.08.01-.17-.03-.27-.04-.09-.11-.17-.22-.23l-2.28-1.56c-.08-.04-.18-.07-.28-.08-.1-.01-.2.01-.28.05L24 4.41c-.4-.13-.79-.22-1.19-.3s-.8-.13-1.22-.17l-.97-1.41c-.04-.06-.11-.11-.2-.14-.09-.03-.19-.04-.3-.02l-2.72.53c-.1.02-.2.06-.28.12s-.14.14-.16.22l-.34 1.69c-.35.19-.69.39-1.02.61-.32.22-.63.45-.92.7l-1.75-.34c-.08-.02-.17-.01-.27.05-.08.05-.16.12-.22.21l-1.56 2.31c-.04.08-.07.18-.08.28s0 .19.04.25l1 1.5c-.13.35-.22.71-.3 1.08-.07.36-.13.75-.17 1.14l-1.56 1.03c-.08.04-.14.11-.17.2-.03.09-.04.19-.02.3l.53 2.75c.02.1.06.19.12.27s.14.12.22.14l1.84.41c.17.33.35.66.56.97.21.31.43.6.66.88l-.38 1.81c-.02.1-.01.2.05.28.05.08.12.16.2.22l2.31 1.56c.08.06.18.1.28.11.1.01.19-.02.25-.08l1.5-.97c.5.19 1.02.32 1.56.41.54.08 1.08.12 1.62.12-1.58-.25-2.98-.94-4.2-2.08s-1.99-2.54-2.33-4.2c-.23-1.08-.24-2.14-.03-3.17.21-1.03.6-1.97 1.17-2.83.57-.85 1.29-1.59 2.16-2.2.86-.61 1.84-1.04 2.92-1.27 1.08-.21 2.14-.21 3.17 0 1.03.21 1.98.59 2.84 1.16s1.6 1.28 2.2 2.16 1.02 1.85 1.25 2.94c.08.38.14.76.16 1.14.02.39.01.77-.03 1.14.08-.27.15-.55.19-.84.04-.29.07-.58.09-.88l1.28-.88c.08-.06.14-.14.17-.23.07-.1.07-.2.05-.31z"/><path class="st1" d="M27.47 15.91c-.1 0-.18-.03-.23-.09s-.08-.14-.08-.22c0-.94-.32-1.68-.95-2.23s-1.32-.93-2.05-1.14c-.21-.04-.42-.08-.62-.11-.21-.03-.42-.04-.62-.02-.9.04-1.68.34-2.36.91s-1.13 1.29-1.36 2.19c-.17.58-.22 1.15-.16 1.7s.23 1.06.5 1.52c.27.48.62.88 1.05 1.2s.91.56 1.45.7c.21.06.43.1.66.12.23.02.46.03.69.03.33-.02.72-.1 1.17-.25s.87-.42 1.27-.81l-4-1.06c-.08-.02-.15-.07-.2-.16-.05-.08-.07-.17-.05-.25l.47-1.72c.02-.08.07-.15.16-.2.08-.05.17-.07.25-.05l6.5 1.75c.06-.27.11-.55.14-.84.03-.29.05-.57.05-.84l-1.68-.13z"/><path class="st2" d="M12.09 22.44v-.03c-.02-.17-.05-.33-.08-.5-.03-.17-.07-.33-.11-.5 0-.02-.01-.03-.02-.03s-.02-.01-.02-.03l.69-1.03c.04-.04.06-.09.05-.16-.01-.06-.03-.11-.05-.16l-.91-1.38c-.04-.06-.09-.11-.14-.14s-.1-.04-.14-.02l-1.22.22c-.02 0-.03-.01-.03-.02v-.02l-.39-.3-.42-.27h-.05L9 16.84c0-.04-.02-.08-.06-.12s-.09-.07-.16-.09l-1.62-.31c-.06-.02-.12-.02-.17 0-.05.02-.1.05-.14.09l-.69 1.03h-.04c-.17.02-.34.05-.52.08s-.34.07-.48.11h-.06l-1.03-.69c-.04-.02-.09-.03-.16-.02-.06.01-.11.03-.16.05l-1.37.93c-.04.02-.08.06-.11.12s-.05.11-.05.16l.22 1.19v.03c-.13.15-.23.29-.33.44-.09.15-.19.29-.3.44v.03l-1.22.25c-.06.02-.11.05-.14.09s-.06.09-.08.16L0 22.44c0 .06 0 .12.01.18s.04.1.08.12l1.03.72v.03c.02.19.05.36.08.53.03.17.07.33.11.5 0 .02.01.03.02.03s.02.01.02.03l-.69 1.03c-.04.04-.06.09-.05.16s.03.11.05.16l.91 1.38c.04.06.09.1.14.12s.11.03.17.03l1.19-.22h.02s.01.01.02.03l.44.31s.15.09.44.28h.06l.22 1.22c.02.06.05.11.09.14s.09.06.16.08l1.59.31c.06.02.13.02.19 0s.1-.05.12-.09l.72-1.03h.03c.13 0 .25-.01.36-.03.11-.02.22-.05.33-.09-.17.02-.33.03-.5.03s-.33-.01-.5-.03c-1.13-.17-2.03-.7-2.7-1.61-.68-.91-.93-1.91-.77-3.02.15-1.13.67-2.03 1.58-2.7.91-.68 1.92-.94 3.05-.8 1.13.17 2.03.7 2.7 1.61.68.91.93 1.92.77 3.05-.04.25-.1.49-.19.73-.08.24-.18.46-.28.67.08-.1.16-.21.23-.33.07-.11.14-.23.2-.36l.03-.03 1.19-.28c.06 0 .11-.03.16-.08.04-.05.06-.11.06-.17l.34-1.62c0-.06-.01-.12-.03-.17-.02-.05-.05-.1-.09-.14l-1.02-.68z"/></svg>