<svg id="Layer_1" xmlns="http://www.w3.org/2000/svg" viewBox="0 0 32 32"><style>.st0{fill:#eb6852}.st1{fill:#f89883}.st2{fill:#4296b4}</style><path class="st0" d="M32 12.78l-.56-2.72c-.02-.1-.06-.2-.12-.28s-.14-.14-.22-.16l-1.5-.28c-.19-.42-.41-.8-.66-1.16-.25-.35-.52-.7-.81-1.03l.31-1.53c.02-.08.01-.17-.03-.27a.485.485 0 0 0-.22-.23l-2.28-1.56a.829.829 0 0 0-.28-.08.52.52 0 0 0-.28.05L24 4.41c-.4-.13-.79-.22-1.19-.3s-.8-.13-1.22-.17l-.97-1.41a.381.381 0 0 0-.2-.14.597.597 0 0 0-.3-.02l-2.72.53c-.1.02-.2.06-.28.12s-.14.14-.16.22l-.34 1.69c-.35.19-.69.39-1.02.61-.32.22-.63.45-.92.7l-1.75-.34a.346.346 0 0 0-.27.05c-.08.05-.16.12-.22.21l-1.56 2.31c-.04.08-.07.18-.08.28s0 .19.04.25l1 1.5c-.13.35-.22.71-.3 1.08-.07.36-.13.75-.17 1.14l-1.56 1.03c-.08.04-.14.11-.17.2-.03.09-.04.19-.02.3l.53 2.75c.02.1.06.19.12.27s.14.12.22.14l1.84.41c.17.33.35.66.56.97.21.31.43.6.66.88l-.38 1.81c-.02.1-.01.2.05.28.05.08.12.16.2.22l2.31 1.56c.08.06.18.1.28.11.1.01.19-.02.25-.08l1.5-.97c.5.19 1.02.32 1.56.41.54.08 1.08.12 1.62.12-1.58-.25-2.98-.94-4.2-2.08s-1.99-2.54-2.33-4.2a7.703 7.703 0 0 1-.03-3.17c.21-1.03.6-1.97 1.17-2.83a8.36 8.36 0 0 1 2.16-2.2c.86-.61 1.84-1.04 2.92-1.27 1.08-.21 2.14-.21 3.17 0a7.965 7.965 0 0 1 5.04 3.32c.6.88 1.02 1.85 1.25 2.94.08.38.14.76.16 1.14.02.39.01.77-.03 1.14.08-.27.15-.55.19-.84.04-.29.07-.58.09-.88l1.28-.88a.48.48 0 0 0 .17-.23c.07-.1.07-.2.05-.31z"/><path class="st1" d="M27.47 15.91c-.1 0-.18-.03-.23-.09s-.08-.14-.08-.22c0-.94-.32-1.68-.95-2.23s-1.32-.93-2.05-1.14c-.21-.04-.42-.08-.62-.11-.21-.03-.42-.04-.62-.02-.9.04-1.68.34-2.36.91s-1.13 1.29-1.36 2.19c-.17.58-.22 1.15-.16 1.7s.23 1.06.5 1.52c.27.48.62.88 1.05 1.2s.91.56 1.45.7c.21.06.43.1.66.12.23.02.46.03.69.03.33-.02.72-.1 1.17-.25s.87-.42 1.27-.81l-4-1.06a.31.31 0 0 1-.2-.16c-.05-.08-.07-.17-.05-.25l.47-1.72a.31.31 0 0 1 .16-.2c.08-.05.17-.07.25-.05l6.5 1.75a8.21 8.21 0 0 0 .19-1.68l-1.68-.13z"/><path class="st2" d="M12.09 22.44v-.03c-.02-.17-.05-.33-.08-.5-.03-.17-.07-.33-.11-.5 0-.02-.01-.03-.02-.03s-.02-.01-.02-.03l.69-1.03c.04-.04.06-.09.05-.16a.75.75 0 0 0-.05-.16l-.91-1.38c-.04-.06-.09-.11-.14-.14s-.1-.04-.14-.02l-1.22.22c-.02 0-.03-.01-.03-.02v-.02l-.39-.3-.42-.27h-.05L9 16.84c0-.04-.02-.08-.06-.12s-.09-.07-.16-.09l-1.62-.31a.248.248 0 0 0-.17 0 .42.42 0 0 0-.14.09l-.69 1.03h-.04c-.17.02-.34.05-.52.08s-.34.07-.48.11h-.06l-1.03-.69a.261.261 0 0 0-.16-.02.75.75 0 0 0-.16.05l-1.37.93a.26.26 0 0 0-.11.12c-.03.06-.05.11-.05.16l.22 1.19v.03c-.13.15-.23.29-.33.44-.09.15-.19.29-.3.44v.03l-1.22.25c-.06.02-.11.05-.14.09s-.06.09-.08.16L0 22.44c0 .06 0 .12.01.18s.04.1.08.12l1.03.72v.03c.02.19.05.36.08.53.03.17.07.33.11.5 0 .02.01.03.02.03s.02.01.02.03l-.69 1.03c-.04.04-.06.09-.05.16s.03.11.05.16l.91 1.38c.04.06.09.1.14.12s.11.03.17.03l1.19-.22h.02s.01.01.02.03l.44.31s.15.09.44.28h.06l.22 1.22c.02.06.05.11.09.14s.09.06.16.08l1.59.31c.06.02.13.02.19 0s.1-.05.12-.09l.72-1.03h.03c.13 0 .25-.01.36-.03.11-.02.22-.05.33-.09a4.193 4.193 0 0 1-1 0c-1.13-.17-2.03-.7-2.7-1.61-.68-.91-.93-1.91-.77-3.02.15-1.13.67-2.03 1.58-2.7.91-.68 1.92-.94 3.05-.8 1.13.17 2.03.7 2.7 1.61.68.91.93 1.92.77 3.05-.04.25-.1.49-.19.73-.08.24-.18.46-.28.67.08-.1.16-.21.23-.33.07-.11.14-.23.2-.36l.03-.03 1.19-.28c.06 0 .11-.03.16-.08.04-.05.06-.11.06-.17l.34-1.62a.42.42 0 0 0-.12-.31l-1.02-.68z"/></svg>