<svg xmlns="http://www.w3.org/2000/svg" viewBox="0 0 100 100"><defs><style>.cls-1{fill:#d71e00}.cls-2{fill:#c21a00}.cls-3{fill:#cdcdcd}.cls-4{fill:#fff}.cls-5{fill:#b7b7b7}.cls-6{fill:#eaeaea}</style></defs><title>Logo</title><g id="Layer_1" data-name="Layer 1"><circle class="cls-1" cx="50" cy="50" r="50" transform="rotate(-45 50 50)"/><path class="cls-2" d="M85.36 14.64a50 50 0 0 1-70.72 70.72z"/><circle class="cls-3" cx="40.01" cy="29.72" r="1.78"/><path class="cls-4" d="M34.09 24.38v10.69a1 1 0 0 0 1 1H53.3l12.6-12.6H35a1 1 0 0 0-.91.91zm11.57 3.56a1.78 1.78 0 1 1-1.78 1.78 1.78 1.78 0 0 1 1.78-1.78zm-5.64 0a1.78 1.78 0 1 1-1.78 1.78A1.78 1.78 0 0 1 40 27.94z"/><circle class="cls-5" cx="45.66" cy="29.72" r="1.78"/><rect class="cls-5" x="67.3" y="26.78" width="2.34" height="5.89" rx=".39" ry=".39"/><rect class="cls-5" x="71.68" y="26.78" width="2.34" height="5.89" rx=".39" ry=".39"/><path class="cls-6" d="M76.81 23.42H65.9L53.3 36h10.41v6.78a.57.57 0 0 0 1 .41L71.86 36h5a1 1 0 0 0 1-1V24.38a1 1 0 0 0-1.05-.96zm-7.17 8.86a.39.39 0 0 1-.39.39h-1.56a.39.39 0 0 1-.39-.39v-5.11a.39.39 0 0 1 .39-.39h1.56a.39.39 0 0 1 .39.39zm4.38 0a.39.39 0 0 1-.39.39h-1.56a.39.39 0 0 1-.39-.39v-5.11a.39.39 0 0 1 .39-.39h1.56a.39.39 0 0 1 .39.39z"/><circle class="cls-3" cx="40.01" cy="68.1" r="1.78"/><path class="cls-4" d="M34.09 62.75v10.7a1 1 0 0 0 1 1H53.3L65.9 61.8H35a1 1 0 0 0-.91.95zm11.57 3.56a1.78 1.78 0 1 1-1.78 1.78 1.78 1.78 0 0 1 1.78-1.77zm-5.64 0a1.78 1.78 0 1 1-1.78 1.78A1.78 1.78 0 0 1 40 66.32z"/><circle class="cls-5" cx="45.66" cy="68.1" r="1.78"/><rect class="cls-5" x="67.3" y="65.15" width="2.34" height="5.89" rx=".39" ry=".39"/><rect class="cls-5" x="71.68" y="65.15" width="2.34" height="5.89" rx=".39" ry=".39"/><path class="cls-6" d="M76.81 61.8H65.9L53.3 74.4h10.41v6.78a.57.57 0 0 0 1 .41l7.17-7.17h5a1 1 0 0 0 1-1V62.75a1 1 0 0 0-1.07-.95zm-7.17 8.86a.39.39 0 0 1-.39.39h-1.56a.39.39 0 0 1-.39-.39v-5.12a.39.39 0 0 1 .39-.39h1.56a.39.39 0 0 1 .39.39zm4.38 0a.39.39 0 0 1-.39.39h-1.56a.39.39 0 0 1-.39-.39v-5.12a.39.39 0 0 1 .39-.39h1.56a.39.39 0 0 1 .39.39z"/><circle class="cls-3" cx="19.51" cy="48.97" r="1.78"/><path class="cls-4" d="M14.55 42.67a1 1 0 0 0-1 1v10.65a1 1 0 0 0 1 1h5l7.17 7.17a.57.57 0 0 0 1-.41v-6.8h5.08l12.6-12.6zm5 8.09A1.78 1.78 0 1 1 21.3 49a1.78 1.78 0 0 1-1.79 1.76zm5.64 0A1.78 1.78 0 1 1 26.94 49a1.78 1.78 0 0 1-1.78 1.76z"/><circle class="cls-5" cx="25.16" cy="48.97" r="1.78"/><rect class="cls-5" x="46.8" y="46.03" width="2.34" height="5.89" rx=".39" ry=".39"/><rect class="cls-5" x="51.18" y="46.03" width="2.34" height="5.89" rx=".39" ry=".39"/><path class="cls-6" d="M56.31 42.67H45.4L32.8 55.28h23.51a1 1 0 0 0 1-1V43.63a1 1 0 0 0-1-.96zm-7.17 8.86a.39.39 0 0 1-.39.39h-1.56a.39.39 0 0 1-.39-.39v-5.11a.39.39 0 0 1 .39-.39h1.56a.39.39 0 0 1 .39.39zm4.38 0a.39.39 0 0 1-.39.39h-1.56a.39.39 0 0 1-.39-.39v-5.11a.39.39 0 0 1 .39-.39h1.56a.39.39 0 0 1 .39.39z"/></g></svg>