<svg xmlns="http://www.w3.org/2000/svg" viewBox="0 0 32 32"><path d="M16 0c-2.21 0-4.29.42-6.23 1.25s-3.65 1.97-5.1 3.42-2.59 3.15-3.42 5.1S0 13.79 0 16s.42 4.29 1.25 6.23 1.97 3.65 3.42 5.09c1.45 1.45 3.15 2.59 5.09 3.42S13.79 32 16 32s4.29-.42 6.23-1.25 3.65-1.97 5.09-3.42c1.45-1.45 2.59-3.15 3.42-5.09S32 18.21 32 16s-.42-4.29-1.25-6.23-1.97-3.65-3.42-5.09c-1.45-1.45-3.15-2.59-5.09-3.42S18.21 0 16 0zm6.56 23.97c-.15 0-.29-.03-.42-.09s-.29-.17-.45-.31l-8.25-6.66-2.78 6.94H8.28l6.97-16.81c.1-.23.24-.4.42-.52.18-.11.38-.17.61-.17.21 0 .4.06.58.17.18.11.31.29.39.52l6.38 15.31c.04.1.07.2.08.28.01.08.02.15.02.19 0 .33-.11.61-.34.83s-.51.32-.83.32zm-8.4-8.91L20.41 20 16.28 9.78l-2.12 5.28z"/></svg>