<svg id="Layer_1" xmlns="http://www.w3.org/2000/svg" viewBox="0 0 32 32"><style>.st0{fill:url(#SVGID_1_)}.st1{fill:#fff}</style><linearGradient id="SVGID_1_" gradientUnits="userSpaceOnUse" x1="1.249" y1="15.997" x2="30.439" y2="15.997"><stop offset="0" stop-color="#345e96"/><stop offset=".101" stop-color="#3865a1"/><stop offset=".337" stop-color="#3f72b6"/><stop offset=".492" stop-color="#4277be"/><stop offset=".654" stop-color="#3f72b6"/><stop offset=".906" stop-color="#3864a0"/><stop offset="1" stop-color="#345e96"/></linearGradient><path class="st0" d="M30.44.48a.48.48 0 0 0-.48-.48H1.73c-.26 0-.48.22-.48.48 1.25.6 1.74 1.84 1.74 1.84v25.81A3.88 3.88 0 0 0 6.86 32h17.78a3.88 3.88 0 0 0 3.87-3.87V2.32s-.2-.97 1.93-1.84z"/><path class="st1" d="M12.68 6.42H2.95V4.24h10.51zM2.95 9.56h5.98v2.18H2.95zM2.95 14.96h5.98v2.18H2.95zM2.95 20.37h5.98v2.18H2.95zM2.95 25.77h5.98v2.18H2.95z"/><path class="st1" d="M21.12 27.95h-7.15c-.81 0-1.39-.24-1.73-.71-.35-.47-.52-1.22-.52-2.25V7.12c0-1.05.18-1.8.53-2.26.35-.46.93-.69 1.72-.69h5.21c.88 0 1.63.07 2.28.21.64.14 1.22.41 1.73.81.43.34.82.76 1.15 1.27.33.51.59 1.08.76 1.7.18.62.26 1.28.26 1.97 0 2.38-1.01 3.72-2.84 4.82 4 .41 5.98 3.33 5.98 6.2 0 1.33-.26 2.53-.79 3.59-.53 1.07-1.23 1.85-2.13 2.36-.56.3-1.2.52-1.93.64-.72.14-1.57.21-2.53.21zM15.43 7.43v5.41h2.11c.81 0 1.44-.1 1.89-.3.44-.2.78-.58 1.02-1.14.18-.4.27-.85.27-1.34 0-1.06-.29-1.76-.87-2.1-.58-.35-1.46-.52-2.65-.52h-1.77zm4.08 10.39h-4.08v6.11h4.87c2.21 0 3.31-1.03 3.31-3.1 0-1.06-.48-1.63-1.06-2.11-.57-.48-1.91-.9-3.04-.9z"/></svg>