<svg id="Layer_1" xmlns="http://www.w3.org/2000/svg" viewBox="0 0 32 32"><style>.st0{fill:#2d485e}.st1{fill:#5d7e95}.st2{fill:#fff}.st3{fill:#92c37e}.st4{fill:#4a5d75}</style><path class="st0" d="M31.71 26.06c-8.45 2.37-13.15 2.33-13.61 2.27-.57.07-5.26.06-13.59-2.27 0 0 2.56-21.17 13.55-23.77v-.02c.02 0 .03.01.04.01.02 0 .04-.01.05-.01v.03c11.01 2.59 13.56 23.76 13.56 23.76z"/><path class="st1" d="M17.61 28.63c-.83 0-5.35-.11-13.18-2.3a.293.293 0 0 1-.21-.31c.11-.87 2.7-21.3 13.69-23.99a.32.32 0 0 1 .19-.05c.08-.02.17.01.24.06C29.31 4.77 31.89 25.15 32 26.03c.02.14-.07.27-.21.31-7.81 2.19-12.38 2.3-13.22 2.3-.2 0-.37-.01-.47-.02-.11.01-.28.01-.49.01zM4.83 25.85c7.6 2.11 11.98 2.21 12.79 2.21.24 0 .4-.01.46-.02h.07c.05.01.2.01.44.01.81 0 5.23-.11 12.82-2.21-.34-2.34-3.26-20.88-13.3-23.27C8.08 4.97 5.16 23.5 4.83 25.85z"/><path class="st1" d="M11.57 22.11h5.35v6.29h-5.35z"/><path class="st1" d="M16.92 28.68h-5.35c-.16 0-.28-.13-.28-.29V22.1c0-.16.13-.28.28-.28h5.35c.16 0 .29.13.29.28v6.29c0 .17-.13.29-.29.29zm-5.07-.57h4.78v-5.72h-4.78v5.72zM19.17 22.07h5.35v6.29h-5.35z"/><path class="st1" d="M24.53 28.65h-5.35c-.16 0-.28-.13-.28-.29v-6.29c0-.16.13-.29.28-.29h5.35c.16 0 .29.13.29.29v6.29c-.01.16-.14.29-.29.29zm-5.07-.57h4.78v-5.72h-4.78v5.72z"/><path class="st2" d="M29.19 23.49c-6.88 1.93-10.71 1.9-11.08 1.85-.46.05-4.28.05-11.07-1.85 0 0 2.08-17.24 11.04-19.36v-.02c.01 0 .02.01.04.01s.03-.01.04-.01v.02c8.95 2.12 11.03 19.36 11.03 19.36z"/><path class="st3" d="M25.21 6.7s1.32 2.97 1.32 5.29l-.82-.66s1.13 1.32 1.29 3.14l-1.29-.33s1.02.52 1.24 2.51c.01.08.04.72-.24 1.63-.31.17.01-.79-1.2-1.31-.34.03.91 1.36.5 2.88-.19.32-.12-.81-1.22-.85-.24-.01.48 1 .04 2.39-.23.24-.06-.49-.99-.7-.2-.04.38.96-.27 1.8-.16.12-.18-.59-.67-.63-.25.17.19 1.04-.66 1.5-.24.14-.13-.45-.81-.39-.29.03.1.8-.78 1.19-.3.13-.43-.44-.75-.32-.43.16-.28.81-1.54 1.16l-.92.19.36-12.71s1.96-1.49 3.77-.33c1.82 1.16 2.48.17 2.48.17s-.33 1.82-1.82 1.82c0 0 1.65 1.15 2.48-1.16.83-2.31-.99-6.11-.99-6.11"/><path class="st3" d="M10.84 6.7s-1.32 2.97-1.32 5.29l.83-.66s-1.13 1.32-1.29 3.14l1.29-.33s-1.32 1.49-1.32 4.13l.83-.5.33 1.82 8.07-7.1s-1.96-1.49-3.77-.33c-1.82 1.16-2.48.17-2.48.17s.33 1.82 1.82 1.82c0 0-1.65 1.15-2.48-1.16-.83-2.31.99-6.11.99-6.11"/><path class="st4" d="M18.23 11.39c4.56-.14 7.96-2.02 7.96-2.02C24.47 2 18.71.43 18 .26V.24s-.02.01-.04.01c-.01 0-.04-.01-.04-.01v.02c-.7.17-6.47 1.74-8.19 9.11 0 0 3.41 1.88 7.96 2.02v.01h.54v-.01z"/><path class="st4" d="M12.83 7.52s-3.82.79-4.21-.79c-.39-1.58-.26-2.5.39-6.31 0 0 1.05 1.05.79 2.5s0 3.03 3.95 2.5c0 0 1.71.13-.92 2.1z"/><path class="st4" d="M10.87 8c-1.48 0-2.33-.4-2.53-1.2-.41-1.64-.27-2.6.39-6.43.02-.1.09-.19.2-.22.1-.03 1.76.15 1.41 2.2-.13.77.06 1.87.36 2.22.48.58 1.29.8 3.06.56h.02c.07.01.65.06.79.54.13.51-.36 1.17-1.57 2.08-.03.03-.07.04-.11.05-.05.01-1 .2-2.02.2zM9.18 1.13c-.55 3.19-.64 4.1-.29 5.54.16.64 1.16.77 1.98.77.82 0 1.61-.14 1.84-.18 1.39-1.05 1.3-1.41 1.3-1.43-.02-.06-.16-.11-.25-.12-1.99.26-3.25.03-3.88-.73-.55-.65-.47-1.52-.36-2.12.13-.71-.11-1.33-.34-1.73zM23.18 7.52s3.82.79 4.21-.79c.4-1.58.26-2.5-.4-6.31 0 0-1.05 1.05-.79 2.5s0 3.03-3.95 2.5c.01 0-1.7.13.93 2.1z"/><path class="st4" d="M23.13 7.8a.37.37 0 0 1-.11-.05c-1.21-.91-1.71-1.57-1.56-2.08.14-.47.72-.53.78-.54h.09c1.76.23 2.51.01 2.99-.57.3-.35.49-1.45.36-2.22C25.34.29 26.99.11 27.09.14c.1.03.18.12.2.22.66 3.83.8 4.79.39 6.43C27.47 7.6 26.62 8 25.14 8c-1.02 0-1.97-.19-2.01-.2zm3.36-4.94c.11.6.19 1.46-.35 2.11-.63.75-1.89.99-3.88.73-.09.01-.24.06-.25.12 0 .01-.09.37 1.3 1.43.22.04 1.02.18 1.84.18.81 0 1.82-.13 1.98-.77.36-1.43.26-2.35-.28-5.54-.25.41-.49 1.03-.36 1.74z"/><g><path class="st2" d="M10.31 31.7c-.04 0-.08-.01-.12-.02C2.24 29.71.38 14.51.3 13.87c-.02-.14.07-.28.21-.32 5.61-1.62 8.86-1.7 9.45-1.7.15 0 .27 0 .35.01.08-.01.19-.01.34-.01.6 0 3.88.08 9.47 1.7.14.04.23.17.21.32-.08.65-1.94 15.84-9.89 17.81-.03.01-.08.02-.13.02z"/><path class="st1" d="M9.96 12.14c.17 0 .29.01.35.01.05 0 .16-.01.34-.01 1.03 0 4.24.2 9.39 1.69 0 0-1.83 15.64-9.69 17.56 0 0-.02.01-.03.01-.01 0-.03-.01-.03-.01C2.43 29.47.6 13.83.6 13.83c5.11-1.48 8.3-1.69 9.36-1.69m0-.59c-.6 0-3.89.08-9.53 1.72-.28.08-.46.35-.43.63.08.65 1.97 16.03 10.1 18.06.06.02.13.04.2.04h.02c.08 0 .15-.02.21-.04 8.13-2.03 10.02-17.41 10.1-18.06a.602.602 0 0 0-.42-.64c-5.49-1.59-8.71-1.71-9.56-1.71-.1 0-.23 0-.34.01-.11-.01-.25-.01-.35-.01z"/></g><g><path class="st1" d="M27.73 11.99s1.18-.1 1.88 1.68c.69 1.77 2.47 6.51 2.17 7.6-.3 1.09-.79.89-.79.89l-3.26-10.17z"/></g><g><path class="st2" d="M18.22 10.12c-3.12 0-5.47-.73-5.62-.78l.45-1.41c.05.02 5.08 1.57 9.96 0l.45 1.41c-1.81.58-3.63.78-5.24.78z"/></g><g><circle class="st0" cx="20.76" cy="9.19" r=".67"/></g><g><circle class="st0" cx="15.19" cy="9.15" r=".67"/></g></svg>