<svg xmlns="http://www.w3.org/2000/svg" xmlns:xlink="http://www.w3.org/1999/xlink" viewBox="0 0 32 32" enable-background="new 0 0 32 32"><style type="text/css">.st0{fill:#BBE6FB;} .st1{fill:none;} .st2{opacity:0.35;} .st3{fill:#FFFFFF;} .st4{fill:#373535;} .st5{fill:#1287B1;} .st6{opacity:0.35;clip-path:url(#SVGID_2_);}</style><path id="path2838" class="st0" d="M25.568 13.453c.24 2.74-4.07 5.34-9.62 5.82-5.55.48-10.24-1.36-10.48-4.1-.24-2.74 4.07-5.34 9.62-5.82 5.56-.48 10.25 1.36 10.48 4.1"/><g id="g2848"><path class="st1" d="M8.53 9.67h13.1v9.23H8.53z"/><path id="path2862" class="st3" d="M15.264 9.673c-2.12-.03-4.59.81-6.44 1.59-.19.55-.3 1.14-.3 1.75 0 3.25 2.93 5.88 6.55 5.88 3.62 0 6.55-2.63 6.55-5.88 0-1.03-.29-1.99-.81-2.83-1.47-.23-3.5-.48-5.55-.51"/></g><path id="path2874" class="st3" d="M15.083 9.678c-1.17-.07-3.19.54-4.88 1.15-.26.6-.4 1.27-.4 1.96 0 2.85 2.58 5.15 5.31 5.15 2.71 0 5.11-2.31 5.31-5.15.06-.93-.25-1.8-.7-2.55-1.74-.31-3.6-.5-4.64-.56"/><g id="g2878"><path id="path2886" class="st4" d="M12.072 12.405c.14-.32.36-.47.57-.74-.02-.06-.07-.27-.07-.34 0-.32.26-.58.58-.58.08 0 .15.02.21.04.96-.73 2.22-1.05 3.49-.77.12.03.23.06.34.09-1.25-.17-2.67.27-3.63 1.05.03.07.11.27.11.35 0 .32-.21.4-.53.4-.07 0-.14-.01-.21-.04-.22.29-.48.85-.61 1.19.53.48 1.01.65 1.64.88 0-.03.02-.06.02-.09 0-.97.85-1.75 1.81-1.75.86 0 1.58.63 1.72 1.45.43-.27.85-.48 1.17-.89-.07-.09-.15-.35-.15-.47 0-.29.24-.53.53-.53.04 0 .08.01.12.01.16-.33.28-.68.36-1.05-1.51-1.12-4.43-.96-4.43-.96s-2.32-.12-3.9.65c.11.77.41 1.49.86 2.1"/><path id="path2890" class="st4" d="M19.28 11.978c.11.1.16.18.21.26.14.25-.14.49-.43.49-.03 0-.06 0-.09-.01-.33.51-.9 1.17-1.41 1.5.78.13 1.52.44 2.1.92.43-.76.75-1.87.75-2.81 0-.71-.32-1.24-.79-1.62-.01.38-.22.92-.34 1.27"/><path id="path2894" class="st4" d="M12.944 16.813c.26-.72.9-1.28 1.51-1.76-.09-.12-.22-.42-.28-.56-.74-.22-1.39-.64-1.9-1.2 0 .02-.01.03-.01.05-.1.43-.11.86-.07 1.27.35.07.62.38.62.75 0 .22-.19.54-.34.68.16.35.28.52.47.77"/><path id="path2898" class="st4" d="M12.896 17.42c-.31-.31-.52-.92-.73-1.31-.04.01-.08.01-.12.01-.42 0-.86-.35-.76-.76.06-.23.21-.37.47-.5-.06-.47-.07-1.14.04-1.63.03-.14.1-.2.14-.34-.46-.68-.76-1.57-.76-2.46v-.1c-.78.39-1.37 1.01-1.37 1.99 0 2.16 1.24 4.28 3.09 5.11v-.01"/><path id="path2902" class="st4" d="M17.45 14.43c-.24.68-.89 1.17-1.65 1.17-.41 0-.78-.14-1.08-.37-.61.48-1.17 1.31-1.45 2.04.13.14.22.25.36.37.43.11 1.02 0 1.48 0 1.87 0 3.52-.83 4.46-2.28-.62-.44-1.37-.86-2.12-.93"/></g><g id="g2906"><path id="path2914" class="st5" d="M12.02 12.664c.14-.32.32-.61.53-.88-.02-.06-.04-.13-.04-.2 0-.32.26-.58.58-.58.08 0 .15.02.21.04.96-.73 2.22-1.05 3.49-.77.12.03.23.06.34.09-1.25-.17-2.55.21-3.51.99.03.07.05.15.05.23 0 .32-.26.58-.58.58-.07 0-.14-.01-.21-.04-.22.29-.39.61-.53.96.46.49 1.02.88 1.64 1.12v-.09c0-.96.78-1.75 1.75-1.75.86 0 1.58.63 1.72 1.45.43-.27.81-.63 1.13-1.03-.07-.09-.12-.2-.12-.33 0-.29.24-.53.53-.53.04 0 .08.01.12.01.16-.33.28-.68.36-1.05-1.51-1.12-4.43-.96-4.43-.96s-2.32-.12-3.9.65c.12.76.43 1.48.87 2.09"/><path id="path2918" class="st5" d="M19.36 12.058c.11.1.18.23.18.39 0 .29-.24.53-.53.53-.03 0-.06 0-.09-.01-.33.51-.76.95-1.27 1.28.75.12 1.46.44 2.05.92.43-.76.67-1.64.67-2.58 0-.71-.32-1.24-.79-1.62-.02.37-.1.74-.22 1.09"/><path id="path2922" class="st5" d="M13.025 16.99c.26-.72.71-1.36 1.32-1.85-.09-.12-.16-.25-.22-.4-.74-.22-1.39-.64-1.9-1.2 0 .02-.01.03-.01.05-.1.43-.11.86-.07 1.27.35.07.62.38.62.75 0 .22-.09.42-.25.56.15.29.32.56.51.82"/><path id="path2926" class="st5" d="M12.902 17.408c-.31-.31-.57-.66-.77-1.05-.04.01-.08.01-.12.01-.42 0-.76-.34-.76-.76 0-.3.18-.56.43-.68-.06-.47-.04-.95.07-1.44.03-.14.07-.28.11-.41-.46-.68-.74-1.5-.74-2.39v-.1c-.78.39-1.37 1.01-1.37 1.99 0 2.16 1.29 4.02 3.14 4.85 0-.01 0-.01.01-.02"/><path id="path2930" class="st5" d="M17.4 14.68c-.24.68-.89 1.17-1.65 1.17-.41 0-.78-.14-1.08-.37-.61.48-1.07 1.13-1.36 1.85.13.14.26.26.4.39.43.11.88.17 1.34.17 1.87 0 3.51-.96 4.45-2.42-.61-.43-1.34-.72-2.1-.79"/></g><g id="g2940"><path class="st1" d="M12.27 10.79h6.81v6.81h-6.81z"/><path id="path2954" class="st3" d="M17.462 14.237l1.61-.39-1.62-.08 1.32-1.01-1.5.54 1.02-1.41-1.4.93.49-1.65-.96 1.36-.02-1.72-.63 1.53-.53-1.55.03 1.82-.91-1.64.49 1.74-1.48-1.08 1.16 1.46-1.84-.68 1.45 1.08-1.86.06 1.91.49-1.91.41 1.88.14-1.59 1.02 1.63-.59-1.13 1.44 1.43-1.16-.52 1.93 1.11-1.57-.16 1.85.63-1.68.53 1.77.13-1.77.79 1.51-.47-1.73 1.45 1.13-.94-1.44 1.59.62-1.22-1.2 1.63.13-1.59-.61z"/></g><g id="g2958"><g id="g2964"><path class="st1" d="M.28 8.15H31.8v9.17H.28z"/><path id="path2978" class="st4" d="M.273 17.32c5.01-5.01 9.01-6.55 12.63-7.26.48-.09.57-1.14.57-1.14s.07.77.4.87c.34.1.77-1.21.77-1.21s-.4 1.18 0 1.24c.4.07 1.14-1.14 1.14-1.14s-.3 1.04-.1 1.11c.2.07 1.21-1.51 1.21-1.51s-.6 1.04-.03 1.14c.57.1 1.4-.71 1.4-.71s-.66.74-.36.85c1.24.44 2.25-1.18 2.25-1.18s-.23.71-.84 1.48c1.31.34 2.28-1.64 2.28-1.64l-.97 1.97c.5.27 2.52-2.05 2.52-2.05s-1.04 1.81-1.65 2.18c.34.27 1.55-.81 1.55-.81s-.97 1.21-.6 1.28c.54.44 2.52-2.25 2.52-2.25s-.77 1.58-1.92 2.82c.95.48 3.33-2.59 3.33-2.59s-.07.97-1.78 2.52c1.28-.17 2.92-2.59 2.92-2.59s-.6 1.81-2.05 3.09c1.25-.13 3.26-3.23 3.26-3.23s-.77 2.15-2.35 3.39c1.75.39 4.27-2.22 4.27-2.22s-.99 1.85-2.29 2.6c1.45.55 3.43-1.73 3.43-1.73s-1.98 3.06-5.14 2.92c-1.04-.04-4.17-3.14-10.89-2.89-8.86.38-10.74 4.14-15.48 6.69"/></g><path id="path2982" class="st4" d="M.476 16.943c5.01-5.01 9.01-6.55 12.63-7.26.48-.09.57-1.14.57-1.14s.07.77.4.87c.34.1.77-1.21.77-1.21s-.4 1.18 0 1.24c.4.07 1.14-1.14 1.14-1.14s-.3 1.04-.1 1.11c.2.07 1.21-1.51 1.21-1.51s-.6 1.04-.03 1.14c.57.1 1.4-.71 1.4-.71s-.66.74-.36.85c1.24.44 2.25-1.18 2.25-1.18s-.23.71-.84 1.48c1.31.34 2.28-1.64 2.28-1.64l-.97 1.97c.5.27 2.52-2.05 2.52-2.05s-1.04 1.81-1.65 2.18c.34.27 1.55-.81 1.55-.81s-.97 1.21-.6 1.28c.54.44 2.52-2.25 2.52-2.25s-.77 1.58-1.92 2.82c.95.48 3.33-2.59 3.33-2.59s-.07.97-1.78 2.52c1.28-.17 2.92-2.59 2.92-2.59s-.6 1.81-2.05 3.09c1.25-.13 3.26-3.23 3.26-3.23s-.77 2.15-2.35 3.39c1.75.39 4.27-2.22 4.27-2.22s-.99 1.85-2.29 2.6c1.45.55 3.43-1.73 3.43-1.73s-1.98 3.06-5.14 2.92c-1.04-.04-4.17-3.14-10.89-2.89-8.86.37-10.74 4.14-15.48 6.69"/></g><g id="g2986"><g id="g3000"><defs><path id="SVGID_1_" d="M.14 13.72h29.59v10.95H.14z"/></defs><clipPath id="SVGID_2_"><use xlink:href="#SVGID_1_" overflow="visible"/></clipPath><path id="path3006" class="st4" d="M.14 17.87c2.65 1.33 5.07-.2 8.12.66 2.32.65 5.14 1.46 8.97.9 3.83-.55 7.11-2.22 8.67-5.19.49-1.33 2.47.3 2.47.3s-1.44-.6-1.41-.32c.03.29 2.17 1.28 2.17 1.28s-1.93-.6-1.81-.15c.12.45 2.42 2.27 2.42 2.27s-2.6-1.98-2.82-1.71c-.22.27 1.11 1.36 1.11 1.36s-2.2-1.36-2.97-.96c-.56.29 2.29 2.15 2.29 2.15s-1.85-1.41-2.29-1.04c-.44.37 2.08 3.39 2.08 3.39s-2.86-3.09-3.14-2.94c-.29.15.79 1.63.79 1.63s-1.41-1.55-1.8-1.28c-.39.27 2.02 4.28 2.02 4.28s-2.6-4.12-3.68-3.43c1.69 3.7 1.06 4.23 1.06 4.23s-.22-3.78-2.32-3.68c-1.06.05.5 2.82.5 2.82s-1.44-2.53-2.4-2.48c1.77 3.34 1.14 4.7 1.14 4.7s.29-2.85-2.1-4.44c.91.81-.57 4.44-.57 4.44s1.3-5.36-.96-4.33c-.36.16-.03 2.67-.03 2.67s-.45-2.87-1.13-2.72c-.4.09-2.52 3.98-2.52 3.98s1.74-4.21 1.21-4.03c-.39.13-1.11 1.86-1.11 1.86s.35-1.71 0-1.81c-.35-.1-2.32 1.81-2.32 1.81s1.46-1.71 1.21-2.07c-.38-.53-.83-.56-1.36-.35-.77.3-1.81 1.71-1.81 1.71s1.04-1.43.86-1.97c-.29-.86-3.28 1.66-3.28 1.66s1.76-1.66 1.36-2.02c-.4-.35-2.59-.24-3.28-.25-2.02.03-2.72-.44-3.34-.93"/></g><path id="path3010" class="st4" d="M.04 17.568c2.65 1.33 5.07-.2 8.11.66 2.32.65 5.14 1.46 8.97.9 3.83-.55 7.11-2.22 8.67-5.19.49-1.33 2.47.3 2.47.3s-1.44-.6-1.41-.32c.03.29 2.17 1.28 2.17 1.28s-1.93-.6-1.81-.15c.12.45 2.42 2.27 2.42 2.27s-2.6-1.98-2.82-1.71c-.22.27 1.11 1.36 1.11 1.36s-2.2-1.36-2.97-.96c-.56.29 2.28 2.15 2.28 2.15s-1.85-1.41-2.28-1.04c-.44.37 2.08 3.39 2.08 3.39s-2.86-3.09-3.14-2.94c-.29.15.79 1.63.79 1.63s-1.41-1.55-1.8-1.28c-.39.27 2.02 4.28 2.02 4.28s-2.6-4.12-3.68-3.43c1.69 3.7 1.06 4.23 1.06 4.23s-.22-3.78-2.32-3.68c-1.06.05.5 2.82.5 2.82s-1.44-2.53-2.4-2.48c1.77 3.34 1.14 4.7 1.14 4.7s.29-2.85-2.1-4.44c.91.81-.57 4.44-.57 4.44s1.3-5.36-.96-4.33c-.36.16-.03 2.67-.03 2.67s-.45-2.87-1.13-2.72c-.4.09-2.52 3.98-2.52 3.98s1.74-4.21 1.21-4.03c-.39.13-1.11 1.86-1.11 1.86s.35-1.71 0-1.81c-.35-.1-2.32 1.81-2.32 1.81s1.46-1.71 1.21-2.07c-.38-.53-.83-.56-1.36-.35-.77.3-1.81 1.71-1.81 1.71s1.04-1.43.86-1.97c-.29-.86-3.28 1.66-3.28 1.66s1.76-1.66 1.36-2.02c-.4-.35-2.59-.24-3.28-.25-2.02.03-2.72-.44-3.33-.93"/></g></svg>