<svg id="Layer_1" xmlns="http://www.w3.org/2000/svg" viewBox="0 0 32 32"><style>.st0{fill:#fff}.st1{fill:#91dc47}.st2{fill:#63b132}.st3{fill:#90b4fe}.st4{fill:#5881d8}</style><path id="path8" class="st0" d="M15.99.01C7.18.01 0 7.18 0 16s7.17 15.99 15.99 15.99S31.98 24.82 31.98 16 24.81.01 15.99.01"/><path id="path10" class="st1" d="M15.33 16.29c-.16.34-.33.73-.52 1.14-.64 1.45-1.35 3.23-1.61 4.36-.09.4-.15.9-.15 1.46 0 .22.01.45.03.69.91.33 1.89.52 2.91.52.93 0 1.83-.16 2.67-.43-.2-.18-.38-.37-.56-.59-1.13-1.46-1.77-3.58-2.77-7.15"/><path id="path12" class="st1" d="M11.13 9.09A8.47 8.47 0 0 0 7.53 16a8.44 8.44 0 0 0 3.5 6.84c.52-2.16 1.82-4.14 3.77-8.11-.12-.32-.25-.67-.4-1.03-.54-1.36-1.32-2.93-2.02-3.64-.34-.37-.77-.7-1.25-.97"/><path id="path14" class="st2" d="M23.36 25.7c-1.12-.14-2.04-.31-2.85-.59A10.05 10.05 0 0 1 16 26.17c-5.61 0-10.16-4.55-10.16-10.16 0-3.04 1.34-5.77 3.46-7.64-.57-.14-1.16-.22-1.77-.22-2.98.03-6.12 1.68-7.43 6.13-.13.65-.1 1.14-.1 1.72 0 8.83 7.16 15.99 15.99 15.99 5.41 0 10.19-2.69 13.08-6.8-1.56.39-3.07.58-4.36.58-.48 0-.93-.02-1.35-.07"/><path id="path16" class="st3" d="M20.35 22.6c.1.05.32.13.63.22A8.436 8.436 0 0 0 24.44 16c-.01-4.67-3.79-8.45-8.46-8.45-.93 0-1.82.15-2.65.43 1.72 1.96 2.54 4.75 3.34 7.81 0 0 .26.85.69 1.97.43 1.12 1.05 2.51 1.72 3.52.46.69.94 1.18 1.27 1.32"/><path id="path18" class="st4" d="M15.99.01c-5.36 0-10.09 2.64-13 6.68C4.51 5.74 6.05 5.4 7.4 5.41c1.85.01 3.32.59 4.02.98.17.1.33.2.49.31 1.25-.55 2.63-.86 4.09-.86 5.61 0 10.16 4.55 10.16 10.16 0 2.83-1.16 5.39-3.02 7.23.46.05.95.08 1.44.08 1.77 0 3.69-.39 5.12-1.6.94-.79 1.72-1.94 2.15-3.67.09-.67.13-1.35.13-2.04C31.98 7.17 24.82.01 15.99.01"/></svg>