<svg id="Layer_1" xmlns="http://www.w3.org/2000/svg" viewBox="0 0 32 32"><style>.st0{fill:#ee4323}</style><path class="st0" d="M22 32c.46-.31.83-.69 1.12-1.12.29-.46.49-.97.59-1.53.13-.56.2-1.04.22-1.44.05-.4.07-.91.07-1.53 0-.79-.21-1.59-.62-2.41-.44-.83-.98-1.56-1.62-2.19-.67-.65-1.31-1.2-1.94-1.66-.65-.45-1.26-.83-1.82-1.12a9.43 9.43 0 0 1-2.84-2.12C14.39 16 14 15.04 14 14c-.35 0-.77.3-1.25.91-.5.62-.75 1.32-.75 2.09 0 .38.2.78.59 1.22.42.44.86.83 1.34 1.19.48.35.92.78 1.31 1.28s.59 1 .59 1.5c0 1.02-.24 1.91-.72 2.66-.46.76-1.17 1.15-2.11 1.15s-1.67-.4-2.19-1.19c-.54-.79-.81-1.73-.81-2.81-.38.19-.7.43-.97.72-.27.31-.47.6-.59.88-.15.29-.25.67-.31 1.12s-.09.82-.09 1.09c-.03.27-.04.67-.04 1.19 0 2.38.67 4.04 2 5-1.35-.25-2.52-.62-3.5-1.12-1-.5-1.78-1.04-2.34-1.62-.58-.6-1.03-1.32-1.34-2.16-.33-.85-.55-1.67-.66-2.44C2.05 23.88 2 23 2 22c0-1.88.97-4.28 2.91-7.22C6.86 11.82 8.9 9.56 11 8c.1-.1.4-.33.88-.69.48-.38.92-.75 1.31-1.12.42-.4.85-.89 1.31-1.47s.82-1.28 1.09-2.09C15.86 1.81 16 .94 16 0c.27 0 .61.12 1.03.38.44.25.88.57 1.31.97.46.42.84.95 1.16 1.59.33.66.5 1.35.5 2.06 0 .67-.1 1.3-.31 1.91S19.25 8 19 8.38c-.25.38-.48.79-.69 1.25-.21.47-.31.93-.31 1.37 0 .83.29 1.54.88 2.12S20.16 14 21 14c.73 0 1.36-.18 1.91-.53.56-.35.93-.84 1.09-1.47 1.83 1.33 3.29 2.91 4.38 4.72C29.46 18.53 30 20.29 30 22c0 .96-.08 1.9-.25 2.81-.17.92-.45 1.81-.84 2.69-.4.9-.89 1.67-1.47 2.31-.6.65-1.36 1.17-2.28 1.56-.94.42-2 .63-3.16.63z"/></svg>