<svg id="Debian" xmlns="http://www.w3.org/2000/svg" viewBox="0 0 99.7 99.7"><style>.st0{fill:#a80030}</style><title>debian</title><path class="st0" d="M57.7 52.7c-1.7 0 .3.8 2.5 1.2.6-.5 1.1-.9 1.6-1.4-1.4.3-2.8.3-4.1.2M66.6 50.4c1-1.3 1.7-2.8 2-4.4-.3 1.1-.8 2.1-1.4 3-3.1 1.9-.3-1.2 0-2.3-3.3 4.2-.5 2.5-.6 3.7M69.8 41.9c.2-3-.6-2-.8-.9.3.2.5 2.1.8.9M51.4 1.3c.9.2 1.9.3 1.8.5 1-.2 1.1-.4-1.8-.5M53.2 1.8l-.6.1.6-.1"/><path class="st0" d="M80.7 43.1c.1 2.7-.8 4-1.6 6.3l-1.4.6c-1.2 2.3.1 1.4-.7 3.2-1.8 1.6-5.6 5.1-6.7 5.4-.9 0 .6-1 .8-1.4-2.4 1.7-2 2.5-5.7 3.5l-.1-.2c-9.2 4.3-22-4.2-21.8-16-.1.7-.3.6-.5.9-.5-6.1 2.8-11.9 8.3-14.5 5.1-2.6 11.2-1.8 15.5 2-2.7-3.5-6.9-5.5-11.3-5.4-4.9.1-9.5 3.2-11 6.5-2.5 1.6-2.8 6.1-3.9 6.9-1.5 10.8 2.8 15.4 9.9 20.9 1.1.8.3.9.5 1.4-2.4-1.2-4.6-2.8-6.3-4.8.9 1.4 2 2.7 3.3 3.8-2.2-.8-5.2-5.4-6.1-5.6 3.9 6.9 15.7 12.1 21.9 9.5-3.3.2-6.6-.1-9.7-1.1-1.3-.7-3.2-2.1-2.9-2.4 8.4 3.2 17.2 2.4 24.5-3.5 1.9-1.4 3.9-3.9 4.5-3.9-.9 1.3.2.6-.5 1.8 1.8-3-.8-1.2 1.9-5.2l1 1.4c-.4-2.5 3.1-5.5 2.7-9.4.8-1.2.9 1.3 0 4 1.2-3.1.3-3.6.6-6.1.4.9.7 1.7 1 2.7-.8-3 .8-5 1.2-6.7-.4-.2-1.2 1.3-1.3-2.2 0-1.5.4-.8.6-1.2-.3-.2-1.1-1.3-1.6-3.6.3-.5.9 1.4 1.4 1.4-.4-1.5-.7-3-.8-4.5-1.4-2.9-.5.4-1.6-1.2-1.5-4.5 1.2-1.1 1.4-3.1 2.2 3.2 3.5 8.2 4 10.2-.4-2.5-1.1-4.9-2-7.3.7.3-1.1-5.2.9-1.5-2.5-7.6-9.3-14.7-15.6-18.1.8.7 1.7 1.6 1.4 1.7-3.1-1.9-2.6-2-3-2.8-2.6-1-2.7.1-4.4 0-4.8-2.5-5.8-2.2-10.2-3.8l.2.9c-3.2-1.1-3.7.4-7.2 0-.2-.2 1.1-.6 2.2-.8-3.1.4-2.9-.6-5.9.1.8-.5 1.5-.9 2.3-1.3-2.5.1-6 1.5-4.9.3-4.1 1.8-11.4 4.4-15.5 8.2l-.2-.8c-1.9 2.2-8.2 6.7-8.7 9.6l-.5.1c-.9 1.7-1.7 3.4-2.4 5.2-1.3 2.2-1.9.8-1.7 1.2-2 4.1-3.6 8.4-4.8 12.8.8 1.1 0 6.9.3 11.5-1 22.8 16.1 44.8 34.9 50 2.8 1 6.8.9 10.3 1-4.1-1.2-4.6-.6-8.7-2-2.9-1.4-3.5-2.9-5.6-4.7l.8 1.4c-4-1.4-2.3-1.8-5.6-2.8l.9-1.1c-1.3-.1-3.4-2.2-4-3.3l-1.4.1c-1.7-2.1-2.6-3.6-2.6-4.8l-.5.8c-.5-.9-6.3-7.9-3.3-6.3-.9-.6-1.6-1.4-2.1-2.3l.6-.7c-1.4-1.8-2.7-4.2-2.6-5 .4.7 1.1 1.2 1.8 1.4-3.6-9-3.8-.5-6.6-9.2h.6c-.4-.7-.8-1.4-1.1-2.1l.2-2.5c-2.6-3-.7-12.9-.3-18.3.3-2.2 2.2-4.5 3.7-8.2l-.9-.2c1.7-3 9.7-11.9 13.5-11.5 1.8-2.3-.4 0-.7-.6 4-4.1 5.2-2.9 7.9-3.6 2.9-1.7-2.5.7-1.1-.6 5-1.3 3.5-2.9 10-3.5.7.4-1.6.6-2.2 1.1 4.2-2 13.1-1.6 18.9 1.1 6.8 3.2 14.4 12.5 14.7 21.3l.3.1c-.2 3.5.5 7.5-.7 11.2l.8-1.8"/><path class="st0" d="M39.7 54.9l-.3 1.2c.9 1.5 2.1 3 3.3 4.2-1-1.9-1.7-2.7-3-5.4M42.2 54.8c-.5-.7-1-1.4-1.3-2.2.4 1.3 1 2.5 1.8 3.7l-.5-1.5M87.6 44.9l-.2.6c-.4 3.2-1.4 6.3-2.9 9.2 1.6-3 2.7-6.3 3.1-9.8M51.8.5c1.1-.4 2.8-.2 3.9-.5-1.5.1-3.1.2-4.6.4l.7.1M12.5 21.3c.3 2.4-1.8 3.3.5 1.7 1.2-2.6-.5-.7-.5-1.7M9.9 32.4c.3-1.1.6-2.3.8-3.5-1.4 1.8-.6 2.2-.8 3.5"/></svg>