<svg xmlns="http://www.w3.org/2000/svg" viewBox="0 0 100 100"><defs><style>.cls-1{fill:#d71e00}.cls-2{fill:#c21a00}.cls-3{fill:#fff}.cls-4{fill:#eaeaea}.cls-5{fill:#b7b7b7}.cls-6{fill:#cdcdcd}</style></defs><title>Logo</title><g id="Layer_1" data-name="Layer 1"><circle class="cls-1" cx="50" cy="50" r="50" transform="rotate(-45 50 50)"/><path class="cls-2" d="M85.36 14.64a50 50 0 0 1-70.72 70.72z"/><path class="cls-3" d="M65.76 34.28L15.6 43.15v1.13a.34.34 0 0 0 .3.34c1.47.17 7.93 2.11 8 23.49a.46.46 0 0 0 .35.44l2.59.57s-1.21-25.54 8.77-27.06 11.2 27.27 11.33 31.1a.54.54 0 0 0 .43.51l3.51.78s.06-34.54 14.92-36.82v-3.35z"/><path class="cls-4" d="M65.35 27.56L16.18 38.42a.75.75 0 0 0-.59.73v4l50.17-8.87v-6.76a1.68 1.68 0 0 0-.41.04z"/><path class="cls-5" d="M35.61 42.05c-4.61.7-6.83 6.54-7.89 12.61l13.65-1.33c0-.17.09-.34.13-.51s.14-.53.21-.8l.2-.68q.12-.4.25-.8l.2-.62c.12-.36.25-.71.39-1.06l.12-.32c-1.64-4.17-3.98-6.99-7.26-6.49zM82.23 31.19l-16-3.62a1.9 1.9 0 0 0-.42 0v6.76l17.06 2.83v-5.23a.76.76 0 0 0-.64-.74zM53.43 53.62l18.41-1.13c2.1-6.05 5.51-11.75 11-12.8l-17-2.08c-6.68 1.12-10.36 8.29-12.41 16.01z"/><path class="cls-6" d="M41.71 52l.13-.45-.13.46zM41.91 51.34l-.06.22.07-.23zM27.72 54.66a68.26 68.26 0 0 0-.93 12v2.42L39 66.1a1.06 1.06 0 0 0 .81-1 58.72 58.72 0 0 1 1.69-12.26c0 .16-.09.33-.13.49zM65.78 34.28l.01 3.34 17.03 2.07v-2.58l-17.04-2.83zM50.87 74.44L68 68.68a.92.92 0 0 0 .63-.79 72.46 72.46 0 0 1 3.18-15.4l-18.38 1.13a90.91 90.91 0 0 0-2.56 20.82zM53.43 53.62z"/></g></svg>