<svg id="Layer_1" xmlns="http://www.w3.org/2000/svg" viewBox="0 0 32 32"><style>.st0{fill:#092e20}</style><path class="st0" d="M3.84 10.41h1.75v8.09c-.46.08-.87.15-1.22.19s-.71.06-1.06.06c-1.06 0-1.87-.24-2.42-.72-.55-.48-.83-1.18-.83-2.09 0-.9.27-1.61.81-2.14.55-.53 1.28-.8 2.19-.8.15 0 .28.01.39.02.11.01.24.04.39.08v-2.69zm0 4.09c-.1-.04-.2-.07-.3-.08a2.66 2.66 0 0 0-.3-.02c-.44 0-.78.13-1.03.39s-.38.63-.38 1.11c0 .46.12.81.36 1.06s.58.38 1.02.38c.1 0 .2-.01.3-.02s.2-.03.33-.05V14.5zm4.54-1.38v4.03c0 .71-.03 1.26-.09 1.64s-.17.72-.31 1.02c-.15.29-.33.53-.55.72-.22.19-.52.39-.89.59l-1.62-.78c.38-.19.67-.37.89-.55.22-.18.38-.39.48-.64.13-.25.21-.55.27-.91.05-.35.08-.92.08-1.69v-3.44h1.74v.01zm-1.76-2.71h1.75v1.81H6.62v-1.81zm2.82 3.09c.38-.17.75-.29 1.12-.38s.77-.12 1.19-.12c.44 0 .81.06 1.11.17.3.11.52.29.64.52.06.13.11.29.14.48.03.2.05.48.05.86v3.56c-.4.04-.82.08-1.28.12-.46.04-.86.06-1.22.06-.73 0-1.27-.14-1.61-.41-.34-.27-.52-.69-.52-1.25 0-.6.23-1.06.7-1.38.47-.31 1.24-.51 2.33-.59v-.41c0-.15-.05-.25-.14-.31s-.26-.09-.48-.09c-.31 0-.65.04-1 .12-.35.08-.7.22-1.03.41V13.5zm2.72 2.78c-.58.06-.98.15-1.2.27-.22.11-.33.28-.33.48 0 .19.06.32.17.39.11.07.29.11.52.11.15 0 .28-.01.41-.02.12-.01.27-.03.44-.05l-.01-1.18zm2.37-2.9c.52-.13 1.01-.22 1.45-.28.45-.06.88-.09 1.3-.09.46 0 .85.05 1.17.14.32.09.58.24.77.45.19.19.31.4.38.64s.09.58.09 1.02v3.44h-1.75v-3.38c0-.33-.06-.57-.19-.7-.13-.14-.34-.2-.66-.2-.13 0-.25.01-.36.02-.11.01-.26.05-.45.11v4.16h-1.75v-5.33zm5.85 6.24c.31.17.63.29.94.36s.63.11.94.11c.58 0 1.01-.12 1.27-.38.26-.25.39-.65.39-1.19v-.02c-.19.08-.37.14-.55.17s-.38.05-.61.05c-.77 0-1.38-.23-1.83-.7-.45-.47-.67-1.1-.67-1.89 0-1 .34-1.77 1.03-2.31s1.67-.82 2.96-.82c.38 0 .74.02 1.11.06s.75.1 1.17.19l-.59 1.25c-.23-.04-.31-.05-.23-.03.07.02.02.02-.17 0v.19l.03.72v.97c.02.13.03.24.03.36v.83c0 .75-.04 1.33-.11 1.73-.07.41-.2.75-.39 1.05-.27.44-.64.76-1.11.97s-1.04.31-1.7.31c-.35 0-.68-.03-.98-.08s-.61-.14-.92-.27l-.01-1.63zm3.46-5.21h-.16c-.19 0-.37.02-.55.06-.18.04-.34.1-.48.19-.21.13-.36.29-.47.5-.1.21-.16.47-.16.78 0 .44.1.78.31 1.02s.5.36.88.36c.13 0 .24-.01.34-.03.1-.02.22-.04.34-.06v-.62c0-.1-.01-.21-.02-.31s-.02-.22-.02-.34v-.81l-.03-.59.02-.15zm5.41-1.44c.88 0 1.56.26 2.06.77s.75 1.21.75 2.11c0 .92-.26 1.65-.78 2.19s-1.22.81-2.09.81c-.88 0-1.57-.26-2.08-.78s-.77-1.22-.77-2.09c0-.94.26-1.67.78-2.2.53-.54 1.23-.81 2.13-.81zm-.03 4.44c.33 0 .59-.13.78-.39s.28-.63.28-1.11c0-.48-.09-.85-.28-1.12s-.45-.41-.78-.41c-.35 0-.62.14-.81.41-.19.27-.28.65-.28 1.12s.09.85.28 1.11c.18.25.45.39.81.39z"/></svg>