<svg id="Layer_1" xmlns="http://www.w3.org/2000/svg" viewBox="0 0 32 32"><style>.st0{fill:#00598e}.st1{fill:#fff}.st2{fill:#0073ba}.st3{fill:#004975}.st4{fill:#93c5e4}.st5{fill:none}</style><path class="st0" d="M22.96 5.99c-1.63-1.02-3.17-1.42-4.71-2.43-.95-.65-2.28-2.18-3.39-3.51-.21 2.13-.86 2.99-1.6 3.6-1.57 1.23-2.55 1.6-3.91 2.34-1.14.58-7.33 4.28-7.33 12.22S8.7 32 16.12 32s13.86-5.39 13.86-13.55S23.95 6.6 22.96 5.99z"/><path class="st1" d="M20.46 25.11c.49 0 1.02.03 1.39.28.37.25.58.8.71 1.11.12.31 0 .49-.25.62-.21.12-.25.06-.46-.34-.21-.4-.4-.8-1.48-.8s-1.42.37-1.94.8c-.52.43-.71.58-.89.34s-.12-.49.21-.8c.34-.31.89-.8 1.42-1.02.52-.23.8-.19 1.29-.19zM15.35 28.62c.62.49 1.54.89 3.51.89s3.35-.56 3.97-1.02c.28-.21.4-.03.43.09.03.12.09.31-.12.53-.16.16-1.57 1.14-3.24 1.29-1.67.15-3.91.25-5.26-.99-.21-.21-.16-.53 0-.65s.28-.21.46-.21.16 0 .25.07z"/><path class="st2" d="M7.81 26.28c2.34-.03 2.77-.43 4.84-1.35 11.15-4.99 13.21-9.55 13.61-10.59.4-1.05.99-2.74.37-4.62-.12-.36-.21-.65-.27-.89-1.48-1.65-2.95-2.56-3.4-2.84-1.6-1.02-3.17-1.42-4.71-2.43-.95-.62-2.28-2.18-3.39-3.51-.21 2.13-.83 3.02-1.6 3.6-1.57 1.23-2.55 1.6-3.91 2.34-1.14.61-7.33 4.27-7.33 12.22 0 2.54.68 4.86 1.85 6.85l.3-.01c.65.58 1.67 1.26 3.64 1.23z"/><path class="st3" d="M22.95 5.99c-1.6-1.02-3.17-1.42-4.71-2.43-.95-.62-2.28-2.18-3.39-3.51-.21 2.13-.83 3.02-1.6 3.6-1.57 1.23-2.55 1.6-3.91 2.34-1.13.61-7.32 4.27-7.32 12.22 0 2.54.68 4.86 1.85 6.85C6.36 29.29 11.07 32 16.12 32c7.42 0 13.86-5.39 13.86-13.55 0-4.48-1.82-7.62-3.63-9.63a14.729 14.729 0 0 0-3.4-2.83zm3.75 3.6c2.02 2.53 3.05 5.51 3.05 8.87 0 1.95-.37 3.79-1.1 5.47a12.51 12.51 0 0 1-2.97 4.2c-2.52 2.36-5.92 3.65-9.55 3.65-1.8 0-3.56-.34-5.25-1.02-1.65-.67-3.14-1.62-4.43-2.83-2.71-2.56-4.2-6.01-4.2-9.71 0-3.3 1.07-6.23 3.18-8.71 1.61-1.9 3.35-2.95 4.02-3.31.33-.18.63-.34.93-.49.93-.48 1.81-.93 3.01-1.87.64-.49 1.33-1.26 1.62-3.23 1.02 1.21 2.2 2.57 3.1 3.15.8.53 1.62.9 2.41 1.26.75.34 1.53.69 2.29 1.18l.03.02C25.11 7.6 26.3 9.1 26.7 9.59z"/><path class="st4" d="M15.01.66c.43 1.26.37 1.91.37 2.18s-.16 1.02-.65 1.39c-.21.16-.28.28-.28.31 0 .12.28.21.28.49 0 .34-.16 1.02-1.79 2.65s-3.97 3.08-5.79 3.97c-1.81.89-2.68.83-2.92.4-.25-.43.09-1.39 1.23-2.65s4.74-3.08 4.74-3.08l4.5-3.14.25-1.2"/><path class="st1" d="M15.01.62c-.28 2.03-.89 2.65-1.72 3.29-1.39 1.05-2.74 1.69-3.05 1.85-.8.4-3.69 2-5.21 4.31-.46.71 0 .99.09 1.05.09.06 1.14.18 3.39-1.17s3.24-2.15 4.5-3.47c.68-.71.77-1.11.77-1.29 0-.21-.16-.31-.4-.37-.12-.03-.16-.09 0-.18s.8-.4.95-.53c.16-.12.89-.62.92-1.42s-.02-1.35-.24-2.07zM8.08 23.01c.03-2.4 2.28-4.65 5.11-4.68 3.6-.03 6.1 3.57 7.92 3.54 1.54-.03 4.5-3.05 5.94-3.05 1.54 0 1.97 1.6 1.97 2.55 0 .95-.31 2.68-1.05 3.76s-1.2 1.48-2.06 1.42c-1.11-.09-3.33-3.54-4.74-3.6-1.79-.06-5.67 3.73-8.71 3.73-1.85 0-2.4-.28-3.02-.68-.93-.65-1.39-1.63-1.36-2.99z"/><path class="st5" d="M26.62 9.71c.62 1.88.03 3.57-.37 4.62s-2.46 5.6-13.61 10.59c-2.06.92-2.5 1.32-4.84 1.35-1.97.03-2.99-.65-3.63-1.23l-.3.01C6.36 29.29 11.07 32 16.11 32c7.42 0 13.86-5.39 13.86-13.55 0-4.48-1.82-7.62-3.63-9.63.07.24.16.53.28.89z"/></svg>