<svg xmlns="http://www.w3.org/2000/svg" viewBox="0 0 100 100"><defs><style>.cls-1{fill:#d71e00}.cls-2{fill:#c21a00}.cls-3{fill:#cdcdcd}.cls-4{fill:#b7b7b7}.cls-5{fill:#eaeaea}.cls-6{fill:#fff}</style></defs><title>Logo</title><g id="Layer_1" data-name="Layer 1"><circle class="cls-1" cx="50" cy="50" r="50" transform="rotate(-45 50 50)"/><path class="cls-2" d="M85.36 14.64a50 50 0 0 1-70.72 70.72z"/><path class="cls-3" d="M60.17 43.13a3.41 3.41 0 0 1 .07.68 3.4 3.4 0 0 0-.07-.68zM59.21 41.38a3.48 3.48 0 0 1 .79 1.09 3.48 3.48 0 0 0-.79-1.09zM59.13 41.29l-.09-.08.09.08zM59.12 46.34L33.54 69.73l25.58-23.4a3.45 3.45 0 0 0 .91-1.4 3.45 3.45 0 0 1-.91 1.41zM28.54 71.48L58.87 41h-.08a3.7 3.7 0 0 0-5.21.2L29 68.26c-1 1-1.19 2.52-.35 3.31a1.75 1.75 0 0 0 .74.41 1.75 1.75 0 0 1-.74-.41z"/><path class="cls-4" d="M28.62 71.57a2.52 2.52 0 0 0 3.38-.46l27.12-24.77a3.42 3.42 0 0 0 0-5l-.25-.34-30.33 30.48z"/><path class="cls-5" d="M34.46 34.71l-10.6-8.43a2.6 2.6 0 0 0-4.2 2.33l.19 1.64a18.21 18.21 0 0 0 11.69 15l13.69 5.14 2.31-2.55-11.38-11.11a16.45 16.45 0 0 1-1.7-2.02zM74.69 75.41l-8.81-10.29a16.45 16.45 0 0 1-2.08-1.63L52.33 52.55l-2.52 2.3 5.67 13.58a18.21 18.21 0 0 0 15.39 11.13l1.64.13a2.6 2.6 0 0 0 2.18-4.28zM58.64 46.78a3 3 0 0 0 3.85-2.17 3.28 3.28 0 0 0-3-4.15l-.59.59.26.25a3.42 3.42 0 0 1 0 5z"/><path class="cls-6" d="M32.77 17.18l-.5 1.53a17.6 17.6 0 0 0 3.89 18l11.37 11.11 3.61-4-13.7-27a2.54 2.54 0 0 0-4.67.36zM83.65 61.48l-27.3-12.61-4 3.68L63.8 63.49a17.6 17.6 0 0 0 18.15 3.23l1.51-.55a2.54 2.54 0 0 0 .19-4.69zM53.58 41.17a3.7 3.7 0 0 1 5.21-.2l.08.08.59-.59a3.41 3.41 0 0 0-4.29-2.93c-2 .38-3.07 2.68-2 4.11z"/></g></svg>