<svg id="Layer_1" xmlns="http://www.w3.org/2000/svg" viewBox="0 0 32 32"><style>.st0{fill:#fff}.st1{fill:#ffd00a}.st2{fill:#20b9af}.st3{fill:#ee5096}.st4{fill:#12a5df}.st5{fill:#90c640}.st6{fill:#05799f}</style><path class="st0" d="M32 16.7c0-2.68-1.66-5.03-4.17-5.94.11-.56.17-1.13.17-1.72C28 4.06 23.95 0 18.96 0c-2.91 0-5.62 1.4-7.32 3.75A4.801 4.801 0 0 0 8.7 2.74a4.801 4.801 0 0 0-4.5 6.47c-2.49.9-4.2 3.3-4.2 5.96 0 2.7 1.67 5.05 4.18 5.96-.11.56-.16 1.14-.16 1.72 0 4.97 4.05 9.02 9.02 9.02 2.92 0 5.63-1.4 7.32-3.77a4.75 4.75 0 0 0 2.94 1.02 4.801 4.801 0 0 0 4.5-6.47c2.49-.89 4.2-3.29 4.2-5.95"/><path class="st1" d="M12.58 13.73l7 3.19 7.06-6.19c.1-.51.15-1.02.15-1.55 0-4.36-3.54-7.9-7.9-7.9-2.61 0-5.04 1.28-6.51 3.43l-1.18 6.1 1.38 2.92z"/><path class="st2" d="M5.33 21.14c-.1.51-.15 1.04-.15 1.58 0 4.37 3.55 7.92 7.92 7.92 2.63 0 5.07-1.29 6.54-3.47l1.17-6.08-1.56-2.97-7.03-3.2-6.89 6.22z"/><path class="st3" d="M5.29 9.03l4.8 1.13 1.05-5.46c-.66-.5-1.47-.78-2.3-.78-2.09 0-3.78 1.7-3.78 3.78 0 .47.08.91.23 1.33"/><path class="st4" d="M4.87 10.17c-2.14.71-3.63 2.77-3.63 5.03 0 2.2 1.36 4.17 3.4 4.94l6.73-6.09-1.24-2.64-5.26-1.24z"/><path class="st5" d="M20.87 27.17c.66.51 1.46.78 2.29.78 2.09 0 3.78-1.7 3.78-3.78 0-.46-.08-.9-.23-1.32l-4.79-1.12-1.05 5.44z"/><path class="st6" d="M21.85 20.48l5.28 1.23c2.14-.71 3.64-2.76 3.64-5.03 0-2.2-1.36-4.16-3.41-4.94l-6.9 6.05 1.39 2.69z"/></svg>