<svg id="Layer_1" xmlns="http://www.w3.org/2000/svg" viewBox="0 0 32 32"><style>.st0{fill:#a90533}</style><g id="g8"><path id="path10" class="st0" d="M5.02 22.45c-2.48-2.63-3.94-6.27-3.93-10.61 0-3.84 1.2-7.14 3.28-9.65H0v20.26h5.02z"/><path id="path12" class="st0" d="M27.97 22.46c1.07-1.15 2.03-2.5 2.9-4.04L26.05 16c-1.69 2.75-4.17 5.29-7.6 5.31-4.99-.02-6.94-4.28-6.93-9.77h18.63c.02-.62.02-.91 0-1.21.12-3.26-.74-6.01-2.32-8.15l-.01.02h4.19v20.26h-4.04z"/><path id="path14" class="st0" d="M11.82 6.84c.21-2.48 2.16-4.16 4.46-4.16 2.31.01 3.98 1.68 4.04 4.16h-8.5z"/></g><g id="g16"><path id="path18" d="M2.65 25.88v-.84H.06v5h2.59v-.84H1.03v-1.33H2.6v-.84H1.03v-1.15h1.62z"/><path id="path20" d="M7.05 27.93c.65-.1 1-.74 1.02-1.39-.02-1.06-.71-1.5-1.69-1.51H5.06v5h.96v-1.99l1.21 1.99h1.21l-1.39-2.1zm-1.02-2.11h.12c.53.02.92.14.9.78.02.59-.36.75-.9.72h-.12v-1.5z"/><path id="path22" d="M11.46 25.04h-.96v5h2.35v-.84h-1.39v-4.16z"/><path id="path24" d="M17.79 29.02l.42 1.02h1.02l-1.87-5.12h-.78l-1.99 5.12h1.02l.42-1.02h1.76zm-.25-.78h-1.21l.54-1.87.67 1.87z"/><path id="path26" d="M21.04 30.04h1.02v-3.38l2.65 3.5h.72v-5.12h-1.02v3.38l-2.65-3.5h-.72v5.12z"/><path id="path28" d="M29.66 27.39v.78h1.09c-.02.63-.54 1.16-1.15 1.15-.96.02-1.43-.91-1.45-1.75.01-.83.48-1.8 1.45-1.81.51.01.94.36 1.15.78l.84-.42c-.37-.78-1.12-1.22-1.99-1.21-1.49-.01-2.45 1.22-2.47 2.65.02 1.39.95 2.63 2.41 2.65 1.58-.02 2.31-1.28 2.29-2.71v-.12h-2.17v.01z"/></g></svg>