<svg id="svg2" xmlns="http://www.w3.org/2000/svg" viewBox="0 0 267 267"><style>.st0{fill:#294172}.st1{fill:none;stroke:#3c6eb4;stroke-width:29.21}.st2{fill:#fff}.st3{fill:#3c6eb4}</style><path id="voice" class="st0" d="M262.4 133.5c0-71.2-57.7-128.9-128.9-128.9C62.4 4.6 4.7 62.3 4.6 133.4v99.7c0 16.2 13.1 29.2 29.3 29.2h99.6c71.2 0 128.9-57.6 128.9-128.8"/><path class="st1" d="M171.3 49.3C145.8 49.3 125 70 125 95.6v46.2H78.9c-25.6 0-46.3 20.7-46.3 46.3s20.7 46.3 46.3 46.3c25.6 0 46.3-20.7 46.3-46.3v-46.2h46.1c25.6 0 46.3-20.7 46.3-46.3s-20.7-46.3-46.3-46.3z"/><path class="st2" d="M184.7 37c-4.7-1.2-8.3-1.8-13.4-1.8-33.4 0-60.5 27.1-60.5 60.5v32.1H85.5c-7.9 0-14.3 6.2-14.3 14.1 0 7.8 6.3 14.1 14.1 14.1h21c2.5 0 4.5 2 4.5 4.5v27.7c0 17.6-14.3 31.9-31.9 31.9-6 0-7.4-.8-11.5-.8-8.6 0-14.3 5.7-14.3 13.6 0 6.5 5.6 12.1 12.4 13.9 4.7 1.2 8.3 1.8 13.4 1.8 33.4 0 60.5-27.1 60.5-60.5V156h25.3c7.9 0 14.3-6.2 14.3-14.1 0-7.8-6.3-14.1-14.1-14.1h-21c-2.5 0-4.5-2-4.5-4.5V95.6c0-17.6 14.3-31.9 31.9-31.9 6 0 7.4.8 11.5.8 8.6 0 14.3-5.7 14.3-13.6 0-6.5-5.6-12.1-12.4-13.9z"/><path id="TM" class="st3" d="M240.1 240.1v-5.4l-2.4 5.6-2.4-5.6v5.4h-1.4v-8.5h1.4l2.4 5.4 2.3-5.4h1.5v8.5h-1.4zm-10-7.1v7h-1.4v-7h-2.4v-1.4h6.2v1.4"/></svg>