<svg id="Layer_1" xmlns="http://www.w3.org/2000/svg" xmlns:xlink="http://www.w3.org/1999/xlink" viewBox="0 0 32 32"><style>.st0{clip-path:url(#SVGID_2_);fill:#f05133}</style><defs><path id="SVGID_1_" d="M.05.11h31.87V32H.05z"/></defs><clipPath id="SVGID_2_"><use xlink:href="#SVGID_1_" overflow="visible"/></clipPath><path class="st0" d="M31.32 14.64L17.4.71c-.8-.8-2.1-.8-2.9 0l-2.9 2.9 3.67 3.67c.85-.29 1.83-.09 2.51.58.68.68.87 1.67.58 2.52l3.53 3.53c.86-.29 1.84-.1 2.52.58.95.95.95 2.5 0 3.46-.96.96-2.5.96-3.46 0-.72-.72-.9-1.77-.53-2.66l-3.3-3.3v8.67c.23.12.45.27.65.46.95.95.95 2.5 0 3.46-.95.95-2.5.95-3.46 0-.95-.96-.95-2.5 0-3.46.24-.24.51-.41.8-.53v-8.75c-.29-.12-.56-.3-.8-.53-.72-.72-.9-1.78-.53-2.67l-3.62-3.62-9.55 9.55c-.8.8-.8 2.1 0 2.9L14.56 31.4c.8.8 2.1.8 2.9 0l13.86-13.86c.8-.8.8-2.1 0-2.9"/></svg>