<svg id="Layer_1" xmlns="http://www.w3.org/2000/svg" viewBox="0 0 32 32"><style>.st0{fill-rule:evenodd;clip-rule:evenodd;fill:#181616}</style><path class="st0" d="M16.03.11C7.21.11.06 7.26.06 16.08c0 7.06 4.58 13.04 10.92 15.16.8.15 1.09-.35 1.09-.77 0-.38-.01-1.38-.02-2.72-4.44.97-5.38-2.14-5.38-2.14-.73-1.85-1.77-2.34-1.77-2.34-1.46-.98.1-.96.1-.96 1.6.11 2.45 1.65 2.45 1.65 1.42 2.44 3.74 1.74 4.65 1.33.15-1.03.56-1.74 1.01-2.14-3.55-.4-7.28-1.77-7.28-7.89 0-1.74.62-3.17 1.64-4.29-.16-.4-.71-2.03.16-4.23 0 0 1.34-.43 4.39 1.64 1.27-.35 2.64-.53 4-.54 1.36.01 2.72.18 4 .54 3.05-2.07 4.39-1.64 4.39-1.64.87 2.2.32 3.82.16 4.23 1.02 1.12 1.64 2.54 1.64 4.29 0 6.14-3.73 7.49-7.29 7.88.57.49 1.08 1.47 1.08 2.96 0 2.14-.02 3.86-.02 4.38 0 .43.29.92 1.1.77C27.43 29.13 32 23.14 32 16.09 32 7.26 24.85.11 16.03.11z"/></svg>