<svg id="Layer_1" xmlns="http://www.w3.org/2000/svg" viewBox="0 0 32 32"><style>.st0{fill:#e24329}.st1{fill:#fc6d26}.st2{fill:#fca326}</style><path class="st0" d="M16.05 30.69l5.87-18.07H10.18l5.87 18.07z"/><path class="st1" d="M16.05 30.69l-5.87-18.07H1.95l14.1 18.07z"/><path class="st2" d="M1.95 12.62L.17 18.11c-.16.5.02 1.05.44 1.36l15.45 11.22L1.95 12.62z"/><path class="st0" d="M1.95 12.62h8.23L6.64 1.73c-.18-.56-.97-.56-1.16 0L1.95 12.62z"/><path class="st1" d="M16.05 30.69l5.87-18.07h8.23l-14.1 18.07z"/><path class="st2" d="M30.16 12.62l1.78 5.49c.16.5-.02 1.05-.44 1.36L16.05 30.69l14.11-18.07z"/><path class="st0" d="M30.16 12.62h-8.23l3.54-10.89c.18-.56.97-.56 1.16 0l3.53 10.89z"/></svg>