<svg id="Layer_1" xmlns="http://www.w3.org/2000/svg" viewBox="0 0 32 32"><style>.st0{fill:#f2f2f2}.st1{fill:#febc5b}.st2{fill:#71a0fe}</style><path class="st0" d="M20.2 9.44l-.54.43c-.3.24-.71.54-.91.66-.2.12-.34.29-.32.36.03.08.65.3 1.39.5 1.24.33 3.65 1.35 3.51 1.49-.03.03-.76-.14-1.62-.39-2.73-.79-4.1-.95-7.24-.86-2.34.07-3.05.14-4.24.45-2.94.77-5.86 2.36-7.55 4.11-.46.47-1.02.98-1.26 1.13-.5.12-.67.02-.84-.07l-.14-.17c-.06.21-.12.39-.19.54l.24-.02c.26-.01.52.05.67.11l.66.49C4.6 20.26 6.1 20.98 7.66 21c.82.01 1.1-.05 1.69-.4.34-.2.68-.46.81-.62l.04-.06c.09-.16.17-.2.22-.17 1.25-.32 3.46.03 6.94 1.25h.01c.69.02 1.74.33 3.15.92.21.09.26.04.26-.22 0-.79.92-1.82 1.73-2.06 1.39-.79 3.09-.97 4.6-1.01l-.07-.02.67-.05c1-.07 1.88.33 2.6 1.19.34.41.68.74.75.74.21 0 .15-.92-.17-2.43-.24-1.12-.28-1.74-.2-2.94.06-.94.04-1.56-.06-1.62-.08-.05-.69.04-1.34.19-1.8.43-2.63.53-2.63.32l.02-.04c-.89.31-2.19-.16-2.75-.7-.6-.58-.3-1.4-.59-2 0 .19-.03.19-.26-.01-.15-.12-.6-.32-1-.43-.51-.14-.93-.39-1.32-.79l-.56-.6z"/><path class="st1" d="M12.44 16.68c-.05-1.1-.14-2.25-.19-2.57-.05-.32-.03-.57.06-.57.15 0 .54.82.73 1.51.06.21.21.5.33.64.21.24.21.29-.02.54-.14.15-.25.51-.25.79 0 .63-.27 1.65-.44 1.65-.06.01-.16-.89-.22-1.99zm1.96 1.22c-.03-.11-.1-1.07-.14-2.13-.07-1.63-.05-1.91.13-1.76.11.09.25.39.31.65.05.26.2.64.33.84.17.27.19.44.07.68-.09.18-.2.64-.25 1.03-.11.71-.34 1.07-.45.69zm1.84-1.97c-.04-1.02-.04-1.89-.01-1.93.1-.11.33.32.53.98.1.33.24.65.32.7.08.06.09.22.02.38-.07.15-.2.58-.29.95-.3 1.26-.5.89-.57-1.08zm1.98.83c-.01-.48-.06-1.23-.12-1.67-.06-.44-.07-.83-.01-.87.16-.1.41.25.53.76.06.25.25.57.43.71l.32.26-.34.24c-.19.13-.34.4-.34.6 0 .45-.14.83-.32.83-.08 0-.14-.39-.15-.86zm1.82-.37c0-.53-.05-1.22-.1-1.55-.13-.79.13-.62.62.4.32.67.34.81.17 1.01-.11.13-.23.4-.26.6-.03.2-.14.39-.24.43-.13.05-.19-.19-.19-.89zm1.66-.61c0-1.27.02-1.37.24-1.15.33.33.44 1.34.22 2-.3.91-.46.61-.46-.85zm1.58.26c-.28-.22-.28-.23.16-.19.25.02.44.11.43.19-.05.24-.27.24-.59 0z"/><path d="M20.11 8.58c-.25 0-.55.11-.94.3-.35.17-1.12.48-1.73.69-.6.21-1.37.54-1.7.73-.49.27-.86.34-1.94.36-4.07.07-8.32 1.46-11.32 3.71C.93 15.53.03 16.91.59 17.26c.17.09.33.19.84.07.24-.15.8-.66 1.26-1.13 1.69-1.75 4.61-3.34 7.55-4.11 1.2-.31 1.9-.39 4.24-.45 3.14-.09 4.51.07 7.24.86.86.25 1.59.42 1.62.39.14-.14-2.28-1.16-3.51-1.49-.74-.2-1.36-.42-1.39-.5-.03-.08.12-.24.32-.36s.61-.42.91-.66l.54-.43.58.59c.39.4.81.66 1.32.79.41.11.86.3 1 .43.23.2.26.2.26 0 0-.29-.53-.75-1.23-1.07-.3-.14-.68-.43-.83-.65-.48-.67-.78-.96-1.2-.96zm11.12 3.31c-.54 0-4.55 1.87-4.55 2.12 0 .21.83.11 2.63-.32.66-.16 1.26-.24 1.34-.19.09.06.11.67.06 1.62-.07 1.21-.03 1.82.2 2.94.32 1.5.38 2.43.17 2.43-.07 0-.41-.33-.75-.74-.73-.86-1.6-1.26-2.6-1.19l-.67.05 1 .34c1.1.38 1.44.68 2.41 2.15.36.54.73 1.03.81 1.09.23.16.33.14.53-.11.09-.11.13-.41.13-1.05v-.01c.01-.45 0-1.05-.05-1.79-.01-.21-.02-.35-.03-.54-.1-2.36-.09-2.82.02-4.39.15-1.92.01-2.41-.65-2.41zM6.74 14.77c-.4-.02-.82.21-1.11.65-.26.4-.17.74.36 1.35.32.37 1.04.23 1.49-.29.42-.47.42-.61.04-1.24a.972.972 0 0 0-.78-.47zm-.45.75c.17-.03.52.2.59.42.09.27-.57.22-.67-.05-.05-.13-.04-.28.01-.33l.07-.04zM.49 17.6l-.25.03-.03.03c-.17.07-.24.22-.21.47-.01.19.06.39.2.55.73.81 4.48 2.73 5.85 3 .91.18 1.35.18 2.2 0 .86-.18 1.9-.88 2.16-1.43.2-.43.02-.73-.2-.33-.08.14-.46.45-.85.68-.59.35-.88.41-1.69.4-1.56-.03-3.06-.75-5.84-2.8l-.66-.49c-.16-.06-.42-.11-.68-.11zm22.36 1.99c-.86-.01-2.05 1.21-2.05 2.11 0 .26-.06.31-.26.22-2.05-.86-3.35-1.11-3.88-.76-.44.29-.5.79-.12.9.15.04.94.16 1.77.25.83.1 1.61.24 1.74.31.16.09.38.13.6.12h.04c.19 0 .36-.04.47-.12h.01l.11-.07c.18-.14.26-.41.26-.88 0-.72.23-1.07 1.13-1.74.39-.27.42-.34.18-.34z"/><path class="st2" d="M6.92 20.3l-.53-.16.94-.18c1.24-.24 1.55-.52 1.55-1.46 0-.8.16-.92.52-.4.53.75.16 1.79-.76 2.17-.58.25-.98.25-1.72.03zm20.74-3.25c.07-.41.03-.78-.13-1.17-.29-.7-.3-.68.05-.68.43 0 1.1.86.99 1.26-.12.43-.57 1.04-.81 1.12-.15.06-.17-.07-.1-.53zm-5.42-3.68c-2.98-.96-8.26-.99-11.82-.06-.73.19-.89.19-1.06.02-.3-.3.24-.61 1.72-1 2.9-.56 9.99-.78 12.44 1.28 0 .13-.31.07-1.28-.24z"/></svg>