<svg id="Layer_1" xmlns="http://www.w3.org/2000/svg" viewBox="0 0 32 32"><style>.st0,.st1{fill-rule:evenodd;clip-rule:evenodd;fill:#f6d2a2}.st1{fill:#c6b198}.st2{fill:#6ad7e5}.st2,.st3,.st4{fill-rule:evenodd;clip-rule:evenodd}.st4{fill:#fff}.st5{fill:#231f20}</style><path class="st0" d="M4.49 17.28c.05.94.98.5 1.41.21.4-.28.52-.05.56-.6.02-.36.06-.72.04-1.08-.61-.06-1.27.09-1.77.45-.26.19-.75.79-.24 1.02"/><path d="M4.97 18.04a.67.67 0 0 1-.31-.07c-.14-.07-.31-.23-.35-.58a.482.482 0 0 1-.23-.37c-.03-.36.31-.75.53-.91.51-.37 1.2-.55 1.9-.49l.16.01.01.16c.02.29-.01.58-.03.86-.01.08-.01.16-.02.25-.03.41-.12.52-.36.6-.07.03-.16.06-.27.14-.11.08-.6.4-1.03.4zm1.27-2.05c-.52 0-1.03.15-1.41.43-.16.12-.39.41-.38.58 0 .02.01.07.11.12l.1.05.01.11c.01.2.06.32.16.36.2.1.63-.07.96-.3.16-.11.28-.15.36-.18.03-.01.07-.02.07-.03 0 0 .03-.04.04-.25.01-.08.01-.17.02-.25.02-.22.03-.43.03-.65-.02.01-.05.01-.07.01z"/><path class="st1" d="M4.49 17.28c.14-.05.28-.09.37-.21"/><path d="M4.49 17.47c-.08 0-.15-.05-.17-.12-.04-.1.01-.2.11-.24l.06-.02c.11-.04.18-.07.23-.13.06-.08.18-.1.26-.04.08.06.1.18.04.26-.11.15-.27.21-.4.25l-.06.02c-.03.01-.05.02-.07.02z"/><path class="st2" d="M6.65 6.12C3.06 5.11 5.73.55 8.61 2.42l-1.96 3.7z"/><path d="M6.74 6.34L6.6 6.3c-1.43-.4-1.77-1.29-1.84-1.78-.13-.88.33-1.82 1.15-2.34.85-.55 1.87-.51 2.8.09l.14.09-2.11 3.98zm.46-4.18c-.38 0-.75.11-1.09.33-.69.44-1.09 1.25-.98 1.97.1.66.61 1.17 1.43 1.44l1.81-3.41c-.39-.22-.78-.33-1.17-.33z"/><path class="st2" d="M22.59 2.08c2.84-1.99 5.4 2.5 2.11 3.64l-2.11-3.64z"/><path d="M24.61 5.94l-2.27-3.92.14-.1c.89-.63 1.88-.71 2.71-.22.81.48 1.32 1.43 1.23 2.32-.05.5-.33 1.41-1.67 1.87l-.14.05zm-1.78-3.8l1.94 3.35c.76-.3 1.21-.83 1.28-1.5.07-.75-.36-1.56-1.05-1.96-.39-.23-1.18-.51-2.17.11z"/><path class="st0" d="M23.2 28.81c.72.45 2.04 1.8.96 2.45-1.04.95-1.62-1.04-2.53-1.32.38-.53.88-1.02 1.57-1.13z"/><path d="M23.6 31.7h-.05c-.45-.03-.8-.44-1.15-.84-.27-.32-.55-.65-.85-.74l-.25-.08.16-.21c.33-.45.87-1.07 1.7-1.2l.07-.01.06.04c.48.29 1.46 1.16 1.46 1.96 0 .23-.09.55-.48.8-.22.18-.44.28-.67.28zm-1.69-1.83c.29.17.54.46.78.75.29.34.59.7.89.71.14.01.29-.06.45-.21l.03-.02c.21-.13.32-.29.32-.49 0-.53-.69-1.25-1.22-1.6-.45.09-.85.36-1.25.86z"/><path d="M24.15 31.45c-.07 0-.13-.04-.17-.1-.06-.11-.1-.23-.14-.35-.08-.21-.15-.41-.3-.55-.07-.07-.08-.19-.01-.26s.19-.08.26-.01c.21.2.3.45.39.69.04.11.08.21.13.31.05.09.01.2-.08.25-.02.01-.05.02-.08.02z"/><path class="st0" d="M10.31 30.34c-.85.13-1.32.89-2.03 1.28-.66.4-.92-.13-.98-.23-.1-.05-.1.04-.26-.12-.62-.97.64-1.68 1.3-2.17.92-.18 1.49.61 1.97 1.24z"/><path d="M7.84 31.95c-.06 0-.13-.01-.19-.02-.25-.07-.39-.26-.46-.37-.09-.01-.17-.06-.27-.16l-.03-.03c-.64-1.02.41-1.76 1.11-2.25.08-.06.16-.11.23-.17l.03-.02.04-.01c1-.2 1.61.6 2.11 1.25l.23.31-.31.05c-.48.07-.83.38-1.21.7-.24.2-.48.41-.76.56-.17.1-.36.16-.52.16zm-.6-.77c.04 0 .08 0 .15.03l.06.03.04.07c.04.07.12.22.27.26.12.03.27 0 .44-.11.25-.14.47-.33.71-.52.33-.28.66-.57 1.1-.71-.41-.53-.89-1.06-1.57-.95-.06.05-.13.1-.21.15-.81.55-1.43 1.07-1.03 1.72.01.02.02.03.04.03-.01 0-.01 0 0 0z"/><path d="M7.31 31.57h-.02c-.1-.01-.18-.1-.17-.2.02-.28.17-.5.3-.69.07-.1.13-.2.18-.3.04-.09.15-.14.25-.09.09.04.14.15.09.25-.06.13-.14.24-.21.35-.12.17-.22.33-.24.52-.01.09-.09.16-.18.16z"/><path class="st3" d="M6.8 4.86c-.47-.25-.82-.59-.53-1.14.27-.51.77-.45 1.24-.2L6.8 4.86zM23.94 4.38c.47-.25.82-.59.53-1.14-.27-.51-.77-.45-1.24-.2l.71 1.34z"/><path class="st0" d="M27.2 17.16c-.05.94-.98.5-1.41.21-.4-.28-.52-.05-.56-.6-.02-.36-.06-.72-.04-1.08.61-.06 1.27.09 1.77.45.26.19.74.79.24 1.02"/><path d="M26.72 17.92c-.43 0-.92-.31-1.03-.39a.803.803 0 0 0-.27-.13c-.24-.09-.34-.19-.36-.6-.01-.08-.01-.16-.02-.25-.02-.28-.04-.57-.03-.86l.01-.16.16-.01c.69-.06 1.38.11 1.9.49.22.16.56.55.53.91-.01.11-.06.26-.23.37-.04.35-.21.51-.35.58-.1.03-.21.05-.31.05zm-1.34-2.05c0 .21.01.42.03.65.01.08.01.17.02.25.01.2.04.24.04.25.01.01.05.02.07.03.08.03.21.07.36.18.32.22.76.4.96.3.09-.05.15-.17.16-.36l.01-.11.1-.05c.1-.05.11-.1.11-.12.02-.17-.22-.46-.38-.58-.4-.3-.94-.46-1.48-.44z"/><path class="st1" d="M27.2 17.16c-.14-.05-.28-.09-.37-.21"/><path d="M27.2 17.35c-.02 0-.04 0-.06-.01l-.06-.02c-.13-.05-.29-.1-.4-.25a.19.19 0 0 1 .04-.26c.08-.06.2-.04.26.04.04.06.11.09.23.13l.06.02c.1.04.15.14.11.24-.03.06-.1.11-.18.11z"/><g><path class="st2" d="M15.48.19c3.59 0 6.96.51 8.71 3.96 1.58 3.87 1.01 8.04 1.26 12.12.21 3.51.66 7.56-.96 10.82-1.71 3.42-5.99 4.28-9.52 4.16-2.77-.1-6.11-1-7.68-3.53-1.83-2.97-.97-7.38-.83-10.68.16-3.93-1.06-7.85.22-11.68C8.02 1.39 11.61.49 15.48.19"/><path d="M15.58 31.44c-.23 0-.43 0-.62-.01-5.16-.18-7.19-2.59-7.83-3.62-1.5-2.43-1.23-5.76-1-8.7.06-.74.11-1.43.14-2.09.06-1.38-.06-2.78-.18-4.15-.21-2.49-.42-5.06.42-7.57C7.9 1.15 11.64.3 15.47 0h.01c3.54 0 7.06.49 8.88 4.07l.01.01c1.16 2.85 1.18 5.89 1.19 8.84.01 1.1.01 2.23.08 3.34l.06 1.02c.21 3.23.45 6.9-1.05 9.89-1.87 3.74-6.58 4.27-9.07 4.27zM15.49.37c-3.7.29-7.31 1.11-8.63 5.05-.82 2.43-.6 4.97-.4 7.42.12 1.37.24 2.79.18 4.19-.03.66-.08 1.36-.14 2.1-.23 2.89-.49 6.16.95 8.48.6.98 2.54 3.27 7.53 3.44 2.16.08 7.4-.16 9.34-4.05 1.45-2.89 1.22-6.51 1.01-9.7l-.06-1.02c-.07-1.12-.07-2.26-.08-3.36-.02-2.91-.03-5.92-1.16-8.69C22.3.84 18.91.37 15.49.37z"/></g><g><path class="st4" d="M16.12 5.01c.64 3.75 6.77 2.76 5.89-1.02-.79-3.4-6.11-2.46-5.89 1.02"/><path d="M19.03 7.55c-.39 0-.78-.06-1.15-.19-1.05-.37-1.74-1.19-1.94-2.32v-.02c-.05-.88.22-1.66.8-2.27.51-.54 1.23-.9 2.02-1.02 1.94-.28 3.12.91 3.43 2.22.25 1.09-.03 2.06-.79 2.75-.62.54-1.5.85-2.37.85zM16.3 4.99c.17.99.78 1.71 1.7 2.03 1.06.37 2.36.12 3.16-.59.66-.6.9-1.45.68-2.4-.37-1.59-1.79-2.12-3.02-1.94-1.29.18-2.62 1.17-2.52 2.9z"/></g><g><path class="st4" d="M8.8 5.61c.84 3.26 6.06 2.43 5.86-.85C14.42.85 8 1.6 8.8 5.61"/><path d="M11.61 7.85c-1.25 0-2.58-.64-2.98-2.2v-.01c-.24-1.17.11-2.2.97-2.89.97-.78 2.45-.97 3.6-.46.99.44 1.57 1.31 1.64 2.46.11 1.79-1.31 2.84-2.67 3.05-.19.04-.38.05-.56.05zM8.97 5.57c.29 1.14 1.38 2.17 3.14 1.89 1.74-.27 2.45-1.55 2.38-2.69-.07-1-.58-1.77-1.44-2.16-1.03-.46-2.36-.29-3.23.41-.76.61-1.06 1.51-.85 2.55z"/></g><g><path class="st4" d="M16.86 9.5c0 .49.11 1.03.02 1.55-.12.24-.37.26-.58.35a.854.854 0 0 1-.65-.51c-.07-.59.03-1.16.05-1.76l1.16.37z"/><path d="M16.32 11.6l-.05-.01c-.35-.06-.65-.29-.79-.62l-.01-.02v-.03c-.05-.42-.02-.83.01-1.23.01-.18.03-.37.04-.56l.01-.24 1.53.47v.14c0 .16.01.32.03.5.03.36.05.72-.01 1.09l-.01.03-.01.03c-.13.24-.35.32-.52.38-.05.02-.1.03-.14.06l-.08.01zm-.49-.75c.09.19.25.32.45.37.04-.02.08-.03.12-.04.15-.05.25-.09.3-.18.05-.31.02-.64 0-.96-.01-.13-.02-.26-.02-.39l-.81-.25c-.01.11-.02.23-.02.34-.04.37-.07.74-.02 1.11z"/></g><g><ellipse class="st3" cx="10.24" cy="5.08" rx=".88" ry=".96"/><ellipse class="st4" cx="10.64" cy="5.3" rx=".21" ry=".24"/></g><g><ellipse class="st3" cx="17.63" cy="4.84" rx=".87" ry=".96"/><ellipse class="st4" cx="18.02" cy="5.06" rx=".2" ry=".24"/></g><g><path class="st4" d="M14.34 9.45c-.38.93.21 2.8 1.26 1.42-.07-.59.03-1.16.05-1.76l-1.31.34z"/><path d="M14.89 11.55c-.13 0-.23-.04-.3-.08-.55-.32-.7-1.43-.43-2.09l.04-.09 1.64-.42-.01.25c-.01.2-.02.39-.04.58-.03.4-.06.77-.01 1.15l.01.08-.05.06c-.33.44-.62.56-.85.56zm-.41-1.94c-.17.54-.02 1.35.3 1.54.21.12.47-.13.62-.33-.04-.39-.01-.78.02-1.15.01-.1.02-.21.02-.31l-.96.25z"/></g><g><path class="st0" d="M14.47 7.65c-.72.06-1.3.91-.93 1.59.49.89 1.6-.08 2.28.01.79.02 1.44.84 2.07.15.71-.76-.3-1.51-1.09-1.84l-2.33.09z"/><path class="st5" d="M17.33 9.86c-.26 0-.52-.11-.77-.21-.24-.1-.49-.21-.75-.21h-.02c-.2-.03-.49.07-.76.17-.56.19-1.27.44-1.66-.27-.19-.34-.18-.76.02-1.13.22-.41.63-.69 1.06-.73h.01l2.37-.09.04.02c.3.12 1.27.59 1.43 1.3.04.2.03.52-.27.84-.23.23-.47.31-.7.31zm-1.5-.79c.32.01.61.13.87.24.48.2.75.29 1.05-.03.16-.17.22-.34.18-.51-.09-.41-.68-.8-1.17-1.02l-2.29.09c-.3.03-.6.24-.76.54-.14.26-.15.55-.02.78.23.42.61.31 1.21.1.32-.11.65-.22.93-.19z"/><path class="st3" d="M14.38 7.62c-.05-1.24 2.32-1.4 2.6-.36.27 1.04-2.49 1.28-2.6.36-.1-.74 0 0 0 0z"/></g></svg>