<svg id="Layer_1" xmlns="http://www.w3.org/2000/svg" viewBox="0 0 32 32"><style>.st0{fill:#7ab852}</style><path class="st0" d="M17.23 27.33c.75-.11 1.61-.32 2.04-.54.43-.22.75-.54.75-.75l-.22-.43c-.22-.32-.43-.75-.97-1.94-.22-.54-.7-1.95-.86-2.58-.16-.95-.18-1.96 0-2.9.16-.55.37-1.09.75-1.51.43-.57.93-1.13 1.61-1.4 2.12-.84 4.62-2.69 5.92-4.73.43-.75.64-1.08.79-1.51.39-1.06.73-2.19.71-3.33V5.6H4v.22c-.02 2.82 1.65 5.36 3.66 7.21 1.08.97 2.37 1.72 3.87 2.26.54.22.75.32 1.18.75.54.65.97 1.4 1.18 2.26.13 1.24.03 2.56-.32 3.76l-.21.65c-.11.43-.43 1.08-.97 2.15-.54 1.08-.54 1.18-.54 1.29.21.65 1.51 1.08 3.44 1.29.44 0 1.08 0 1.94-.11zM8.2 23.67c.75-.11 1.4-.32 1.61-.65v-.11l-.11-.31c-.75-1.4-1.18-2.58-1.18-3.76 0-.65.11-.97.32-1.51.32-.54.43-.71.97-.93.22-.11.47-.15.58-.22.28-.08.6-.25.6-.25s-.19-.04-.41-.15c-.65-.22-.88-.39-1.42-.71-1.72-.97-2.8-1.94-3.87-3.33-.32-.54-.49-.78-.65-.99l-.11-.19c-.11-.11-4.41-.11-4.52 0-.07 1.51.65 2.83 1.61 3.98 1.13 1.34 2.04 1.72 2.9 1.94.75.22.86.32 1.18.75.22.54.32.86.32 1.51.11.97-.22 1.94-.86 3.33l-.43.86c0 .11.22.32.43.43.56.31 2.07.53 3.04.31zm17.53 0c.86-.11 1.4-.32 1.51-.65 0-.11 0-.22-.32-.86-.68-1.34-1.14-2.92-.75-4.41.22-.6.51-1.23 1.18-1.33 1.08-.32 1.94-.82 3.01-1.89.65-.65 1.25-1.73 1.41-2.37.14-.51.31-1.11.2-1.61-.11-.11-4.52-.11-4.62 0l-.21.22c-.11.32-.54.97-.86 1.29-.43.54-1.72 1.83-2.15 2.15-.79.81-2.32 1.36-3.12 1.72.11.11.65.43 1.08.54.86.32.86.32 1.18.86.21.54.32.86.32 1.51.06 1.49-.7 2.88-1.29 4.09.75.85 2.36.83 3.43.74z"/></svg>