<svg id="Layer_1" xmlns="http://www.w3.org/2000/svg" viewBox="0 0 32 32"><style>.st0{fill:#ff0}.st1{fill:#ffc}.st2{fill:#cc0}</style><path class="st0" d="M11.79 9.3l-2.13.34-1.94.85-1.65 1.04-1.57 1.91-.89.94-.85.32-.23-.55.4-.57.09-.81.27.01.29.26-.08-.82-.32-.22.01-.31-.76.43-.69.81-.14.73.3.58.28.99.56.26.59-.03.56-.32-.37 1.89.37 2.1-.41.97-1.34 1.45.24.86.64 1 1.2.84.64.09.71.02-.44 1.81 1.62.66 2.02.27.69-.45.05-1.22.77-1.28.05-1.01 1.86.13 1.73-.16-1.73 1.04.29 1.25 1.09 1.7 1.06.45.85-.35.35-.69 1.78-1.36.35.29 2.79.11.56-.45.05-.8-.19-.35-.13-2.15-.93-1.86.16-.82.56.29 1.57 1.46.77.05.83-.32.85-.64.43-1.38 2.5.16 1.52-.58 1.22-1.14.88-1.65.21-1.94-.19-2.26-.48-2.02-.48-.65-.66-.21-1.17 1.28-1.06.37-.93-1.54-.94-.86-.5-.32-2.02-1.68-1.62-.88-1.62-.13-1.89.32-1.65.61-1.15.94-.9 1.09-.93.27-1.63 1.54"/><path class="st1" d="M5.62 14.1c-1.82 2.13-1.42 4.7-.91 7.23l-.81-2.04-.3-1.87.09-1.92c.26-.61.51-1.22.77-1.83.38-.57.77-1.13 1.15-1.7l1.79-1.49c.64-.28 1.3-.55 1.95-.82l2.3-.3-2.13 2.43c-1.71.56-2.72.93-3.9 2.31"/><path class="st1" d="M14.2 7.62c-1.27 1.24-1.96 2.17-2.77 3.62-.58 1.04-1.22 2.03-1.83 3.05-.31.52-.34.95-.43 1.55-.3-.35-.6-.71-.89-1.06.14-.43.28-.85.43-1.28.48-.87.96-1.73 1.45-2.6 1.02-1.01 2.04-2.01 3.06-3.02.33-.09.65-.17.98-.26M20.46 4.56c-1.01.38-2.7.51-2.82 1.67-.08.83.06 1.24.56 2.12-1.23-1.27-1.54-1.08-3.92-.68.34-.48.68-.96 1.02-1.45.6-.37 1.19-.74 1.79-1.11l2.3-.51c.36-.02.71-.03 1.07-.04"/><path class="st2" d="M23.26 20.31c.34.21.33.36.27.5.27-.11.53-.21.8-.32.17-.23.35-.46.52-.7.13-.33.26-.66.38-.99l-.49-.37-2.15.27c-.05.14-.11.29-.16.43.02.21.03.41.05.62.07.12.14.24.21.37.11.05.21.11.32.16.08.02.16.02.25.03M23.06 16.64c-1.08.31-1.07.4-1.39 1.46.42-.67.73-1.01 1.39-1.46M30.21 8.65c-.19.09-.38.13-.5.31-.26.38-.48.69-.9.96-.21.13-.44.22-.66.29-.19.06-.3.01-.46.12.1.02.19.03.29.05h.63l.78-.48c.15-.16.3-.32.46-.48.11-.26.24-.52.36-.77M13.07 11.04c-.42 1.16-.79 2.15-1.43 3.2.82-.89 1.32-1.64 1.79-2.64.18-.39.22-.85.73-.68.02.39.11.78.13 1.16.28-1.97 1.05-2.8 2.86-3.56l-1.53.18c-.48.11-.96.21-1.44.32-.24.34-.47.69-.71 1.03-.14.33-.27.66-.4.99M16.57 10.99c.39 1.83.95 3.59 1.19 5.45.16 1.21.18 1.79-.43 2.83-.66-.04-1.08.03-1.72.24-2.56.84-4.03 2.07-5.75-.41l1.65.78c.39-.08.78-.15 1.18-.23.69-.4 1.39-.81 2.08-1.21.54-.11 1.08-.21 1.62-.32.18-.73.35-1.46.53-2.19l-.39-2.9c-.02-.46-.03-.91-.05-1.37.02-.23.06-.45.09-.67M20.97 22.32c-.22 1.49.49 2.29.2 2.7-.08.12-.2.32-.32.38-.45.2-1.07-.04-1.11.08h-1.48c-.2-.08-.4-.17-.59-.25.3-.36.61-.72.91-1.07.3-.65.59-1.29.89-1.94l.57-1.96h.3c.21.67.42 1.37.63 2.06"/><path class="st2" d="M18.48 18c.12.68.33.84.65 1.49-.21 1.07-.55 2.33-.96 3.28-.17.4-.31.62-.62.92-.51.52-1.03.97-1.61 1.42-.42.32-.71.16-1.23.09-.22.4-.28.62-.69.82-.62.31-1.18-.36-1.67-.75.35.55.71 1.1 1.06 1.65.24.23.49.46.73.69l.62.09c.27-.17.55-.34.82-.5.14-.27.29-.55.43-.82.3-.23.61-.46.91-.69.37-.32.75-.64 1.12-.96.24-.33.47-.67.71-1 .21-.4.43-.79.64-1.19.27-.82.55-1.64.82-2.47.02-.31.05-.62.07-.94-.34-.15-.69-.3-1.03-.46-.24-.24-.52-.44-.77-.67M10.28 22.75c1.15 0 2.37-.06 3.43-.55.3-.45.59-.81.96-1.21-.33.63-.44.98-.53 1.69-.11.17-.23.33-.34.5-.87.02-1.74.05-2.6.07l-.85-.09-.09-.09c.01-.1.02-.21.02-.32M10.12 21.96l-.09-.81c-.2 1.19-.15 1.98-.7 3.04-.41.47-.91.9-1.48 1.13.05.29.07.47.04.68-.1.77-1.64.43-2.27.4l3.04.78.69-.27c.08-.44.15-.88.23-1.32.21-.4.43-.79.64-1.19.04-.24.08-.49.11-.73l-.21-1.71M8.41 15.26c-.03.58-.07.82.19 1.33.32.65.72 1.26 1.07 1.89.04-.43.08-.85.11-1.28-.45-.64-.91-1.29-1.37-1.94M3.72 19.62l-.3.63c.27.92.51 1.5 1.03 2.3-.09.32-.16.47-.37.73-.46-.07-.86-.09-1.32-.09.51.4 1.02.79 1.53 1.19.25-.05.5-.09.75-.14l.75-.75c-.36-.56-.72-1.11-1.07-1.67-.32-.74-.66-1.47-1-2.2M30.22 8.35c.31 1.4.71 2.69.67 4.12-.05 1.76-.39 3.97-2.02 5.03-1.82 1.19-3.96.63-5.96.12.81.34 1.63.67 2.44 1 .76.04 1.52.08 2.28.11.52-.15 1.04-.3 1.55-.46.4-.34.81-.67 1.21-1.01.3-.64.61-1.28.91-1.92.11-.74.23-1.48.34-2.22l-.27-2.17c-.17-.72-.34-1.43-.5-2.15-.21-.14-.43-.3-.65-.45M3.02 12.51c-.83.54-1.15.77-1.06 1.77.08.3.16.6.25.9.12.08.23.16.35.24.14.05.29.1.43.14.26-.06.52-.12.78-.19.13-.42.27-.83.4-1.25-.37.18-.74.36-1.11.55h-.25c-.1-.15-.19-.3-.29-.44.12-.17.23-.34.35-.52.06-.33.12-.65.19-.98.08.02.16.05.24.07l.29.23c-.01-.17-.03-.34-.04-.52-.07-.11-.13-.22-.2-.33a2.8 2.8 0 0 0-.2-.16c-.05.17-.09.33-.13.49M21.58 4.65c.73.68 1.64 1.27 2.22 2.11.23.32.48.49 0 .94.51-.15.7-.13 1.11-.08.74.09 1.44 1.15 1.49 1.91-.01.07-.21.23-.78.39-.01.02-.32-.04-.32-.02.06.16.14.19.26.27.03.18.04.46.17.66.36-.01.72.03 1.07.1.12.2.1.4.09.59.14-.02.27-.05.41-.07-.04-.31-.08-.62-.11-.94.12-.21.24-.41.37-.62-.18-.4-.35-.79-.53-1.19-.33-.32-.67-.64-1-.96h-.1c-.38-.23-.75-.46-1.13-.69l-1.84-1.51c-.46-.3-.92-.59-1.38-.89M22.82 10.28c-.04.07-.1.18-.17.25.31.29.46.48.57.89-.35.17-.69.34-1.04.51-.29.28-.59.56-.88.84-.39-.21-.48-.37-.67-.76-.22.06-.42.11-.6.05.11 0 .18-.03.3-.1.19-.19.37-.39.56-.58l.99-.75c.22-.07.43-.14.65-.21.07-.03.21-.11.29-.14"/><path class="st2" d="M23.77 11.31c-1.1.59-2.15 1.19-2.72 2.31.01-1.43 1.44-2.06 2.72-2.31M20.84 8.5c-.82.56-1.39 1.68-1.32 2.78-.27-.95-.17-1.84.65-2.5.14-.07.28-.13.41-.2.08-.03.17-.06.26-.08"/><path d="M31.83 11.08c-.15-.93-.39-1.84-.73-2.49a.94.94 0 0 0-.18-.24c-.17-.17-.42-.32-.68-.41-.27-.09-.56-.11-.79.01a.61.61 0 0 0-.16.12c-.16.15-.29.33-.41.52-.14.2-.28.41-.45.55-.19.17-.44.27-.67.36-.1-.24-.22-.47-.35-.68-.16-.25-.34-.49-.53-.72-.16-.19-.32-.34-.49-.46-.17-.13-.34-.24-.55-.37-.54-.34-1.01-.75-1.48-1.16-.21-.19-.43-.38-.64-.55-1.12-.93-2.17-1.38-3.29-1.45-1.11-.07-2.29.24-3.67.82-.67.28-1.17.61-1.6 1.02-.41.38-.76.82-1.15 1.34-.22.02-.42.05-.63.13-.22.09-.45.23-.72.47-.19.17-.38.34-.55.51-.17.16-.33.32-.49.49-1.26.2-2.29.43-3.21.78-.94.36-1.77.87-2.63 1.62-.35.31-.65.64-.91.98-.26.34-.48.7-.68 1.07-.17.19-.34.38-.53.55-.18.16-.37.3-.59.38-.13.05-.18.08-.18.07-.01 0-.01-.02-.02-.06.31-.3.36-.73.39-1.16.04.04.07.1.11.16.04.06.08.13.13.19l.21.27.07-.33c.06-.28.11-.65.04-.97-.05-.21-.14-.39-.31-.52.02-.04.03-.08.05-.12.05-.13.11-.27.15-.4l.09-.26-.26.06c-.36.06-1.14.49-1.68 1.05-.2.21-.38.44-.49.69-.12.25-.17.52-.13.79.04.23.16.46.37.68.04.16.07.29.11.41.04.14.09.26.15.38.16.33.41.53.71.63.24.08.5.08.75.02-.05.29-.08.59-.09.92-.02.43 0 .91.05 1.46.01.12.03.25.05.4l.06.37c-.05.13-.1.26-.14.39-.07.2-.15.4-.22.61-.16.16-.33.32-.49.49-.15.15-.31.3-.46.45-.03 0-.09.05-.13.09-.31.3-.37.36-.28.88a3.194 3.194 0 0 0 .94 1.79c.33.33.86.73 1.42.95.32.12.65.18.96.13-.02.05-.03.1-.05.14-.05.13-.1.27-.16.4-.39.84 0 1.28.61 1.55.3.14.66.23 1 .32.07.02.14.04.22.06.4.11 1.08.3 1.71.34.68.04 1.3-.1 1.46-.71.07-.24.1-.43.12-.61.01-.17.01-.34-.01-.55.19-.43.28-.55.42-.76.03-.04.06-.09.07-.11.15-.23.22-.39.25-.57.03-.17 0-.35-.03-.61 0-.03-.01-.06-.01-.11.4.05.79.08 1.19.08.2 0 .4 0 .6-.02-.05.03-.1.05-.16.08-.02.01-.05.03-.07.04-.53.27-.55.79-.38 1.31.15.48.46.96.65 1.26.4.62.79 1.15 1.26 1.44.49.3 1.05.34 1.77-.06.37-.2.48-.4.64-.68.05-.08.1-.17.16-.26.15-.1.53-.41.9-.72.13-.1.25-.21.4-.32.1.07.22.12.36.16.19.04.41.06.67.08.2.01.85.01 1.26.01h.3c.43 0 .78-.02 1.04-.17.28-.16.45-.44.48-.95.02-.22.02-.36-.01-.5-.03-.13-.09-.25-.18-.43-.01-.22-.01-.44-.02-.66-.01-.23-.01-.46-.02-.7-.01-.27-.04-.5-.09-.71a4.66 4.66 0 0 0-.24-.68c-.07-.17-.13-.32-.19-.48l-.15.06.02-.01.13-.05c-.09-.24-.18-.48-.3-.73.01-.05.02-.1.02-.16.08.08.16.15.24.23l.36.34c.27.26.52.5.81.67.3.18.64.28 1.08.26.46-.02.95-.21 1.35-.51.39-.29.7-.68.84-1.11.04-.12.08-.25.11-.37l.09-.3c.64.11 1.33.14 2 .07.64-.07 1.26-.23 1.8-.52.79-.42 1.38-1.04 1.8-1.77.47-.82.74-1.79.84-2.79.08-.77.04-1.86-.13-2.91zM23.5 17.8c-.37-.12-.63-.31-.95-.51.09.4.13.82.01 1.22-.19.63-.49 1.67.37 1.86.33.07.48.06.94-.18-.37.08-.56.06-.82.02a.525.525 0 0 1-.42-.36c.08.06.21.09.44.15.64.15 1.24-.15 1.36-.59.07-.26.06-.39.2-.75.13.04.27.08.41.11l-.24.77c-.2.67-1 1.21-1.71 1.19-.65-.01-1.06-.42-1.51-.82-.31-.28-.61-.54-.9-.8-.81-.26-1.46-.55-2.21-1.11.53.63.9.98 1.64 1.29-.11 1.11-.49 1.91-.82 2.97-.15.48-1.32 2.4-1.64 2.59-.23.13-1.68 1.35-1.95 1.52-.2.27-.38.64-.69.8-.93.49-1.53-.45-2.03-1.25-.23-.36-.86-1.41-.31-1.7.52-.28.81-.47 1.35-.82.08.14.21.28.3.42l-.06-.47c-.03-.28-.03-.51-.01-.8l.06-.83c-.08.28-.24.56-.32.84-.03.11-.06.2-.07.29-1.2.24-2.38.26-3.58.05-.08-.44-.17-.9-.25-1.23-.02.37-.01 1.39-.01 1.97 0 .44-.02.6-.25.97-.21.35-.31.43-.61 1.03.03.38.03.63-.07.98-.17.59-1.85.13-2.29.01-.55-.15-1.67-.37-1.39-1.1.25-.64.41-1.32.53-2.21-1-1.44-1.93-3.42-2.11-5.17-.14-1.36-.06-2.19.24-3.03.47-1.32 1.12-2.46 2.16-3.37 1.41-1.24 2.73-1.73 4.79-2.05-.5.56-.99 1.14-1.52 1.77-.54.64-.86 1.28-1.21 1.98-.48.96-.47 1.33.16 2.18.54.73.84 1.06 1.07 1.77-.2.4-.27.74-.33 1.3.66.73 1.16 1.22 1.8 1.38.63.15 1.16.12 1.73-.17 1.26-.64 2.42-1.47 3.84-1.51.66-1.61.59-2.96.27-4.53-.22-1.07-.3-2.08-.37-3.16-.27 1.12-.32 2.1-.12 3.22.24 1.34.42 2.83-.24 4.01-1.28.1-2.38.88-3.54 1.48-.47.24-.95.26-1.46.12-.48-.13-.8-.45-1.31-1.04-.01-.6.13-.87.4-1.41.44-.87.92-1.67 1.46-2.53-.65.79-1.27 1.44-1.78 2.24-.2-.56-.48-.84-.94-1.47-.45-.61-.5-.88-.16-1.6.34-.71.63-1.34 1.21-1.97 1-1.08 1.92-2.29 3.02-3.36.6-.58.84-.56 1.63-.68.71-.11 1.41-.24 2.14-.41-.7.07-1.39.09-2.07.11h-.02c.67-.86 1.07-1.34 2.16-1.82 2.7-1.17 4.41-1.3 6.53.48.56.47 1.04.92 1.6 1.32-.2.02-.38.05-.61.14.28-.05.6 0 .89.05.08.05.17.1.25.16.39.23.62.36.88.73.28.39.52.78.72 1.21-.14-.05-.25-.09-.35-.12a.653.653 0 0 0-.24-.06.765.765 0 0 0-.47.11c-.01 0-.01.01-.02.01-.22.11-.55.23-.78.26.11.04.37.05.49.01.02-.01.03-.01.05-.02-.05.09-.09.2-.1.31-.01.15.02.29.08.42.02.05.05.09.08.12-.1.04-.21.08-.32.13.5-.08.96-.09 1.45-.03.03.15.07.32.1.49-.06 0-.12.01-.18.01h-.01c-.23-.19-.49-.15-.84-.07-1.08.25-.82.85-1.32 1.76.51-.63.48-1.28 1.31-1.48.19-.05.33-.1.46-.08-.24.12-.44.32-.52.55-.23.65-.09 1.2-.34 1.8.31-.54.33-1.07.61-1.64.1-.2.47-.53.7-.54h.19c.06.36.09.72.07 1.02-.04.54-.18 1.35-.26 1.65.28-.36.41-1.13.54-1.68.13-.56.1-1.24-.02-1.85-.16-.83.7-.7 1.2-1.09.37-.29.62-.75.95-1.08.33-.32.86.15.99.47.57 1.37.83 3.53.68 4.92-.17 1.55-.92 3.25-2.29 4.01-1.75.98-3.81.39-5.55-.2zm-2.48 6.9c-.06.64-.27.68-.83.67-.26 0-1.27-.01-1.53-.03-.37-.03-.57-.06-.68-.15.57-.42 1.55-2.16 1.74-2.76.2-.63.42-1.18.58-1.77.08.24.13.49.24.75.18.43.27.7.29 1.17.01.49.03.98.04 1.47.15.28.18.34.15.65zM3.75 19.84c.36 1.26.98 2.5 1.67 3.54v.02c-.04.18-.09.35-.2.49-.49.66-1.74-.31-2.1-.68-.4-.4-.66-.88-.72-1.33-.05-.33 0-.34.23-.57.31-.31.62-.62.92-.94.07-.17.13-.35.2-.53zm-.69-7.92c-.09.2-.16.35-.2.51-.2.68.09 1.28-.53 1.77.29.58.28.82.95.55.26-.1.47-.25.66-.42-.09.24-.18.48-.25.73-.01.04-.03.08-.04.12-.48.2-1.11.33-1.35-.17-.12-.25-.18-.49-.27-.8-.8-.82.38-1.9 1.03-2.29zm.38.87c-.1-.1-.18-.16-.3-.15.01-.08.02-.16.04-.24.01-.04.02-.08.03-.11.17.09.22.26.23.5zm23.74-3.07c.03.06.06.13.09.19-.02.02-.05.04-.07.06a.807.807 0 0 0-.17-.24c.06 0 .1 0 .15-.01zM4.33 13.45zm-2.58.87zm8.66 9.05zm7.14 2.13zm2.9-5.51zM3.14 14.43l-.01-.01.01.01zm27.84 2.29zM.34 14.24c.13-1.43.4-2.04 1.42-3.12-1.27.9-1.59 1.3-1.42 3.12"/><path d="M.02 13.07c.14-.64.27-.88.67-1.41-.65.45-.73.63-.67 1.41M14.93 4.12c-.76.18-.91.32-1.14 1.07.37-.54.58-.72 1.14-1.07"/><path d="M16.13 4.01c-1.51.37-1.95.63-2.46 2.38.64-1.28 1.13-1.75 2.46-2.38M19.38 10.39c.16-.71.45-1.4 1.55-1.93-1.46.37-1.73.99-1.55 1.93M28.73 10.44c.87-.31 1.29-1.01 1.5-1.83-.34.69-.87 1.27-1.58 1.62-.38.19-.63.12-1.05.08.42.13.7.29 1.13.13M22.8 11.14a.993.993 0 0 0-.55-.5c.21-.11.42-.23.59-.38-.48.22-1.04.17-1.45.44-.36.24-.86 1.02-1.23 1.35.27-.1.52-.28.76-.47 0 .14.03.28.1.42.1.2.25.35.43.45-.13.17-.24.37-.32.59.7-.83 1.72-1.46 2.67-1.72-.27 0-.58.05-.9.15-.02-.12-.05-.23-.1-.33M21.8 17.41c-.03.21-.08.48-.11.7.09-.24.2-.53.31-.76.11-.25.18-.27.41-.4.17-.09.48-.22.64-.31-.17.03-.48.09-.66.12-.47.08-.52.2-.59.65M13.87 9.12c-.54.53-1.06 2.36-1.23 3.09.26-.61.92-2.3 1.43-2.74.14-.12.24-.19.34-.25-.36.61-.34.76-.21 1.57.11-.83.39-1.15.86-1.76.51-.13.99-.28 1.52-.49-.59.07-1.19.13-1.78.18-.49.06-.57.05-.93.4"/><path class="st1" d="M21.21 12.23c-.1-.21-.01-.45.2-.55.21-.1.45-.01.55.19.01.02.02.04.02.06-.2.15-.38.32-.53.52a.513.513 0 0 1-.24-.22M25.8 10.45c.02-.17.16-.3.33-.28.17.02.3.17.28.34 0 .04-.01.07-.03.1-.16.03-.31.07-.47.13-.06-.07-.12-.2-.11-.29"/></svg>