<svg id="Layer_1" xmlns="http://www.w3.org/2000/svg" viewBox="0 0 32 32"><style>.st0{fill:#f5505a}.st1{fill:#517af4}.st2{fill:#fff}.st3{fill:#dcdcdc}.st4{fill:#3bb33e}</style><path class="st0" d="M9.41 7.87h5.91v5.84H9.41z"/><path class="st1" d="M17.08 7.87h5.91v5.84h-5.91z"/><path class="st2" d="M10.12 12.69c.1 0 .19-.01.25-.03.06-.02.11-.04.16-.06.04-.04.07-.1.08-.17.01-.07.02-.16.02-.27V9.62c0-.1-.01-.19-.02-.27a.301.301 0 0 0-.08-.17c-.02-.04-.07-.07-.14-.08a1.87 1.87 0 0 0-.27-.02v-.36h1.97v.38c-.08 0-.16.01-.23.02s-.12.04-.14.08c-.04.04-.07.1-.08.17-.01.07-.02.16-.02.27v.97h1.53v-.99c0-.1-.01-.19-.02-.27a.301.301 0 0 0-.08-.17c-.01-.03-.05-.06-.11-.07s-.15-.02-.25-.02v-.37h1.97v.38c-.1 0-.19.01-.27.02-.07.01-.12.04-.14.08-.04.04-.07.09-.08.16s-.02.16-.02.28v2.53c0 .1.01.19.02.27.01.07.04.13.08.17.02.02.07.04.14.06.07.02.16.03.27.03v.38h-1.97v-.38c.1 0 .19-.01.25-.03.06-.02.1-.04.12-.06.04-.04.07-.1.08-.17.01-.07.02-.16.02-.27v-1.19h-1.53v1.19c0 .1.01.19.02.27.01.07.04.13.08.17.02.02.06.04.12.06.06.02.15.03.25.03v.38h-1.97l-.01-.39zM18.09 12.69zM21.83 12.67a.285.285 0 0 1-.14-.08c-.04-.04-.09-.11-.14-.2s-.11-.22-.17-.39l-1.19-3.34h-.31L18.72 12c-.08.23-.18.4-.28.52-.1.11-.22.17-.34.17v.37h1.25v-.38a.88.88 0 0 1-.17-.02.226.226 0 0 1-.11-.05c-.04-.02-.07-.05-.08-.08a.464.464 0 0 1-.02-.14c0-.02.01-.06.02-.11s.03-.12.05-.2l.09-.22h1.16l.09.31.03.09c.02.04.04.08.05.12s.02.07.02.09-.01.05-.02.08-.03.05-.05.05c-.02.02-.06.04-.11.05s-.12.02-.2.02v.38h1.88v-.38c-.05.02-.1.01-.15 0zm-2.61-1.17l.47-1.28.47 1.28h-.94z"/><path transform="rotate(-57.364 10.579 15.713)" class="st0" d="M7.31 15.46h6.53v.5H7.31z"/><path transform="rotate(-27.164 5.992 16.005)" class="st0" d="M.41 15.76h11.16v.5H.41z"/><path transform="rotate(-35.63 14.15 16)" class="st0" d="M13.9 12.98h.5v6.05h-.5z"/><path transform="rotate(-63.288 18.54 15.92)" class="st0" d="M18.29 10.27h.5v11.29h-.5z"/><path transform="rotate(-73.399 22.213 16)" class="st0" d="M21.96 7.4h.5v17.21h-.5z"/><path class="st1" d="M31.31 18.68L20.6 13.61l.21-.45 10.71 5.07z"/><path transform="rotate(-44.561 22.455 16)" class="st1" d="M22.2 12.55h.5v6.9h-.5z"/><path transform="rotate(-64.837 18.491 15.92)" class="st1" d="M15.69 15.67h5.61v.5h-5.61z"/><path transform="rotate(-29.467 14.772 15.921)" class="st1" d="M9.62 15.67h10.3v.5H9.62z"/><path transform="rotate(-18.33 11.057 15.998)" class="st1" d="M3.23 15.75h15.66v.5H3.23z"/><path class="st3" d="M-.01 18.22H5.9v5.84H-.01zM6.46 18.22h5.91v5.84H6.46zM12.96 18.22h5.91v5.84h-5.91zM19.58 18.22h5.91v5.84h-5.91zM26.09 18.22H32v5.84h-5.91z"/><path class="st4" d="M24.88 23.38h-2.31V23c.1 0 .19-.01.25-.02a.75.75 0 0 0 .16-.05c.02-.02.04-.04.05-.06a.2.2 0 0 0 .02-.09c0-.04-.01-.09-.03-.14-.02-.05-.04-.1-.06-.14l-.56-.84-.59.75a.502.502 0 0 0-.15.35c0 .04.01.08.02.11s.04.06.08.08c.02.02.06.04.12.05.06.01.14.02.22.02v.38h-1.66V23a.747.747 0 0 0 .4-.12 2.114 2.114 0 0 0 .5-.47l.84-1.06-.84-1.25c-.13-.19-.22-.33-.3-.44s-.13-.17-.17-.19a.722.722 0 0 0-.2-.09.852.852 0 0 0-.23-.03V19h2.12v.34c-.06 0-.11.01-.16.02-.04.01-.07.02-.09.02-.02.02-.04.04-.05.06-.01.02-.02.04-.02.06 0 .04.01.08.02.12.01.04.03.09.05.16l.53.78.56-.75a.42.42 0 0 0 .12-.28.15.15 0 0 0-.09-.14.583.583 0 0 0-.25-.05V19h1.5v.34c-.1.02-.2.05-.28.08a1.125 1.125 0 0 0-.44.3c-.08.08-.17.19-.25.31l-.66.81.88 1.34c.13.21.23.37.33.48.09.11.17.18.23.2a.747.747 0 0 0 .4.12l-.01.4zM31 19.34c-.06 0-.12.01-.17.03s-.1.06-.14.12c-.04.04-.1.12-.17.23-.07.11-.15.25-.23.42l-.72 1.34v.97c0 .1.01.19.02.25s.04.11.08.16c.02.04.06.07.12.09.05.04.13.05.21.05h.06v.38h-2.03V23h.06c.1 0 .19-.01.25-.03.06-.02.1-.05.12-.09.04-.04.07-.09.08-.16s.02-.15.02-.25v-.91l-.84-1.62c-.06-.15-.12-.26-.17-.33s-.1-.13-.14-.17c-.04-.02-.09-.04-.14-.06s-.11-.03-.17-.03V19H29v.34c-.1 0-.18.02-.23.05a.16.16 0 0 0-.08.14c0 .04.01.09.03.14.02.05.05.12.09.2l.62 1.19.57-1.12c.02-.04.04-.09.06-.14s.03-.11.03-.17c0-.08-.03-.15-.09-.2s-.16-.08-.28-.08V19H31v.34zM4.66 19.89c-.02-.09-.05-.19-.09-.3a.868.868 0 0 0-.16-.23.723.723 0 0 0-.22-.17c-.1-.06-.2-.11-.3-.14-.09-.03-.19-.06-.3-.08-.1 0-.23-.01-.38-.02s-.31-.02-.5-.02L1.19 19v.34h.09c.08 0 .16.01.22.03s.11.05.16.09c.02.04.04.09.05.16.01.06.02.15.02.25v2.59c0 .1-.01.19-.02.25a.75.75 0 0 1-.05.16c-.04.04-.09.07-.16.09s-.13.04-.22.04h-.06v.38h2.03V23h-.09c-.09 0-.16-.01-.22-.03s-.1-.05-.12-.09c-.04-.04-.07-.09-.08-.16s-.02-.15-.02-.25v-1.03H3c.19 0 .35-.01.5-.03.15-.02.28-.05.41-.09.1-.02.2-.07.3-.14s.18-.15.27-.23c.08-.1.14-.22.17-.34.03-.12.05-.26.05-.41-.01-.12-.02-.22-.04-.31zm-1.07.66c-.02.09-.05.18-.09.27a.48.48 0 0 1-.23.17c-.09.03-.21.05-.36.05h-.19v-1.69c.13 0 .23.01.31.02s.16.03.22.05c.06.02.11.05.16.09.04.04.08.09.12.16.04.08.07.17.08.27.01.09.02.19.02.3-.01.1-.02.21-.04.31zM17.89 20.31c-.09-.27-.23-.52-.42-.75-.19-.21-.41-.37-.67-.48s-.56-.17-.89-.17c-.19 0-.36.02-.53.06s-.33.11-.5.22c-.17.08-.31.19-.44.33s-.24.3-.34.48c-.08.19-.15.38-.2.58s-.08.39-.08.58.02.37.06.55.09.36.16.55c.08.19.18.35.3.5s.26.27.42.38.35.18.55.23.41.08.64.08c.31 0 .6-.05.86-.16s.48-.27.67-.5c.19-.21.33-.45.42-.72.09-.27.14-.55.14-.84-.01-.35-.06-.65-.15-.92zm-1.08 1.74c-.04.24-.1.43-.19.58-.08.13-.18.22-.3.3a.839.839 0 0 1-.83 0 .658.658 0 0 1-.28-.33c-.08-.17-.15-.37-.19-.61-.04-.24-.06-.53-.06-.86 0-.31.02-.58.06-.81.04-.23.1-.42.19-.56.06-.15.16-.25.28-.31s.26-.09.41-.09c.17 0 .31.04.44.11s.23.18.31.33c.06.17.11.36.16.59.04.23.06.5.06.81.01.32-.02.61-.06.85zM11.36 22.97a.947.947 0 0 1-.17-.09c-.04-.04-.1-.12-.17-.23-.07-.11-.17-.28-.3-.48-.15-.27-.27-.48-.38-.64-.1-.16-.19-.26-.25-.3a1 1 0 0 0 .56-.41c.13-.19.19-.41.19-.66 0-.1-.01-.2-.03-.3-.02-.09-.05-.18-.09-.27s-.09-.16-.16-.22l-.19-.16c-.08-.06-.16-.11-.23-.14a.593.593 0 0 0-.23-.05c-.06-.02-.16-.04-.28-.05-.13-.01-.27-.02-.44-.02h-.34L7.32 19v.34h.09c.08 0 .16.01.22.03.06.02.11.05.16.09.02.04.04.09.05.16.01.06.02.15.02.25v2.59c0 .1-.01.19-.02.25s-.03.11-.05.16c-.04.04-.09.07-.16.09-.06.03-.14.04-.22.04h-.09v.38h2.03V23h-.07c-.08 0-.16-.01-.22-.03-.06-.02-.1-.05-.12-.09a.272.272 0 0 1-.08-.16c-.01-.06-.02-.15-.02-.25v-1.03c.1 0 .19.01.25.02s.11.02.16.02c.02.02.05.04.08.06.03.02.07.06.11.12.02.04.06.11.11.2s.12.21.2.36c.13.31.24.56.34.75s.19.32.25.41h1.16V23c-.04 0-.09-.01-.14-.03zM9.8 20.5c-.01.08-.04.16-.08.22-.02.06-.05.11-.09.16-.04.04-.09.07-.16.09-.04.02-.12.03-.24.05-.11.01-.24.02-.39.02v-1.66H9c.15 0 .27.02.38.05.1.03.19.08.25.14.06.06.11.15.14.25.03.1.05.23.05.38-.01.11-.01.22-.02.3z"/></svg>