<svg xmlns="http://www.w3.org/2000/svg" viewBox="0 0 32 32" enable-background="new 0 0 32 32"><style type="text/css">.st0{fill:#F5505A;} .st1{fill:#517AF4;} .st2{fill:#FFFFFF;} .st3{fill:#DCDCDC;} .st4{fill:#3BB33E;}</style><path class="st0" d="M9.41 7.87h5.91v5.84H9.41z"/><path class="st1" d="M17.08 7.87h5.91v5.84h-5.91z"/><path class="st2" d="M10.12 12.69c.1 0 .19-.01.25-.03.06-.02.11-.04.16-.06.04-.04.07-.1.08-.17.01-.07.02-.16.02-.27V9.62c0-.1-.01-.19-.02-.27-.01-.07-.04-.13-.08-.17-.02-.04-.07-.07-.14-.08-.07-.01-.16-.02-.27-.02v-.36h1.97v.38c-.08 0-.16.01-.23.02s-.12.04-.14.08c-.04.04-.07.1-.08.17-.01.07-.02.16-.02.27v.97h1.53v-.99c0-.1-.01-.19-.02-.27-.01-.07-.04-.13-.08-.17-.01-.03-.05-.06-.11-.07s-.15-.02-.25-.02v-.37h1.97v.38c-.1 0-.19.01-.27.02-.07.01-.12.04-.14.08-.04.04-.07.09-.08.16s-.02.16-.02.28v2.53c0 .1.01.19.02.27.01.07.04.13.08.17.02.02.07.04.14.06.07.02.16.03.27.03v.38h-1.97v-.38c.1 0 .19-.01.25-.03.06-.02.1-.04.12-.06.04-.04.07-.1.08-.17.01-.07.02-.16.02-.27v-1.19h-1.53v1.19c0 .1.01.19.02.27.01.07.04.13.08.17.02.02.06.04.12.06.06.02.15.03.25.03v.38h-1.97l-.01-.39zM18.09 12.69zM21.83 12.67c-.05-.01-.1-.04-.14-.08-.04-.04-.09-.11-.14-.2s-.11-.22-.17-.39l-1.19-3.34h-.31L18.72 12c-.08.23-.18.4-.28.52-.1.11-.22.17-.34.17v.37h1.25v-.38c-.06 0-.12-.01-.17-.02-.05-.01-.09-.03-.11-.05-.04-.02-.07-.05-.08-.08-.01-.03-.02-.08-.02-.14 0-.02.01-.06.02-.11s.03-.12.05-.2l.09-.22h1.16l.09.31.03.09c.02.04.04.08.05.12s.02.07.02.09-.01.05-.02.08-.03.05-.05.05c-.02.02-.06.04-.11.05s-.12.02-.2.02v.38h1.88v-.38c-.05.02-.1.01-.15 0zm-2.61-1.17l.47-1.28.47 1.28h-.94z"/><path class="st0" d="M8.603 18.33l3.52-5.5.423.27-3.522 5.5zM.914 18.336l9.93-5.096.227.445-9.928 5.096zM12.188 13.692l.406-.292 3.524 4.918-.406.29zM13.38 13.603l.225-.446L23.69 18.23l-.224.448zM13.9 13.786l.142-.48 16.493 4.918-.143.48z"/><path class="st1" d="M31.31 18.68L20.6 13.61l.21-.45 10.71 5.07zM19.853 13.72l.356-.35 4.84 4.916-.355.35zM17.074 18.35l2.385-5.078.452.212-2.386 5.078zM10.162 18.236l8.968-5.067.245.435-8.967 5.066zM3.55 18.225L18.414 13.3l.158.474L3.706 18.7z"/><path class="st3" d="M-.01 18.22H5.9v5.84H-.01zM6.46 18.22h5.91v5.84H6.46zM12.96 18.22h5.91v5.84h-5.91zM19.58 18.22h5.91v5.84h-5.91zM26.09 18.22H32v5.84h-5.91z"/><path class="st4" d="M24.88 23.38h-2.31V23c.1 0 .19-.01.25-.02s.11-.03.16-.05c.02-.02.04-.04.05-.06.01-.02.02-.05.02-.09 0-.04-.01-.09-.03-.14-.02-.05-.04-.1-.06-.14l-.56-.84-.59.75c-.06.06-.1.13-.12.19-.02.06-.03.11-.03.16 0 .04.01.08.02.11s.04.06.08.08c.02.02.06.04.12.05.06.01.14.02.22.02v.38h-1.66V23c.06 0 .13-.01.2-.03.07-.02.14-.05.2-.09.06-.04.14-.1.22-.17.08-.07.18-.17.28-.3l.84-1.06-.84-1.25c-.13-.19-.22-.33-.3-.44s-.13-.17-.17-.19c-.06-.04-.13-.07-.2-.09-.07-.02-.15-.03-.23-.03V19h2.12v.34c-.06 0-.11.01-.16.02-.04.01-.07.02-.09.02-.02.02-.04.04-.05.06-.01.02-.02.04-.02.06 0 .04.01.08.02.12.01.04.03.09.05.16l.53.78.56-.75c.04-.04.07-.09.09-.14.02-.05.03-.1.03-.14 0-.06-.03-.11-.09-.14-.06-.03-.15-.05-.25-.05V19h1.5v.34c-.1.02-.2.05-.28.08-.08.03-.16.07-.22.11-.06.04-.14.1-.22.19-.08.08-.17.19-.25.31l-.66.81.88 1.34c.13.21.23.37.33.48.09.11.17.18.23.2.06.04.13.07.2.09.07.02.14.03.2.03l-.01.4zM31 19.34c-.06 0-.12.01-.17.03s-.1.06-.14.12c-.04.04-.1.12-.17.23-.07.11-.15.25-.23.42l-.72 1.34v.97c0 .1.01.19.02.25s.04.11.08.16c.02.04.06.07.12.09.05.04.13.05.21.05h.06v.38h-2.03V23h.06c.1 0 .19-.01.25-.03.06-.02.1-.05.12-.09.04-.04.07-.09.08-.16s.02-.15.02-.25v-.91l-.84-1.62c-.06-.15-.12-.26-.17-.33s-.1-.13-.14-.17c-.04-.02-.09-.04-.14-.06s-.11-.03-.17-.03V19H29v.34c-.1 0-.18.02-.23.05-.05.03-.08.08-.08.14 0 .04.01.09.03.14.02.05.05.12.09.2l.62 1.19.57-1.12c.02-.04.04-.09.06-.14s.03-.11.03-.17c0-.08-.03-.15-.09-.2s-.16-.08-.28-.08V19H31v.34zM4.66 19.89c-.02-.09-.05-.19-.09-.3-.04-.08-.09-.16-.16-.23-.06-.07-.14-.13-.22-.17-.1-.06-.2-.11-.3-.14-.09-.03-.19-.06-.3-.08-.1 0-.23-.01-.38-.02s-.31-.02-.5-.02L1.19 19v.34h.09c.08 0 .16.01.22.03s.11.05.16.09c.02.04.04.09.05.16.01.06.02.15.02.25v2.59c0 .1-.01.19-.02.25s-.03.11-.05.16c-.04.04-.09.07-.16.09s-.13.04-.22.04h-.06v.38h2.03V23h-.09c-.09 0-.16-.01-.22-.03s-.1-.05-.12-.09c-.04-.04-.07-.09-.08-.16s-.02-.15-.02-.25v-1.03H3c.19 0 .35-.01.5-.03.15-.02.28-.05.41-.09.1-.02.2-.07.3-.14s.18-.15.27-.23c.08-.1.14-.22.17-.34.03-.12.05-.26.05-.41-.01-.12-.02-.22-.04-.31zm-1.07.66c-.02.09-.05.18-.09.27-.06.08-.14.14-.23.17s-.21.05-.36.05h-.19v-1.69c.13 0 .23.01.31.02s.16.03.22.05c.06.02.11.05.16.09.04.04.08.09.12.16.04.08.07.17.08.27.01.09.02.19.02.3-.01.1-.02.21-.04.31zM17.89 20.31c-.09-.27-.23-.52-.42-.75-.19-.21-.41-.37-.67-.48s-.56-.17-.89-.17c-.19 0-.36.02-.53.06s-.33.11-.5.22c-.17.08-.31.19-.44.33s-.24.3-.34.48c-.08.19-.15.38-.2.58s-.08.39-.08.58.02.37.06.55.09.36.16.55c.08.19.18.35.3.5s.26.27.42.38.35.18.55.23.41.08.64.08c.31 0 .6-.05.86-.16s.48-.27.67-.5c.19-.21.33-.45.42-.72.09-.27.14-.55.14-.84-.01-.35-.06-.65-.15-.92zm-1.08 1.74c-.04.24-.1.43-.19.58-.08.13-.18.22-.3.3-.11.07-.26.11-.42.11-.15 0-.28-.04-.41-.11-.12-.07-.22-.18-.28-.33-.08-.17-.15-.37-.19-.61-.04-.24-.06-.53-.06-.86 0-.31.02-.58.06-.81.04-.23.1-.42.19-.56.06-.15.16-.25.28-.31s.26-.09.41-.09c.17 0 .31.04.44.11s.23.18.31.33c.06.17.11.36.16.59.04.23.06.5.06.81.01.32-.02.61-.06.85zM11.36 22.97c-.05-.02-.11-.05-.17-.09-.04-.04-.1-.12-.17-.23-.07-.11-.17-.28-.3-.48-.15-.27-.27-.48-.38-.64-.1-.16-.19-.26-.25-.3.25-.08.44-.22.56-.41.13-.19.19-.41.19-.66 0-.1-.01-.2-.03-.3-.02-.09-.05-.18-.09-.27s-.09-.16-.16-.22l-.19-.16c-.08-.06-.16-.11-.23-.14-.07-.03-.15-.05-.23-.05-.06-.02-.16-.04-.28-.05-.13-.01-.27-.02-.44-.02h-.34L7.32 19v.34h.09c.08 0 .16.01.22.03.06.02.11.05.16.09.02.04.04.09.05.16.01.06.02.15.02.25v2.59c0 .1-.01.19-.02.25s-.03.11-.05.16c-.04.04-.09.07-.16.09-.06.03-.14.04-.22.04h-.09v.38h2.03V23h-.07c-.08 0-.16-.01-.22-.03-.06-.02-.1-.05-.12-.09-.04-.04-.07-.09-.08-.16-.01-.06-.02-.15-.02-.25v-1.03c.1 0 .19.01.25.02s.11.02.16.02c.02.02.05.04.08.06.03.02.07.06.11.12.02.04.06.11.11.2s.12.21.2.36c.13.31.24.56.34.75s.19.32.25.41h1.16V23c-.04 0-.09-.01-.14-.03zM9.8 20.5c-.01.08-.04.16-.08.22-.02.06-.05.11-.09.16-.04.04-.09.07-.16.09-.04.02-.12.03-.24.05-.11.01-.24.02-.39.02v-1.66H9c.15 0 .27.02.38.05.1.03.19.08.25.14.06.06.11.15.14.25.03.1.05.23.05.38-.01.11-.01.22-.02.3z"/></svg>