<svg id="Layer_1" xmlns="http://www.w3.org/2000/svg" xmlns:xlink="http://www.w3.org/1999/xlink" viewBox="0 0 32 32"><style>.st0{clip-path:url(#SVGID_2_)}.st1{fill:url(#SVGID_3_)}.st2{fill:url(#SVGID_4_)}.st3{fill:url(#SVGID_5_)}</style><defs><path id="SVGID_1_" d="M.1.1H32V32H.1z"/></defs><clipPath id="SVGID_2_"><use xlink:href="#SVGID_1_" overflow="visible"/></clipPath><g class="st0"><radialGradient id="SVGID_3_" cx="15.801" cy="22.245" r="26.577" gradientUnits="userSpaceOnUse"><stop offset="0" stop-color="#e6f1f7"/><stop offset="1" stop-color="#87b6d9"/></radialGradient><path class="st1" d="M1.83 28.14c-6.73-.01-12.22-5.5-12.23-12.22.01-6.73 5.5-12.22 12.23-12.23 6.61.01 11.98 5.2 12.22 11.77l-.01.31c-.01.36-.02.9-.03 1.05.12 1.89.57 3.73 1.35 5.47l.37.83.02-.03c.2.39.41.76.64 1.13 2.9 4.68 7.9 7.48 13.4 7.48 4.93 0 9.49-2.26 12.46-6.12l-.01 5.31 3.64.01V.64h-3.61l-.01 4.77v.92C39.27 2.47 34.72.2 29.78.2c-5.15 0-9.98 2.53-12.93 6.77l-.02.01.38.2c.15.24.62.17 1.09 1.38l.62 1.8c2.11-4.09 6.26-6.63 10.85-6.64 6.74.02 12.23 5.5 12.24 12.23-.01 6.73-5.5 12.22-12.22 12.23-4.93-.01-9.35-2.95-11.26-7.5-.53-1.26-.84-2.6-.93-3.98-.01-.12-.01-1.38 0-1.57-.1-1.93-.55-3.81-1.33-5.57l-.47-.98c-1.22-2.33-3.02-4.28-5.22-5.75l-.14-.09c-.22-.15-.45-.28-.68-.42l-.31-.18c-.21-.12-.42-.23-.65-.34-.2-.1-.42-.2-.68-.32l-.22-.09C5.96.58 3.92.17 1.83.17c-4.99 0-9.7 2.41-12.65 6.38V-.3h-3.44v44.59l.03.23.29.28 3.24-.05-.01-19.36c2.93 3.96 7.51 6.28 12.55 6.28.39 0 .78-.02 1.23-.05m7.11-28.49z"/><radialGradient id="SVGID_4_" cx="213.301" cy="94.822" r="17.323" gradientTransform="matrix(-1.142 0 0 1.142 258.678 -86.212)" gradientUnits="userSpaceOnUse"><stop offset="0" stop-color="#6393b2"/><stop offset="1" stop-color="#b0cee3"/></radialGradient><path class="st2" d="M-.2 31.54c6.1 1.03 11.98-1.77 15.33-6.59-.97-1.15-1.79-3.81-1.85-3.99v-.01c-.12.22-.82 1.34-1.31 1.94-.81.98-2.09 2.59-3.48 3.44-3.47 2.14-5.97 2.06-8.89 1.55h-.19l.2 3.66h.19z"/><g><radialGradient id="SVGID_5_" cx="79.987" cy="101.379" r="17.323" gradientTransform="matrix(1.142 0 0 -1.142 -74.47 125.645)" gradientUnits="userSpaceOnUse"><stop offset="0" stop-color="#6393b2"/><stop offset="1" stop-color="#b0cee3"/></radialGradient><path class="st3" d="M32.17.4c-6.1-1.03-11.98 1.77-15.33 6.59.72.79 1.6 2.76 1.85 3.99v.01c.12-.22.82-1.34 1.31-1.94.81-.98 2.09-2.59 3.48-3.44 3.47-2.14 5.97-2.06 8.89-1.55h.19L32.36.4c-.07.01-.13 0-.19 0z"/></g></g></svg>