<svg xmlns="http://www.w3.org/2000/svg" viewBox="0 0 32 32"><path d="M2.66 14.62l-.78-1.66h-.57v1.66H0V9.75h2.19c.15 0 .28.01.41.02.12.01.24.03.37.07.1.02.21.06.31.11s.2.11.28.17c.08.06.16.13.22.2s.12.16.16.27c.04.1.08.22.11.34s.05.26.05.41c0 .19-.02.35-.06.5-.04.15-.1.28-.19.41-.08.1-.18.2-.28.3s-.23.16-.38.2l1 1.88H2.66v-.01zM2.59 11a.555.555 0 0 0-.17-.11.684.684 0 0 0-.27-.05h-.84v1.06h.81c.1 0 .2-.01.28-.03s.15-.05.19-.09c.04-.04.08-.1.11-.17s.05-.15.05-.23-.02-.16-.05-.22a.5.5 0 0 0-.11-.16zm2.6 3.62V9.75h3.75v1.12H6.53v.66h1.44v1.12H6.53v.84h2.44v1.12H5.19v.01zm8.9-1.31c-.06.17-.14.31-.22.44s-.18.24-.28.34c-.1.08-.23.16-.38.23s-.29.13-.44.17c-.17.04-.34.07-.53.09-.19.02-.4.03-.62.03h-1.56V9.75h1.69c.19 0 .37.01.55.03.18.02.34.05.48.09.17.04.31.09.44.16.13.06.25.15.38.25.1.08.2.19.28.31s.16.26.22.41c.06.17.1.34.12.53a6.396 6.396 0 0 1 0 1.26c-.02.21-.06.38-.13.52zm-1.28-1.72c-.02-.08-.05-.16-.08-.22s-.07-.11-.11-.16a.364.364 0 0 0-.16-.14c-.06-.03-.12-.07-.19-.11a2.211 2.211 0 0 0-.53-.07h-.34v2.56h.31a2.3 2.3 0 0 0 .53-.07c.06-.02.13-.05.19-.09s.11-.08.16-.12c.06-.04.11-.1.14-.17.03-.07.06-.15.08-.23.02-.08.04-.17.05-.27.01-.09.02-.2.02-.33s-.01-.23-.02-.33c-.01-.07-.03-.16-.05-.25zm7.88 3.03v-1.94h-1.5v1.94h-1.41V9.75h1.41v1.78h1.5V9.75h1.38v4.88h-1.38zm5.72 0l-.25-.84h-1.47l-.25.84h-1.47l1.78-4.88h1.34l1.78 4.88h-1.46zm-.69-2.24c-.02-.08-.04-.16-.05-.22-.01-.06-.03-.13-.05-.19-.02-.06-.04-.12-.05-.17a.578.578 0 0 0-.05-.14c-.02-.04-.04-.08-.05-.12-.01-.04-.02-.08-.02-.12 0-.04-.01-.08-.02-.12a.612.612 0 0 0-.05-.12c0 .04-.01.08-.02.12-.01.04-.02.08-.02.12-.02.04-.04.08-.05.12-.01.04-.02.08-.02.12-.02.04-.04.09-.05.14s-.03.11-.05.17l-.06.19-.06.22-.05.31h.81l-.09-.31zm4.9-1.44v3.69h-1.34v-3.69H27.9V9.75H32v1.19h-1.38zM7.97 21.03c-.04.15-.09.27-.16.38s-.13.2-.22.28c-.08.08-.18.16-.28.23s-.22.13-.34.17c-.13.06-.27.1-.42.12-.16.02-.32.03-.48.03s-.32-.01-.45-.03a2.23 2.23 0 0 1-.39-.09 2.18 2.18 0 0 1-.34-.14c-.1-.05-.2-.12-.28-.2a.966.966 0 0 1-.22-.23c-.06-.09-.13-.19-.19-.3s-.11-.21-.16-.33c-.04-.11-.07-.23-.09-.36l1.31-.34c.04.13.09.25.14.36.05.11.11.2.17.27s.13.11.21.15c.08.04.19.06.31.06.1 0 .2-.02.28-.06s.15-.09.19-.16c.06-.06.1-.14.12-.23.02-.09.03-.2.03-.33v-3h1.37v2.91c0 .17-.01.32-.03.45s-.04.27-.08.39zm5.03.72c-.15.15-.33.25-.56.31s-.5.09-.81.09H9.28v-4.88h2.34c.31 0 .58.03.8.09.22.06.39.15.52.25.15.1.25.23.31.39s.09.34.09.55c0 .13-.02.24-.05.34-.03.1-.08.19-.14.25-.04.08-.1.15-.17.2-.07.05-.15.11-.23.17.13.04.23.09.31.16s.16.14.22.22c.06.1.11.21.14.31.03.1.05.23.05.38 0 .25-.04.47-.12.67-.09.22-.2.38-.35.5zm-1.06-3.28a.285.285 0 0 0-.14-.08c-.05-.01-.12-.02-.2-.02h-1.03v.75h1.03c.08 0 .15-.01.2-.02.05-.01.1-.04.14-.08l.06-.11.03-.16c.02-.1.01-.16-.03-.16l-.06-.12zm.06 1.81c-.04-.04-.09-.07-.14-.09s-.12-.03-.2-.03h-1.09v.94h1.09c.08 0 .15-.01.2-.03s.1-.05.14-.09.07-.09.09-.16c.02-.06.03-.12.03-.19s-.01-.13-.03-.19a.417.417 0 0 0-.09-.16zm6.59.53c-.06.15-.14.29-.22.42-.08.14-.17.25-.25.36-.1.1-.22.2-.34.28-.13.08-.25.16-.38.22-.15.04-.3.08-.45.11-.16.03-.32.05-.48.05-.15 0-.3-.02-.45-.05-.16-.03-.31-.07-.45-.11-.13-.06-.25-.14-.38-.22-.12-.08-.23-.18-.31-.28-.1-.1-.2-.22-.28-.34-.08-.13-.15-.27-.19-.44-.06-.15-.11-.31-.14-.5s-.05-.38-.05-.56c0-.21.02-.4.05-.58s.08-.35.14-.52c.04-.15.1-.29.19-.42.08-.14.18-.26.28-.36s.21-.2.33-.28c.11-.08.24-.16.39-.22.13-.04.27-.08.42-.11.16-.03.32-.05.48-.05.17 0 .32.01.47.05s.29.07.44.11c.15.06.28.14.39.22.11.08.22.18.33.28.08.1.17.22.25.34.08.13.16.27.22.44.04.15.08.31.11.5s.05.38.05.56a3.96 3.96 0 0 1-.17 1.1zm-1.47-2.06a.793.793 0 0 0-.28-.27.855.855 0 0 0-.72 0c-.1.05-.2.13-.28.23-.06.13-.11.27-.16.44s-.06.35-.06.56c0 .23.02.43.06.59.04.17.1.3.19.41a.6.6 0 0 0 .25.27c.1.05.23.08.38.08.13 0 .25-.03.36-.08.11-.05.2-.13.27-.23.08-.13.14-.27.17-.44s.05-.35.05-.56c0-.23-.02-.43-.06-.59-.05-.17-.1-.31-.17-.41zm6.26 2.63c-.06.1-.13.2-.19.28-.06.08-.15.16-.25.22-.08.06-.18.12-.28.17s-.22.09-.34.11l-.39.06c-.14.02-.28.03-.42.03-.19 0-.38-.02-.56-.05-.19-.03-.38-.08-.56-.14-.19-.04-.35-.1-.5-.17-.15-.07-.29-.15-.44-.23l.66-1.06c.04.04.09.07.14.09.05.02.11.05.17.09.06.02.13.05.19.08s.13.06.19.08l.17.06.19.03c.08.02.15.04.2.05.05.01.11.02.17.02.13 0 .23-.01.31-.02.08-.01.15-.04.19-.08.04-.02.07-.05.09-.09s.03-.08.03-.12v-.06l-.03-.06-.12-.14c-.04-.02-.08-.04-.12-.05s-.08-.03-.12-.05l-.19-.06-.22-.06c-.15-.02-.28-.05-.41-.09l-.38-.12-.3-.12a.634.634 0 0 1-.23-.16.947.947 0 0 1-.2-.2.696.696 0 0 1-.11-.23 1.15 1.15 0 0 1-.09-.28 1.792 1.792 0 0 1 0-.65c.02-.1.05-.21.09-.31l.19-.25.22-.22a1.068 1.068 0 0 1 .6-.31 2.744 2.744 0 0 1 .81-.12c.21 0 .4.01.58.03s.34.06.48.12c.17.04.32.1.47.17s.28.15.41.23l-.66 1.06c-.1-.08-.21-.15-.33-.2-.11-.05-.22-.1-.33-.14s-.22-.07-.34-.09c-.13-.02-.25-.03-.38-.03-.1 0-.19.01-.25.03-.06.02-.11.04-.16.06a.349.349 0 0 0-.09.21c0 .02.01.04.02.06.01.02.03.04.05.06 0 .02.01.04.03.05l.09.05c.02.02.05.04.09.05s.08.03.12.05c.06 0 .13.01.19.03.06.02.14.04.22.06.15.04.29.08.42.12.14.04.26.08.36.12.13.04.23.09.31.14.08.05.17.11.25.17.06.06.13.13.19.2s.1.15.12.23c.04.08.07.17.09.27a1.652 1.652 0 0 1-.02.71.94.94 0 0 1-.09.31zm4.81 0a1 1 0 0 1-.17.28c-.07.08-.15.16-.23.22s-.18.12-.29.17-.22.09-.34.11l-.39.06c-.14.02-.28.03-.42.03-.21 0-.41-.02-.59-.05-.19-.03-.36-.08-.53-.14a2.73 2.73 0 0 1-.94-.4l.66-1.06c.04.04.09.07.14.09.05.02.11.05.17.09.06.02.13.05.19.08s.13.06.19.08l.17.06.19.03a1.332 1.332 0 0 0 .38.07c.1 0 .2-.01.28-.02.08-.01.16-.04.22-.08.04-.02.07-.05.09-.09s.03-.09.03-.13c0-.02-.01-.04-.02-.06s-.02-.04-.02-.06l-.12-.12c-.04-.02-.08-.04-.12-.05-.04-.01-.09-.03-.16-.05-.04-.02-.1-.04-.17-.06-.07-.02-.15-.04-.23-.06-.15-.02-.28-.05-.41-.09-.12-.04-.24-.08-.34-.12l-.3-.12a.56.56 0 0 1-.23-.16c-.08-.06-.15-.13-.2-.2s-.1-.15-.14-.23c-.04-.08-.07-.18-.08-.28s-.02-.22-.02-.34c0-.1.01-.21.03-.31.02-.1.05-.21.09-.31.04-.08.09-.17.16-.25.06-.08.14-.16.22-.22.08-.08.18-.15.28-.2s.22-.09.34-.11c.13-.04.25-.07.38-.09s.26-.03.41-.03c.21 0 .41.01.59.03s.35.06.5.12c.17.04.32.1.45.17.14.07.27.15.39.23l-.66 1.06c-.1-.08-.21-.15-.31-.2-.1-.05-.21-.1-.31-.14-.13-.04-.24-.07-.36-.09-.11-.02-.23-.03-.36-.03-.1 0-.19.01-.25.03-.06.02-.11.04-.16.06a.349.349 0 0 0-.09.21c0 .02.01.04.02.06.01.02.02.04.02.06.02.02.04.04.06.05s.04.03.06.05c.04.02.08.04.12.05.04.01.08.03.12.05.06 0 .13.01.19.03.06.02.14.04.22.06.15.04.29.08.42.12.14.04.26.08.36.12s.2.09.3.14c.09.05.18.11.27.17a1.632 1.632 0 0 1 .31.43c.04.08.07.17.08.27s.02.2.02.33-.01.25-.03.38-.06.21-.13.3z"/></svg>