<svg id="Layer_1" xmlns="http://www.w3.org/2000/svg" xmlns:xlink="http://www.w3.org/1999/xlink" viewBox="0 0 32 32"><style>.st0,.st1{clip-path:url(#SVGID_2_);fill:#f0d6b7}.st1{fill:#335061}.st2,.st3,.st4,.st5,.st6{clip-path:url(#SVGID_2_);fill:#6d6b6d}.st3,.st4,.st5,.st6{fill:#dcd9d8}.st4,.st5,.st6{fill:#f7e4cd}.st5,.st6{fill:#49728b}.st6{fill:#fff}.st10,.st11,.st7,.st8,.st9{clip-path:url(#SVGID_2_);fill:#d33833}.st10,.st11,.st8,.st9{fill:#ef3d3a}.st10,.st11,.st9{fill:#231f20}.st10,.st11{fill:#81b0c4}.st11{fill:#1d1919}</style><defs><path id="SVGID_1_" d="M.06 0h32v32h-32z"/></defs><clipPath id="SVGID_2_"><use xlink:href="#SVGID_1_" overflow="visible"/></clipPath><path class="st0" d="M23.96 25.01l-2.76.41-3.73.42-2.41.07-2.35-.07-1.8-.55-1.59-1.73-1.24-3.52-.28-.76-1.65-.55-.97-1.59-.69-2.28.76-2 1.79-.63 1.46.69.69 1.52.82-.13.28-.35-.28-1.59-.06-2 .41-2.76-.02-1.58 1.26-2.01 2.21-1.59L17.68.77l4.28.62 3.73 2.69 1.73 2.77 1.1 2 .28 4.97-.83 4.28-1.52 3.8-1.45 2"/><path class="st1" d="M21.62 36.96l-9.88.41v1.66l.83 5.8-.41.48-6.91-2.35-.48-.82-.69-7.81-1.59-4.69-.35-1.11 5.53-3.8 1.72-.69 1.52 1.87 1.31 1.17 1.52.48.69.21.83 3.59.62.76 1.59-.55-1.1 2.14 6.01 2.83-.76.42"/><path class="st2" d="M5.25 12.86l1.79-.63 1.46.69.69 1.52.82-.13.21-.83-.41-1.59.41-3.8-.34-2.07 1.24-1.45 2.69-2.14-.76-1.04-3.8 1.87L7.67 4.5l-.9 1.93L5.39 8.3l-.42 2.21.28 2.35"/><path class="st3" d="M8.08 6.36s1.04-2.56 5.18-3.8c4.14-1.24.21-.9.21-.9L8.98 3.39 7.25 5.12 6.49 6.5l1.59-.14M6.01 12.37s-1.45-4.83 4.07-5.52l-.2-.83-3.8.9-1.11 3.59.28 2.35.76-.49"/><path class="st4" d="M8.22 18.79l.9-.88s.41.05.48.53c.07.48.28 4.83 3.25 7.18.27.21-2.21-.35-2.21-.35l-2.21-3.45M20.93 17.48s.16-2.09.72-1.93.56.72.56.72-1.36.89-1.28 1.21M26.66 9.82s-1.14.24-1.24 1.24c-.1 1 1.24.21 1.45.14M18.3 9.89s-1.52.21-1.52 1.17c0 .97 1.73.9 2.21.48M8.91 14.37s-2.62-1.59-2.9-.07c-.28 1.52-.9 2.62.41 4.21l-.9-.28-.82-2.13-.28-2.07 1.59-1.66 1.8.14 1.04.83.06 1.03M10.15 10.02s1.17-6.08 7.11-7.25c4.89-.97 7.46.21 8.43 1.31 0 0-4.35-5.18-8.49-3.59-4.14 1.59-7.18 4.49-7.11 6.35.11 3.18.06 3.18.06 3.18M26.17 4.78s-2-.07-2.07 1.73c0 0 0 .28.14.55 0 0 1.59-1.8 2.56-.83"/><path class="st4" d="M17.4 7.24s-.34-2.76-2.69-1.15c-1.52 1.04-1.38 2.49-1.1 2.76.28.28.2.83.41.45.21-.38.14-1.62.9-1.97.76-.34 2-.73 2.48-.09"/><path class="st5" d="M10.91 25.91l-6.49 2.9s2.69 10.7 1.31 14.02l-.97-.35-.06-4.07-1.8-7.73-.76-2.14 6.77-4.56 2 1.93M11.58 31.83l.92 1.12v4.14h-1.1s-.14-2.9-.14-3.25c0-.35.14-1.59.14-1.59"/><path class="st1" d="M22.93 37.03l3.87-.21s1.59-4.01 1.59-4.21 1.38-5.8 1.38-5.8l-3.11-3.25-.62-.55-1.66 1.66v6.42l-1.45 5.94"/><path class="st5" d="M24.72 24.46l4.84 3.59.14-1.66-3.66-3.38-1.32 1.45"/><path class="st6" d="M22.77 36.47l-1.52-3.87-1.59-2.28s.35-.97.83-.97h1.59l1.52.55-.14 2.56-.69 4.01"/><path class="st3" d="M23.07 35.16s-1.93-3.73-1.93-4.28c0 0 .35-.83.83-.62s1.52.76 1.52.76v-1.31l-2.35-.48-1.59.21 2.69 6.35.55.07"/><path class="st6" d="M14.62 26.05l-1.91-.21-1.8-.55v.62l.88.96 2.76 1.25"/><path class="st3" d="M11.53 26.25s2.14.9 2.83.69l.07.83-1.93-.41-1.17-.83.2-.28"/><path class="st7" d="M25.52 29.6c-1.17-.03-2.23-.17-3.16-.44.06-.38-.05-.75.04-1.03.26-.19.69-.18 1.08-.23-.34-.17-.81-.23-1.2-.14-.01-.26-.13-.43-.2-.63.66-.24 2.21-1.78 3.09-1.27.42.24.59 1.63.63 2.3.03.58-.05 1.14-.28 1.44M19.92 27.68l-.01.27c-.37.24-.96.24-1.36.44.59.03 1.06.17 1.46.37l-.03.67c-.67.46-1.28 1.14-2.07 1.57-.37.2-1.68.73-2.08.63-.22-.05-.24-.33-.33-.59-.19-.56-.63-1.46-.67-2.31-.05-1.07-.16-2.86 1-2.64.93.18 2.01.61 2.73 1 .44.24.69.54 1.36.59M20.59 28.96c-.1-.58-.22-.75-.17-1.26 1.55-1.04 1.84 1.78.17 1.26"/><path class="st7" d="M20.98 29.52c-.17 0-.35-.03-.54-.09l-.29-.09-.05-.3c-.03-.17-.06-.31-.09-.43-.07-.29-.13-.54-.09-.96l.02-.24.2-.13c.92-.61 1.52-.17 1.68-.01.43.41.53 1.14.22 1.67-.23.38-.6.58-1.06.58zM20.91 28c.01.12.03.23.07.39l.03.14.16-.09c.08-.13.04-.36-.04-.43-.04-.06-.13-.05-.22-.01z"/><path class="st8" d="M22.84 29.43s-.48-.69-.14-.9c.35-.21.69 0 .9-.35.21-.35 0-.55.07-.97s.41-.48.76-.55c.35-.07 1.31-.21 1.45.14l-.41-1.24-.83-.28-2.62 1.52-.14.76v1.52M15.59 31.71c-.08-1.08-.17-2.15-.27-3.23-.15-1.61.39-1.33 1.78-1.33.21 0 1.31.25 1.39.41.38.77-.63.6.43 1.18.9.49 2.48-.3 2.12-1.39-.2-.24-1.06-.08-1.36-.23l-1.62-.84c-.69-.36-2.27-.88-3-.38-1.85 1.26.12 4.41.78 5.73"/><path class="st9" d="M17.4 7.24c-1.88-.44-2.82.79-3.39 2.06-.51-.12-.31-.82-.18-1.17.34-.93 1.69-2.16 2.8-1.99.49.07 1.14.51.77 1.1M26.58 9.38h.09c.43.88.79 1.82 1.33 2.6-.36.84-2.72 1.58-2.69.07.51-.22 1.39-.05 1.85-.33-.27-.71-.64-1.32-.58-2.34M18.37 9.41c.4.74.53 1.52 1.11 2.08.26.25.76.56.51 1.26-.06.17-.48.53-.73.61-.9.26-2.99.05-2.28-1.06.74.03 1.74.48 2.29-.06-.42-.69-1.18-2.04-.9-2.83M26.24 16.93c-1.35.87-2.86 1.81-5.07 1.59-.47-.41-.65-1.33-.19-1.93.24.41.09 1.17.76 1.28 1.26.21 2.72-.77 3.62-1.11.56-.94-.05-1.29-.55-1.9-1.03-1.24-2.42-2.79-2.37-4.65.42-.3.45.46.51.6.54 1.26 1.9 2.88 2.89 3.96.24.27.64.52.69.7.12.5-.34 1.12-.29 1.46M8.44 16.01c-.42-.24-.52-1.31-1.02-1.34-.71-.04-.58 1.38-.58 2.21-.49-.44-.57-1.81-.22-2.51-.41-.2-.59.22-.82.37.3-2.11 3.1-.97 2.64 1.27M27.1 17.81c-.63 1.2-1.52 2.51-3.36 2.55-.04-.39-.07-.97 0-1.21 1.41-.13 2.28-.85 3.36-1.34M18.26 18.59c1.18.62 3.34.69 4.94.64.09.35.08.78.09 1.21-2.06.1-4.49-.41-5.03-1.85M18.04 19.74c.81 2.04 3.61 1.81 5.97 1.75-.1.27-.33.58-.61.69-.76.31-2.84.54-3.89-.02-.67-.35-1.09-1.15-1.46-1.62-.17-.22-1.05-.8-.01-.8"/><path class="st10" d="M26.14 31.01c-.95 1.64-1.87 3.31-3 4.76.47-1.4.68-3.73.75-5.51.99-.48 1.84.09 2.25.75"/><path class="st0" d="M22.72 25.82c-.49.32-.91.72-1.38 1.06-1.05.05-1.62-.07-2.39-.67l.09-.09c1.12.51 2.55-.2 3.68-.3"/><path class="st10" d="M16.84 33.46c.31-1.33 1.51-2.03 2.61-2.76 1.13 1.44 1.82 3.28 2.58 5.06-1.8-.54-3.63-1.41-5.19-2.3"/><path class="st9" d="M23.13 44.12c-.05 1.09.11 2.84.16 3.99.73 0 1.04-.16 1.58-.34.06-1.35-.43-2.59-.57-3.82-.29-.08-.81.2-1.17.17zm-11.29-6.2c.48 4.4 1.17 8.09 2.44 11.99 2.82.86 6.22.93 8.71.16-.46-2.2-.26-4.87-.53-7.22-.2-1.76-.1-3.54-.38-5.33-3.01-.64-7.28-.16-10.24.4zm10.96-.38c-.03 1.89.08 3.75.23 5.64.73-.11 1.22-.18 1.89-.33-.22-1.82-.19-3.87-.64-5.48-.51.01-.96 0-1.48.17zm3.68-.31c-.34-.08-.74 0-1.07 0 .15 1.54.53 3.24.66 4.85.52.02.79-.23 1.22-.31.02-1.41-.13-3.36-.81-4.54zm5.57 5.09c1.08-.26 1.76-1.58 1.45-2.94-.2-.91-.56-2.63-.95-3.21-.29-.43-1.06-1-1.68-.6-1 .64-2.77.83-3.5 1.61.37 1.22.48 2.9.63 4.45 1.25.08 2.8-.35 3.84.1-.73.24-1.67.24-2.3.58.52.25 1.73.2 2.51.01zm-10.03-6.56c-.76-1.78-1.45-3.63-2.58-5.06-1.1.73-2.3 1.43-2.61 2.76 1.57.89 3.4 1.76 5.19 2.3zm1.87-5.51c-.07 1.78-.27 4.12-.75 5.51 1.13-1.44 2.05-3.12 3-4.76-.41-.65-1.26-1.22-2.25-.75zm-2.12-.75c-.43-.05-.79.49-1.35.26-.13.14-.24.29-.37.43 1.23 1.49 1.79 3.59 2.74 5.34.51-1.68.45-3.51.56-5.34-.7.04-1.08-.64-1.58-.69zm-1.36-1.8c-.05.51.07.67.17 1.26 1.68.52 1.39-2.3-.17-1.26zm-1.85-.61c-.72-.39-1.8-.82-2.73-1-1.15-.22-1.05 1.57-1 2.64.04.85.48 1.74.67 2.31.09.26.11.54.33.59.4.09 1.71-.43 2.08-.63.79-.43 1.4-1.11 2.07-1.57l.03-.67c-.4-.2-.87-.34-1.46-.37.4-.2.99-.2 1.36-.44l.01-.27c-.67-.05-.92-.35-1.36-.59zm-6.88-1.25c-.6.61 1.68 1.43 2.4 1.48 0-.38.22-.75.17-1.02-.86-.15-1.99-.05-2.57-.46zm7.36.29l-.09.09c.77.6 1.34.73 2.39.67.47-.34.89-.74 1.38-1.06-1.13.09-2.56.8-3.68.3zm6.76 2.05c-.03-.67-.21-2.06-.63-2.3-.87-.51-2.43 1.03-3.09 1.27.07.21.19.37.2.63.39-.1.86-.03 1.2.14-.39.04-.82.04-1.08.23-.09.27.02.65-.04 1.03.93.26 1.99.4 3.16.44.23-.32.31-.88.28-1.44zm-15.13-1.75c-.19-.13-1.46-1.79-1.63-1.72-2.3.91-4.45 2.47-6.37 3.96 1.83 3.93 2.57 8.74 2.7 13.38 2.1.98 3.94 2.4 6.79 2.54-.33-2.33-.63-4.41-.82-6.6-.72-.3-1.74.01-2.41-.09-.01-.81 1.02-.35 1.11-.9.06-.41-.57-.44-.36-1.09.52.19.8.61 1.36.77.51-1.12-.01-3.09.07-4.02.01-.18.09-.97.48-.83.35.12-.02 2.11.02 3 .03.81-.1 1.6.23 2.11 2.75-.37 5.55-.62 8.52-.7-.65-.28-1.43-.55-2.29-1.03-.46-.26-1.92-.8-2.05-1.24-.21-.7.56-1.07.69-1.67-1.39.76-1.66-.73-1.99-1.78-.3-.95-.47-1.66-.54-2.21-1.2-.57-2.48-1.15-3.51-1.88zm13.92-1.52c1.91-.93 2.26 3.47 1.51 4.89.12.42.52.58.68.96-1.07 1.91-2.26 3.7-3.35 5.59.81-.5 1.97-.09 2.92-.47.35-.14.6-.94.87-1.58.73-1.76 1.49-3.97 1.83-5.65.08-.38.29-1.22.24-1.56-.08-.61-.91-1.06-1.33-1.44-.77-.7-1.26-1.31-2.07-1.96-.33.5-1.03.83-1.3 1.22zM6.29 7.93c-.91 1-.72 2.89-.61 4.22 1.65-1.04 3.84.08 3.82 1.85.79-.02.29-.98.15-1.6-.47-2.03.78-4.23.06-6.08-1.42.1-2.58.68-3.42 1.61zm6.53-5.83c-2.07.59-4.71 2.09-5.56 3.94.66-.1 1.11-.43 1.76-.47.25-.02.57.1.85.03.56-.14 1.03-1.4 1.46-1.87.41-.46.91-.65 1.25-1.07.22-.11.54-.1.55-.43-.1-.08-.2-.16-.31-.13zm10.75.55c-2.14-1.21-5.77-2.12-8.05-.98-1.84.92-4.33 2.44-5.18 4.36.79 1.86-.23 3.56-.3 5.44-.03 1 .47 1.88.51 2.97-.27.45-1.1.5-1.67.47-.19-.97-.53-2.05-1.53-2.16-1.41-.15-2.44 1.01-2.5 2.23-.08 1.43 1.1 3.8 2.76 3.64.64-.06.8-.71 1.5-.7.38.76-.59 1-.69 1.54-.03.14.08.69.14.94.3 1.25.98 2.87 1.64 3.82.84 1.21 2.5 1.39 4.28 1.51.32-.69 1.49-.63 2.25-.45-.91-.36-1.77-1.24-2.47-2.02-.81-.89-1.63-1.85-1.67-3.02 1.53 2.12 2.79 3.98 5.58 4.91 2.11.71 4.56-.32 6.18-1.46.67-.47 1.07-1.22 1.55-1.91 1.79-2.57 2.62-6.23 2.44-9.79-.08-1.47-.07-2.93-.56-3.91-.51-1.03-2.25-1.95-3.27-1.02-.19-1 .85-1.62 2.06-1.26-.86-1.11-1.77-2.45-3-3.15zm4 33.06c1.68-.83 4.81-2.24 5.86 0 .39.83.84 2.23 1.04 3.08.28 1.21-.31 3.74-1.55 4.14-1.09.36-2.37.34-3.69.07-.16-.13-.33-.35-.45-.59-.94-.04-1.82.05-2.57.44.07.7-.4.81-.84.95-.33 1.3.65 2.99.42 4.17-.17.84-1.2.97-1.97 1.13-.02.47.03.86.09 1.26-.17.64-.96 1.01-1.7 1.1-2.44.29-6.14.42-8.48-.42-.65-1.6-1.17-3.55-1.71-5.39-2.29.24-4.13-.99-5.88-1.79-.6-.28-1.44-.43-1.66-.91-.22-.46-.13-1.36-.18-2.2-.14-2.15-.26-4.22-.82-6.42-.25-.99-.7-1.86-1.01-2.81-.29-.88-.79-1.97-.92-2.85-.19-1.3 1.03-1.38 1.82-1.94 1.21-.87 2.17-1.36 3.48-2.15.39-.23 1.56-.82 1.7-1.1.27-.54-.46-1.3-.65-1.72-.3-.67-.46-1.24-.51-1.9-1.1-.17-1.94-.83-2.44-1.57-.84-1.22-1.41-3.49-.69-5.21.06-.14.34-.4.38-.61.08-.41-.15-.96-.17-1.39-.08-2.24.38-4.17 1.89-4.85.61-2.44 2.8-3.25 4.87-4.46.77-.45 1.62-.74 2.5-1.07 3.15-1.16 7.99-.94 10.6 1.04 1.11.84 2.88 2.61 3.52 3.89 1.67 3.38 1.56 9.04.38 13.16-.16.55-.39 1.37-.7 2.03-.22.46-.91 1.39-.83 1.8.09.42 1.58 1.55 1.89 1.86.57.55 1.67 1.29 1.76 1.99.1.74-.33 1.76-.54 2.48-.73 2.41-1.43 4.62-2.24 6.76"/><path class="st4" d="M16.39 19.11c.09-.12.59-.3 1.29.03 0 0-.83.14-.76 1.52l-.35-.07c.01 0-.35-1.25-.18-1.48"/><path class="st11" d="M22.45 30.98a.38.38 0 1 1-.76 0 .38.38 0 0 1 .76 0"/><path class="st9" d="M3.27 31.32h12.1c.1 0 .17.08.17.17v.38c0 .1-.08.17-.17.17H3.27c-.1 0-.17-.08-.17-.17v-.38c-.01-.09.07-.17.17-.17zM17.63 31.32h10.71c.1 0 .17.08.17.17v.38c0 .1-.08.17-.17.17H17.63c-.1 0-.17-.08-.17-.17v-.38c0-.09.07-.17.17-.17z"/><path class="st9" d="M3.27 30.97h11.76c.1 0 .17.08.17.17v.38c0 .1-.08.17-.17.17H3.27c-.1 0-.17-.08-.17-.17v-.38c-.01-.1.07-.17.17-.17zM18.69 30.97h9.65c.1 0 .17.08.17.17v.38c0 .1-.08.17-.17.17h-9.65c-.1 0-.17-.08-.17-.17v-.38c0-.1.07-.17.17-.17z"/></svg>