<svg id="Layer_1" xmlns="http://www.w3.org/2000/svg" viewBox="0 0 32 32"><style>.st0{fill:#fc390e}</style><path class="st0" d="M10.33 13.34l-.19.84h-.71l-.18.76h.71l-.42 1.82c-.11.47-.02 1.3.96 1.3h2.37l.19-.83c-1.65 0-1.65 0-1.53-.52l.41-1.77h2.21l-.42 1.82c-.11.47-.02 1.3.96 1.3h2.37l.19-.83c-1.65 0-1.65 0-1.53-.52l.41-1.77h1.65l.18-.76h-1.65l.19-.84h-1.98l-.19.84h-2.21l.19-.84h-1.98zm-8.69.85L.67 18.4c-.06.17-.15.16-.34.17l-.03.95 1.62-.01c.31-.02.51-.2.64-.63l1.08-4.7h-2zm.33-1.43l-.25 1.07h2l.25-1.07h-2zm2.86 1.43c-.35 0-.74.3-.83.76l-.38 1.57c-.22.97-.11 1.55.62 1.55h4.1l.19-.83H5.46l.16-.72h3.07c.05-.21.25-.52.36-1.57.03-.13-.18-.76-.98-.76H4.83zm1.65.76c.43 0 .55.13.41.73H5.82c.13-.58.31-.73.66-.73zm11.79-.76l-.7 3.05s-.19.83.98.83h1.99c-.1.43-.15.64-1.3.64h-2l-.18.77h3.15c1.45 0 1.98 0 2.16-.77l1.04-4.52h-1.98l-.7 3.05h-1.15l.7-3.05h-2.01zm5.9 0l-.34 1.49h2.01l.34-1.49h-2.01zm-.55 2.39l-.34 1.49h2.01l.34-1.49h-2.01zm4.68-3.82l-2.77 5.94h1.01l2.77-5.94H28.3zm2.24 0l-2.77 5.94h1.01l2.77-5.94h-1.01z"/><path d="M.3 19.82l-.22-.09-.08-.22.02-.96c0-.16.13-.29.29-.3h.07l.96-4.14.1-.16-.02-.19.25-1.07c.03-.14.15-.24.3-.24h2c.09 0 .18.04.24.11s.08.17.06.26l-.25 1.07-.1.16.02.19-.03.16c.23-.33.6-.52.93-.52h3.24c.42 0 .77.15 1.01.42l.04-.18c.03-.14.15-.24.3-.24h.47l.14-.61c.03-.14.15-.24.3-.24h1.98c.09 0 .18.04.24.11s.08.17.06.26l-.11.47h1.59l.14-.61c.03-.14.15-.24.3-.24h1.98c.09 0 .18.04.24.11s.08.17.06.26l-.11.47h1.26l.15.04.15-.04h2c.09 0 .18.04.24.11s.08.17.06.26l-.62 2.68h.53l.65-2.81c.03-.14.15-.24.3-.24h1.98c.09 0 .18.04.24.11s.08.17.06.26l-1.04 4.52c-.23 1.01-.97 1.01-2.45 1.01h-3.15a.32.32 0 0 1-.24-.11.303.303 0 0 1-.06-.26l.18-.77c.03-.14.15-.24.3-.24h2c.29 0 .49-.01.63-.03h-1.31c-.51 0-.87-.14-1.09-.42l-.03-.05-.05.23c-.03.14-.15.24-.3.24h-2.37c-.56 0-.87-.24-1.03-.44-.29-.37-.31-.88-.22-1.24l.33-1.45h-1.59l-.35 1.53-.03.12c.2.03.67.03 1.26.03.09 0 .18.04.24.11s.08.17.06.26l-.19.83c-.03.14-.15.24-.3.24H10.5c-.56 0-.87-.24-1.03-.44-.29-.37-.31-.88-.22-1.24l.33-1.45h-.26c-.09.65-.21.98-.29 1.19l-.05.15c-.03.14-.15.24-.3.24H5.86l-.03.11h2.69c.09 0 .18.04.24.11s.08.17.06.26l-.19.83c-.03.14-.15.24-.3.24h-4.1c-.36 0-.63-.11-.8-.34-.13-.16-.2-.37-.22-.64l-.36 1.56c-.06.22-.24.83-.92.87l-1.63.03zm.32-.99l-.01.38h1.3c.09-.01.23-.01.35-.42l.99-4.31H1.88l-.92 3.97-.01.03c-.07.23-.19.31-.33.35zm16.81.34h2.77c1.52 0 1.74-.03 1.86-.54l.96-4.14h-1.35l-.65 2.81c-.03.14-.15.24-.3.24h-1.15a.32.32 0 0 1-.24-.11.303.303 0 0 1-.06-.26l.62-2.68h-1.38l-.65 2.81s-.03.16.07.28c.1.12.31.18.61.18h1.99c.09 0 .18.04.24.11s.08.17.06.26c-.15.65-.4.87-1.6.87h-1.76l-.04.17zm-5.48-4.53h2.21c.09 0 .18.04.24.11s.08.17.06.26l-.42 1.82c-.05.21-.05.52.11.72.11.14.3.21.56.21h2.13l.05-.23c-.96 0-1.22-.03-1.39-.25-.15-.19-.1-.41-.05-.64l.41-1.77c.03-.14.15-.24.3-.24h1.4l.04-.16h-1.26a.32.32 0 0 1-.24-.11.303.303 0 0 1-.06-.26l.11-.47h-1.36l-.14.61c-.03.14-.15.24-.3.24h-2.21a.32.32 0 0 1-.24-.11.303.303 0 0 1-.06-.26l.11-.47h-1.36l-.14.61c-.03.14-.15.24-.3.24h-.48l-.04.16h.33c.09 0 .18.04.24.11s.08.17.06.26l-.42 1.82c-.05.21-.05.52.11.72.11.14.3.21.56.21h2.13l.05-.23c-.96 0-1.22-.03-1.39-.25-.15-.19-.1-.41-.05-.64l.41-1.77a.29.29 0 0 1 .29-.24zm-7.12-.15c-.18 0-.47.18-.53.51l-.39 1.59c-.17.72-.07.98 0 1.06.02.03.09.11.33.11H8.1l.05-.22H5.46a.32.32 0 0 1-.24-.11.303.303 0 0 1-.06-.26l.17-.72c.03-.14.15-.24.3-.24h2.85c.08-.21.2-.56.28-1.3-.01-.05-.13-.43-.68-.43H4.83zM16 16.9c.2.03.67.03 1.26.03l.06.01.39-1.69h-1.33l-.35 1.53-.03.12zm-7.24-2.02zM2.1 13.54h1.38l.11-.47H2.21l-.11.47zM28.79 19h-1.01c-.1 0-.2-.05-.26-.14s-.06-.2-.02-.29l2.77-5.94c.05-.11.16-.18.27-.18h1.01c.1 0 .2.05.26.14.06.09.06.2.02.29l-2.77 5.94c-.05.12-.15.18-.27.18zm-.54-.6h.34l2.49-5.33h-.34l-2.49 5.33zm-1.7.6h-1.01c-.1 0-.2-.05-.26-.14a.301.301 0 0 1-.02-.29l.1-.21-.07.01h-2.01a.32.32 0 0 1-.24-.11.303.303 0 0 1-.06-.26l.34-1.49c.03-.14.15-.24.3-.24h2.01c.09 0 .18.04.24.11s.08.17.06.26l-.23.99 2.33-4.99c.05-.11.16-.18.27-.18h1.01c.1 0 .2.05.26.14.06.09.06.2.02.29l-2.77 5.94c-.05.11-.15.17-.27.17zm-.54-.6h.34l2.49-5.33h-.34l-2.49 5.33zm-2.35-.64h1.39l.2-.88h-1.39l-.2.88zm2.18-1.78h-2.01a.32.32 0 0 1-.24-.11.303.303 0 0 1-.06-.26l.34-1.49c.03-.14.15-.24.3-.24h2.01c.09 0 .18.04.24.11s.08.17.06.26l-.34 1.49c-.04.14-.16.24-.3.24zm-1.63-.61h1.39l.2-.88h-1.39l-.2.88zm-17.32.61H5.82a.32.32 0 0 1-.24-.11.303.303 0 0 1-.06-.26c.12-.5.31-.96.96-.96.21 0 .48.03.64.23.18.23.14.55.07.87-.03.13-.16.23-.3.23zm-.65-.61h.4v-.11l-.16-.01c-.1 0-.17 0-.24.12z"/><path class="st0" d="M10.33 13.34l-.19.84h-.71l-.18.76h.71l-.42 1.82c-.11.47-.02 1.3.96 1.3h2.37l.19-.83c-1.65 0-1.65 0-1.53-.52l.41-1.77h2.21l-.42 1.82c-.11.47-.02 1.3.96 1.3h2.37l.19-.83c-1.65 0-1.65 0-1.53-.52l.41-1.77h1.65l.18-.76h-1.65l.19-.84h-1.98l-.19.84h-2.21l.19-.84h-1.98zm-8.69.85L.67 18.4c-.06.17-.15.16-.34.17l-.03.95 1.62-.01c.31-.02.51-.2.64-.63l1.08-4.7h-2zm.33-1.43l-.25 1.07h2l.25-1.07h-2zm2.86 1.43c-.35 0-.74.3-.83.76l-.38 1.57c-.22.97-.11 1.55.62 1.55h4.1l.19-.83H5.46l.16-.72h3.07c.05-.21.25-.52.36-1.57.03-.13-.18-.76-.98-.76H4.83zm1.65.76c.43 0 .55.13.41.73H5.82c.13-.58.31-.73.66-.73zm11.79-.76l-.7 3.05s-.19.83.98.83h1.99c-.1.43-.15.64-1.3.64h-2l-.18.77h3.15c1.45 0 1.98 0 2.16-.77l1.04-4.52h-1.98l-.7 3.05h-1.15l.7-3.05h-2.01zm5.9 0l-.34 1.49h2.01l.34-1.49h-2.01zm-.55 2.39l-.34 1.49h2.01l.34-1.49h-2.01zm4.68-3.82l-2.77 5.94h1.01l2.77-5.94H28.3zm2.24 0l-2.77 5.94h1.01l2.77-5.94h-1.01z"/></svg>