<svg xmlns="http://www.w3.org/2000/svg" viewBox="0 0 32 32" enable-background="new 0 0 32 32"><style type="text/css">.st0{fill:#7AC143;} .st1{fill:#F9A541;} .st2{fill:#F44321;} .st3{fill:#5091CD;}</style><path id="j-green_7_" class="st0" d="M5.77 16.15l-.62-.62c-1.91-1.91-2.5-4.64-1.78-7.06C1.47 8.04.04 6.33.04 4.29.04 1.92 1.96 0 4.33 0c2.13 0 3.9 1.56 4.23 3.59 2.31-.54 4.84.09 6.65 1.89l.25.25-3.16 3.16-.25-.25c-1.03-1.03-2.69-1.03-3.72 0-1.03 1.03-1.03 2.7-.01 3.72l.62.62 3.16 3.16 3.35 3.34-3.16 3.16-3.35-3.34-3.17-3.15z"/><path id="j-orange_7_" class="st1" d="M9.31 12.61l3.35-3.35 3.16-3.16.62-.62c1.9-1.9 4.62-2.5 7.03-1.79C23.76 1.61 25.55 0 27.71 0 30.08 0 32 1.92 32 4.29c0 2.18-1.62 3.97-3.72 4.25.69 2.4.09 5.1-1.8 6.99l-.25.25-3.16-3.16.24-.25c1.03-1.03 1.03-2.69 0-3.72-1.02-1.02-2.68-1.02-3.71.01l-.62.62-3.16 3.16-3.35 3.34-3.16-3.17z"/><path id="j-red_7_" class="st2" d="M23.53 28.5c-2.42.75-5.17.16-7.09-1.76l-.24-.24 3.15-3.15.24.24c1.02 1.02 2.68 1.02 3.7 0s1.02-2.67-.01-3.7l-.62-.62-3.15-3.15-3.33-3.33 3.15-3.15 3.32 3.33 3.15 3.15.62.62c1.81 1.81 2.44 4.36 1.87 6.68 2.07.29 3.67 2.07 3.67 4.23 0 2.36-1.91 4.27-4.27 4.27-2.05 0-3.77-1.47-4.16-3.42z"/><path id="j-blue_7_" class="st3" d="M22.32 19.68l-3.34 3.34-3.16 3.16-.62.62c-1.83 1.83-4.4 2.45-6.74 1.87C8.03 30.58 6.32 32 4.29 32 1.92 32 0 30.08 0 27.71c0-2.03 1.41-3.73 3.3-4.17-.6-2.35.02-4.94 1.86-6.78l.24-.24 3.16 3.16-.24.24c-1.03 1.03-1.03 2.69 0 3.72 1.03 1.03 2.7 1.03 3.72 0l.62-.62 3.16-3.16 3.34-3.34 3.16 3.16z"/></svg>