<svg id="Layer_1" xmlns="http://www.w3.org/2000/svg" viewBox="0 0 32 32"><style>.st0{fill:#7ac143}.st1{fill:#f9a541}.st2{fill:#f44321}.st3{fill:#5091cd}</style><path id="j-green_7_" class="st0" d="M5.77 16.15l-.62-.62a7.106 7.106 0 0 1-1.78-7.06 4.29 4.29 0 1 1 5.19-4.88c2.31-.54 4.84.09 6.65 1.89l.25.25-3.16 3.16-.25-.25a2.625 2.625 0 0 0-3.72 0 2.635 2.635 0 0 0-.01 3.72l.62.62 3.16 3.16 3.35 3.34-3.16 3.16-3.35-3.34-3.17-3.15z"/><path id="j-orange_7_" class="st1" d="M9.31 12.61l3.35-3.35 3.16-3.16.62-.62c1.9-1.9 4.62-2.5 7.03-1.79A4.29 4.29 0 0 1 27.71 0a4.29 4.29 0 0 1 .57 8.54c.69 2.4.09 5.1-1.8 6.99l-.25.25-3.16-3.16.24-.25a2.622 2.622 0 1 0-3.71-3.71l-.62.62-3.16 3.16-3.35 3.34-3.16-3.17z"/><path id="j-red_7_" class="st2" d="M23.53 28.5c-2.42.75-5.17.16-7.09-1.76l-.24-.24 3.15-3.15.24.24a2.62 2.62 0 0 0 3.7 0 2.61 2.61 0 0 0-.01-3.7l-.62-.62-3.15-3.15-3.33-3.33 3.15-3.15 3.32 3.33 3.15 3.15.62.62a7.056 7.056 0 0 1 1.87 6.68 4.271 4.271 0 0 1-.6 8.5c-2.05 0-3.77-1.47-4.16-3.42z"/><path id="j-blue_7_" class="st3" d="M22.32 19.68l-3.34 3.34-3.16 3.16-.62.62a7.092 7.092 0 0 1-6.74 1.87A4.278 4.278 0 0 1 4.29 32 4.29 4.29 0 0 1 0 27.71a4.28 4.28 0 0 1 3.3-4.17c-.6-2.35.02-4.94 1.86-6.78l.24-.24 3.16 3.16-.24.24a2.625 2.625 0 0 0 0 3.72 2.625 2.625 0 0 0 3.72 0l.62-.62 3.16-3.16 3.34-3.34 3.16 3.16z"/></svg>