<svg id="Layer_1" xmlns="http://www.w3.org/2000/svg" viewBox="0 0 32 32"><style>.st0{fill:#4a0000}.st1{fill:#ca1f27}.st2{fill:#ffd440}</style><path class="st0" d="M31.62 19.35l-2.29-.81-.28-1.68a.566.566 0 0 0-.38-.45.565.565 0 0 0-.57.12l-2.84 2.62-1.57-3.36c1.95-3.06 2.9-6.11 2.97-6.34.06-.22 0-.45-.17-.6a.583.583 0 0 0-.62-.09l-4.48 2.09-.81-1.74 1.56-3.59c.09-.22.04-.47-.13-.64a.566.566 0 0 0-.64-.11L.33 14.6c-.2.09-.33.29-.33.5-.01.22.11.42.3.52l3.83 2.07 2.96 6.35c.06.14.18.24.32.3l8.68 3.17c.06.02.13.04.2.04.08 0 .16-.02.24-.05l15.14-7.07c.21-.1.34-.31.33-.55a.576.576 0 0 0-.38-.53"/><path class="st1" d="M28.25 19.06l-.16-.97-2.33 2.15.64 1.37 3.52-1.65-1.3-.46a.56.56 0 0 1-.37-.44"/><path class="st2" d="M5 16.86l-3.17-1.71 1.95-.9L5 16.86"/><path class="st1" d="M22.07 16.13l.03-.03c1.48-2.09 2.48-4.34 3.01-5.7l-11.3 5.27c-.17.08-.37.07-.53-.03a.585.585 0 0 1-.28-.46c0-.03-.18-2.48-1.56-3.34-.64-.4-1.5-.39-2.54.03l-5.12 2.39 4.24 9.09 8.23 3.01 8.25-3.85c-.54-.79-1.74-2.37-3.34-3.5-1.26 1.26-2.74 2.3-4.46 2.84-.06.02-.11.03-.17.03a.58.58 0 0 1-.55-.4.58.58 0 0 1 .37-.72c.01-.01 3.1-.79 5.72-4.63"/><path class="st0" d="M7.97 14.05c-.71-.26-1.5.11-1.76.82s.11 1.5.82 1.76 1.5-.11 1.76-.82c.26-.72-.1-1.5-.82-1.76"/></svg>