<svg id="Layer_1" xmlns="http://www.w3.org/2000/svg" viewBox="0 0 32 32"><style>.st0{fill:#f7df1e}</style><path class="st0" d="M0 0h32v32H0z"/><path d="M21.5 25c.64 1.05 1.48 1.83 2.97 1.83 1.25 0 2.04-.62 2.04-1.48 0-1.03-.82-1.4-2.19-2l-.75-.32c-2.17-.92-3.61-2.08-3.61-4.53 0-2.26 1.72-3.97 4.4-3.97 1.91 0 3.29.67 4.28 2.41l-2.34 1.5c-.52-.92-1.07-1.29-1.94-1.29-.88 0-1.44.56-1.44 1.29 0 .9.56 1.27 1.85 1.83l.75.32c2.55 1.1 4 2.21 4 4.72 0 2.71-2.13 4.19-4.98 4.19-2.79 0-4.6-1.33-5.48-3.08L21.5 25zm-10.63.26c.47.84.9 1.55 1.94 1.55.99 0 1.61-.39 1.61-1.89V14.69h3.01v10.27c0 3.11-1.83 4.53-4.49 4.53-2.41 0-3.8-1.25-4.51-2.75l2.44-1.48z"/></svg>