<svg xmlns="http://www.w3.org/2000/svg" width="30mm" height="30mm" viewBox="0 0 30 30"><path class="st1" d="M26.7 7.39c-.162-.52-.552-.941-1.038-1.2L15.77 1.454c-.26-.13-.551-.162-.811-.162s-.551 0-.81.065L4.255 6.125a1.743 1.743 0 0 0-.973 1.2L.851 17.995a2.046 2.046 0 0 0 .356 1.557l6.844 8.465c.389.39.94.649 1.492.681H20.44c.584.065 1.135-.195 1.492-.681l6.844-8.465a2.215 2.215 0 0 0 .389-1.557z" fill="#326de6" stroke-width=".324"/><g style="line-height:32.41543961px;-inkscape-font-specification:'Comfortaa, Bold';font-variant-ligatures:normal;font-variant-caps:normal;font-variant-numeric:normal;font-feature-settings:normal;text-align:start"><path d="M21.515 264.478q.428 0 .661.233.253.233.253.603 0 .233-.117.506l-5.757 13.206q-.253.642-.914.642-.622 0-.914-.642l-5.699-13.031q-.155-.409-.155-.681 0-.389.233-.603.253-.233.68-.233.682 0 .935.603l4.9 11.747 4.98-11.747q.136-.35.35-.467.214-.136.564-.136z" style="-inkscape-font-specification:'Comfortaa, Bold';font-variant-ligatures:normal;font-variant-caps:normal;font-variant-numeric:normal;font-feature-settings:normal;text-align:start" transform="matrix(.96037 0 0 1.04127 0 -267)" font-weight="700" font-size="19.449" font-family="Comfortaa" letter-spacing="0" word-spacing="0" fill="#fff" stroke="#fff" stroke-width=".529" stroke-linejoin="round"/></g></svg>