<svg id="Layer_1" xmlns="http://www.w3.org/2000/svg" viewBox="0 0 32 32"><style>.st0{fill:#fff}.st1{fill:#f35045}.st2{display:none;fill:#fff}</style><path class="st0" d="M26 31.99H6.01c-3.3 0-6-2.7-6-6V6c0-3.3 2.7-6 6-6H26c3.3 0 6 2.7 6 6v19.99c0 3.3-2.7 6-6 6z"/><path class="st1" d="M20.06 26c.25.36.4.33.6.25s10.19-3.46 10.5-3.57c.31-.11.21-.21.11-.36-.1-.15-3.43-4.68-3.6-4.94-.17-.26-.25-.21-.51-.12l-10.6 2.76c-.01-.01 3.25 5.62 3.5 5.98zM32 21.39v-5.3c-1.19.32-2.7.72-3.3.88.9 1.2 2.31 3.08 3.3 4.42zm-3.31-10.95c-.16.04-3.78.69-4 .72-.22.03-.15.16-.06.28l3.18 4.37s3.89-.97 4.13-1.02c.02 0 .04-.01.06-.01v-.58c-.71-.9-2.64-3.34-2.8-3.57-.2-.27-.34-.23-.51-.19z"/><path class="st1" d="M5.93 3.58c.78-.04.85.14 1.2.65l8.65 14.46 10.87-2.6-3.6-5.1c-.3-.42.01-.61.49-.69.48-.08 4.64-.78 5-.83.36-.05.64-.18 1.22.52.3.36 1.3 1.61 2.24 2.78V6c0-1.65-.59-3.07-1.76-4.24C29.07.59 27.65 0 26 0H6C4.35 0 2.93.59 1.76 1.76 1.09 2.43.61 3.19.32 4.02c1.96-.16 5.06-.42 5.61-.44z"/><path class="st1" d="M21.04 27.95c-.92.28-1.33.42-1.92-.42-.45-.62-2.87-4.98-4.05-7.13-2.24.59-6.35 1.66-7.54 1.94-1.16.28-1.65-.42-1.84-.84-.14-.3-3.53-7.61-5.69-12.29V26c0 1.65.59 3.07 1.76 4.24C2.93 31.41 4.35 32 6 32h20c1.65 0 3.07-.59 4.24-1.76C31.41 29.07 32 27.65 32 26v-1.97c-2.45.9-10.35 3.73-10.96 3.92z"/><path class="st1" d="M7.55 20.66c.32-.07 6.41-1.53 6.54-1.56.13-.03.21-.1.07-.34L6.05 4.75c-.07-.13-.05-.17-.25-.16-.18.01-4.69.41-5.74.5-.03.22-.05.44-.05.66 1.06 2.17 7.15 14.73 7.18 14.83.04.12.04.16.36.08z"/></svg>