<svg id="Layer_1" xmlns="http://www.w3.org/2000/svg" viewBox="0 0 34 32"><style>.st0{fill:#002b64}.st1{fill:#fff}</style><path class="st0" d="M31.77 5.37c-.49.02-.34.16-1.41.42-1.08.27-2.4.18-3.56.67-3.47 1.45-4.17 6.43-7.32 8.21-2.36 1.33-4.74 1.44-6.87 2.11-1.41.44-2.94 1.34-4.22 2.44-.99.85-1.01 1.6-2.05 2.67-1.1 1.14-4.39.02-5.88 1.77.48.48.69.62 1.64.49-.2.37-1.35.68-1.12 1.23.24.57 3.03.96 5.56-.57 1.18-.71 2.12-1.74 3.96-1.99 2.38-.32 5.12.2 7.87.6-.41 1.22-1.23 2.03-1.89 3-.2.22.41.24 1.11.11 1.26-.31 2.16-.56 3.11-1.11 1.16-.68 1.34-2.42 2.77-2.79.8 1.22 2.96 1.51 4.3.53-1.18-.33-1.5-2.84-1.11-3.95.38-1.05.75-2.72 1.13-4.1.41-1.49.56-3.36 1.05-4.12.74-1.14 1.56-1.53 2.27-2.17.71-.64 1.36-1.27 1.34-2.74.01-.46-.23-.72-.68-.71z"/><path class="st1" d="M1.49 25.28c1.81.26 2.9 0 4.35-.63 1.23-.53 2.42-1.64 3.88-2.11 2.14-.69 4.49 0 6.77.14.56.03 1.11.03 1.66-.03.85-.52.83-2.48 1.66-2.66-.02 2.75-1.15 4.39-2.33 5.99 2.48-.44 3.97-1.87 4.97-3.79.3-.58.56-1.21.79-1.86.36.27.15 1.1.33 1.55 1.71-.95 2.69-3.13 3.34-5.33.75-2.54 1.06-5.12 1.54-5.87.47-.73 1.21-1.19 1.88-1.66.76-.53 1.44-1.09 1.56-2.11-.8-.07-.99-.26-1.11-.67-.4.23-.77.28-1.19.29-.36.01-.76-.01-1.25.04-4.03.41-4.54 4.85-7.12 7.37-.19.18-.39.35-.61.51-.9.67-2.01 1.15-3.03 1.54-1.65.63-3.22.68-4.77 1.22-1.14.4-2.29.98-3.23 1.62-.21.17-.43.33-.63.5-.55.45-.91.95-1.26 1.46-.36.53-.71 1.07-1.23 1.59-.86.84-4.05.25-5.18 1.02-.13.09-.23.19-.29.32.61.28 1.02.11 1.73.19.09.66-1.46 1.06-1.23 1.37zM25.89 20.45c.05.77.49 2.3.89 2.67-.77.19-2.1-.12-2.44-.67.17-.79 1.08-1.51 1.55-2z"/><path class="st0" d="M27.02 8.24c.57.49 1.77.1 1.55-.89-.89-.07-1.4.23-1.55.89zM30.99 7.09c-.15.32-.44.73-.44 1.54 0 .14-.11.23-.11.02.01-.79.22-1.13.44-1.58.11-.19.17-.11.11.02z"/><path class="st0" d="M30.84 6.97c-.18.3-.61.86-.68 1.66-.01.14-.13.22-.11.01.08-.79.42-1.28.68-1.71.12-.17.18-.09.11.04zM30.7 6.81c-.2.29-.87.95-1.01 1.75-.02.14-.14.21-.11 0 .14-.78.71-1.39 1.01-1.79.14-.16.19-.08.11.04z"/><path class="st0" d="M30.58 6.64c-.24.26-1.03 1.1-1.28 1.87-.04.13-.17.19-.11-.01.25-.75.94-1.56 1.29-1.92.15-.15.19-.05.1.06z"/></svg>