<svg id="Layer_1" xmlns="http://www.w3.org/2000/svg" viewBox="0 0 41 32"><style>.st0{fill:#006697}.st1{fill:#8e7650}.st2{fill:#383838}.st3{fill:#ffc200}</style><g id="Brackets"><path class="st0" d="M3.73 21.2V5.86h3.48v.64c-1.9.16-1.97.28-1.97 1.66v10.77c0 1.36.04 1.47 1.97 1.63v.64H3.73zM9.26 21.2V5.86h3.48v.64c-1.9.16-1.97.28-1.97 1.66v10.77c0 1.36.04 1.47 1.97 1.63v.64H9.26zM27.65 21.2v-.64c1.88-.16 1.97-.27 1.97-1.65V8.15c0-1.38-.09-1.49-1.97-1.65v-.64h3.48V21.2h-3.48zM33.2 21.2v-.64c1.88-.16 1.97-.27 1.97-1.65V8.15c0-1.38-.09-1.49-1.97-1.65v-.64h3.48V21.2H33.2z"/></g><circle class="st1" cx="20.22" cy="13.59" r="4.48"/><path class="st2" d="M23.35 29.97h-1.23l-.33-.81h-1.74l-.33.81h-1.23l1.77-4h1.33l1.76 4zm-1.84-1.51L20.93 27l-.59 1.46h1.17zm-3.56 1.51h-1.2v-4h1.2v4zM16 28.04c0 .41-.07.74-.22.99s-.32.45-.53.6c-.29.22-.69.34-1.2.34h-2.16v-4h1.66c.25 0 .46.01.64.04s.34.06.48.11a1.848 1.848 0 0 1 .63.35c.14.11.26.24.36.4.1.15.18.33.25.53.06.19.09.41.09.64zm-1.23-.05c0-.32-.06-.58-.19-.76a.867.867 0 0 0-.45-.36c-.17-.06-.35-.09-.53-.09h-.51v2.37h.51c.32 0 .59-.07.82-.22.23-.16.35-.47.35-.94zm-3.69 1.98H8.07v-4h2.96v.8H9.27v.73h1.68v.8H9.27v.85h1.81v.82zm-4.03 0h-1.2v-2.32l-1.09 1.34h-.1l-1.09-1.34v2.32H2.4v-4h1.1l1.23 1.5 1.24-1.5h1.09l-.01 4zm31.63-.03h-1.2v-4h1.2v4zm-1.73 0h-1.47l-1.53-1.87v1.87h-1.2v-4h1.2v1.79l1.45-1.79h1.31l-1.49 1.87 1.73 2.13zm-5.22 0h-1.2v-4h1.2v4zm-1.76-4l-1.73 4.05h-.7l-1.04-2.36-1.06 2.36h-.7l-1.7-4.05h1.25l.83 2.22.95-2.22h.86l.93 2.22.87-2.22h1.24z"/><g><path class="st3" d="M15.9 6.05c.92.77 2.05 2.11 2.43 3.31.17-.08.35-.14.53-.2-.81-1.02-1.45-2.55-1.73-3.64-.69-.27-.5-1.19-.32-1.79-1.16.15-1.35 1.36-1.01 2.29.03-.01.06 0 .1.03z"/><path class="st3" d="M13.99 6.44c.31.37.77.73 1.22 1.07.19.14.37.28.53.42.59.49.95 1.56 1.21 2.34 0 .01.01.02.01.03.32-.31.68-.58 1.07-.79-.35-1.14-1.44-2.45-2.34-3.2a.173.173 0 0 1-.05-.18c-.44-.35-.88-.71-1.31-1.06-.2.42-.35.87-.38 1.34.01 0 .03.01.04.03zM10.31 13.52c.07.01.13.04.19.06.08.04.16.07.29.07h.04c.4.09 2.93.38 4.77-.45.01-.14.03-.28.05-.42-1.63-.43-2.77-.83-3.47-1.21a.156.156 0 0 1-.08-.13c-1.23-.08-2.33.17-3.44.74.33.53 1.02 1.08 1.64 1.42l.01-.08z"/><path class="st3" d="M11.52 15.2c.8.02 1.91-.21 2.9-.41.45-.09.88-.18 1.26-.24-.07-.31-.1-.63-.1-.96v-.01c-1.02.42-2.21.53-3.16.53-.82 0-1.46-.08-1.66-.13-.19 0-.31-.06-.4-.1-.04-.02-.08-.03-.11-.04l.02-.09c-.32-.06-.75-.2-.92-.14.03.05.89 1.36 2.07 1.63.02-.02.06-.04.1-.04zM12.15 11.29a.15.15 0 0 1 .18-.01c.67.37 1.8.76 3.38 1.18.05-.21.12-.41.2-.61-1-.62-2.25-1.81-2.86-2.73 0-.01-.01-.02-.01-.02-.68-.16-1.37-.32-1.95-.72-.51 1.01.18 2.26 1.06 2.91zM13.34 8.93c.58.88 1.76 2.01 2.72 2.61.17-.35.39-.68.64-.97-.02-.06-.04-.13-.07-.2-.25-.74-.59-1.75-1.11-2.19-.16-.13-.33-.26-.52-.41-.44-.34-.94-.72-1.27-1.12a.166.166 0 0 1-.01-.2c-.06-.12-.11-.25-.2-.33-1.04.56-.81 1.84-.34 2.74.07 0 .13.02.16.07zM17.43 5.37c.28 1.1.95 2.7 1.78 3.69.14-.03.28-.05.42-.07-.11-1.03-.15-2.81.12-3.95.01-.04.03-.07.06-.09-.3-1.11-.89-2.25-1.78-2.98-.7.94-.88 2.16-.71 3.29.05.01.09.05.11.11zM24.44 6.75c-.68.74-1.39 1.65-2.01 2.46l-.16.21c.41.2.79.47 1.12.78 1.3-.54 2.49-1.75 3.12-2.74.03-.05.1-.08.16-.07.29-.49.53-1.11.91-1.46a3.089 3.089 0 0 0-3.1.67c.01.05 0 .11-.04.15z"/><path class="st3" d="M26.8 7.64c-.64 1.01-1.84 2.23-3.15 2.82.2.22.38.46.54.72.8-.91 1.89-1.66 3.08-2.14.02-.01.04-.01.05-.01.24-1.05 1.02-.89 1.84-.82-.35-1.04-1.52-1.09-2.35-.71.02.04.02.09-.01.14zM20.07 5.12c-.26 1.08-.21 2.86-.11 3.84.09 0 .18-.01.27-.01.12 0 .25.01.37.02.29-1 .87-2.66 1.71-3.71.01-.01.02-.01.03-.02-.04-.7-.13-1.4.1-2.07-1.28-.17-2.07.74-2.43 1.77.05.04.08.11.06.18zM22.56 5.46c-.81 1.01-1.38 2.68-1.63 3.54.36.05.71.15 1.03.28l.21-.27c.63-.81 1.34-1.73 2.03-2.48.03-.03.08-.05.12-.05.17-.63.48-1.26.99-1.67-.82-.86-2.01-.23-2.73.49.02.04.01.11-.02.16zM23.41 21.29c-.12-.75-.54-1.92-1.25-3.48-.22.1-.45.19-.69.25.15 1.22.04 2.8-.28 3.83 0 .01-.01.02-.02.03.31.62.62 1.26.67 1.94 1.15-.21 1.59-1.43 1.62-2.47-.02-.03-.04-.06-.05-.1zM28.43 14.26c-.02.01-.04.01-.06.01-.03 0-.06-.01-.09-.02-1.05-.63-2.32-1.1-3.45-1.27.03.2.04.41.04.61 0 .33-.04.65-.1.97l.27.12c1.01.43 2.16.93 3.03 1.48.04.03.07.07.07.12.42.14.84.41 1.12.7.51-.42.07-1.65-.11-1.93-.17-.24-.44-.53-.72-.79zM27.97 16.46c-.03 0-.06-.01-.09-.03-.84-.54-1.98-1.03-2.98-1.46-.08-.03-.15-.06-.22-.09-.14.49-.36.95-.65 1.35.67.75 2.03 1.52 3.05 1.9.06.02.1.08.11.14.55.17 1.11.33 1.65.53.1-.83-.22-1.74-.82-2.35-.01.01-.03.01-.05.01zM27.03 18.45c-.02 0-.04 0-.06-.01-1.04-.39-2.42-1.16-3.14-1.94-.2.24-.42.47-.66.67.9.57 1.98 1.54 2.58 2.33.36.02.75.06 1.01.33.29.31.29.81.35 1.21 1.11-.58.71-1.87-.02-2.61-.01.02-.03.02-.06.02zM29.22 11.9c-.23-.06-.45-.15-.67-.21-.03.03-.08.06-.13.05-1.31-.13-2.92.15-3.8.33.06.18.12.37.16.56 1.19.16 2.56.66 3.68 1.33.02.01.04.03.05.05.68-.13 1.35-.31 2.06-.15-.04-1.07-.64-1.57-1.35-1.96z"/><path class="st3" d="M27.49 9.19c0 .06-.04.12-.1.15-1.18.47-2.25 1.22-3.02 2.13 0 0-.01 0-.01.01.05.09.09.19.13.28.89-.19 2.58-.48 3.96-.35.03 0 .05.01.07.02 1.06-.44 2.18-1.04 2.7-2.09-1.15-.55-2.52-.58-3.73-.15zM25.62 19.77c-.05 0-.1-.02-.13-.07-.6-.79-1.71-1.78-2.6-2.32-.14.1-.28.19-.43.27.73 1.59 1.16 2.8 1.28 3.58.01.03 0 .06-.02.09.68.9 1.57 1.71 2.66 2 .37-1.19-.07-2.51-.76-3.55.01 0 0 0 0 0zM12.98 18.53c.02-.04.05-.07.09-.09.99-.39 2.64-1.25 3.55-1.92-.17-.21-.32-.43-.45-.67-.35.1-.73.22-1.14.35-1.24.4-2.62.85-3.77.85h-.17c-.22.09-.46.12-.66.24.42 1 1.54 1.35 2.55 1.24zM14.83 20.53c.82-.83 1.79-2.36 2.25-3.53-.08-.08-.16-.15-.24-.24-.92.69-2.56 1.55-3.61 1.97-.8.81-1.45 1.8-1.64 2.92.05.07.24.04.34.06 1.04.01 2.02-.44 2.84-1.06.01-.03.02-.08.06-.12zM10.87 16.7c1.15.13 2.69-.37 4.05-.81.39-.13.76-.24 1.09-.34-.1-.21-.18-.44-.25-.67-.38.06-.81.15-1.27.24-.89.18-1.88.38-2.68.41-.48.41-1.32.19-1.69-.23-.18.61.24 1.14.75 1.4zM18.61 21.58c.2-.64.69-2.23.91-3.39-.44-.07-.85-.19-1.24-.37-.83.89-1.57 2.64-1.8 3.8-.01.06-.05.1-.1.12-.07.54-.16 1.08-.28 1.61 1.09 0 2.06-.65 2.53-1.61-.02-.05-.04-.11-.02-.16z"/><path class="st3" d="M16.16 21.54c.23-1.2.96-2.93 1.81-3.89-.22-.12-.43-.26-.63-.42-.48 1.18-1.4 2.61-2.21 3.47.08.69-.78 1.03-1.4 1.12.66.93 1.8.55 2.44-.18-.01-.03-.02-.06-.01-.1zM20.88 21.79c.31-.97.42-2.48.28-3.65-.3.06-.61.09-.93.09-.13 0-.25-.01-.37-.02-.23 1.19-.72 2.8-.93 3.46-.01.04-.03.06-.06.08.06.56-.05 1.14-.29 1.64.43.3 1.36.09 1.68-.28.28-.33.5-.76.67-1.17-.05-.03-.07-.09-.05-.15z"/></g></svg>