<svg id="Layer_1" xmlns="http://www.w3.org/2000/svg" viewBox="0 0 32 32"><style>.st0{fill:url(#SVGID_1_)}.st1{fill:url(#SVGID_2_)}.st2{fill:url(#SVGID_3_)}.st3{fill:url(#SVGID_4_)}.st4,.st5{opacity:.1;enable-background:new}.st5{opacity:.3;fill:#fff}</style><linearGradient id="SVGID_1_" gradientUnits="userSpaceOnUse" x1="-287.796" y1="411.378" x2="-287.796" y2="411.504" gradientTransform="matrix(253.3608 0 0 -253.3608 72932.281 104259.023)"><stop offset="0" stop-color="#574c4a"/><stop offset="1" stop-color="#80716d"/></linearGradient><path class="st0" d="M0 21.62V10.38C0 1.3 1.3 0 10.37 0h11.26C30.7 0 32 1.3 32 10.38v11.24C32 30.7 30.7 32 21.63 32H10.37C1.3 32 0 30.7 0 21.62z"/><g transform="translate(45.79 47.098)"><linearGradient id="SVGID_2_" gradientUnits="userSpaceOnUse" x1="-333.135" y1="363.564" x2="-333.209" y2="363.699" gradientTransform="matrix(159.2833 0 0 -152.8247 53038.578 55540.586)"><stop offset="0" stop-color="#268d83"/><stop offset="1" stop-color="#2ea19e"/></linearGradient><path class="st1" d="M-38.88-41.07c-1.57 9.97-.75 19.3-.75 19.3h4.92c-.47-2.49-2.15-13.86-.75-13.9.75.12 4.17 9.65 4.17 9.65s.75-.09 1.51-.09 1.51.09 1.51.09 3.42-9.53 4.17-9.65c1.4.04-.28 11.41-.75 13.9h4.92s.82-9.33-.75-19.3h-4.55c-.87.01-4.16 5.79-4.54 5.79-.38 0-3.68-5.78-4.54-5.79h-4.57z"/><radialGradient id="SVGID_3_" cx="-323.822" cy="353.917" r=".063" gradientTransform="matrix(18.4262 0 0 -18.4263 5934.695 6498.263)" gradientUnits="userSpaceOnUse"><stop offset="0" stop-color="#db7c7c"/><stop offset="1" stop-color="#c83737"/></radialGradient><path class="st2" d="M-30.76-22.93a1.16 1.16 0 1 1-2.322-.002 1.16 1.16 0 0 1 2.322.002z"/><radialGradient id="SVGID_4_" cx="-325.42" cy="353.917" r=".063" gradientTransform="matrix(18.4262 0 0 -18.4263 5968.477 6498.263)" gradientUnits="userSpaceOnUse"><stop offset="0" stop-color="#db7c7c"/><stop offset="1" stop-color="#c83737"/></radialGradient><path class="st3" d="M-26.49-22.93a1.16 1.16 0 1 1-2.322-.002 1.16 1.16 0 0 1 2.322.002z"/><path class="st4" d="M-20.93-40.74c.71 4.8.88 9.41.86 12.85-.01 3.51-.21 5.79-.21 5.79h-4.14l-.44.33h4.92s.82-9.33-.75-19.3l-.24.33zm-13.03-.12c1.29 1.44 3.53 5.25 3.83 5.25-.81-1.05-2.82-4.39-3.83-5.25zm-1.84 4.87c-1.4.04.28 11.41.75 13.9h-4.29l-.29.33h4.92c-.47-2.48-2.13-13.74-.77-13.9-.13-.19-.24-.32-.32-.33zm11.35 0c-.75.12-4.17 9.65-4.17 9.65s-.75-.09-1.51-.09c-.45 0-.83.03-1.1.05l-.08.38s.75-.09 1.51-.09 1.51.09 1.51.09 3.39-9.46 4.16-9.65c-.07-.22-.18-.34-.32-.34z"/><path class="st5" d="M-38.88-41.07c-1.57 9.97-.75 19.3-.75 19.3l.29-.33c-.15-2.2-.54-10.16.79-18.64H-34c.1 0 .23.08.38.21-.3-.33-.55-.54-.71-.54h-4.55zm13.63 0c-.87.01-4.16 5.79-4.54 5.79.15.2.28.33.33.33.38 0 3.68-5.78 4.54-5.79h4.02l.2-.33h-4.55zm-9.9 5.74c1.11 1.66 3.85 9.31 3.85 9.31l.08-.37c-.68-1.86-3.26-8.84-3.91-8.94h-.02zm11.37 0c.74 1.89-.66 11.32-1.08 13.56l.45-.35c.56-3.33 1.93-13.17.63-13.21z"/></g></svg>