<svg xmlns="http://www.w3.org/2000/svg" viewBox="0 0 32 32" enable-background="new 0 0 32 32"><style type="text/css">.st0{fill:url(#SVGID_1_);} .st1{fill:url(#SVGID_2_);} .st2{fill:url(#SVGID_3_);}</style><linearGradient id="SVGID_1_" gradientUnits="userSpaceOnUse" x1="-648.306" y1="-806.551" x2="-658.424" y2="-806.62" gradientTransform="matrix(-.977 -.323 .29 -.877 -387.491 -900.669)"><stop offset=".231" stop-color="#999875"/><stop offset=".563" stop-color="#9B9977"/><stop offset=".683" stop-color="#A09F7E"/><stop offset=".768" stop-color="#A9A889"/><stop offset=".837" stop-color="#B7B69A"/><stop offset=".896" stop-color="#C9C7B0"/><stop offset=".948" stop-color="#DEDDCB"/><stop offset=".994" stop-color="#F8F6EB"/><stop offset="1" stop-color="#FBF9EF"/></linearGradient><path class="st0" d="M17.67 32l-.86-.28s.11-4.34-1.46-4.65c-1.03-1.2.16-51.13 3.91-.17 0 0-1.28.65-1.53 1.74-.24 1.09-.06 3.36-.06 3.36z"/><linearGradient id="SVGID_2_" gradientUnits="userSpaceOnUse" x1="-646.748" y1="-788.842" x2="-661.304" y2="-814.055" gradientTransform="matrix(-.977 -.323 .29 -.877 -387.491 -900.669)"><stop offset="0" stop-color="#48A547"/><stop offset="1" stop-color="#3F9143"/></linearGradient><path class="st1" d="M18.13 27.81s7.46-4.91 5.71-15.11c-1.68-7.41-5.66-9.85-6.08-10.78-.47-.66-.94-1.82-.94-1.82l.32 20.65c-.01-.01-.66 6.29.99 7.06z"/><linearGradient id="SVGID_3_" gradientUnits="userSpaceOnUse" x1="-645.414" y1="-806.967" x2="-655.732" y2="-800.036" gradientTransform="matrix(-.977 -.323 .29 -.877 -387.491 -900.669)"><stop offset="0" stop-color="#41A247"/><stop offset=".352" stop-color="#4BA74B"/><stop offset=".956" stop-color="#67B554"/><stop offset="1" stop-color="#69B655"/></linearGradient><path class="st2" d="M16.37 28.08s-7-4.77-6.59-13.19c.4-8.42 5.34-12.56 6.31-13.31.62-.66.65-.92.7-1.57.44.94.36 13.99.41 15.52.17 5.93-.34 11.43-.83 12.55z"/></svg>