<svg xmlns="http://www.w3.org/2000/svg" viewBox="0 0 437.28 100.6"><style>.st0{fill:#009639}</style><g id="Tweaks"><path class="st0" d="M72.27 88.51c3.32 4.12 8.75 6.02 13.46 6.02 6.57 0 11.21-4.34 11.21-9.59l.01-68.06c0-5.28-4.32-9.6-9.6-9.6h-.54c-5.28 0-9.6 4.32-9.6 9.6v49.37L32.97 13.3c-3.32-4.12-8.75-6.02-13.46-6.02-6.57 0-11.21 4.34-11.21 9.59l-.01 68.06c0 5.28 4.32 9.6 9.6 9.6h.54c5.28 0 9.6-4.32 9.6-9.6V35.56l44.24 52.95zM426.16 77.77L399.29 50.9l26.87-26.87c3.73-3.73 3.73-9.84 0-13.58l-.39-.39c-3.73-3.73-9.84-3.73-13.57 0l-23.51 23.51-1.64 1.64-1.01 1.01a.996.996 0 0 1-1.41 0l-1.23-1.23-1.42-1.42-23.51-23.51c-3.73-3.73-9.84-3.73-13.58 0l-.39.39c-3.73 3.73-3.73 9.84 0 13.57l26.87 26.87-26.87 26.88c-3.73 3.73-3.73 9.84 0 13.58l.39.39c3.73 3.73 9.84 3.73 13.57 0l23.51-23.51 1.62-1.62 1.03-1.03a.996.996 0 0 1 1.41 0l.65.65 2 2 23.51 23.51c3.73 3.73 9.84 3.73 13.58 0l.39-.39c3.74-3.74 3.74-9.84 0-13.58zM268.12 88.51c-3.32 4.12-8.75 6.02-13.46 6.02-6.57 0-11.21-4.34-11.21-9.59l-.01-68.06c0-5.28 4.32-9.6 9.6-9.6h.54c5.28 0 9.6 4.32 9.6 9.6v49.37l44.24-52.94c3.32-4.12 8.75-6.02 13.46-6.02 6.57 0 11.21 4.34 11.21 9.59l.01 68.06c0 5.28-4.32 9.6-9.6 9.6h-.54c-5.28 0-9.6-4.32-9.6-9.6V35.57l-44.24 52.94zM230.26 16.5c0-5.08-3.91-9.23-8.68-9.23s-8.68 4.15-8.68 9.23v22.39c0 .55.45 1 1 1h15.35c.55 0 1-.45 1-1l.01-22.39zM230.25 48.92c0-.55-.45-1-1-1H213.9c-.55 0-1 .45-1 1v36.66c0 4.92 3.9 8.95 8.68 8.95s8.68-4.03 8.68-8.95l-.01-36.66zM205.06 47.92h-54.72c-5.05 0-9.19 3.44-9.19 8.26s4.13 8.24 9.19 8.24h27.54l-7.37 12.54c-.5.84-1.07 1.14-2.04 1.14H141.6c-1.11.01-1.6-.32-2.11-1.25l-13.73-25.1c-.44-.79-.47-1.41-.02-2.22l13.76-24.46c.49-.91 1.07-1.26 2.11-1.25h26.92c1.07 0 1.72.33 2.28 1.25l8.25 13.91c.38.62.76.93 1.57.92h19.06L181.24 8.95c-.47-.78-1.03-.95-1.87-.95h-49.32c-1.09 0-1.66.35-2.18 1.31l-21.51 39.68c-.61 1.11-.65 1.93-.01 3.06l22.7 40.86c.53.96 1.14 1.27 2.21 1.27h47.18c1.13 0 1.75-.32 2.3-1.34l24.32-44.92z"/></g></svg>