<svg id="Layer_1" xmlns="http://www.w3.org/2000/svg" xmlns:xlink="http://www.w3.org/1999/xlink" viewBox="0 0 32 32"><style>.st0{fill:#699f63}.st1,.st2{fill-rule:evenodd;clip-rule:evenodd;fill:#333}.st2{fill:#699f63}.st3{clip-path:url(#XMLID_5_)}.st4{fill:none}.st5{fill:url(#SVGID_1_)}.st6{fill:url(#SVGID_2_)}.st7{fill:url(#SVGID_3_)}.st8{fill:url(#SVGID_4_)}.st9{fill:url(#SVGID_5_)}.st10{fill:url(#SVGID_6_)}</style><path class="st0" d="M15.82 25.65a.61.61 0 0 1-.3-.08l-.97-.57c-.14-.08-.07-.11-.03-.13.19-.07.23-.08.44-.2.02-.01.05-.01.07.01l.74.44c.03.01.06.01.09 0l2.89-1.67a.09.09 0 0 0 .04-.08v-3.34c0-.03-.02-.06-.04-.08l-2.89-1.67a.075.075 0 0 0-.09 0l-2.89 1.67c-.03.02-.05.05-.05.08v3.34c0 .03.02.06.05.08l.79.46c.43.21.69-.04.69-.29v-3.29c0-.05.04-.08.08-.08h.37c.05 0 .08.04.08.08v3.29c0 .57-.31.9-.86.9-.17 0-.3 0-.67-.18l-.76-.44a.604.604 0 0 1-.3-.53v-3.34c0-.22.12-.42.3-.53l2.89-1.67c.18-.1.43-.1.61 0l2.89 1.67c.19.11.3.31.3.53v3.34c0 .22-.12.42-.3.53l-2.89 1.67c-.07.05-.18.08-.28.08z"/><path class="st0" d="M16.71 23.35c-1.26 0-1.53-.58-1.53-1.07 0-.05.04-.08.08-.08h.37c.04 0 .08.03.08.07.06.38.22.57.99.57.61 0 .87-.14.87-.46 0-.19-.07-.32-1.02-.42-.79-.08-1.28-.25-1.28-.89 0-.58.49-.93 1.32-.93.93 0 1.38.32 1.44 1.01 0 .02-.01.05-.02.06-.02.02-.04.03-.06.03h-.38c-.04 0-.07-.03-.08-.07-.09-.4-.31-.53-.9-.53-.66 0-.74.23-.74.41 0 .21.09.27.99.39.89.12 1.31.28 1.31.91 0 .64-.53 1-1.44 1zM20.88 19.86a.56.56 0 1 1-1.12 0 .559.559 0 1 1 1.12 0zm-1.03 0a.47.47 0 1 0 .47-.47c-.26 0-.47.2-.47.47zm.26-.32h.22c.07 0 .22 0 .22.17 0 .11-.07.14-.12.15.09.01.09.06.1.14.01.05.01.14.03.16h-.13c0-.03-.02-.19-.02-.2-.01-.04-.02-.05-.06-.05h-.11v.25h-.12v-.62zm.12.28h.1c.08 0 .09-.06.09-.09 0-.09-.06-.09-.09-.09h-.1v.18z"/><path class="st1" d="M6.87 12.6c0-.13-.07-.26-.19-.32l-3.06-1.76a.337.337 0 0 0-.17-.05h-.03c-.06 0-.12.02-.17.05L.19 12.28a.37.37 0 0 0-.19.32l.01 4.75c0 .07.03.13.09.16s.13.03.18 0l1.82-1.04a.37.37 0 0 0 .19-.32v-2.22c0-.13.07-.25.18-.32l.78-.45c.06-.03.12-.05.19-.05.06 0 .13.02.18.05l.78.45c.11.07.19.19.19.32v2.22c0 .13.07.25.19.32l1.82 1.04c.06.03.13.03.19 0s.09-.09.09-.16l-.01-4.75zM21.61 6.08a.191.191 0 0 0-.18 0c-.06.03-.09.09-.09.16v4.7c0 .05-.02.09-.06.11-.04.02-.09.02-.13 0l-.77-.44a.352.352 0 0 0-.37 0l-3.07 1.77c-.11.07-.19.19-.19.32v3.54c0 .13.07.25.19.32L20 18.33c.11.07.26.07.37 0l3.07-1.77c.11-.07.19-.19.19-.32V7.42c0-.13-.07-.26-.19-.32l-1.83-1.02zm-.28 9c0 .03-.02.06-.05.08l-1.05.61c-.03.02-.06.02-.09 0l-1.05-.61c-.03-.02-.05-.05-.05-.08v-1.22c0-.03.02-.06.05-.08l1.05-.61c.03-.02.06-.02.09 0l1.05.61c.03.02.05.05.05.08v1.22zM31.82 13.83c.11-.07.18-.19.18-.32v-.86c0-.13-.07-.25-.18-.32l-3.05-1.77a.352.352 0 0 0-.37 0l-3.06 1.77c-.11.07-.19.19-.19.32v3.54c0 .13.07.26.19.32l3.04 1.74c.11.06.25.06.36 0l1.84-1.02c.06-.03.09-.09.1-.16a.19.19 0 0 0-.09-.16l-3.08-1.77c-.06-.03-.09-.09-.09-.16v-1.11c0-.07.04-.13.09-.16l.96-.55c.06-.03.13-.03.18 0l.96.55c.06.03.09.09.09.16v.87c0 .07.04.13.09.16.06.03.13.03.19 0l1.84-1.07z"/><path class="st2" d="M28.54 13.66c.02-.01.05-.01.07 0l.59.34c.02.01.04.04.04.06v.68c0 .03-.01.05-.04.06l-.59.34c-.02.01-.05.01-.07 0l-.59-.34c-.02-.01-.04-.04-.04-.06v-.68c0-.03.01-.05.04-.06l.59-.34z"/><g><defs><path id="XMLID_143_" d="M11.99 10.58a.352.352 0 0 0-.37 0l-3.05 1.76c-.11.07-.18.19-.18.32v3.52c0 .13.07.25.18.32l3.05 1.76c.11.07.25.07.37 0l3.05-1.76c.11-.07.18-.19.18-.32v-3.52c0-.13-.07-.25-.18-.32l-3.05-1.76z"/></defs><linearGradient id="XMLID_4_" gradientUnits="userSpaceOnUse" x1="13.049" y1="11.892" x2="10.296" y2="17.509"><stop offset="0" stop-color="#41873f"/><stop offset=".329" stop-color="#418b3d"/><stop offset=".635" stop-color="#419637"/><stop offset=".932" stop-color="#3fa92d"/><stop offset="1" stop-color="#3fae2a"/></linearGradient><use xlink:href="#XMLID_143_" overflow="visible" fill-rule="evenodd" clip-rule="evenodd" fill="url(#XMLID_4_)"/><clipPath id="XMLID_5_"><use xlink:href="#XMLID_143_" overflow="visible"/></clipPath><g class="st3"><path class="st4" d="M11.62 10.58l-3.24 1.76c-.11.07-.38.19-.38.32v3.52c0 .09.22.17.28.23l3.52-5.87c-.09-.02-.1-.01-.18.04zM11.91 18.29c.03-.01.06-.02.09-.04l3.43-1.76c.11-.07.57-.19.57-.32v-3.52c0-.1-.42-.19-.49-.26l-3.6 5.9z"/><linearGradient id="SVGID_1_" gradientUnits="userSpaceOnUse" x1="11.346" y1="14.831" x2="19.072" y2="9.123"><stop offset=".138" stop-color="#41873f"/><stop offset=".403" stop-color="#54a044"/><stop offset=".714" stop-color="#66b848"/><stop offset=".908" stop-color="#6cc04a"/></linearGradient><path class="st5" d="M15.05 12.34l-3.06-1.76a.3.3 0 0 0-.1-.04l-3.43 5.87c.03.03.06.06.1.08l3.06 1.76c.09.05.19.06.28.04l3.22-5.89c-.01-.02-.04-.04-.07-.06z"/></g><g class="st3"><path class="st4" d="M16 16.18v-3.52c0-.13-.46-.25-.57-.32l-3.25-1.76c-.04-.02-.17-.03-.21-.04l3.68 5.72c.01-.02.35-.05.35-.08zM8.38 12.34c-.11.07-.38.19-.38.32v3.52c0 .13.27.25.38.32l3.15 1.76c.07.04.2.06.28.05l-3.35-5.97h-.08z"/><linearGradient id="SVGID_2_" gradientUnits="userSpaceOnUse" x1="8.287" y1="9.947" x2="15.334" y2="9.947"><stop offset=".092" stop-color="#6cc04a"/><stop offset=".286" stop-color="#66b848"/><stop offset=".597" stop-color="#54a044"/><stop offset=".862" stop-color="#41873f"/></linearGradient><path class="st6" d="M11.52 9.94l-.04.02h.06z"/><linearGradient id="SVGID_3_" gradientUnits="userSpaceOnUse" x1="8.287" y1="14.419" x2="15.334" y2="14.419"><stop offset=".092" stop-color="#6cc04a"/><stop offset=".286" stop-color="#66b848"/><stop offset=".597" stop-color="#54a044"/><stop offset=".862" stop-color="#41873f"/></linearGradient><path class="st7" d="M15.05 16.5c.09-.05.16-.14.18-.23l-3.35-5.72a.39.39 0 0 0-.26.04l-3.04 1.75 3.28 5.97c.05-.01.09-.02.13-.05l3.06-1.76z"/><linearGradient id="SVGID_4_" gradientUnits="userSpaceOnUse" x1="8.287" y1="16.431" x2="15.334" y2="16.431"><stop offset=".092" stop-color="#6cc04a"/><stop offset=".286" stop-color="#66b848"/><stop offset=".597" stop-color="#54a044"/><stop offset=".862" stop-color="#41873f"/></linearGradient><path class="st8" d="M15.33 16.44l-.02-.03v.04z"/><linearGradient id="SVGID_5_" gradientUnits="userSpaceOnUse" x1="7.575" y1="17.34" x2="16.024" y2="17.34"><stop offset=".092" stop-color="#6cc04a"/><stop offset=".286" stop-color="#66b848"/><stop offset=".597" stop-color="#54a044"/><stop offset=".862" stop-color="#41873f"/></linearGradient><path class="st9" d="M15.05 16.5L12 18.26c-.04.02-.09.04-.13.05l.4.11L16 16.45v-.05l-.43-.14c-.02.1-.43.19-.52.24z"/><linearGradient id="SVGID_6_" gradientUnits="userSpaceOnUse" x1="16.812" y1="11.505" x2="12.289" y2="20.732"><stop offset="0" stop-color="#41873f"/><stop offset=".329" stop-color="#418b3d"/><stop offset=".635" stop-color="#419637"/><stop offset=".932" stop-color="#3fa92d"/><stop offset="1" stop-color="#3fae2a"/></linearGradient><path class="st10" d="M15.05 16.5L12 18.26c-.04.02-.09.04-.13.05l.4.11L16 16.45v-.05l-.43-.14c-.02.1-.43.19-.52.24z"/></g></g></svg>