<svg id="Layer_1" xmlns="http://www.w3.org/2000/svg" viewBox="0 0 32 32"><style>.st0{fill:#ed1844}</style><path id="Fill-26" class="st0" d="M29.03.34H2.97C1.34.34 0 1.68 0 3.31v7.01h7.23V9.18c0-.89.72-1.61 1.61-1.61h14.33c.89 0 1.61.72 1.61 1.61v1.14H32V3.31C32 1.68 30.66.34 29.03.34z"/><path id="Fill-28" class="st0" d="M24.77 22.82c0 .89-.72 1.61-1.61 1.61H8.83c-.89 0-1.61-.72-1.61-1.61v-1.14H0v7.01c0 1.64 1.34 2.97 2.97 2.97h26.05c1.64 0 2.97-1.34 2.97-2.97v-7.01h-7.23v1.14z"/><path id="Fill-30" class="st0" d="M0 19.61h7.23v-7.22H0z"/><path id="Fill-32" class="st0" d="M24.77 19.61H32v-7.22h-7.23z"/></svg>