<svg id="Layer_1" xmlns="http://www.w3.org/2000/svg" viewBox="0 0 100 100"><style>.st0{fill:#bb202a}.st1{fill:#e12634}.st2{fill:#971b1f}</style><path class="st0" d="M29 45.3l-16 5.8c.2 2.6.6 5.1 1.3 7.6l15.3-5.6c-.6-2.5-.8-5.2-.6-7.8M100 27.5c-1.1-2.3-2.4-4.5-3.9-6.7L80 26.7c1.9 1.9 3.4 4.1 4.7 6.4l15.3-5.6z"/><path class="st1" d="M64.7 23c3.3 1.6 6.2 3.7 8.7 6.2l16.1-5.8c-4.5-6.3-10.6-11.6-18-15-22.9-10.7-50.3-.7-61 22.2C7 38 5.7 45.9 6.3 53.5l16.1-5.8c.3-3.5 1.1-7 2.7-10.3C32 22.5 49.8 16 64.7 23M15.3 58.4L0 63.9c1.4 5.6 3.8 10.8 7.2 15.5l16-5.8c-4.1-4.2-6.9-9.5-7.9-15.2"/><path class="st1" d="M81.8 52.3c-.3 3.5-1.1 7-2.7 10.3C72.1 77.5 54.4 84 39.5 77c-3.3-1.6-6.3-3.7-8.7-6.2l-16 5.8c4.4 6.2 10.5 11.5 17.9 14.9 22.9 10.7 50.3.7 61-22.2 3.5-7.4 4.7-15.3 4.1-22.9l-16 5.9z"/><path class="st1" d="M85.7 32.7l-15.3 5.6c2.8 5.1 4.2 10.9 3.7 16.8l16-5.8c-.3-5.8-1.8-11.4-4.4-16.6"/><path class="st2" d="M29 48.5c0-1.1 0-2.1.1-3.2L13 51.1c.1 1 .2 2.1.4 3.1L29 48.5zM97.7 23.3c-.5-.8-1-1.6-1.6-2.4L80 26.7c.7.7 1.4 1.5 2 2.3l15.7-5.7z"/><path class="st0" d="M14.7 76.7c1.2 1.7 2.6 3.4 4.1 5l17.4-6.4c-2-1.3-3.9-2.8-5.5-4.4l-16 5.8zm83.1-30.2l-16 5.8c-.2 2.3-.6 4.6-1.4 6.9l17.4-6.4c.2-2.1.2-4.2 0-6.3"/></svg>