<svg id="Layer_1" xmlns="http://www.w3.org/2000/svg" viewBox="0 0 32 32"><style>.st0{fill:#fff}.st1{fill:none}.st2{fill:url(#SVGID_1_);stroke:#000}</style><path d="M10.96 3.42c.66 1.39.21 11.06-.56 14.45-.77 3.4-1.55 7.72-1.73 11.36-.08 1.55.16 2.16 1.17 2.16 1.79 0 4.05-3.77 6.9-3.68 2.85.08 3.75 4.32 5.09 4.29 1.33-.03 2.41-.49 2.42-4.61.04-12.31-10.27-22.29-13.29-23.97z"/><path d="M19.91 13.25c.63 1.06 2.23.24 2.3-.95.07-1.19-.11-2.7-.88-2.75-.77-.06-1.33-.83-2.1-.89s-1.61.72-1.97-.31c-.36-1.03.97-1.46 1.97-1.63-.89-.89-1.41-1.87-1.8-2.9-.39-1.02-.68-1.96.41-2.36s1 1.66 2.25 2.61c-.37-1.39-.5-1.97-.48-2.78S19.58-.14 20.73.02s.65 2.54 1.54 3.52c.27-.92.44-2.09 1.09-2.57s2.15-.49 1.2 1.48.28 3.04-.01 4.6-1.18 1.27-1.57 2.27c-.38 1 .23 3.28-.5 4.3s-.85 2.6-.38 3.85c-1.44-1.34-2.19-4.22-2.19-4.22zM10.93 14.58c-.58 3.99-2.61 4.47-2.71 6.12-.1 1.66.54 1.82.5 3.35-.04 1.53-1.4 2.15-1.57 2.99-.16.83.7 1.1 1.2 1.1s1.01-2.21 1.21-3.61c.2-1.4-.67-2.23-.67-3.19s1.26-2.72 1.03-1.18c1.05-1.65 1.55-3.75 1.01-5.58z"/><path class="st0" d="M11.71 16.1c-.44 2.16-3.2 14.22-1.79 14.37 1.4.15 3.4-3.73 6.67-3.7 3.27.03 4.56 4.35 5.36 4.33.8-.03 1.32.28 1.41-4.59s-2.89-11.1-4.65-13.84c-2.4.15-4.96 2.06-7 3.43z"/><path class="st1" d="M18.06 13.52c-.15-1.43-1.5-2-2.8-1.82-1.09.15-2.54 1.07-2.68 2.25-.15 1.33.9 2.55 2.23 2.61 1.18.05 2.45-.52 2.98-1.63.21-.45.29-.91.27-1.41"/><path d="M18.68 13.47c-.13-1.35-1.13-2.2-2.43-2.41-1.25-.2-2.61.39-3.49 1.27-.98.98-1.02 2.35-.33 3.52.68 1.15 2.19 1.53 3.42 1.24 1.69-.38 2.94-1.86 2.83-3.62"/><radialGradient id="SVGID_1_" cx="13.931" cy="20.878" r="4.297" gradientTransform="matrix(1 0 0 -1 0 34)" gradientUnits="userSpaceOnUse"><stop offset="0" stop-color="#fff"/><stop offset=".06" stop-color="#fbc8b4"/><stop offset=".071" stop-color="#fbc3b0"/><stop offset=".183" stop-color="#f7978b"/><stop offset=".299" stop-color="#f4716b"/><stop offset=".42" stop-color="#f15251"/><stop offset=".545" stop-color="#ef3a3d"/><stop offset=".678" stop-color="#ee292f"/><stop offset=".822" stop-color="#ed1f27"/><stop offset="1" stop-color="#ed1c24"/></radialGradient><path class="st2" d="M18.06 13.98c-.12 1.23-1.1 2.21-2.27 2.5-1.25.3-2.62-.18-3.07-1.46-.23-.65-.19-1.33.21-1.9.33-.48.87-.86 1.4-1.1 1.09-.5 2.66-.55 3.42.56.27.41.32.9.31 1.4"/></svg>