<svg id="Unknown-Other" xmlns="http://www.w3.org/2000/svg" viewBox="0 0 120 120"><style>.st0{fill:#07bce5}</style><title>other-unknown</title><path id="unknown" class="st0" d="M60.9 85.4h-2.7c.3-5.9.9-10.9 2.1-14.7 1.9-5.6 4.3-11 7.1-16.2 2.9-5.3 4.7-9.4 5.5-12.3.8-2.8 1.2-5.7 1.2-8.7 0-5.9-1.7-10.8-4.7-14.2-2.9-3.4-7.2-5.4-11.6-5.3-4.1 0-7.3.9-9.7 2.9s-3.5 4.1-3.5 6.2c.2 2.3.9 4.4 2.1 6.4 1.4 2.6 2.1 4.4 2.1 5.8 0 1.6-.6 3.1-1.7 4.2-1 1.1-2.4 1.7-3.9 1.7-2.2-.1-4.2-1.1-5.5-2.9-1.7-2-2.4-4.7-2.4-8.2 0-5.3 2.3-10 6.8-14.1s10.8-6.2 18.7-6.2c9.7 0 16.8 2.9 21.4 8.5 3.3 3.9 5.1 8.7 5.2 13.8 0 3.7-.8 7.3-2.2 10.6-1.5 3.6-4.4 7.9-8.8 12.7-6.9 7.7-11.1 13.2-12.6 16.5-1.8 4.4-2.7 8.9-2.9 13.5zm-1 8.8c4.3-.1 7.8 3.4 7.9 7.7v.2c0 4.4-3.6 7.9-8 7.9-2.1 0-4-.8-5.5-2.3-3-3.1-3-8.1 0-11.2 1.5-1.5 3.6-2.3 5.6-2.3z"/></svg>