<svg id="Layer_1" xmlns="http://www.w3.org/2000/svg" viewBox="0 0 32 32"><style>.st0{fill:#41436d}</style><path class="st0" d="M32 18c0 .83-.05 1.42-.16 1.75-.1.35-.38.77-.84 1.25-.25.25-.5.01-.75-.72-.17-.48-.25-.91-.25-1.28v-4c0-.4-.15-.43-.44-.09-.23.27-.42.63-.56 1.09-.13.42-.27 1.09-.44 2.03-.17.96-.21 1.61-.12 1.97.02.06.06.23.12.5.06.29.1.51.12.66.04.15.07.33.09.56.04.23.05.42.03.56s-.07.26-.16.34c-.1.13-.16.22-.16.28-.02.08-.02.15 0 .19l.22.22.25.31c.06.06.1.14.12.22.02.08.02.17 0 .25-.02.08-.04.16-.06.22-.02.06-.05.14-.09.22-.06.1-.1.19-.12.25-.04.06-.1.15-.19.25s-.14.18-.16.22c-.1.15-.19.41-.25.78-.08.4-.16.82-.22 1.28-.06.46-.1.74-.12.84-.06.27-.02.65.12 1.12.15.5.31.86.5 1.09.06.1.06.22 0 .34-.06.13-.17.26-.31.41-.15.17-.29.31-.44.44-.15.13-.27.23-.38.31l-.17.14h-1.59c-.04-.77.02-1.31.19-1.62.02-.04.31-.57.88-1.59.31-.54.51-1.5.59-2.88.04-.21.05-.42.03-.62-.04-.21-.16-.44-.34-.69-.13-.25-.18-.5-.16-.75.04-.25.1-.54.19-.88.08-.33.12-.55.12-.66-.06-.58-.3-1.02-.72-1.31-.21-.17-.36-.58-.47-1.25s-.17-1.03-.19-1.09c-.15-.38-.23-1.04-.25-2-1.04 1.63-1.78 2.84-2.22 3.66-.15.27-.22.7-.22 1.28-.02.58.01.93.09 1.03 0 .02.02.06.06.12.04.08.06.14.06.16a.912.912 0 0 1 .09.35c-.02.04-.05.09-.09.16-.04.08-.1.16-.19.22-.25.19-1.3 1.35-3.16 3.5.81.56 1.25.91 1.31 1.03.15.23.21.49.19.78-.02.31-.11.58-.28.81-.17.21-.4.27-.69.19-.31-.1-.47-.27-.47-.5.02-.35-.26-.82-.84-1.41a2.5 2.5 0 0 0-.41.84c-.08.27-.05.46.09.56.1.06.12.15.06.25s-.16.19-.28.25l-.22.12H16.4c-.38.08-.63-.02-.75-.31-.06-.13-.01-.24.16-.34.17-.1.42-.21.75-.31.33-.13.56-.22.69-.28.31-.19.75-.6 1.31-1.25-.31-.27-.99-.84-2.03-1.72-1.04-.88-1.66-1.4-1.84-1.56-.25-.27-.36-.66-.34-1.16.04-.52.19-.91.44-1.16.08-.06.16-.15.22-.25s.1-.19.12-.25c.04-.08.07-.19.09-.31.02-.13.03-.22.03-.28v-.53c.02-.13.08-.29.19-.5l.25-.53.06-.32c-.13-.08-.43-.08-.91 0-.48.08-.84.2-1.09.34-.15.08-.22.23-.22.44-.02.21 0 .45.06.72.06.27.09.44.09.5-.02.31-.3.75-.84 1.31-.19.17-.33.49-.44.97-.13.48-.14.81-.03 1 .08.15.15.3.19.47.04.19.05.35.03.5-.04.17-.14.27-.28.31-.21.06-.47.51-.78 1.34-.33.85-.5 1.49-.5 1.91-.04 1.17-.2 1.8-.47 1.91-.19.06-.29.17-.31.31-.04.15.06.25.31.31.23.06.34.27.34.62H7.03c-.02.03-.05.04-.09.04-.06 0-.13-.02-.19-.06-.06-.04-.09-.14-.09-.28 0-.19.25-.38.75-.56.5-.21.91-.33 1.22-.38.19-.04.47-.44.84-1.19.4-.75.67-1.42.81-2 .06-.56.08-1.03.06-1.41-.02-.4-.07-.92-.16-1.56-.1-.67-.16-1.08-.16-1.25-.13-2.31-.08-3.64.12-3.97.17-.19.23-.43.19-.72-.04-.31-.22-.52-.53-.62-.27-.06-.57.08-.91.44-.34.38-.58.56-.7.56-.15 0-.28-.02-.41-.06a.923.923 0 0 1-.31-.19l-.09-.06c-.15.04-.41.04-.78 0a.796.796 0 0 1-.44-.19c-.15-.13-.24-.24-.28-.34L5.81 18c-.52-.27-.92-.49-1.19-.66a.83.83 0 0 1-.28-.28c-.06-.13-.09-.22-.09-.28v-.12c-.48-.21-.88-.43-1.19-.66-.17-.13-.3-.33-.41-.62-.1-.31-.23-.55-.38-.72-.15-.17-.23-.48-.25-.94-.03-.46-.04-.98-.02-1.56.02-.58.02-.97 0-1.16-.04-.63.01-1.28.16-1.97C2.32 8.35 2.6 8 3 8H0v-.19l.06-.5c.04-.31.1-.51.16-.59.06-.08.16-.25.28-.5.15-.23.31-.3.5-.22h3c.1-.15.23-.32.38-.53s.4-.5.75-.88c.35-.37.64-.57.87-.59.33-.04.84-.05 1.53-.03.69.04 1.18.15 1.47.31.19.1.31.27.38.5s.08.44.06.62l-.07.29c.31.19.57.53.78 1.03.06.35.08.61.06.78-.04.17-.13.44-.25.81-.14.38-.23.66-.27.85-.06.27-.23.8-.5 1.59-.27.81-.41 1.31-.41 1.5-.02.17.07.3.28.41.21.13.41.21.59.25l.31.03c-.08-.92-.06-1.6.06-2.06.04-.19.19-.43.44-.72.27-.29.58-.6.94-.94.35-.35.59-.6.72-.75.44-.5 1.42-1.2 2.94-2.09.15-.08.27-.16.38-.22.1-.08.18-.16.22-.22.06-.06.13-.15.19-.25.08-.13.14-.21.16-.25.04-.06.1-.19.19-.38.08-.19.15-.33.19-.44.38-.83 2.05-1.66 5.03-2.47 1.58-.44 3.06.03 4.44 1.41.29.29.54.89.75 1.78.21.9.44 1.48.69 1.75.35.38.74.95 1.16 1.72.44.79.78 1.48 1.03 2.06.15.4.52.9 1.12 1.5s.97 1.02 1.09 1.25c.2.36.31 1.82.3 4.38zm-12.28 1c-.1.15-.18.43-.22.84-.06.44-.15.71-.25.81-.06.06-.11.13-.16.19-.04.08-.07.18-.09.28-.04.1-.07.19-.09.25-.02.06-.04.16-.06.28-.02.15-.04.25-.06.31-.04.25-.29.54-.75.88-.48.35-.92.61-1.31.78-.08.02-.15.05-.19.09a.34.34 0 0 0-.12.12c-.02.06-.03.1-.03.12-.02.04-.02.09 0 .16.04.06.07.1.09.12l.09.19c.06.08.1.14.12.16.27.42 1.14 1.12 2.59 2.12.23-.35.49-.81.78-1.38.31-.58.56-1.07.75-1.47l.28-.59c-.15-1.17-.24-1.93-.28-2.28 0-.13-.01-.51-.03-1.16a69 69 0 0 0-.06-1.56c-.5.29-.84.53-1 .74z"/></svg>