<svg id="Layer_1" xmlns="http://www.w3.org/2000/svg" viewBox="0 0 32 32"><style>.st0{fill:#73b08f}.st1{fill:#c5e4d3}.st2{fill:#76c39b}.st3,.st4{stroke:#000;stroke-width:1.122}.st4{stroke-width:.3}</style><path class="st0" d="M24.33 15.34l-1.95-3.92.62 2.62 1.33 1.3z"/><path class="st1" d="M22.05 10.04l1.5 6.35-4.83-5.11-7.04-6.57L9.88 0l12.17 10.04z"/><path class="st2" d="M19.1 11.44l-6.33-3.03L9.32 4.7l-.45-2.45 10.23 9.19z"/><path class="st3" d="M6.84 10.75l-.56-.06-1.95-.72 3.99 3.66 1.05.81 4.18 1.39-6.71-5.08z"/><path class="st2" d="M23.22 16.4l-.08 3.24-.31-.53-1.81-.12-4.18-2.4.96-1.68 5.42 1.49z"/><path class="st1" d="M6.22 12.83l5.2 3.97 5.4 1.8 4.16.38-4.14-2.4-10.62-3.75z"/><path class="st2" d="M8.74 15.99l3.61 2 4.2.42-5.08-1.58-.82-.51-1.91-.33z"/><path class="st0" d="M16.77 18.33l-5.91-.52 3.04 1.17 2 .27.87-.92z"/><path class="st2" d="M15.43 19.25l-.51.07-2.37.34 1.16-.79 1.72.38zm3.79.51l-.12.21-8.65 5.01-1.71 2.26.61-2.43 1.88-2.58 5.38-3.63 2.61 1.16z"/><path d="M9.76 22.23l-1.52 2v-.87l1.52-1.13z"/><path class="st1" d="M22.31 20.11l-5.78 3.92-.48-.82-2 4.23.45.62.34 3.92-2.43-4.49 1.98-4.85 4.82-2.99 3.1.46z"/><path d="M14.39 22.56l-3.87 2.09-.11 2.88 1.19 3.87v-1.98l2.79-6.86z"/><path class="st0" d="M9.59 28.09l.06.2.51 2.14-.68-.42.11-1.92zm7.04-4.33l-.52-.64-2.17 4.1 3.45 4.51-.85-2.01.09-5.96z"/><path class="st2" d="M17.04 23.51l-.45.24-.03 4.91.85 1.78 1.58-.59-.06-1.18-1.72-1.69-.17-3.47z"/><path d="M24.83 20.05l-2.62.73-2.85 2.43-1.55-.06 4.49-3.02 2.53-.08z"/><path class="st0" d="M23.75 20.37l-.82-1.51-7.4-.58 3.32 1.38 4.9.71zm-4.31 2.74l.37.87.79.57h.14l-.06.92-2.43 1.01-.82-1.88-.23-1.1.73-.6 1.51.21z"/><path d="M20.73 27.98l-1.47-.65-.56 1.16.2.28-.03 1.24 1.07 1.21-.17-2.29.25-.11.85.82-.39-.93-.9-.48.2-.34.96.42-.01-.33zm.37-4.82l-.56 1.35.11 1.16 1.16 1.44-.14-2.31.17-.11.9.79-.37-.87-1.02-.54.17-.28 1.04.45-.03-.39-1.43-.69z"/><path class="st1" d="M26.32 17.17l-3.13-.73v2.93l.37.65 2.77.03 2.62.9-.08-.37-1.61-.93-3.22-1.27 1.83-.03-1.78-.82 2.23-.36z"/><path class="st0" d="M29.97 19.86l-1.18-1.92-2.71-.82-2.14.4 1.69.85-1.58.06 2.96 1.27 1.69.82 1.27-.66z"/><path d="M28.43 22.14l.45-.68-.34-.87 1.41-.79.03 1.61-.85.76-.7-.03z"/><path class="st4" d="M29.56 19.62l-.97-.45-.52.45"/><path d="M23.94 16.67l-5.97-1.52L6.48 8.54 2 2.39l17.23 9.14 4.71 5.14z"/><path class="st0" d="M17.7 14.97v.18l-.77 1.44-4.03-1.32-7.49-5.62-2.92-4.18 3.34 2 .51.79 11.36 6.71z"/></svg>