<svg id="Layer_1" xmlns="http://www.w3.org/2000/svg" xmlns:xlink="http://www.w3.org/1999/xlink" viewBox="0 0 32 32"><style>.st0{clip-path:url(#SVGID_2_)}.st1{fill:url(#path3462_1_)}.st2{clip-path:url(#SVGID_4_)}.st3{fill:#777bb3}.st4{clip-path:url(#SVGID_6_)}.st5{fill:#fff}</style><g id="g3438" transform="matrix(1.25 0 0 -1.25 -4.4 394.3)"><g id="g3440"><defs><path id="SVGID_1_" d="M3.52 302.63c0-3.72 5.73-6.73 12.8-6.73s12.8 3.01 12.8 6.73-5.73 6.73-12.8 6.73-12.8-3.01-12.8-6.73"/></defs><clipPath id="SVGID_2_"><use xlink:href="#SVGID_1_" overflow="visible"/></clipPath><g id="g3442" class="st0"><g id="g3448"><g id="g3450"><radialGradient id="path3462_1_" cx="-227.537" cy="-14.404" r=".046" gradientTransform="matrix(453.825 0 0 -453.825 103273.195 -6229.716)" gradientUnits="userSpaceOnUse"><stop offset="0" stop-color="#aeb2d5"/><stop offset=".3" stop-color="#aeb2d5"/><stop offset=".75" stop-color="#484c89"/><stop offset="1" stop-color="#484c89"/></radialGradient><path id="path3462" class="st1" d="M3.52 302.63c0-3.72 5.73-6.73 12.8-6.73s12.8 3.01 12.8 6.73-5.73 6.73-12.8 6.73-12.8-3.01-12.8-6.73"/></g></g></g></g><g id="g3464"><defs><path id="SVGID_3_" d="M-.34 293.26h33.32V312H-.34z"/></defs><clipPath id="SVGID_4_"><use xlink:href="#SVGID_3_" overflow="visible"/></clipPath><g id="g3466" class="st2"><g id="g3472" transform="translate(288 27.36)"><path id="path3474" class="st3" d="M-271.68 269.04c6.79 0 12.3 2.79 12.3 6.23 0 3.44-5.51 6.23-12.3 6.23-6.79 0-12.3-2.79-12.3-6.23 0-3.44 5.51-6.23 12.3-6.23"/></g></g></g><g id="g3476"><defs><path id="SVGID_5_" d="M-.34 293.26h33.32V312H-.34z"/></defs><clipPath id="SVGID_6_"><use xlink:href="#SVGID_5_" overflow="visible"/></clipPath><g id="g3478" class="st4"><g id="g3484" transform="translate(161.73 145.31)"><path id="path3486" d="M-151.25 156.55c.56 0 .98.1 1.24.31.26.2.44.55.54 1.03.09.45.05.77-.1.94-.16.17-.5.26-1.01.26h-.89l-.49-2.55h.71zm-2.92-3.14a.16.16 0 0 0-.11.05c-.03.03-.04.07-.03.11l1.31 6.75c.01.07.07.11.14.11h2.83c.89 0 1.55-.24 1.96-.72.42-.48.55-1.15.38-1.99a3.19 3.19 0 0 0-.34-.94c-.16-.28-.37-.55-.63-.78-.31-.29-.65-.49-1.03-.62-.37-.12-.85-.18-1.41-.18h-1.14l-.33-1.68c-.01-.07-.07-.11-.14-.11h-1.46z"/></g><g id="g3488" transform="translate(159.22 197.31)"><path id="path3490" class="st5" d="M-148.86 106.96h.78c.62 0 .84-.14.91-.22.12-.13.14-.42.07-.82-.09-.45-.25-.77-.48-.95-.24-.18-.63-.28-1.15-.28h-.56l.43 2.27zm1.33 1.62h-2.83a.27.27 0 0 1-.27-.22l-1.31-6.75c-.02-.08.01-.17.06-.23.05-.06.13-.1.21-.1h1.47c.13 0 .25.09.27.22l.31 1.57h1.03c.58 0 1.07.06 1.46.19.4.13.76.35 1.08.65.27.25.49.52.65.82.17.3.29.63.35.99.17.88.03 1.59-.42 2.1-.43.5-1.13.76-2.06.76m-2.11-4.17h.89c.59 0 1.03.11 1.32.33.29.22.49.6.59 1.12.1.5.05.86-.13 1.06-.19.21-.56.31-1.12.31h-1.01l-.54-2.82m2.11 3.89c.85 0 1.47-.22 1.86-.67.39-.45.51-1.07.35-1.87-.06-.33-.17-.63-.32-.9a3 3 0 0 0-.6-.75 2.68 2.68 0 0 0-.98-.59c-.36-.12-.82-.18-1.37-.18h-1.26l-.35-1.79h-1.47l1.31 6.75h2.83"/></g><g id="g3492" transform="translate(311.58 116.31)"><path id="path3494" d="M-294.17 184.21a.16.16 0 0 0-.11.05c-.03.03-.04.07-.03.11l.58 2.98c.06.28.04.49-.04.57-.05.05-.2.14-.63.14h-1.05l-.73-3.75c-.01-.07-.07-.11-.14-.11h-1.46a.16.16 0 0 0-.11.05c-.03.03-.04.07-.03.11l1.31 6.75c.01.07.07.11.14.11h1.46c.04 0 .08-.02.11-.05.03-.03.04-.07.03-.11l-.32-1.63h1.13c.86 0 1.44-.15 1.78-.46.35-.32.45-.83.32-1.51l-.61-3.14c-.01-.07-.07-.11-.14-.11h-1.46z"/></g><g id="g3496" transform="translate(293.66 271.06)"><path id="path3498" class="st5" d="M-277.08 36.62h-1.46a.27.27 0 0 1-.27-.22l-1.31-6.75c-.02-.08.01-.17.06-.23.05-.06.13-.1.21-.1h1.46c.13 0 .25.09.27.22l.71 3.64h.94c.43 0 .52-.09.53-.1.03-.03.06-.16 0-.45l-.58-2.98c-.02-.08.01-.17.06-.23.05-.06.13-.1.21-.1h1.48c.13 0 .25.09.27.22l.61 3.14c.14.74.02 1.29-.36 1.64-.37.34-.98.5-1.88.5h-.96l.28 1.46c.02.08-.01.17-.06.23a.26.26 0 0 1-.21.11m0-.28l-.35-1.79h1.3c.82 0 1.38-.14 1.69-.43.31-.29.4-.75.28-1.39l-.61-3.14h-1.48l.58 2.98c.07.34.04.57-.07.69-.11.12-.36.19-.73.19h-1.17l-.75-3.86h-1.46l1.31 6.75h1.46"/></g><g id="g3500" transform="translate(409.55 145.31)"><path id="path3502" d="M-387.61 156.55c.56 0 .98.1 1.24.31.26.2.44.55.54 1.03.09.45.05.77-.1.94-.16.17-.5.26-1.01.26h-.89l-.49-2.55h.71zm-2.91-3.14a.16.16 0 0 0-.11.05c-.03.03-.04.07-.03.11l1.31 6.75c.01.07.07.11.14.11h2.83c.89 0 1.55-.24 1.96-.72.42-.48.55-1.15.38-1.99a3.19 3.19 0 0 0-.34-.94c-.16-.28-.37-.55-.63-.78-.31-.29-.65-.49-1.03-.62-.37-.12-.85-.18-1.41-.18h-1.14l-.33-1.68c-.01-.07-.07-.11-.14-.11h-1.46z"/></g><g id="g3504" transform="translate(407.04 197.31)"><path id="path3506" class="st5" d="M-385.21 106.96h.78c.62 0 .84-.14.91-.22.12-.13.14-.42.07-.82-.09-.45-.25-.77-.48-.95-.24-.18-.63-.28-1.15-.28h-.56l.43 2.27zm1.33 1.62h-2.83a.27.27 0 0 1-.27-.22l-1.31-6.75c-.02-.08.01-.17.06-.23.05-.06.13-.1.21-.1h1.47c.13 0 .25.09.27.22l.3 1.57h1.03c.58 0 1.07.06 1.46.19.4.13.76.35 1.08.65.27.24.49.52.65.82.17.3.29.63.36.99.17.88.03 1.59-.42 2.1-.43.5-1.13.76-2.06.76m-2.11-4.17h.89c.59 0 1.03.11 1.32.33.29.22.49.6.59 1.12.1.5.05.86-.13 1.06-.19.21-.56.31-1.12.31h-1.01l-.54-2.82m2.11 3.89c.85 0 1.47-.22 1.86-.67.39-.45.51-1.07.35-1.87-.06-.33-.17-.63-.32-.9a3 3 0 0 0-.6-.75 2.68 2.68 0 0 0-.98-.59c-.36-.12-.82-.18-1.37-.18h-1.26l-.35-1.79h-1.47l1.31 6.75h2.83"/></g></g></g></g></svg>