<svg xmlns="http://www.w3.org/2000/svg" xmlns:xlink="http://www.w3.org/1999/xlink" viewBox="0 0 32 32" enable-background="new 0 0 32 32"><style type="text/css">.st0{clip-path:url(#SVGID_2_);} .st1{fill:url(#path3462_1_);} .st2{clip-path:url(#SVGID_4_);} .st3{fill:#777BB3;} .st4{clip-path:url(#SVGID_6_);} .st5{fill:#FFFFFF;}</style><g id="g3438"><g transform="matrix(1.25 0 0 -1.25 -4.4 394.3)" id="g3440"><defs><path id="SVGID_1_" d="M3.52 302.63c0-3.72 5.73-6.73 12.8-6.73s12.8 3.01 12.8 6.73-5.73 6.73-12.8 6.73-12.8-3.01-12.8-6.73"/></defs><clipPath id="SVGID_2_"><use xlink:href="#SVGID_1_" overflow="visible"/></clipPath><g id="g3450" class="st0"><radialGradient id="path3462_1_" cx="-227.537" cy="-14.404" r=".046" gradientTransform="matrix(453.825 0 0 -453.825 103273.195 -6229.716)" gradientUnits="userSpaceOnUse"><stop offset="0" stop-color="#AEB2D5"/><stop offset=".3" stop-color="#AEB2D5"/><stop offset=".75" stop-color="#484C89"/><stop offset="1" stop-color="#484C89"/></radialGradient><path id="path3462" class="st1" d="M3.52 302.63c0-3.72 5.73-6.73 12.8-6.73s12.8 3.01 12.8 6.73-5.73 6.73-12.8 6.73-12.8-3.01-12.8-6.73"/></g></g><g transform="matrix(1.25 0 0 -1.25 -4.4 394.3)" id="g3464"><defs><path id="SVGID_3_" d="M-.34 293.26h33.32V312H-.34z"/></defs><clipPath id="SVGID_4_"><use xlink:href="#SVGID_3_" overflow="visible"/></clipPath><path id="path3474" class="st3" d="M16.32 296.4c6.79 0 12.3 2.79 12.3 6.23 0 3.44-5.51 6.23-12.3 6.23-6.79 0-12.3-2.79-12.3-6.23 0-3.44 5.51-6.23 12.3-6.23"/></g><g transform="matrix(1.25 0 0 -1.25 -4.4 394.3)" id="g3476"><defs><path id="SVGID_5_" d="M-.34 293.26h33.32V312H-.34z"/></defs><clipPath id="SVGID_6_"><use xlink:href="#SVGID_5_" overflow="visible"/></clipPath><g id="g3478" class="st4"><path id="path3486" d="M10.48 301.86c.56 0 .98.1 1.24.31.26.2.44.55.54 1.03.09.45.05.77-.1.94-.16.17-.5.26-1.01.26h-.89l-.49-2.55h.71zM-315.9 8.1c-.04 0-.08.02-.11.05-.03.03-.04.07-.03.11l1.31 6.75c.01.07.07.11.14.11h2.83c.89 0 1.55-.24 1.96-.72.42-.48.55-1.15.38-1.99-.07-.34-.18-.66-.34-.94-.16-.28-.37-.55-.63-.78-.31-.29-.65-.49-1.03-.62-.37-.12-.85-.18-1.41-.18h-1.14l-.33-1.68c-.01-.07-.07-.11-.14-.11h-1.46z"/><path id="path3490" class="st5" d="M10.36 304.27h.78c.62 0 .84-.14.91-.22.12-.13.14-.42.07-.82-.09-.45-.25-.77-.48-.95-.24-.18-.63-.28-1.15-.28h-.56l.43 2.27zM-306.75-88.73h-2.83c-.13 0-.25-.09-.27-.22l-1.31-6.75c-.02-.08.01-.17.06-.23.05-.06.13-.1.21-.1h1.47c.13 0 .25.09.27.22l.31 1.57h1.03c.58 0 1.07.06 1.46.19.4.13.76.35 1.08.65.27.25.49.52.65.82.17.3.29.63.35.99.17.88.03 1.59-.42 2.1-.43.5-1.13.76-2.06.76m-2.11-4.17h.89c.59 0 1.03.11 1.32.33.29.22.49.6.59 1.12.1.5.05.86-.13 1.06-.19.21-.56.31-1.12.31h-1.01l-.54-2.82m2.11 3.89c.85 0 1.47-.22 1.86-.67.39-.45.51-1.07.35-1.87-.06-.33-.17-.63-.32-.9s-.35-.52-.6-.75c-.29-.27-.62-.47-.98-.59s-.82-.18-1.37-.18h-1.26l-.35-1.79h-1.47l1.31 6.75h2.83"/><path id="path3494" d="M17.41 300.52c-.04 0-.08.02-.11.05-.03.03-.04.07-.03.11l.58 2.98c.06.28.04.49-.04.57-.05.05-.2.14-.63.14h-1.05l-.73-3.75c-.01-.07-.07-.11-.14-.11H13.8c-.04 0-.08.02-.11.05-.03.03-.04.07-.03.11l1.31 6.75c.01.07.07.11.14.11h1.46c.04 0 .08-.02.11-.05.03-.03.04-.07.03-.11l-.32-1.63h1.13c.86 0 1.44-.15 1.78-.46.35-.32.45-.83.32-1.51l-.61-3.14c-.01-.07-.07-.11-.14-.11h-1.46z"/><path id="path3498" class="st5" d="M16.58 307.68h-1.46c-.13 0-.25-.09-.27-.22l-1.31-6.75c-.02-.08.01-.17.06-.23.05-.06.13-.1.21-.1h1.46c.13 0 .25.09.27.22l.71 3.64h.94c.43 0 .52-.09.53-.1.03-.03.06-.16 0-.45l-.58-2.98c-.02-.08.01-.17.06-.23.05-.06.13-.1.21-.1h1.48c.13 0 .25.09.27.22l.61 3.14c.14.74.02 1.29-.36 1.64-.37.34-.98.5-1.88.5h-.96l.28 1.46c.02.08-.01.17-.06.23-.05.07-.13.11-.21.11m0-.28l-.35-1.79h1.3c.82 0 1.38-.14 1.69-.43.31-.29.4-.75.28-1.39l-.61-3.14h-1.48l.58 2.98c.07.34.04.57-.07.69-.11.12-.36.19-.73.19h-1.17l-.75-3.86h-1.46l1.31 6.75h1.46"/><path id="path3502" d="M21.94 301.86c.56 0 .98.1 1.24.31.26.2.44.55.54 1.03.09.45.05.77-.1.94-.16.17-.5.26-1.01.26h-.89l-.49-2.55h.71zM-800.07 8.1c-.04 0-.08.02-.11.05-.03.03-.04.07-.03.11l1.31 6.75c.01.07.07.11.14.11h2.83c.89 0 1.55-.24 1.96-.72.42-.48.55-1.15.38-1.99-.07-.34-.18-.66-.34-.94-.16-.28-.37-.55-.63-.78-.31-.29-.65-.49-1.03-.62-.37-.12-.85-.18-1.41-.18h-1.14l-.33-1.68c-.01-.07-.07-.11-.14-.11h-1.46z"/><path id="path3506" class="st5" d="M21.83 304.27h.78c.62 0 .84-.14.91-.22.12-.13.14-.42.07-.82-.09-.45-.25-.77-.48-.95-.24-.18-.63-.28-1.15-.28h-.56l.43 2.27zM-790.92-88.73h-2.83c-.13 0-.25-.09-.27-.22l-1.31-6.75c-.02-.08.01-.17.06-.23.05-.06.13-.1.21-.1h1.47c.13 0 .25.09.27.22l.3 1.57h1.03c.58 0 1.07.06 1.46.19.4.13.76.35 1.08.65.27.24.49.52.65.82.17.3.29.63.36.99.17.88.03 1.59-.42 2.1-.43.5-1.13.76-2.06.76m-2.11-4.17h.89c.59 0 1.03.11 1.32.33.29.22.49.6.59 1.12.1.5.05.86-.13 1.06-.19.21-.56.31-1.12.31h-1.01l-.54-2.82m2.11 3.89c.85 0 1.47-.22 1.86-.67.39-.45.51-1.07.35-1.87-.06-.33-.17-.63-.32-.9s-.35-.52-.6-.75c-.29-.27-.62-.47-.98-.59s-.82-.18-1.37-.18h-1.26l-.35-1.79h-1.47l1.31 6.75h2.83"/></g></g></g></svg>