<svg id="Layer_1" data-name="Layer 1" xmlns="http://www.w3.org/2000/svg" viewBox="0 0 32 16.825"><defs><style>.cls-1{fill:none}.cls-2{clip-path:url(#clip-path)}.cls-3{fill:url(#radial-gradient)}.cls-4{clip-path:url(#clip-path-2)}.cls-5{fill:#777bb3}.cls-6,.cls-7{fill:#fff}.cls-6{stroke:#fff;stroke-miterlimit:10;stroke-width:.5px}</style><clipPath id="clip-path" transform="translate(0 -7.6)"><path class="cls-1" d="M0 16.012c0 4.65 7.162 8.413 16 8.413s16-3.763 16-8.413S24.837 7.6 16 7.6 0 11.363 0 16.012"/></clipPath><radialGradient id="radial-gradient" cx="-516.028" cy="426.736" r=".046" gradientTransform="matrix(567.2813 0 0 -567.2813 292742.38 242089.608)" gradientUnits="userSpaceOnUse"><stop offset="0" stop-color="#aeb2d5"/><stop offset=".3" stop-color="#aeb2d5"/><stop offset=".75" stop-color="#484c89"/><stop offset="1" stop-color="#484c89"/></radialGradient><clipPath id="clip-path-2" transform="translate(0 -7.6)"><path class="cls-1" d="M-4.825 4.3h41.65v23.425h-41.65z"/></clipPath></defs><title>php</title><g class="cls-2" id="g3440"><g id="g3442"><g id="g3448"><g id="g3450"><path id="path3462" class="cls-3" d="M0 16.012c0 4.65 7.162 8.413 16 8.413s16-3.763 16-8.413S24.837 7.6 16 7.6 0 11.363 0 16.012" transform="translate(0 -7.6)"/></g></g></g></g><g class="cls-4"><g id="g3466"><g id="g3472"><path id="path3474" class="cls-5" d="M16 23.8c8.488 0 15.375-3.487 15.375-7.787S24.488 8.225 16 8.225.625 11.713.625 16.012 7.513 23.8 16 23.8" transform="translate(0 -7.6)"/></g></g></g><path class="cls-6" d="M27.125 12.887a3.25 3.25 0 0 0-2.575-.95h-3.538a.337.337 0 0 0-.337.276l-.308 1.588a1.71 1.71 0 0 0-.504-1.226 3.416 3.416 0 0 0-2.35-.625h-1.2l.35-1.825a.34.34 0 0 0-.075-.287.326.326 0 0 0-.263-.138H14.5a.337.337 0 0 0-.338.275l-.81 4.18a2.434 2.434 0 0 0-.565-1.267 3.25 3.25 0 0 0-2.575-.95H6.675a.337.337 0 0 0-.338.275L4.7 20.65a.34.34 0 0 0 .075.287.352.352 0 0 0 .263.125h1.837a.337.337 0 0 0 .338-.275l.387-1.962h1.287a5.877 5.877 0 0 0 1.825-.237 3.585 3.585 0 0 0 1.35-.813 3.952 3.952 0 0 0 .774-.967l-.311 1.604a.34.34 0 0 0 .075.288.352.352 0 0 0 .263.125h1.824a.337.337 0 0 0 .338-.275l.887-4.55h1.175c.538 0 .65.113.663.125.037.037.075.2 0 .563l-.725 3.724a.34.34 0 0 0 .075.288.352.352 0 0 0 .263.125h1.85a.351.351 0 0 0 .192-.067l-.367 1.892a.34.34 0 0 0 .075.287.352.352 0 0 0 .262.125h1.837a.337.337 0 0 0 .338-.275l.375-1.962h1.287a5.877 5.877 0 0 0 1.825-.237 3.585 3.585 0 0 0 1.35-.813 3.722 3.722 0 0 0 .813-1.025 4.063 4.063 0 0 0 .45-1.238 2.95 2.95 0 0 0-.525-2.625zM10.75 15.262a1.943 1.943 0 0 1-.6 1.188 2.429 2.429 0 0 1-1.438.35h-.7l.538-2.838h.975c.775 0 1.05.176 1.137.276a1.314 1.314 0 0 1 .088 1.024zm14.338 0a1.943 1.943 0 0 1-.6 1.188 2.429 2.429 0 0 1-1.438.35h-.7l.537-2.837h.975c.776 0 1.05.175 1.138.275a1.314 1.314 0 0 1 .087 1.024z" transform="translate(0 -7.6)"/><g id="g3484"><path id="path3486" d="M8.7 16.975a2.48 2.48 0 0 0 1.55-.388 2.113 2.113 0 0 0 .675-1.287 1.4 1.4 0 0 0-.125-1.175 1.782 1.782 0 0 0-1.263-.325H8.425l-.613 3.188H8.7zM5.05 20.9a.2.2 0 0 1-.138-.063.141.141 0 0 1-.037-.137l1.637-8.438a.165.165 0 0 1 .176-.137h3.537a3.065 3.065 0 0 1 2.45.9 2.776 2.776 0 0 1 .475 2.487 3.987 3.987 0 0 1-.425 1.175 3.86 3.86 0 0 1-.787.975 3.517 3.517 0 0 1-1.288.776 5.869 5.869 0 0 1-1.762.225H7.463l-.413 2.1a.165.165 0 0 1-.175.137H5.05z" transform="translate(0 -7.6)"/></g><g id="g3488"><path id="path3490" class="cls-7" d="M8.55 13.963h.975c.775 0 1.05.175 1.137.275a1.314 1.314 0 0 1 .088 1.025 1.943 1.943 0 0 1-.6 1.187 2.429 2.429 0 0 1-1.438.35h-.7zm1.663-2.025H6.675a.337.337 0 0 0-.338.274L4.7 20.65a.34.34 0 0 0 .075.287.352.352 0 0 0 .263.125h1.837a.337.337 0 0 0 .338-.275l.387-1.962h1.287a5.878 5.878 0 0 0 1.825-.237 3.586 3.586 0 0 0 1.35-.813 3.916 3.916 0 0 0 .813-1.025 3.742 3.742 0 0 0 .437-1.238 2.95 2.95 0 0 0-.525-2.625 3.25 3.25 0 0 0-2.575-.95M7.575 17.15h1.112a2.719 2.719 0 0 0 1.65-.412 2.218 2.218 0 0 0 .738-1.4 1.538 1.538 0 0 0-.162-1.326 1.874 1.874 0 0 0-1.4-.387H8.25l-.675 3.525m2.638-4.862a2.918 2.918 0 0 1 2.325.837 2.614 2.614 0 0 1 .437 2.337 3.647 3.647 0 0 1-.4 1.125 3.751 3.751 0 0 1-.75.938 3.35 3.35 0 0 1-1.225.738 5.52 5.52 0 0 1-1.712.224H7.313l-.438 2.238H5.037l1.638-8.438h3.538" transform="translate(0 -7.6)"/></g><g id="g3492"><path id="path3494" d="M17.363 18.65a.2.2 0 0 1-.138-.063.141.141 0 0 1-.037-.137l.725-3.725c.075-.35.05-.613-.05-.713-.063-.062-.25-.175-.788-.175h-1.313l-.912 4.688a.165.165 0 0 1-.175.138H12.85a.2.2 0 0 1-.138-.063.141.141 0 0 1-.037-.138l1.637-8.437a.165.165 0 0 1 .176-.138h1.825a.2.2 0 0 1 .137.063.141.141 0 0 1 .037.138l-.4 2.037H17.5a3.281 3.281 0 0 1 2.225.575 1.928 1.928 0 0 1 .4 1.887l-.762 3.925a.165.165 0 0 1-.175.138z" transform="translate(0 -7.6)"/></g><g id="g3496"><path id="path3498" class="cls-7" d="M16.325 9.7H14.5a.337.337 0 0 0-.338.275l-1.637 8.438a.34.34 0 0 0 .075.287.352.352 0 0 0 .263.125h1.824a.337.337 0 0 0 .338-.275l.887-4.55h1.175c.538 0 .65.113.663.125.037.037.075.2 0 .563l-.725 3.724a.34.34 0 0 0 .075.288.352.352 0 0 0 .263.125h1.85a.337.337 0 0 0 .337-.275l.762-3.925a2.1 2.1 0 0 0-.45-2.05 3.416 3.416 0 0 0-2.35-.625h-1.2l.35-1.825a.34.34 0 0 0-.074-.287.326.326 0 0 0-.263-.138m0 .35l-.438 2.237h1.625a3.113 3.113 0 0 1 2.113.538 1.795 1.795 0 0 1 .35 1.737l-.762 3.925h-1.85l.725-3.725A1 1 0 0 0 18 13.9a1.289 1.289 0 0 0-.912-.237h-1.463l-.938 4.824h-1.825L14.5 10.05h1.825" transform="translate(0 -7.6)"/></g><g id="g3500"><path id="path3502" d="M23.025 16.975a2.48 2.48 0 0 0 1.55-.388 2.113 2.113 0 0 0 .675-1.287 1.4 1.4 0 0 0-.125-1.175 1.782 1.782 0 0 0-1.262-.325H22.75l-.613 3.188h.888zM19.388 20.9a.2.2 0 0 1-.138-.063.141.141 0 0 1-.037-.137l1.637-8.438a.165.165 0 0 1 .175-.137h3.538a3.065 3.065 0 0 1 2.45.9 2.776 2.776 0 0 1 .475 2.487 3.987 3.987 0 0 1-.425 1.175 3.86 3.86 0 0 1-.788.975 3.517 3.517 0 0 1-1.287.776 5.869 5.869 0 0 1-1.763.225H21.8l-.412 2.1a.165.165 0 0 1-.176.137h-1.825z" transform="translate(0 -7.6)"/></g><g id="g3504"><path id="path3506" class="cls-7" d="M22.887 13.963h.975c.776 0 1.05.175 1.138.275a1.314 1.314 0 0 1 .087 1.025 1.943 1.943 0 0 1-.6 1.187 2.428 2.428 0 0 1-1.437.35h-.7zm1.663-2.025h-3.538a.337.337 0 0 0-.337.274l-1.637 8.438a.34.34 0 0 0 .075.287.352.352 0 0 0 .262.125h1.837a.337.337 0 0 0 .338-.275l.375-1.962h1.287a5.878 5.878 0 0 0 1.825-.237 3.585 3.585 0 0 0 1.35-.813 3.723 3.723 0 0 0 .813-1.025 4.063 4.063 0 0 0 .45-1.238 2.95 2.95 0 0 0-.525-2.625 3.25 3.25 0 0 0-2.575-.95m-2.637 5.213h1.112a2.719 2.719 0 0 0 1.65-.412 2.218 2.218 0 0 0 .737-1.4 1.538 1.538 0 0 0-.162-1.326 1.874 1.874 0 0 0-1.4-.387h-1.263l-.675 3.525m2.638-4.862a2.918 2.918 0 0 1 2.325.837 2.614 2.614 0 0 1 .438 2.337 3.647 3.647 0 0 1-.4 1.126 3.751 3.751 0 0 1-.75.937 3.35 3.35 0 0 1-1.225.738 5.52 5.52 0 0 1-1.713.224H21.65l-.438 2.238h-1.837l1.637-8.438h3.538" transform="translate(0 -7.6)"/></g></svg>