<svg id="Layer_1" xmlns="http://www.w3.org/2000/svg" viewBox="0 0 32 32"><style>.st0{fill:#92d13d}.st1{fill:#49691f}</style><path class="st0" d="M7.76 1.69l.82-.82c1.25-1.24 3.3-1.16 4.44.17l11.31 13.18c.99 1.15.98 2.85-.03 3.98L13.03 30.98a3.041 3.041 0 0 1-4.42.13l-.83-.8a3.051 3.051 0 0 1-.18-4.09l6.75-8.09c.92-1.11.94-2.7.04-3.84L7.54 5.73c-.98-1.2-.87-2.94.22-4.04z"/><path class="st1" d="M14.35 18.13L7.6 26.22c-1 1.2-.92 2.98.18 4.09l.82.82a3.041 3.041 0 0 0 4.42-.13l2.44-2.77c.92-1.82 1.44-3.88 1.44-6.05 0-2.69-.79-5.18-2.14-7.28.5 1.03.36 2.31-.41 3.23z"/></svg>