<svg id="Layer_1" xmlns="http://www.w3.org/2000/svg" viewBox="0 0 31 32"><style>.st0{fill:#336791}.st1{fill:#fff}.st2{fill:none;stroke:#fff;stroke-width:3;stroke-linecap:round;stroke-linejoin:round}</style><g id="Layer_x0020_3"><path d="M23.17 23.32c.2-1.69.14-1.94 1.4-1.67l.32.03c.97.04 2.24-.16 2.98-.5 1.6-.74 2.55-1.99.97-1.66-3.61.74-3.85-.48-3.85-.48 3.81-5.65 5.4-12.82 4.02-14.57C25.27-.32 18.78 1.94 18.67 2l-.03.01c-.71-.15-1.51-.24-2.41-.25-1.63-.03-2.87.43-3.81 1.14 0 0-11.57-4.77-11.03 5.99.11 2.29 3.28 17.32 7.06 12.78 1.38-1.66 2.71-3.06 2.71-3.06.66.44 1.46.66 2.29.58l.06-.05c-.02.21-.01.41.03.65-.97 1.09-.69 1.28-2.63 1.68-1.97.41-.81 1.13-.06 1.32.92.23 3.03.55 4.46-1.45l-.06.23c.38.31.36 2.19.41 3.54.05 1.35.14 2.61.42 3.35.28.74.6 2.66 3.16 2.11 2.15-.46 3.78-1.12 3.93-7.25"/><path d="M18.42 32c-.8 0-1.66-.21-2.38-.89-.69-.65-.97-1.49-1.13-1.99-.03-.08-.05-.15-.07-.2-.33-.88-.44-2.14-.5-3.76-.01-.24-.02-.5-.02-.76 0-.16-.01-.35-.02-.54-1.1.48-2.39.57-3.76.22-.38-.1-.76-.26-1.08-.45-.25-.16-.43-.32-.57-.49-1.1.91-2.14.78-2.71.59-1.02-.34-1.93-1.29-2.79-2.91-.6-1.14-1.18-2.62-1.73-4.4-.95-3.1-1.55-6.38-1.6-7.45-.17-3.4.74-5.82 2.72-7.22C4.41.6 6.64.24 9.41.7c1.18.19 2.2.5 2.83.71C13.39.73 14.73.4 16.25.42c.81.01 1.58.08 2.3.21.77-.24 2.25-.57 3.94-.55 3.16.04 5.78 1.27 7.57 3.56.68.87 1.26 2.78.17 6.99-.67 2.6-1.84 5.36-3.27 7.79.38-.01.9-.07 1.6-.21.4-.08.74-.1 1.04-.06.63.09 1.12.49 1.3 1.05.54 1.64-1.76 2.86-2.48 3.19-.91.42-2.39.68-3.61.62h-.06l-.19-.01c-.01.06-.01.11-.02.17l-.03.25c-.08 3.12-.53 5.11-1.46 6.42-.98 1.39-2.33 1.78-3.52 2.04-.33.07-.72.12-1.11.12zM16.1 20.51c.76.61.83 1.73.89 3.81.01.25.01.5.02.72.03.68.09 2.28.34 2.94.04.1.07.2.1.3.28.85.39 1.2 1.52.96.99-.21 1.5-.4 1.89-.96.58-.83.91-2.52.97-5.01l1.34.03-1.33-.16c.01-.11.02-.21.04-.31.12-1 .21-1.79.92-2.3.45-.32.96-.36 1.39-.32-.36-.37-.48-.75-.51-.92l-.11-.55.31-.47c1.66-2.46 3.03-5.49 3.76-8.31.82-3.16.46-4.5.32-4.69-2.98-3.81-8.16-2.25-8.73-2.07l-.1.05-.5.09-.26-.05c-.65-.14-1.38-.21-2.15-.22-1.21-.02-2.18.26-2.98.87l-.61.46-.71-.29c-1.39-.57-5.46-1.71-7.59-.2-1.18.86-1.72 2.51-1.6 4.92.04.83.61 3.96 1.54 6.98 1.28 4.14 2.42 5.29 2.74 5.38.04-.02.18-.09.41-.36 1.39-1.68 2.72-3.07 2.77-3.13l.78-.82.94.62c.32.21.68.34 1.04.37l2.23-1.9-.32 3.3a.91.91 0 0 0 .02.31l.1.63-.42.47-.01.01 1.04.48.51-.66z"/><path class="st0" d="M28.84 19.52c-3.61.74-3.85-.48-3.85-.48 3.81-5.65 5.4-12.82 4.03-14.57C25.27-.32 18.78 1.94 18.68 2l-.03.01c-.71-.15-1.51-.24-2.41-.25-1.63-.03-2.87.43-3.81 1.14 0 0-11.57-4.77-11.03 5.99.11 2.29 3.28 17.32 7.06 12.78 1.38-1.66 2.71-3.06 2.71-3.06.66.44 1.46.66 2.29.58l.06-.05c-.02.21-.01.41.03.65-.97 1.09-.69 1.28-2.63 1.68-1.97.41-.81 1.13-.06 1.32.92.23 3.03.55 4.46-1.45l-.06.23c.38.31.65 1.99.6 3.51-.04 1.52-.07 2.57.23 3.39.3.82.6 2.66 3.16 2.11 2.14-.46 3.24-1.64 3.4-3.62.11-1.41.36-1.2.37-2.46l.2-.6c.23-1.91.04-2.52 1.35-2.24l.32.03c.97.04 2.24-.16 2.98-.5 1.6-.76 2.55-2 .97-1.67z"/><path class="st1" d="M18.54 31.17c-2.15 0-2.83-1.7-3.11-2.4-.41-1.02-.5-4.84-.4-8.17a.44.44 0 0 1 .46-.43c.25.01.44.21.43.46-.1 3.71.04 7.07.34 7.81.46 1.15 1.16 2.16 3.14 1.74 1.91-.41 2.59-1.1 2.9-2.94.24-1.41.72-5.42.78-6.21.02-.25.23-.43.48-.41.25.02.43.23.41.48-.06.83-.54 4.83-.79 6.3-.38 2.19-1.35 3.18-3.6 3.66-.37.07-.72.11-1.04.11zM6.99 22.93c-.21 0-.4-.04-.56-.09-1.4-.47-2.72-2.73-3.94-6.72C1.56 13.07.97 9.9.92 8.87c-.15-3.06.64-5.23 2.35-6.44 1.44-1.02 3.45-1.33 5.98-.92 1.85.3 3.27.87 3.33.9.23.09.34.35.24.58-.09.23-.35.34-.58.24-.07-.03-5.47-2.19-8.45-.08-1.45 1.03-2.11 2.94-1.98 5.68.04.87.59 3.95 1.53 7.02 1.08 3.55 2.31 5.78 3.37 6.14.16.05.66.22 1.37-.64 1.37-1.65 2.64-2.97 2.65-2.99.17-.18.45-.18.63-.01.18.17.18.45.01.63-.01.01-1.25 1.31-2.61 2.94-.64.78-1.26 1.01-1.77 1.01zM24.97 19.44c-.09 0-.17-.02-.25-.08a.45.45 0 0 1-.12-.62c3.84-5.7 5.19-12.58 4.04-14.05-1.45-1.85-3.49-2.82-6.08-2.88-1.91-.04-3.44.45-3.7.53a.45.45 0 0 1-.63-.21.45.45 0 0 1 .18-.57c.17-.1 1.93-.67 4.03-.65 2.89.03 5.27 1.14 6.9 3.22.4.52.6 1.36.58 2.51-.02 1.05-.21 2.33-.57 3.71-.78 3.01-2.24 6.25-4.02 8.89-.08.14-.22.2-.36.2z"/><path class="st1" d="M25.16 22.09c-.66 0-1.26-.09-1.62-.31-.38-.23-.45-.53-.46-.7-.1-1.71.82-2.05 1.33-2.2-.06-.09-.15-.2-.24-.31-.29-.36-.68-.85-.98-1.58-.05-.11-.19-.38-.36-.68-.93-1.67-2.87-5.14-1.61-6.93.57-.82 1.71-1.15 3.38-.98-.22-.66-.78-1.88-1.8-3.09-1.19-1.41-3.3-3.1-6.59-3.15-1.67-.03-3.04.48-4.07 1.52-2.31 2.33-2.23 6.56-2.23 6.6.01.25-.19.45-.44.46a.46.46 0 0 1-.46-.43c0-.19-.09-4.65 2.48-7.25 1.21-1.22 2.8-1.82 4.72-1.79 3.59.06 5.9 1.88 7.21 3.4 1.42 1.66 2.12 3.49 2.18 4.1.05.49-.33.58-.37.59h-.16c-2.04-.33-2.82.11-3.11.53-.93 1.33.89 4.59 1.66 5.98.2.36.34.62.41.78.25.62.59 1.03.85 1.36.24.3.44.55.52.86.04.06.54.74 3.33.16.74-.15 1.18-.02 1.32.4.27.8-1.2 1.73-2.01 2.1-.73.34-1.88.56-2.88.56zM23.98 21c.11.09.57.23 1.48.19.82-.04 1.69-.22 2.2-.46.6-.28 1.02-.59 1.27-.82h-.02c-1.84.38-3.14.33-3.86-.15-.05-.03-.09-.06-.13-.09-.06.02-.12.04-.19.06-.41.11-.8.22-.75 1.27zM12.15 23.35c-.45 0-.93-.06-1.42-.18-.14-.04-1.39-.37-1.37-1.16.02-.73 1.05-.94 1.44-1.02 1.37-.28 1.46-.4 1.89-.94.13-.16.28-.36.5-.6.71-.8 1.39-.52 1.68-.4.45.19.83.64.98 1.18.14.49.07.96-.19 1.33-.85 1.18-2.07 1.79-3.51 1.79zm-1.81-1.3c.13.09.35.19.6.26 1.19.3 2.85.32 3.99-1.28.13-.19.09-.43.06-.56-.08-.27-.27-.52-.47-.6-.24-.1-.38-.16-.67.17-.2.22-.34.4-.46.56-.55.69-.8.93-2.41 1.26-.34.07-.53.14-.64.19zm3.18-2.31z"/><path class="st1" d="M13.46 20.17c-.22 0-.41-.16-.44-.38-.01-.06-.02-.12-.02-.18-1.05-.03-2.06-.48-2.83-1.29-.98-1.02-1.43-2.44-1.23-3.89.22-1.56.14-2.94.09-3.68-.01-.21-.02-.36-.02-.46 0-.14 0-.5 1.18-1.09.41-.21 1.25-.58 2.15-.67 1.51-.16 2.51.52 2.81 1.9.8 3.69.06 5.33-.47 6.52-.1.22-.19.43-.27.63l-.07.18c-.28.75-.52 1.41-.45 1.89a.45.45 0 0 1-.37.51c-.02.01-.04.01-.06.01zm-3.55-9.74c0 .07.01.17.02.28.05.77.13 2.21-.1 3.85-.16 1.18.19 2.33.99 3.15.62.65 1.44 1.01 2.28 1.01.1-.4.25-.81.42-1.26l.07-.18c.09-.23.19-.45.29-.69.51-1.14 1.15-2.56.42-5.97-.14-.66-.48-1.04-1.05-1.17-1.24-.28-2.97.65-3.34.98zm-.06.05z"/><path class="st1" d="M12.37 10.23c-.02.15.27.54.64.59.38.05.7-.25.72-.4.02-.15-.27-.31-.64-.36-.38-.05-.7.03-.72.17z"/><path class="st1" d="M13.09 10.98c-.03 0-.07 0-.1-.01-.24-.03-.47-.18-.64-.4-.06-.08-.15-.22-.13-.36.01-.05.03-.12.12-.19.15-.11.44-.15.77-.11.4.06.81.24.77.53-.04.23-.4.54-.79.54zm-.57-.72c.02.1.24.37.51.41.28.04.51-.18.55-.26-.03-.05-.2-.16-.51-.2-.31-.04-.51.02-.55.05z"/><g><path class="st1" d="M23.79 9.94c.02.15-.27.54-.64.59-.38.05-.7-.25-.72-.4-.02-.15.27-.31.64-.36.38-.06.7.02.72.17z"/><path class="st1" d="M23.07 10.6c-.37 0-.68-.3-.71-.47-.03-.22.33-.39.71-.44.37-.05.77.01.8.23.01.1-.06.25-.19.39-.09.09-.27.25-.51.28-.04.01-.07.01-.1.01zm.24-.78c-.07 0-.14 0-.22.02-.39.05-.59.21-.58.28.01.1.3.38.63.33a.8.8 0 0 0 .43-.24c.11-.12.16-.23.15-.27-.01-.04-.15-.12-.41-.12z"/></g><path class="st1" d="M24.34 18.36c-.09 0-.17-.02-.25-.08a.44.44 0 0 1-.12-.62c.87-1.3.71-2.64.56-3.93-.07-.55-.14-1.13-.12-1.68.02-.57.09-1.03.16-1.48.08-.53.16-1.03.13-1.63-.01-.25.18-.46.42-.47.25-.01.46.18.47.42.04.69-.05 1.26-.14 1.81-.07.42-.13.86-.15 1.37-.02.48.05 1 .11 1.54.17 1.38.35 2.95-.7 4.53-.09.15-.23.22-.37.22z"/></g></svg>