<svg id="Layer_1" xmlns="http://www.w3.org/2000/svg" viewBox="0 0 32 32"><style>.st0{fill:url(#SVGID_1_)}.st1{fill:url(#SVGID_2_)}</style><linearGradient id="SVGID_1_" gradientUnits="userSpaceOnUse" y1="32" x2="1" y2="32" gradientTransform="rotate(45.096 861.84 363.676) scale(22.4147)"><stop offset="0" stop-color="#387eb8"/><stop offset="1" stop-color="#366994"/></linearGradient><path class="st0" d="M15.88 0C7.76 0 8.27 3.52 8.27 3.52l.01 3.65h7.75v1.1H5.2S0 7.68 0 15.88c0 8.2 4.54 7.91 4.54 7.91h2.71v-3.8s-.15-4.54 4.46-4.54h7.69s4.32.07 4.32-4.17V4.26S24.37 0 15.88 0zm-4.27 2.45c.77 0 1.39.62 1.39 1.39s-.62 1.39-1.39 1.39c-.77 0-1.39-.62-1.39-1.39s.62-1.39 1.39-1.39z"/><linearGradient id="SVGID_2_" gradientUnits="userSpaceOnUse" y1="32" x2="1" y2="32" gradientTransform="scale(23.5344) rotate(43.773 39.414 16.949)"><stop offset="0" stop-color="#ffe052"/><stop offset="1" stop-color="#ffc331"/></linearGradient><path class="st1" d="M16.12 31.83c8.12 0 7.62-3.52 7.62-3.52l-.01-3.65h-7.75v-1.1H26.8s5.2.59 5.2-7.61c0-8.2-4.54-7.91-4.54-7.91h-2.71v3.8s.15 4.54-4.46 4.54H12.6s-4.32-.07-4.32 4.17v7.02s-.65 4.26 7.84 4.26zm4.27-2.45c-.77 0-1.39-.62-1.39-1.39 0-.77.62-1.39 1.39-1.39s1.39.62 1.39 1.39c0 .77-.62 1.39-1.39 1.39z"/></svg>