<svg id="Layer_1" xmlns="http://www.w3.org/2000/svg" viewBox="0 0 32 32"><style>.st0{fill:#f60}</style><path class="st0" d="M30.97 12.69H19.31V1.03c0-.29-.1-.54-.3-.73s-.44-.3-.73-.3h-4.56c-.29 0-.54.1-.73.3-.2.2-.3.44-.3.73v11.66h-6.1V1.03c0-.29-.1-.54-.3-.73-.19-.2-.43-.3-.7-.3H1.03C.74 0 .49.1.3.3s-.3.44-.3.73v29.94c0 .29.1.54.3.73s.44.3.73.3h29.94c.29 0 .54-.1.73-.3.2-.2.3-.44.3-.73V13.72c0-.29-.1-.54-.3-.73-.2-.2-.44-.3-.73-.3zM25.5 24.44c0 .27-.1.5-.3.7-.2.2-.43.3-.7.3h-4.19c-.27 0-.5-.1-.7-.3s-.3-.43-.3-.7v-4.19c0-.29.1-.54.3-.73.2-.2.43-.3.7-.3h4.19c.27 0 .5.1.7.3.2.2.3.44.3.73v4.19z"/></svg>