<svg id="Layer_1" xmlns="http://www.w3.org/2000/svg" viewBox="0 0 33 32"><style>.st0{fill:#a41e11}.st1{fill:#d82c20}.st2{fill:#fff}.st3{fill:#7a0c00}.st4{fill:#ad2115}</style><path class="st0" d="M31.71 23.72c-1.76.92-10.88 4.67-12.83 5.68-1.94 1.01-3.02 1-4.56.27-1.53-.73-11.24-4.65-12.99-5.49-.87-.42-1.33-.77-1.33-1.1v-3.34s12.64-2.75 14.68-3.48c2.04-.73 2.75-.76 4.48-.12 1.74.64 12.12 2.51 13.84 3.14v3.29c0 .32-.4.68-1.29 1.15z"/><path class="st1" d="M31.71 20.39c-1.76.92-10.88 4.67-12.83 5.68-1.94 1.01-3.02 1-4.56.27-1.53-.73-11.24-4.66-12.99-5.49-1.75-.84-1.79-1.41-.07-2.08 1.72-.67 11.37-4.46 13.41-5.19 2.04-.73 2.75-.76 4.48-.12 1.74.64 10.8 4.25 12.52 4.87 1.73.62 1.8 1.14.04 2.06z"/><path class="st0" d="M31.71 18.28c-1.76.92-10.88 4.67-12.83 5.68-1.94 1.01-3.02 1-4.56.27-1.53-.73-11.24-4.65-12.99-5.49-.87-.42-1.33-.77-1.33-1.1V14.3s12.64-2.75 14.68-3.48c2.04-.73 2.75-.76 4.48-.12 1.74.64 12.12 2.51 13.84 3.14v3.29c0 .32-.4.69-1.29 1.15z"/><path class="st1" d="M31.71 14.95c-1.76.92-10.88 4.67-12.83 5.68-1.94 1.01-3.02 1-4.56.27-1.53-.73-11.24-4.66-12.99-5.49-1.75-.84-1.79-1.41-.07-2.08 1.72-.67 11.37-4.46 13.41-5.19 2.04-.73 2.75-.76 4.48-.12 1.74.64 10.8 4.25 12.52 4.87 1.73.62 1.8 1.14.04 2.06z"/><path class="st0" d="M31.71 12.64c-1.76.92-10.88 4.67-12.83 5.68-1.94 1.01-3.02 1-4.56.27-1.53-.73-11.24-4.66-12.99-5.49C.46 12.68 0 12.33 0 12V8.66s12.64-2.75 14.68-3.48c2.04-.73 2.75-.76 4.48-.12C20.9 5.69 31.28 7.57 33 8.19v3.29c0 .33-.4.69-1.29 1.16z"/><path class="st1" d="M31.71 9.3c-1.76.92-10.88 4.67-12.83 5.68-1.94 1.01-3.02 1-4.56.27S3.08 10.6 1.33 9.76c-1.75-.84-1.79-1.41-.07-2.08 1.72-.67 11.37-4.46 13.41-5.19 2.04-.73 2.75-.76 4.48-.12C20.9 3 29.97 6.61 31.69 7.24c1.71.63 1.78 1.15.02 2.06z"/><path class="st2" d="M20.82 6.09l-2.86.3-.64 1.54-1.03-1.72-3.3-.3 2.46-.88-.74-1.37 2.31.9 2.17-.71-.58 1.41zM17.15 13.56l-5.33-2.21 7.64-1.17z"/><ellipse class="st2" cx="9.76" cy="8.53" rx="4.09" ry="1.58"/><path class="st3" d="M24.2 6.51l4.53 1.79-4.52 1.79z"/><path class="st4" d="M19.2 8.49l5-1.98.01 3.58-.49.19z"/></svg>