<svg id="Layer_1" xmlns="http://www.w3.org/2000/svg" viewBox="0 0 32 32"><style>.st0{fill:url(#SVGID_1_)}.st1{fill:url(#SVGID_2_)}.st2{fill:url(#SVGID_3_)}.st3{fill:url(#SVGID_4_)}.st4{fill:url(#SVGID_5_)}.st5{fill:url(#SVGID_6_)}.st6{fill:url(#SVGID_7_)}.st7{fill:url(#SVGID_8_)}.st8{fill:#fff}.st9{fill:url(#SVGID_9_)}.st10{fill:url(#SVGID_10_)}.st11{fill:url(#SVGID_11_)}.st12{fill:url(#SVGID_12_)}.st13{fill:#9e1209}.st14{fill:url(#SVGID_13_)}.st15{fill:url(#SVGID_14_)}.st16{fill:url(#SVGID_15_)}.st17{fill:url(#SVGID_16_)}</style><linearGradient id="SVGID_1_" gradientUnits="userSpaceOnUse" y1="32" x2="1" y2="32" gradientTransform="rotate(-119.527 -102.935 227.078) scale(13.6206)"><stop offset="0" stop-color="#fb7655"/><stop offset="0" stop-color="#fb7655"/><stop offset=".41" stop-color="#e42b1e"/><stop offset=".99" stop-color="#900"/><stop offset="1" stop-color="#900"/></linearGradient><path class="st0" d="M24.7 20.94L6.53 31.73l23.52-1.59 1.81-23.72z"/><linearGradient id="SVGID_2_" gradientUnits="userSpaceOnUse" y1="32" x2="1" y2="32" gradientTransform="scale(-10.4185) rotate(33.864 54.94 9.875)"><stop offset="0" stop-color="#871101"/><stop offset="0" stop-color="#871101"/><stop offset=".99" stop-color="#911209"/><stop offset="1" stop-color="#911209"/></linearGradient><path class="st1" d="M30.09 30.12l-2.02-13.96-5.51 7.28z"/><linearGradient id="SVGID_3_" gradientUnits="userSpaceOnUse" y1="32" x2="1" y2="32" gradientTransform="scale(-10.4182) rotate(33.864 56.898 10.471)"><stop offset="0" stop-color="#871101"/><stop offset="0" stop-color="#871101"/><stop offset=".99" stop-color="#911209"/><stop offset="1" stop-color="#911209"/></linearGradient><path class="st2" d="M30.12 30.12l-14.81-1.16-8.7 2.74z"/><linearGradient id="SVGID_4_" gradientUnits="userSpaceOnUse" y1="32" x2="1" y2="32" gradientTransform="scale(8.8185) rotate(81.253 17.653 17.574)"><stop offset="0" stop-color="#fff"/><stop offset="0" stop-color="#fff"/><stop offset=".23" stop-color="#e57252"/><stop offset=".46" stop-color="#de3b20"/><stop offset=".99" stop-color="#a60003"/><stop offset="1" stop-color="#a60003"/></linearGradient><path class="st3" d="M6.63 31.7l3.7-12.12-8.14 1.74z"/><linearGradient id="SVGID_5_" gradientUnits="userSpaceOnUse" y1="32" x2="1" y2="32" gradientTransform="rotate(86.821 151.91 156.885) scale(8.9088)"><stop offset="0" stop-color="#fff"/><stop offset="0" stop-color="#fff"/><stop offset=".23" stop-color="#e4714e"/><stop offset=".56" stop-color="#be1a0d"/><stop offset=".99" stop-color="#a80d00"/><stop offset="1" stop-color="#a80d00"/></linearGradient><path class="st4" d="M22.56 23.48l-3.4-13.34-9.75 9.13z"/><linearGradient id="SVGID_6_" gradientUnits="userSpaceOnUse" y1="32" x2="1" y2="32" gradientTransform="rotate(76.936 141.047 121.655) scale(6.5445)"><stop offset="0" stop-color="#fff"/><stop offset="0" stop-color="#fff"/><stop offset=".18" stop-color="#e46342"/><stop offset=".4" stop-color="#c82410"/><stop offset=".99" stop-color="#a80d00"/><stop offset="1" stop-color="#a80d00"/></linearGradient><path class="st5" d="M31.09 10.33l-9.21-7.52-2.56 8.29z"/><linearGradient id="SVGID_7_" gradientUnits="userSpaceOnUse" y1="32" x2="1" y2="32" gradientTransform="rotate(-26.565 -469.548 74.4) scale(7.127)"><stop offset="0" stop-color="#fff"/><stop offset="0" stop-color="#fff"/><stop offset=".54" stop-color="#c81f11"/><stop offset=".99" stop-color="#bf0905"/><stop offset="1" stop-color="#bf0905"/></linearGradient><path class="st6" d="M26.78.12l-5.41 3L17.95.08z"/><linearGradient id="SVGID_8_" gradientUnits="userSpaceOnUse" y1="32" x2="1" y2="32" gradientTransform="scale(5.279) rotate(84.296 15.833 17.798)"><stop offset="0" stop-color="#fff"/><stop offset="0" stop-color="#fff"/><stop offset=".31" stop-color="#de4024"/><stop offset=".99" stop-color="#bf190b"/><stop offset="1" stop-color="#bf190b"/></linearGradient><path class="st7" d="M.04 25.39l2.27-4.14-1.83-4.93z"/><path class="st8" d="M.36 16.16L2.2 21.4l8.03-1.8 9.16-8.52 2.59-8.21L17.9 0l-6.92 2.59C8.8 4.62 4.57 8.63 4.42 8.71c-.15.07-2.8 5.07-4.06 7.45z"/><linearGradient id="SVGID_9_" gradientUnits="userSpaceOnUse" y1="32" x2="1" y2="32" gradientTransform="rotate(-45.799 -1311.974 581.948) scale(35.3761)"><stop offset="0" stop-color="#bd0012"/><stop offset="0" stop-color="#bd0012"/><stop offset=".07" stop-color="#fff"/><stop offset=".17" stop-color="#fff"/><stop offset=".27" stop-color="#c82f1c"/><stop offset=".33" stop-color="#820c01"/><stop offset=".46" stop-color="#a31601"/><stop offset=".72" stop-color="#b31301"/><stop offset=".99" stop-color="#e82609"/><stop offset="1" stop-color="#e82609"/></linearGradient><path class="st9" d="M6.84 6.75C11.57 2.07 17.66-.7 20 1.66c2.34 2.36-.14 8.09-4.87 12.78s-10.74 7.6-13.08 5.24c-2.34-2.36.06-8.24 4.79-12.93z"/><linearGradient id="SVGID_10_" gradientUnits="userSpaceOnUse" y1="32" x2="1" y2="32" gradientTransform="rotate(-166.137 -5.238 135.193) scale(7.6518)"><stop offset="0" stop-color="#8c0c01"/><stop offset="0" stop-color="#8c0c01"/><stop offset=".54" stop-color="#990c00"/><stop offset=".99" stop-color="#a80d0e"/><stop offset="1" stop-color="#a80d0e"/></linearGradient><path class="st10" d="M6.63 31.7l3.67-12.16 12.19 3.92c-4.41 4.13-9.31 7.62-15.86 8.24z"/><linearGradient id="SVGID_11_" gradientUnits="userSpaceOnUse" y1="32" x2="1" y2="32" gradientTransform="rotate(-138.131 -36.34 145.581) scale(8.8624)"><stop offset="0" stop-color="#7e110b"/><stop offset="0" stop-color="#7e110b"/><stop offset=".99" stop-color="#9e0c00"/><stop offset="1" stop-color="#9e0c00"/></linearGradient><path class="st11" d="M19.41 11.06l3.13 12.4c3.68-3.87 6.99-8.03 8.61-13.18l-11.74.78z"/><linearGradient id="SVGID_12_" gradientUnits="userSpaceOnUse" y1="32" x2="1" y2="32" gradientTransform="scale(-4.8123) rotate(46.912 35.482 7.743)"><stop offset="0" stop-color="#79130d"/><stop offset="0" stop-color="#79130d"/><stop offset=".99" stop-color="#9e120b"/><stop offset="1" stop-color="#9e120b"/></linearGradient><path class="st12" d="M31.11 10.34c1.25-3.78 1.54-9.2-4.37-10.21L21.9 2.81l9.21 7.53z"/><path class="st13" d="M.04 25.33c.17 6.24 4.68 6.33 6.59 6.39L2.21 21.38.04 25.33z"/><radialGradient id="SVGID_13_" cx="0" cy="32" r="1" gradientTransform="translate(23.143 -246.049) scale(8.0874)" gradientUnits="userSpaceOnUse"><stop offset="0" stop-color="#a80d00"/><stop offset="0" stop-color="#a80d00"/><stop offset=".99" stop-color="#7e0e08"/><stop offset="1" stop-color="#7e0e08"/></radialGradient><path class="st14" d="M19.42 11.08c2.83 1.74 8.53 5.23 8.65 5.3.18.1 2.46-3.84 2.98-6.07l-11.63.77z"/><radialGradient id="SVGID_14_" cx="0" cy="32" r="1" gradientTransform="translate(11.943 -320.63) scale(10.7512)" gradientUnits="userSpaceOnUse"><stop offset="0" stop-color="#a30c00"/><stop offset="0" stop-color="#a30c00"/><stop offset=".99" stop-color="#800e08"/><stop offset="1" stop-color="#800e08"/></radialGradient><path class="st15" d="M10.3 19.54l4.91 9.47c2.9-1.57 5.17-3.49 7.26-5.55L10.3 19.54z"/><linearGradient id="SVGID_15_" gradientUnits="userSpaceOnUse" y1="32" x2="1" y2="32" gradientTransform="scale(-9.476) rotate(73.58 23.405 14.022)"><stop offset="0" stop-color="#8b2114"/><stop offset="0" stop-color="#8b2114"/><stop offset=".43" stop-color="#9e100a"/><stop offset=".99" stop-color="#b3100c"/><stop offset="1" stop-color="#b3100c"/></linearGradient><path class="st16" d="M2.19 21.39l-.7 8.28c1.31 1.79 3.12 1.95 5.01 1.81-1.37-3.41-4.1-10.23-4.31-10.09z"/><linearGradient id="SVGID_16_" gradientUnits="userSpaceOnUse" y1="32" x2="1" y2="32" gradientTransform="rotate(23.817 506.798 164.818) scale(6.5652)"><stop offset="0" stop-color="#b31000"/><stop offset="0" stop-color="#b31000"/><stop offset=".44" stop-color="#910f08"/><stop offset=".99" stop-color="#791c12"/><stop offset="1" stop-color="#791c12"/></linearGradient><path class="st17" d="M21.87 2.83l9.75 1.37C31.1 1.99 29.5.57 26.78.13l-4.91 2.7z"/></svg>