<svg xmlns="http://www.w3.org/2000/svg" viewBox="0 0 32 32" enable-background="new 0 0 32 32"><style type="text/css">.st0{fill:url(#SVGID_1_);} .st1{fill:url(#SVGID_2_);} .st2{fill:url(#SVGID_3_);} .st3{fill:url(#SVGID_4_);} .st4{fill:url(#SVGID_5_);} .st5{fill:url(#SVGID_6_);} .st6{fill:url(#SVGID_7_);} .st7{fill:url(#SVGID_8_);} .st8{fill:#FFFFFF;} .st9{fill:url(#SVGID_9_);} .st10{fill:url(#SVGID_10_);} .st11{fill:url(#SVGID_11_);} .st12{fill:url(#SVGID_12_);} .st13{fill:#9E1209;} .st14{fill:url(#SVGID_13_);} .st15{fill:url(#SVGID_14_);} .st16{fill:url(#SVGID_15_);} .st17{fill:url(#SVGID_16_);}</style><linearGradient id="SVGID_1_" gradientUnits="userSpaceOnUse" y1="32" x2="1" y2="32" gradientTransform="matrix(-6.713 -11.852 11.852 -6.713 -351.251 249.423)"><stop offset="0" stop-color="#FB7655"/><stop offset="0" stop-color="#FB7655"/><stop offset=".41" stop-color="#E42B1E"/><stop offset=".99" stop-color="#900"/><stop offset="1" stop-color="#900"/></linearGradient><path class="st0" d="M24.7 20.94L6.53 31.73l23.52-1.59 1.81-23.72z"/><linearGradient id="SVGID_2_" gradientUnits="userSpaceOnUse" y1="32" x2="1" y2="32" gradientTransform="matrix(-8.651 -5.805 5.805 -8.651 -154.43 301.497)"><stop offset="0" stop-color="#871101"/><stop offset="0" stop-color="#871101"/><stop offset=".99" stop-color="#911209"/><stop offset="1" stop-color="#911209"/></linearGradient><path class="st1" d="M30.09 30.12l-2.02-13.96-5.51 7.28z"/><linearGradient id="SVGID_3_" gradientUnits="userSpaceOnUse" y1="32" x2="1" y2="32" gradientTransform="matrix(-8.651 -5.805 5.805 -8.651 -161.346 311.804)"><stop offset="0" stop-color="#871101"/><stop offset="0" stop-color="#871101"/><stop offset=".99" stop-color="#911209"/><stop offset="1" stop-color="#911209"/></linearGradient><path class="st2" d="M30.12 30.12l-14.81-1.16-8.7 2.74z"/><linearGradient id="SVGID_4_" gradientUnits="userSpaceOnUse" y1="32" x2="1" y2="32" gradientTransform="matrix(1.341 8.716 -8.716 1.341 285.168 -22.456)"><stop offset="0" stop-color="#fff"/><stop offset="0" stop-color="#fff"/><stop offset=".23" stop-color="#E57252"/><stop offset=".46" stop-color="#DE3B20"/><stop offset=".99" stop-color="#A60003"/><stop offset="1" stop-color="#A60003"/></linearGradient><path class="st3" d="M6.63 31.7l3.7-12.12-8.14 1.74z"/><linearGradient id="SVGID_5_" gradientUnits="userSpaceOnUse" y1="32" x2="1" y2="32" gradientTransform="matrix(.494 8.895 -8.895 .494 300.127 -3.492)"><stop offset="0" stop-color="#fff"/><stop offset="0" stop-color="#fff"/><stop offset=".23" stop-color="#E4714E"/><stop offset=".56" stop-color="#BE1A0D"/><stop offset=".99" stop-color="#A80D00"/><stop offset="1" stop-color="#A80D00"/></linearGradient><path class="st4" d="M22.56 23.48l-3.4-13.34-9.75 9.13z"/><linearGradient id="SVGID_6_" gradientUnits="userSpaceOnUse" y1="32" x2="1" y2="32" gradientTransform="matrix(1.479 6.375 -6.375 1.479 227.671 -43.239)"><stop offset="0" stop-color="#fff"/><stop offset="0" stop-color="#fff"/><stop offset=".18" stop-color="#E46342"/><stop offset=".4" stop-color="#C82410"/><stop offset=".99" stop-color="#A80D00"/><stop offset="1" stop-color="#A80D00"/></linearGradient><path class="st5" d="M31.09 10.33l-9.21-7.52-2.56 8.29z"/><linearGradient id="SVGID_7_" gradientUnits="userSpaceOnUse" y1="32" x2="1" y2="32" gradientTransform="matrix(6.375 -3.187 3.187 6.375 -82.843 -202.135)"><stop offset="0" stop-color="#fff"/><stop offset="0" stop-color="#fff"/><stop offset=".54" stop-color="#C81F11"/><stop offset=".99" stop-color="#BF0905"/><stop offset="1" stop-color="#BF0905"/></linearGradient><path class="st6" d="M26.78.12l-5.41 3L17.95.08z"/><linearGradient id="SVGID_8_" gradientUnits="userSpaceOnUse" y1="32" x2="1" y2="32" gradientTransform="matrix(.525 5.253 -5.253 .525 168.765 1.448)"><stop offset="0" stop-color="#fff"/><stop offset="0" stop-color="#fff"/><stop offset=".31" stop-color="#DE4024"/><stop offset=".99" stop-color="#BF190B"/><stop offset="1" stop-color="#BF190B"/></linearGradient><path class="st7" d="M.04 25.39l2.27-4.14-1.83-4.93z"/><path class="st8" d="M.36 16.16L2.2 21.4l8.03-1.8 9.16-8.52 2.59-8.21L17.9 0l-6.92 2.59C8.8 4.62 4.57 8.63 4.42 8.71c-.15.07-2.8 5.07-4.06 7.45z"/><linearGradient id="SVGID_9_" gradientUnits="userSpaceOnUse" y1="32" x2="1" y2="32" gradientTransform="matrix(24.663 -25.361 25.361 24.663 -814.489 -764.324)"><stop offset="0" stop-color="#BD0012"/><stop offset="0" stop-color="#BD0012"/><stop offset=".07" stop-color="#fff"/><stop offset=".17" stop-color="#fff"/><stop offset=".27" stop-color="#C82F1C"/><stop offset=".33" stop-color="#820C01"/><stop offset=".46" stop-color="#A31601"/><stop offset=".72" stop-color="#B31301"/><stop offset=".99" stop-color="#E82609"/><stop offset="1" stop-color="#E82609"/></linearGradient><path class="st9" d="M6.84 6.75C11.57 2.07 17.66-.7 20 1.66c2.34 2.36-.14 8.09-4.87 12.78s-10.74 7.6-13.08 5.24c-2.34-2.36.06-8.24 4.79-12.93z"/><linearGradient id="SVGID_10_" gradientUnits="userSpaceOnUse" y1="32" x2="1" y2="32" gradientTransform="matrix(-7.429 -1.833 1.833 -7.429 -42.717 265.192)"><stop offset="0" stop-color="#8C0C01"/><stop offset="0" stop-color="#8C0C01"/><stop offset=".54" stop-color="#990C00"/><stop offset=".99" stop-color="#A80D0E"/><stop offset="1" stop-color="#A80D0E"/></linearGradient><path class="st10" d="M6.63 31.7l3.67-12.16 12.19 3.92c-4.41 4.13-9.31 7.62-15.86 8.24z"/><linearGradient id="SVGID_11_" gradientUnits="userSpaceOnUse" y1="32" x2="1" y2="32" gradientTransform="matrix(-6.6 -5.915 5.915 -6.6 -160.565 229.738)"><stop offset="0" stop-color="#7E110B"/><stop offset="0" stop-color="#7E110B"/><stop offset=".99" stop-color="#9E0C00"/><stop offset="1" stop-color="#9E0C00"/></linearGradient><path class="st11" d="M19.41 11.06l3.13 12.4c3.68-3.87 6.99-8.03 8.61-13.18l-11.74.78z"/><linearGradient id="SVGID_12_" gradientUnits="userSpaceOnUse" y1="32" x2="1" y2="32" gradientTransform="matrix(-3.287 -3.514 3.514 -3.287 -81.323 112.895)"><stop offset="0" stop-color="#79130D"/><stop offset="0" stop-color="#79130D"/><stop offset=".99" stop-color="#9E120B"/><stop offset="1" stop-color="#9E120B"/></linearGradient><path class="st12" d="M31.11 10.34c1.25-3.78 1.54-9.2-4.37-10.21L21.9 2.81l9.21 7.53z"/><path class="st13" d="M.04 25.33c.17 6.24 4.68 6.33 6.59 6.39L2.21 21.38.04 25.33z"/><radialGradient id="SVGID_13_" cx="0" cy="32" r="1" gradientTransform="matrix(8.087 0 0 8.087 23.143 -246.049)" gradientUnits="userSpaceOnUse"><stop offset="0" stop-color="#A80D00"/><stop offset="0" stop-color="#A80D00"/><stop offset=".99" stop-color="#7E0E08"/><stop offset="1" stop-color="#7E0E08"/></radialGradient><path class="st14" d="M19.42 11.08c2.83 1.74 8.53 5.23 8.65 5.3.18.1 2.46-3.84 2.98-6.07l-11.63.77z"/><radialGradient id="SVGID_14_" cx="0" cy="32" r="1" gradientTransform="matrix(10.751 0 0 10.751 11.943 -320.63)" gradientUnits="userSpaceOnUse"><stop offset="0" stop-color="#A30C00"/><stop offset="0" stop-color="#A30C00"/><stop offset=".99" stop-color="#800E08"/><stop offset="1" stop-color="#800E08"/></radialGradient><path class="st15" d="M10.3 19.54l4.91 9.47c2.9-1.57 5.17-3.49 7.26-5.55L10.3 19.54z"/><linearGradient id="SVGID_15_" gradientUnits="userSpaceOnUse" y1="32" x2="1" y2="32" gradientTransform="matrix(-2.679 -9.089 9.089 -2.679 -286.521 117.42)"><stop offset="0" stop-color="#8B2114"/><stop offset="0" stop-color="#8B2114"/><stop offset=".43" stop-color="#9E100A"/><stop offset=".99" stop-color="#B3100C"/><stop offset="1" stop-color="#B3100C"/></linearGradient><path class="st16" d="M2.19 21.39l-.7 8.28c1.31 1.79 3.12 1.95 5.01 1.81-1.37-3.41-4.1-10.23-4.31-10.09z"/><linearGradient id="SVGID_16_" gradientUnits="userSpaceOnUse" y1="32" x2="1" y2="32" gradientTransform="matrix(6.006 2.651 -2.651 6.006 109.717 -190.622)"><stop offset="0" stop-color="#B31000"/><stop offset="0" stop-color="#B31000"/><stop offset=".44" stop-color="#910F08"/><stop offset=".99" stop-color="#791C12"/><stop offset="1" stop-color="#791C12"/></linearGradient><path class="st17" d="M21.87 2.83l9.75 1.37C31.1 1.99 29.5.57 26.78.13l-4.91 2.7z"/></svg>