<svg id="Layer_1" xmlns="http://www.w3.org/2000/svg" viewBox="0 0 21 32"><style>.st0{fill:url(#SVGID_1_)}.st1{fill:url(#SVGID_2_)}.st2{fill:url(#SVGID_3_)}.st3{fill:url(#SVGID_4_)}.st4{fill:url(#SVGID_5_)}</style><linearGradient id="SVGID_1_" gradientUnits="userSpaceOnUse" x1="-294.808" y1="410.36" x2="-294.795" y2="410.36" gradientTransform="matrix(1538 0 0 576.75 453415 -236654.25)"><stop offset="0" stop-color="#4f4f4f"/><stop offset="1"/></linearGradient><path class="st0" d="M.65 19.69v2.46c0 .41 8.95 1.11 14.78 2.46 2.82-.65 4.91-1.46 4.91-2.46v-2.46c0-1-2.09-1.81-4.91-2.46C9.61 18.58.65 19.28.65 19.69"/><linearGradient id="SVGID_2_" gradientUnits="userSpaceOnUse" x1="-294.808" y1="411.676" x2="-294.795" y2="411.676" gradientTransform="matrix(1538 0 0 576.75 453415 -237423.25)"><stop offset="0" stop-color="#4f4f4f"/><stop offset="1"/></linearGradient><path class="st1" d="M.65 9.85v2.46c0 .41 8.95 1.11 14.78 2.46 2.82-.65 4.91-1.46 4.91-2.46V9.85c0-1-2.09-1.81-4.91-2.46C9.61 8.74.65 9.43.65 9.85"/><linearGradient id="SVGID_3_" gradientUnits="userSpaceOnUse" x1="-294.808" y1="411.611" x2="-294.795" y2="411.611" gradientTransform="matrix(1538 0 0 961.25 453415 -395645)"><stop offset="0" stop-color="#c40000"/><stop offset="1" stop-color="red"/></linearGradient><path class="st2" d="M.65 14.77v7.38c0-.62 19.69-1.85 19.69-4.92V9.85c.01 3.07-19.69 4.3-19.69 4.92"/><linearGradient id="SVGID_4_" gradientUnits="userSpaceOnUse" x1="-294.808" y1="412.401" x2="-294.795" y2="412.401" gradientTransform="matrix(1538 0 0 961.25 453415 -396414)"><stop offset="0" stop-color="#c40000"/><stop offset="1" stop-color="red"/></linearGradient><path class="st3" d="M.65 4.92v7.38c0-.62 19.69-1.85 19.69-4.92V0C20.35 3.08.65 4.31.65 4.92"/><linearGradient id="SVGID_5_" gradientUnits="userSpaceOnUse" x1="-294.808" y1="410.821" x2="-294.795" y2="410.821" gradientTransform="matrix(1538 0 0 961.25 453415 -394876)"><stop offset="0" stop-color="#c40000"/><stop offset="1" stop-color="red"/></linearGradient><path class="st4" d="M.65 24.62V32c0-.62 19.69-1.85 19.69-4.92V19.7C20.35 22.77.65 24 .65 24.62"/></svg>