<svg id="Layer_1" xmlns="http://www.w3.org/2000/svg" viewBox="0 0 32 32"><style>.st0{fill:#fff}.st1{fill:#e12434}</style><path class="st0" d="M27.5 24.46c-1.13 0-2.16.2-2.92.51-.08.04-.14.13-.14.23 0 .04.01.07.02.1.09.26-.06.54-.79.7-1.09.24-1.78 1.36-2.17 1.74-.46.44-1.77.71-1.57.45.15-.2.74-.84 1.1-1.53.32-.62.6-.79 1-1.38.11-.17.56-.78.69-1.26.15-.47.1-1.06.15-1.3.08-.35.41-1.11.43-1.53.01-.24-1.01.34-1.49.34-.49 0-.96-.29-1.39-.31-.54-.02-.88.41-1.37.34-.28-.04-.51-.29-1-.31-.69-.03-1.53.38-3.12.33-1.56-.05-3-1.97-3.19-2.27-.23-.36-.51-.36-.82-.08-.31.28-.68.06-.79-.13-.2-.36-.75-1.4-1.6-1.62-1.17-.3-1.76.65-1.69 1.4.08.77.57.98.8 1.39.23.41.35.67.78.85.31.13.42.32.33.57-.08.22-.4.27-.61.28-.45.02-.76-.1-.99-.25-.27-.17-.48-.4-.71-.8-.27-.44-.69-.63-1.18-.63-.23 0-.45.06-.65.16-.77.4-1.69.64-2.67.64H.83c2.14 6.35 8.12 10.9 15.17 10.9 5.63 0 10.58-2.91 13.43-7.3-.62-.14-1.27-.23-1.93-.23z"/><path d="M19.49 23.21c-.01 0-.03.01-.04.02-.21.24-.3.32-.45.44-.36.29-.77-.04-1.04-.19-.59-.34-1.06-.13-1.18.14-.11.27.01.59.33.55.45-.06.47.01.79.22.6.38 1.04.17 1.27-.01.19-.15.29-.28.39-.46.17-.34.03-.61-.05-.69 0-.01-.01-.02-.02-.02z"/><path d="M16 0C7.16 0 0 7.16 0 16c0 1.79.29 3.51.83 5.11h1.11c.99 0 1.9-.24 2.67-.64.19-.1.41-.16.65-.16.49 0 .91.19 1.18.63.23.4.45.63.71.8.23.15.54.27.99.25.21-.01.53-.06.61-.28.09-.25-.02-.44-.33-.57-.43-.18-.55-.45-.78-.85-.23-.41-.73-.62-.8-1.39-.08-.76.52-1.71 1.69-1.4.85.22 1.39 1.26 1.6 1.62.11.19.49.41.79.13.31-.28.59-.28.82.08.2.31 1.64 2.22 3.19 2.27 1.58.05 2.43-.36 3.12-.33.48.02.72.26 1 .31.49.08.83-.36 1.37-.34.43.02.91.31 1.39.31.49 0 1.51-.59 1.49-.34-.02.43-.35 1.18-.43 1.53-.06.24-.01.83-.15 1.3-.13.48-.58 1.09-.69 1.26-.39.59-.68.76-1 1.38-.36.69-.94 1.33-1.1 1.53-.2.26 1.11-.01 1.57-.45.39-.37 1.08-1.5 2.17-1.74.74-.16.88-.44.79-.7a.355.355 0 0 1-.02-.1c0-.1.06-.19.14-.23.76-.32 1.79-.51 2.92-.51.66 0 1.32.09 1.93.23C31.05 22.19 32 19.2 32 16c0-8.84-7.17-16-16-16z"/><path class="st1" d="M25.03 11.74c-.16.53-.38 1.21-1.38 1.72-.15.07-.2-.05-.13-.16.38-.64.45-.8.56-1.06.15-.37.23-.9-.07-2-.6-2.17-1.86-5.06-2.77-6-.88-.91-2.48-1.16-3.92-.79-.53.14-1.57.68-3.5.24-3.33-.75-3.83.92-4.02 1.65-.2.73-.66 2.8-.66 2.8-.15.84-.35 2.31 4.82 3.29 2.41.46 2.53 1.08 2.64 1.53.19.8.5 1.26.84 1.49.34.23 0 .42-.38.46-1.03.11-4.82-.98-7.07-2.26-1.84-1.12-1.87-2.13-1.45-2.99-2.78-.3-4.86.26-5.24 1.57-.65 2.26 4.96 6.11 11.34 8.04 6.7 2.03 13.59.61 14.36-3.6.35-1.9-1.26-3.32-3.97-3.93zM14.75 7.62c-1.85.13-2.04.33-2.39.7-.49.52-1.13-.67-1.13-.67-.39-.08-.85-.7-.6-1.28.25-.57.71-.4.85-.22.17.22.55.57 1.03.56.48-.01 1.04-.11 1.82-.11.79 0 1.32.3 1.35.55.04.2-.05.4-.93.47zm4-1.84c-.33-.01-.64-.06-.91-.13a.075.075 0 0 1-.05-.07c0-.03.02-.06.06-.07.64-.15 1.07-.39 1.04-.62-.04-.3-.88-.47-1.87-.37-.11.01-.21.03-.32.04h-.01c-.03 0-.05-.02-.05-.05 0-.02.01-.04.03-.04.36-.19.89-.34 1.5-.4.18-.02.36-.03.54-.03h.09c1.03.02 1.85.43 1.83.91-.01.48-.85.85-1.88.83z"/></svg>