<svg id="Layer_1" xmlns="http://www.w3.org/2000/svg" viewBox="0 0 32 32"><style>.st0{fill:#6db33f}.st1{fill:#fff}</style><path class="st0" d="M15.93 31.83C7.16 31.83.06 24.63.06 15.92.06 7.22 7.17.16 15.94.16c4.52 0 8.59 1.87 11.49 4.88l1.7-2.98C30.87 6.72 32 12.16 32 15.9c0 8.7-7.3 15.93-16.07 15.93z"/><path class="st1" d="M9.93 26.72c1.7-.53 3.52-1.09 5.04-1.58 6-1.92 11.16-6.76 12.53-12.85-1.09 2.86-5.52 8.45-12.46 10.68-2.23.7-4.54 1.14-6.82 1.67-.29.07-.69-.01-.95-.17-1.46-.9-2.25-2.52-2.37-4.14-.34-4.38 2.66-7.96 7.12-8.88 1.87-.39 3.8-.29 5.71-.49 5.05-.53 9.8-4.12 11.23-7.12 0 0 .26.58.31.76 1.08 3.37 1.95 6.78 2.03 10.35.05 1.92-.17 3.82-.85 5.63-1.38 3.65-4.19 5.5-7.95 5.94-2.2.25-4.43.2-6.65.24-1.8.04-3.89-.04-5.92-.04M7.7 26.91c0 .74-.61 1.34-1.36 1.34s-1.36-.6-1.36-1.34c0-.74.61-1.34 1.36-1.34s1.36.59 1.36 1.34"/></svg>