<svg xmlns="http://www.w3.org/2000/svg" viewBox="0 0 100 100"><defs><style>.cls-1{fill:#d71e00}.cls-2{fill:#c21a00}.cls-3{fill:#cdcdcd}.cls-4{fill:#fff}.cls-5{fill:#eaeaea}</style></defs><title>Logo</title><g id="Layer_1" data-name="Layer 1"><circle class="cls-1" cx="50" cy="50" r="50" transform="rotate(-45 50 50)"/><path class="cls-2" d="M85.36 14.64a50 50 0 0 1-70.72 70.72z"/><path class="cls-3" d="M23.48 70.58v3a1.44 1.44 0 0 0 0 .28L46 51.45l-.71-2.63zM81.24 42.09l-4.59-17.14A2 2 0 0 0 76 24l-2.21 2.21a2 2 0 0 1 .62 1l3.79 14.13a2 2 0 0 1-.53 2L67.36 53.59a2 2 0 0 1-2 .53l-14.09-3.79a2 2 0 0 1-1-.62l-2.21 2.21a2 2 0 0 0 1 .62l17.14 4.59a2 2 0 0 0 2-.53l12.52-12.55a2 2 0 0 0 .52-1.96z"/><path class="cls-4" d="M45.09 41.62l-1.71 1.71a2.13 2.13 0 0 0 0 3l.77.77-20.3 20.3a1.25 1.25 0 0 0-.37.88v2.29l21.76-21.75.76 2.63-22.49 22.44A1.44 1.44 0 0 0 24.92 75l23.16-23.09a2.4 2.4 0 0 1-.45-.82zM73 25.71l-14.12-3.78a2 2 0 0 0-2 .53L46.57 32.8a2 2 0 0 0-.53 2l3.79 14.13a2 2 0 0 0 .45.82l16.29-16.32L62.14 29a1.25 1.25 0 0 1 .28-1.15h-.06l.11-.11v.06a1.25 1.25 0 0 1 1.15-.28L70 29.29a1.24 1.24 0 0 1 .47.25l3.37-3.37a2 2 0 0 0-.84-.46z"/><path class="cls-5" d="M78.23 41.28l-3.78-14.13a2 2 0 0 0-.62-1l-3.37 3.37a1.25 1.25 0 0 1 .42.64l1.72 6.41a1.25 1.25 0 0 1-.28 1.15h.06l-.11.11v-.06a1.25 1.25 0 0 1-1.15.28l-4.59-4.59-16.24 16.25a2 2 0 0 0 1 .62l14.11 3.78a2 2 0 0 0 2-.53l10.3-10.34a2 2 0 0 0 .53-1.96z"/><path class="cls-5" d="M75.21 23.51l-17.14-4.59a2 2 0 0 0-2 .53L43.56 32a2 2 0 0 0-.56 2l4.59 17.14a2.4 2.4 0 0 0 .45.82L24.95 75h6.64a1.25 1.25 0 0 0 .88-.37l1.83-1.83a1.25 1.25 0 0 0 .37-.88v-3.6a.47.47 0 0 1 .13-.32l.62-.62a.47.47 0 0 1 .33-.14h3.14a1.25 1.25 0 0 0 .88-.37l.56-.56a1.25 1.25 0 0 0 .37-.88v-2.26a.47.47 0 0 1 .14-.33l.7-.7a.47.47 0 0 1 .33-.14h4.67a1.25 1.25 0 0 0 .88-.37L53 56l.77.77a2.13 2.13 0 0 0 3 0l1.71-1.71-9.47-2.54a2 2 0 0 1-1-.62l2.21-2.21a2 2 0 0 1-.45-.82L46 34.76a2 2 0 0 1 .53-2l10.39-10.3a2 2 0 0 1 2-.53L73 25.71a2 2 0 0 1 .82.45L76 24a2.43 2.43 0 0 0-.79-.49z"/></g></svg>