<svg id="SUSE" xmlns="http://www.w3.org/2000/svg" viewBox="0 0 150 150"><style>.st0{fill:#4cb85d}.st1{fill:none}</style><title>suse</title><g id="Layer_2_1_"><g id="Layer_1-2"><path class="st0" d="M134.1 64.2c3.5.3 6.6-2.3 6.9-5.8.3-3.5-2.3-6.6-5.8-6.9h-.9c-3.4-.1-6.2 2.6-6.3 6-.3 3.3 2.1 6.3 5.4 6.6.3.1.5.2.7.1zm1.5-9.2c1.4 0 2.9.9 2.9 1.7s-1.1 1.7-2.9 1.7-2.9-.9-2.9-1.7 1.1-1.7 2.9-1.7z"/><path class="st0" d="M149.1 66.6c.3-.3 1.1-.6.9-1.4-.9-2.9-3.5-12.1-5.8-14.7-.6-.8-1.4-1.5-2.3-2-8.9-4.9-29.7-8.1-30.8-8.1h-.3v4.9c-10.4-3.4-21.3-5.5-32.2-6-12.4-.6-29.1-1.1-53 13.5l-.6.2C14.7 58.8 6.6 67.8 2 78.6-.1 84-.5 89.9.9 95.6c.7 3.1 2.1 6.1 4 8.6 4.3 6 11 9.9 18.4 10.6 10.6.9 18.4-3.7 21.3-12.7 2.3-7.5-.8-15.5-7.5-19.6-4.9-3.3-11.3-3.6-16.4-.6-3.2 2-5.1 5.5-5.2 9.2 0 5.5 4.3 10 9.8 10.1 1.3 0 2.5-.2 3.7-.4.6-.2 1.2-.4 1.7-.7 1.5-1.1 1.9-3.2.8-4.8-.8-1-2-1.6-3.3-1.4l-.6.1c-.8.2-1.5.3-2.3.3-1.6-.2-2.8-1.6-2.9-3.2 0-.6.2-1.3.5-1.8 1.3-2 3.5-2.4 5.5-2.2 3.4.2 6.5 2.3 7.8 5.5 1.5 3.3 1.1 7.2-1.2 10.1-2.3 2.9-6 4-11.5 3.5-5.2-.6-9.8-3.7-12.4-8.3-2.5-4.4-2.7-9.9-.3-14.4 5.5-10.1 15.6-10.1 21-8.9C39.6 76 51.7 83 56 99.4h11c-1.4-4.3-2-16.1 10.1-16.1 13.5 0 15.3 9.5 19 16.1h11.5c-2.9-4.3-5.2-9.2-4.6-13.2.9-6 5.8-5.5 12.4-4.6 2.4.3 4.8.5 7.2.6 6.2.2 12.4-1 18.1-3.5 2.2-.9 4.3-1.9 6.3-3.2.5-.6.9-1.2 1.1-2 .3-.7.5-1.5.6-2.3.3-1.2-.9-.6-.9-.6-3.7 2.1-7.8 3.4-12.1 3.7-6 0-18.1-6-19.3-6.6l-2.5-6.3c8.7 5.8 15.9 8.9 21.6 9.5 4.9.1 9.7-1.4 13.6-4.3zm-23.9-9c.2-4.9 4.3-8.8 9.2-8.6 4.9.2 8.8 4.3 8.6 9.2s-4.3 8.8-9.2 8.6c-4.9 0-8.6-4-8.6-9.2z"/></g></g><path class="st1" d="M0 14.9h150v10H0zM0 125h150v10H0z"/></svg>