<svg id="Layer_1" xmlns="http://www.w3.org/2000/svg" viewBox="0 0 32 32"><style>.st0{fill:#d1a41a}.st1{fill:#ffdc76}</style><g id="Calque_3"><g id="XMLID_1_"><path class="st0" d="M5.56 19.53c.36.45.77.9 1.21 1.36-1.3.39-2.14 1.11-2.67 1.75-.84 1.01-1.28 2.35-1.18 3.49H.69c.45-.96 2.23-3.77 4.87-6.6zM31.4 26.75h-2.71C22.47 23.5 17 21.21 11.2 20.71c.01-.81.16-1.72.43-2.74l-.53-.14c-.28 1.05-.43 1.99-.45 2.84-.6-.04-1.21-.06-1.83-.06-.52 0-.99.05-1.43.13-.56-.56-1.04-1.1-1.45-1.61 2.68-2.79 7.08-5.31 10.92-6.26 1.08 3.59 3.4 6.05 6.21 7.71.21-.12.41-.24.61-.37l4.91 5.29.22-.02c1.34-.12 2.1.61 2.3.84.15.16.24.31.29.43z"/><path class="st1" d="M29 9.07c.1 4.88-2.39 8.76-5.87 10.75-5.91-2.95-7.03-10.41-6.02-14.41.28 1.53.79 2.49 1.89 2.96 2.4-.69 5.71-.74 8.14-.07 1.01-.74 1.41-1.86 1.62-2.85.27 1.14.24 3.62.24 3.62z"/></g></g><g id="Layer_1_1_"><path d="M14.13 13.69l.9 2.67-2.74-1.84zM11.49 14.86l.97 1.67-2.04-1.04zM9.28 16.16l.47 1.67-1.4-.97zM24.22 20.64l-.87 1.34 1.54-.71zM25.59 22.18l-1.4 1.07 1.94-.51zM22.18 7.67l1.04 2.27.67-2.3zM16.94 10.98l1.63.87-1.47.1zM17.34 12.75l1 .4-.84.24zM29.03 11.61l-1.33.57 1.1.17zM28.5 13.25l-1.04.3.84.3z"/></g><g id="Calque_4"><path d="M16.4 15.76h3.23v.4H16.4zM16.4 14.8h3.23v.4H16.4zM26.25 15.76h3.23v.4h-3.23zM26.25 14.8h3.23v.4h-3.23zM25.11 12.44h-5.25v-.36h1.64c.2-.86.24-1.69 0-2.1a.476.476 0 0 0-.45-.26c-.94 0-1.32.99-1.34 1.03l-.34-.13c.02-.05.49-1.26 1.67-1.26.33 0 .59.15.76.44.3.51.26 1.39.06 2.28h2.87c.38-1.12 1.18-1.65 2.51-1.65v.36c-1.44 0-1.85.61-2.13 1.29h1.57v.36h-1.57zM25.35 14.21c-.42-.63-.56-1.16-.38-1.77h-.37c-.13.41-.08 1.02.24 1.54h-3.65c.22-.44.43-.99.58-1.54h-.37c-.17.59-.4 1.17-.66 1.63l-.08.15 2.05 1.29-1.15.76.2.3 1.29-.85 1.39.91.19-.3-1.29-.8c-.02 0 1.91-1.25 2.01-1.32 0 .01 0 0 0 0zm-2.32 1.09l-1.51-.95h2.96l-1.45.95z"/></g><g id="Calque_2"><path d="M29.61 8.64c0-.62-.2-3.26-.55-3.98-.97.37-2.73 1.56-3.13 2.78-1.91-.29-4.06-.25-5.95.07-.31-1.31-1.9-2.31-3.09-2.88-.5.85-.73 2.82-.67 4.21h-.01c.22 5.86 3.1 9.51 6.86 11.72 3.87-2.2 6.64-6.51 6.54-11.92-.01-.01-.01 0 0 0zm-3.22-1.13c.01 0 .03.01.04.01-.02-.01-.03-.01-.04-.01zm-.24-.05c.03.01.07.01.1.02-.04 0-.07-.01-.1-.02zM29 9.06c.1 4.88-2.39 8.76-5.87 10.75C17.22 16.86 16.1 9.4 17.11 5.4c.28 1.53.79 2.49 1.89 2.96 2.4-.69 5.71-.74 8.14-.07 1.01-.74 1.41-1.86 1.62-2.85.27 1.14.24 3.62.24 3.62z"/><path d="M31.53 25.94c-.61-.68-1.8-1-2.79-.98-.71-.84-4.79-5.14-4.79-5.14l-.28.36 4.94 5.31.21-.02c1.34-.11 2.1.61 2.31.84.15.17.24.32.29.43h-2.71C22.47 23.49 17 21.2 11.2 20.7c.01-.81.16-1.72.43-2.74l-.53-.14c-.28 1.05-.43 2-.45 2.84-.6-.04-1.21-.06-1.83-.06-.52 0-.99.05-1.43.13-.56-.56-1.04-1.1-1.45-1.61 2.7-2.81 7.15-5.35 11-6.28l-.12-.54c-4.15 1-8.7 3.73-11.23 6.36-1.18-1.59-1.64-2.89-1.78-3.88-.17-1.25.12-2.39.86-3.31 1.15-1.43 2.8-1.54 4.48-1.25-.03.27 0 .52.11.68.45.66 2.84.89 4.28.25-1.06-1.48-3.2-2.2-3.79-1.91-.2.1-.35.28-.45.49-.58-.1-1.16-.18-1.59-.18-1.49.01-2.63.53-3.48 1.59-.84 1.04-1.17 2.33-.98 3.73.19 1.33.84 2.74 1.94 4.2-.18.2-.36.39-.53.58-2.68 3-4.65 6.22-4.65 6.76v.28h3.54l-.06-.33c-.2-1.06.2-2.38 1.02-3.37.51-.62 1.36-1.33 2.7-1.65 1.19 1.16 2.7 2.39 4.38 3.58h2.63v-.28c0-.31-.15-.59-.44-.77-.42-.27-1.06-.31-1.65-.11-.56-.63-.88-1.46-.95-2.5 5.71.51 11.17 2.81 17.34 6.03h3.39l.04-.22c.1-.32-.07-.74-.42-1.13zM4.1 22.64c-.84 1.01-1.28 2.35-1.18 3.49H.69c.45-.97 2.23-3.77 4.87-6.61.36.45.77.9 1.21 1.36a5.484 5.484 0 0 0-2.67 1.76z"/></g></svg>