<svg id="Ubuntu" xmlns="http://www.w3.org/2000/svg" viewBox="0 0 99.9 99.9"><style>.st0{fill:#dd4814}.st1{fill:#fff}</style><title>ubuntu</title><path class="st0" d="M99.9 49.9c0 27.6-22.4 49.9-49.9 49.9S0 77.5 0 49.9 22.4 0 49.9 0c27.6 0 50 22.4 50 49.9z"/><path class="st1" d="M16 43.3a6.7 6.7 0 1 0 6.7 6.7c0-3.7-3-6.7-6.7-6.7zm47.6 30.3c-3.2 1.8-4.3 5.9-2.4 9.1 1.8 3.2 5.9 4.3 9.1 2.4 3.2-1.8 4.3-5.9 2.4-9.1-1.9-3.2-5.9-4.3-9.1-2.4zM30.5 49.9c0-6.3 3.1-12.3 8.3-15.9l-4.9-8.1c-5.9 3.9-10.2 9.9-12 16.8 4 3.3 4.6 9.2 1.4 13.2-.4.5-.9.9-1.4 1.4 1.8 6.9 6.1 12.9 12 16.8l4.9-8.2c-5.2-3.7-8.3-9.6-8.3-16zm19.4-19.4c10.1 0 18.5 7.7 19.4 17.8l9.5-.1c-.5-7.1-3.5-13.8-8.6-18.8-4.8 1.8-10.2-.6-12.1-5.4-.2-.6-.4-1.2-.5-1.8-6.9-1.9-14.2-1.2-20.6 2l4.6 8.3c2.7-1.4 5.5-2 8.3-2zm0 38.9c-2.8 0-5.6-.6-8.2-1.8l-4.6 8.3c6.4 3.2 13.7 3.9 20.6 2 .8-5.1 5.6-8.6 10.7-7.7.6.1 1.2.3 1.8.5 5.1-5 8.1-11.7 8.6-18.8l-9.5-.1c-.9 9.9-9.3 17.6-19.4 17.6zm13.7-43.1c3.2 1.8 7.3.7 9.1-2.4 1.8-3.2.7-7.3-2.4-9.1-3.3-1.9-7.3-.8-9.2 2.4-1.8 3.2-.7 7.3 2.5 9.1z"/></svg>