<svg id="Layer_1" xmlns="http://www.w3.org/2000/svg" viewBox="0 0 32 32"><style>.st0,.st1{opacity:.7;fill:#fff;enable-background:new}.st1{opacity:.5;fill:#e1eef4}.st2{fill:#293644}.st3{fill:#d4dfe5}.st4{fill:#dfeef6}.st5{fill:none;stroke:#e2e2e2;stroke-width:.8378;stroke-miterlimit:10}.st6{fill:#fff}</style><path class="st0" d="M12.83 15.35c-.24-.07-.48-.13-.73-.19-.12-.03-.25-.05-.37-.08s-.25-.05-.37-.07l-.18-.03-.19-.02c-.13-.02-.25-.04-.38-.05-.13-.01-.25-.03-.38-.04l-.38-.03c-.26-.01-.51-.03-.77-.03-.13 0-.26-.01-.39-.01H8.3c-.26 0-.52 0-.77.01l-.39.02-.38.03-.39.04c-.13.01-.26.03-.39.05l-.77.12c-.26.05-.52.1-.77.15-.52.1-1.04.21-1.55.34-.26.06-.52.13-.77.21l-.39.12c.05.01.1.03.15.04.18.04.37.06.57.09.1.01.2.03.3.04l.15.03.06.01.07.01c.18.02.37.01.56 0 .38-.02.77-.07 1.16-.11.19-.02.39-.04.59-.04h.29l.29.01c.19 0 .39.01.58.02h.01c.02 0 .03-.01.05-.01l.05-.01.05-.01c.04-.01.07-.01.11-.02l.21-.03c.14-.02.27-.02.41-.03.27-.01.53 0 .79 0 .26.01.52.01.77.03.26.01.51.05.77.08s.51.04.76.03l.26-.02-.27.08c-.18.06-.37.08-.56.1-.19.02-.38.03-.56.04-.38.02-.76.02-1.14.01-.15 0-.3-.01-.46-.02-.12 0-.25.01-.37.01l-.37.03-.18.03c-.03.01-.06.01-.09.02l-.04.01-.05.01c-.12.04-.24.07-.34.12l-.06.03c.04.02.09.03.14.05.11.04.24.07.36.09.12.03.25.05.37.07l.19.03c.06.01.12.01.19.02.25.02.5.03.75.03s.5-.01.75-.04c.5-.05 1-.12 1.49-.22.25-.05.49-.1.73-.16l.18-.05.18-.05c.12-.03.23-.07.35-.1.23-.07.47-.15.7-.23.24-.08.48-.15.72-.19l.02-.03c.02-.05-.01-.11-.08-.17a.539.539 0 0 0-.13-.07c-.09-.02-.21-.06-.33-.1zM17.64 17.09c.1.07.19.14.3.21l.15.1.16.1c.21.13.42.26.64.39.43.25.88.48 1.34.68.23.1.47.19.7.27.24.08.48.15.72.21.06.01.12.03.18.04.06.01.12.02.19.03.12.02.25.04.38.05l.37.03h.15c-.01-.02-.03-.03-.05-.05-.08-.08-.18-.15-.28-.22l-.04-.03-.04-.02c-.02-.02-.05-.03-.07-.05-.05-.03-.1-.06-.16-.08-.11-.05-.23-.1-.34-.15-.11-.04-.23-.09-.34-.13-.15-.04-.29-.08-.44-.13-.36-.12-.72-.24-1.08-.37-.18-.07-.35-.14-.52-.21-.17-.08-.34-.16-.5-.27l-.23-.16.26.1c.24.09.48.16.73.21.25.05.5.1.75.17s.49.15.74.22c.25.08.5.15.75.25.13.05.25.1.38.15.06.03.12.06.19.09.03.02.06.03.09.05l.05.03.04.03c.01.01.03.02.04.03h.01c.19.05.37.11.56.16l.28.09c.09.03.18.06.28.09a9 9 0 0 1 .55.22c.36.16.71.33 1.06.47.18.07.36.13.53.17l.07.01.06.01.15.02c.1.02.2.03.3.05.19.04.38.08.57.09.05.01.1.01.15.01l-.33-.24c-.22-.15-.44-.3-.67-.44-.45-.28-.91-.55-1.37-.81l-.69-.39-.69-.36c-.12-.06-.23-.11-.35-.17l-.35-.16-.35-.15-.37-.14c-.24-.09-.49-.17-.73-.26-.12-.04-.25-.08-.37-.12-.12-.04-.24-.08-.37-.12-.25-.08-.49-.14-.74-.21l-.37-.09-.37-.09c-.12-.03-.25-.05-.37-.08l-.19-.04c-.06-.01-.12-.02-.19-.03-.12-.02-.25-.03-.38-.05-.13-.02-.25-.03-.38-.04-.25-.03-.5-.05-.75-.05-.12 0-.25 0-.37.01-.05 0-.1.01-.14.02-.08.03-.13.07-.13.13l.01.04c.22.12.43.27.63.41.21.18.41.33.6.47z"/><path class="st1" d="M7.51 14.68c-1.12.02-2.19.2-3.3.42-.8.16-2.22.47-2.96.79.31.28 1.07.29 1.5.37.71.13 1.88-.16 2.61-.17.51 0 1 0 1.5.02-.09.01-.18.03-.26.05-.17.05-.7.19-.67.36.04.19.92.35 1.09.38 1.35.24 3.03-.04 4.41-.42.74-.21 1.2-.47 1.92-.75-.25.05-.49.12-.72.19-.24.08-.47.15-.7.23-.12.03-.23.07-.35.1l-.18.05-.18.05c-.24.06-.48.12-.73.16-.49.1-.99.17-1.49.22-.25.02-.5.03-.75.04-.25 0-.5-.01-.75-.03-.06-.01-.13-.01-.19-.02s-.12-.02-.19-.03c-.12-.02-.25-.04-.37-.07-.12-.03-.25-.06-.36-.09-.05-.02-.09-.03-.14-.05l.06-.03c.1-.05.22-.09.34-.12l.05-.01.04-.01c.03-.01.06-.01.09-.02l.18-.03c.12-.02.25-.03.37-.03.12-.01.24-.01.37-.01.15.01.3.02.46.02.38.01.76 0 1.14-.01.19-.01.38-.02.56-.04.19-.02.37-.04.56-.1l.27-.09-.28.02c-.25.01-.51 0-.76-.03-.26-.03-.51-.06-.77-.08l-.77-.03c-.26-.01-.52-.01-.79 0-.13 0-.27.01-.41.03l-.21.03c-.03.01-.07.01-.11.02l-.05.01-.05.01c-.01.01-.03.02-.04.02h-.01c-.19-.01-.39-.02-.58-.02l-.29-.01h-.29c-.2 0-.4.02-.59.04-.39.04-.78.09-1.16.11-.19.01-.38.01-.56 0l-.07-.01-.07-.01-.15-.03c-.1-.02-.2-.03-.3-.04-.2-.03-.39-.05-.57-.09-.05-.01-.1-.02-.15-.04.13-.04.26-.09.39-.12.25-.07.51-.14.77-.21.52-.13 1.03-.24 1.55-.34.26-.05.52-.1.77-.15.26-.05.52-.09.77-.12.13-.02.26-.03.39-.05l.39-.04.38-.03.39-.02c.25-.01.52-.01.77-.01h.39c.13 0 .26 0 .39.01.26 0 .51.02.77.03l.38.03c.13.01.25.02.38.04.12.01.25.03.38.05l.19.02.18.03c.12.02.25.05.37.07.12.02.25.05.37.08.25.06.49.11.73.19.12.04.24.07.35.12.04.02.09.04.13.07-.38-.31-1.9-.61-2.17-.66-1.12-.19-2.46-.22-3.61-.21z"/><path class="st2" d="M13.47 15.58c-.02-.04-.04-.06-.07-.09-.05-.05-.11-.08-.16-.12-.11-.07-.23-.12-.35-.17-.24-.1-.49-.17-.73-.24-.25-.07-.5-.13-.75-.18-.06-.01-.13-.03-.19-.04l-.19-.03c-.13-.02-.25-.04-.38-.05-.13-.01-.26-.03-.39-.04l-.39-.04c-.26-.02-.52-.04-.78-.05-.13-.01-.26-.01-.39-.01s-.26-.01-.39-.01c-.26 0-.52-.01-.79 0l-.39.01-.4.02-.4.03c-.13.01-.26.03-.4.05l-.79.12c-.26.05-.52.09-.79.15-.26.05-.52.11-.78.16-.26.06-.52.12-.79.18-.26.06-.52.13-.78.21-.26.08-.52.16-.78.28l-.25.11.19.17c.1.09.21.14.31.18.11.04.21.07.31.09.22.04.42.06.61.08l.29.03.14.02c.03 0 .06.01.08.01l.08.01c.21.01.41 0 .61-.02.4-.04.78-.11 1.17-.16.19-.03.38-.05.57-.06.19-.01.39-.01.58-.02h.15c-.04.02-.08.04-.12.07-.04.03-.08.06-.12.12-.02.03-.04.07-.04.12V16.56s0 .02.01.02c.01.02.01.03.02.04.05.08.09.11.13.13.04.03.08.05.11.06.07.03.14.06.21.08a5.951 5.951 0 0 0 1 .22l.2.03c.27.03.54.04.8.04.27 0 .53-.02.79-.05.13-.01.26-.03.39-.05l.39-.06c.26-.04.51-.1.76-.15.25-.06.5-.12.74-.19l.18-.05.02-.01.03-.01.04-.01.09-.03c.12-.04.24-.09.36-.13.23-.1.46-.21.67-.33.21-.12.43-.24.63-.38-.73.29-1.18.55-1.92.75-1.38.38-3.06.66-4.41.42-.17-.03-1.06-.19-1.09-.38-.03-.17.49-.31.67-.36.08-.02.17-.04.26-.05-.5-.03-.99-.03-1.5-.02-.74.01-1.91.3-2.61.17-.43-.08-1.19-.08-1.5-.37.74-.32 2.17-.63 2.96-.79 1.11-.23 2.17-.41 3.3-.42 1.15-.02 2.49.02 3.63.2.27.04 1.79.35 2.17.66.01.01.02.01.03.02.02.02.04.03.05.05.01.01.01.02.01.03v.03l.07.02c0-.01.01-.01.01-.02v-.03c.01-.02 0-.04-.01-.06zM27.96 20.05c-.21-.19-.43-.35-.66-.51-.22-.16-.45-.31-.68-.45-.23-.14-.46-.29-.69-.42-.23-.14-.46-.27-.69-.4-.23-.13-.46-.26-.7-.39-.23-.13-.47-.25-.71-.36-.12-.06-.24-.11-.36-.17l-.37-.16-.37-.15-.37-.13c-.25-.09-.5-.17-.75-.25-.12-.04-.25-.08-.37-.11-.12-.04-.25-.08-.38-.11-.25-.07-.5-.14-.75-.2l-.38-.09c-.13-.03-.26-.05-.38-.08-.13-.03-.25-.05-.38-.07l-.19-.03c-.07-.01-.13-.02-.19-.02-.26-.03-.51-.05-.77-.06-.26-.01-.51-.02-.77 0-.13.01-.26.02-.39.05-.06.01-.13.03-.19.06-.03.01-.06.03-.09.06-.01.01-.03.03-.03.05 0 .01-.01.02-.01.03v.03h.08v-.02-.01c0-.01.01-.01.02-.02.02-.01.04-.02.07-.03.01 0 .02-.01.03-.01.46-.17 2 .02 2.27.06 1.14.18 2.42.57 3.51.95 1.06.37 2.01.88 2.99 1.44.7.4 1.96 1.15 2.56 1.69-.39.17-1.1-.06-1.54-.12-.71-.1-1.73-.75-2.43-.99-.48-.16-.95-.32-1.43-.45.08.04.16.09.23.13.15.1.6.4.52.55-.09.17-.98.04-1.16.02-1.36-.2-2.87-1-4.05-1.79-.64-.43-.99-.82-1.59-1.32.16.19.32.37.48.56.17.18.34.36.53.53.1.08.2.17.3.24l.08.06.04.03.02.02.02.01.16.11c.21.14.43.28.64.41.22.13.44.26.67.38.11.06.23.12.35.18.12.06.24.11.36.17.24.11.49.21.74.29.25.09.51.16.77.22.07.01.13.03.2.04l.2.03c.14.02.27.03.4.05.13.01.27.02.41.02.07 0 .14 0 .22-.01.04-.01.08-.01.13-.02s.1-.03.17-.09c.01-.01.02-.01.03-.03 0-.01.01-.02.01-.02l.01-.01v-.01l.01-.02c.01-.01.01-.02.01-.04.01-.05.01-.09 0-.13-.02-.07-.05-.11-.07-.15-.03-.04-.06-.08-.09-.11.05.02.1.03.15.05.18.06.37.13.54.2.17.07.35.15.52.24.35.17.69.36 1.05.52.18.08.37.16.58.21l.08.02c.03.01.06.01.08.02l.14.02.28.06c.19.04.39.09.6.11.1.01.21.02.33.02.11 0 .23-.02.35-.07l.24-.1-.2-.21z"/><path class="st1" d="M22.06 19.35c.17.03 1.06.15 1.16-.02.08-.15-.37-.45-.52-.55-.07-.05-.15-.09-.23-.13.48.13.95.29 1.43.45.7.24 1.71.89 2.43.99.44.06 1.15.3 1.54.12-.6-.54-1.86-1.28-2.56-1.69-.98-.56-1.93-1.07-2.99-1.44-1.09-.38-2.37-.77-3.51-.95-.27-.04-1.81-.23-2.27-.06a.59.59 0 0 1 .14-.02c.12-.01.25-.01.37-.01.25.01.5.03.75.05.13.01.25.03.38.04.13.01.25.03.38.05l.19.03.19.04c.13.02.25.05.37.08s.25.05.37.09l.37.09.74.21c.12.04.25.08.37.12.12.04.25.08.37.12.24.08.49.17.73.26l.37.14.35.15.35.16c.12.05.23.11.35.17l.69.36c.23.13.46.25.69.39.46.26.92.53 1.37.81.23.14.45.29.67.44l.33.24c-.05 0-.1 0-.15-.01-.18-.02-.37-.06-.57-.09-.1-.02-.2-.04-.3-.05l-.15-.02-.06-.01-.07-.01c-.18-.04-.36-.11-.53-.17-.36-.14-.71-.31-1.06-.47-.18-.08-.36-.16-.55-.22-.1-.03-.19-.06-.28-.09l-.28-.09c-.19-.06-.37-.11-.56-.16h-.01c-.01-.01-.03-.02-.04-.03l-.04-.03-.05-.03a.405.405 0 0 0-.09-.05c-.06-.03-.12-.07-.19-.09-.12-.06-.25-.11-.38-.15-.25-.09-.5-.17-.75-.25-.25-.07-.5-.15-.74-.22-.25-.07-.5-.12-.75-.17-.25-.05-.5-.12-.73-.21l-.26-.1.23.16c.16.11.33.19.5.27.17.08.35.15.52.21.35.13.71.26 1.08.37.14.04.29.09.44.13.12.04.23.08.34.13.12.05.23.09.34.15.05.03.11.06.16.08.02.02.05.03.07.05l.04.02.04.03c.1.07.2.15.28.22l.05.05h-.15c-.12 0-.25-.01-.37-.03-.12-.01-.25-.03-.38-.05l-.19-.03c-.06-.01-.12-.03-.18-.04-.24-.06-.49-.13-.72-.21-.24-.08-.47-.17-.7-.27-.46-.2-.91-.43-1.34-.68-.22-.12-.43-.25-.64-.39l-.16-.1-.15-.1c-.11-.07-.2-.14-.3-.21-.2-.14-.39-.29-.59-.44-.2-.15-.41-.29-.63-.41.6.5.95.89 1.59 1.32 1.18.77 2.69 1.57 4.04 1.76z"/><path class="st3" d="M12.2 16.91c-.02.44.25.86.5 1.23.37.55.18 1.26.19 1.85.02.92-.31 4.56.47 5.42.99-.42 1.8-3.87 2.11-4.72.2-.55.24-1.47.77-1.84.39-.27.93-.56 1.03-1.05l-2.34-2.38c.01-.01-2.72 1.46-2.73 1.49z"/><path class="st4" d="M16.9 17.8c-.06.03-.13.06-.19.09.08-.05.16-.11.24-.17.09-.07-.07-.16-.14-.14-.11.03-.22.05-.33.09.05-.07.1-.14.13-.22.04-.09-.09-.14-.15-.13-.68.12-1.15.58-1.76.88-.3.15-.6.28-.92.38-.04.01-.08.02-.13.04-.08.02-.16.04-.25.05-.07.02-.13 0-.17-.08.06-.06.23-.09.31-.11.29-.07.56-.17.83-.29.24-.11.46-.24.67-.39.44-.15.85-.37 1.18-.7.07-.07-.11-.13-.15-.13-.37.05-.65.24-.93.48-.09.08-.18.15-.27.21-.18.06-.36.11-.54.15-.12.03-.25.05-.38.06.18-.09.35-.19.53-.29.48-.26 1.03-.42 1.43-.81.09-.09-.1-.15-.16-.14-.51.14-.98.37-1.46.6h.01c.42-.21.84-.43 1.24-.66.1-.06-.07-.14-.15-.14.04-.02.08-.04.11-.06.13-.07-.06-.18-.14-.15-.46.18-.9.38-1.33.61-.34.18-.77.54-1.19.64.24-.23.6-.35.88-.51.42-.24.83-.49 1.23-.75.07-.05-.01-.11-.08-.13.09-.06.18-.11.27-.17.08-.05-.02-.12-.1-.14.03-.05.04-.1.01-.14a.157.157 0 0 0-.15-.07c-.07.02-.13.06-.2.1-.26.17-.51.34-.79.48-.36.17-.73.32-1.09.49l-.31.09c-.05.02-.06.05-.03.08-.02.01-.05.03-.07.04-.03.01-.03.05-.01.08.06.1.16.13.28.12-.1.05-.2.1-.31.14-.11.05.01.16.09.16s.15-.01.22-.03c-.07.06-.14.13-.19.22-.05.07.08.12.13.13h.15l-.09.06c-.1.07.1.17.17.14.01 0 .01-.01.02-.01.02-.01.05-.03.07-.04-.01.01-.02.02-.03.02-.09.08.08.15.14.14.4-.02.74-.26 1.07-.44.35-.2.73-.38 1.11-.53-.29.16-.61.28-.9.43-.35.18-.67.38-1.03.53-.15.04-.3.09-.43.17-.11.07.1.15.17.14.13-.04.26-.09.39-.14.2-.04.41-.05.6-.08l.32-.06c-.15.08-.31.15-.48.21-.24.09-.64.1-.83.3-.09.09.04.25.14.29.01 0 .02.01.03.01-.03.02-.07.03-.1.05-.06.04.01.11.05.13.16.06.32.06.48.03-.12.05-.24.1-.36.14-.1.04-.02.12.07.14-.22.13-.36.27-.23.36.13.09.32 0 .44-.04.13-.05.25-.1.38-.15-.02.01-.03.02-.05.03-.03.02-.03.04-.02.06-.07.04-.15.08-.22.13-.04.03-.03.06-.01.08-.22.07-.44.15-.6.32-.07.07.05.14.11.14.28.03.56-.02.84-.11-.04.06.07.12.12.12.15.01.29-.01.42-.04-.02.01-.05.02-.07.03-.1.05-.21.1-.32.14-.33.09-.66.18-.97.32-.13.06.06.18.15.15.24-.11.5-.18.75-.26.03-.01.05-.02.08-.02-.32.17-.63.34-.92.55-.11.08.1.16.17.13.05-.02.1-.04.15-.05-.09.08-.17.16-.24.26-.06.08.1.14.16.12.23-.06.44-.14.65-.22-.16.14-.31.3-.42.49-.03.06.02.09.07.11-.05.03-.1.07-.15.1-.1.07.11.17.19.12.1-.06.2-.13.29-.2.17-.1.34-.19.53-.22-.09.14-.27.22-.41.28-.13.06.06.18.14.14.22-.1.5-.23.55-.5.01-.07-.08-.11-.13-.11-.06 0-.13 0-.19.01.11-.1.22-.2.33-.32.07-.08-.13-.15-.18-.12-.23.12-.41.35-.63.5.34-.38.83-.62 1.22-.91.1-.07-.1-.17-.16-.13-.47.23-.93.5-1.42.68.37-.33.88-.51 1.28-.78.08-.06-.03-.12-.11-.14.04-.02.07-.04.11-.06.01 0 .01-.01.02-.01.06-.03.03-.07-.03-.1.25-.12.49-.25.67-.43.09-.09-.1-.15-.16-.13-.36.11-.72.34-1.1.41.38-.26.83-.45 1.24-.62.13-.05-.06-.17-.14-.15-.37.12-.72.29-1.08.43-.31.13-.65.28-1 .33.33-.2.79-.28 1.12-.42.56-.24 1.11-.48 1.63-.78.09-.05-.03-.12-.11-.14.23-.12.45-.25.68-.37.13-.07-.06-.17-.14-.15-.04.01-.08.02-.11.03.19-.1.38-.19.58-.28.07-.01-.11-.14-.2-.1zm-2.81-.47c-.21.11-.43.26-.65.36.21-.14.43-.26.65-.36zm-.33 1.46c-.08.03-.16.05-.23.06.04-.01.08-.03.12-.04.04 0 .07-.01.11-.02zm1.36-.61c.38-.24.76-.5 1.18-.64-.07.1-.16.19-.27.27-.31.11-.61.23-.91.37zm-1.63 1.24a9.709 9.709 0 0 1 1.02-.46c.46-.19.89-.43 1.33-.66.08-.03.16-.06.25-.1-.38.2-.76.42-1.15.6-.48.23-.96.43-1.45.62zm1.88-.57c-.03.02-.07.04-.1.05h-.01c.01-.01.02-.01.03-.02.03-.01.05-.02.08-.03z"/><path class="st2" d="M20.2 20.59l-.27-.27c-.23-.23-.57-.56-.96-.97-.2-.2-.41-.42-.64-.66-.23-.23-.46-.48-.71-.74-.25-.26-.5-.53-.76-.8s-.52-.55-.79-.84l-.87-.93c.19-.11.39-.21.58-.32.16-.09.32-.17.47-.26.16-.08.31-.17.46-.24.3-.16.58-.33.83-.49.25-.16.47-.32.66-.48.19-.16.33-.31.44-.46.11-.14.17-.27.2-.36.02-.04.03-.08.03-.1.01-.02.01-.04.01-.04s0 .01-.01.04c-.01.02-.02.06-.04.1-.04.09-.11.21-.22.34-.11.13-.27.27-.46.42-.19.14-.42.29-.68.43-.26.14-.55.28-.85.42-.15.07-.31.14-.47.22-.16.08-.32.16-.48.25-.21.11-.43.22-.64.34l-.5-.53c-.13-.13-.25-.26-.37-.39s-.25-.25-.37-.36c-.25-.23-.47-.46-.67-.67-.2-.22-.37-.43-.5-.63-.14-.2-.24-.38-.3-.54-.06-.16-.09-.3-.1-.39-.01-.05-.01-.08-.01-.11v-.04.15c0 .1.02.24.07.41.05.17.14.36.27.58.12.21.28.44.47.67.18.24.39.48.62.73l.35.38c.12.13.24.26.36.4.14.16.29.33.44.49-.37.2-.75.4-1.13.6-.34.18-.68.36-1.02.53-.12.06-.78.41-.98.51-.32.16-.62.32-.92.47-.29.15-.57.29-.82.41-.51.25-.93.46-1.23.6-.15.07-.27.12-.35.16l-.12.06s.05-.01.13-.04.21-.07.37-.12c.16-.05.34-.12.56-.2.22-.08.46-.18.72-.29.26-.11.55-.23.84-.37.3-.14.61-.28.93-.44l.42-.21c0 .08.01.16.03.23.04.19.12.37.22.54.09.17.21.33.3.48.09.16.14.34.16.52.04.37-.02.74-.03 1.12v.03c-.03.02-.05.04-.07.06-.03.03-.05.07-.06.09-.01.03-.01.04-.01.04s0-.01.01-.04c.01-.02.04-.05.07-.07.01-.01.03-.02.05-.02 0 .16 0 .31-.01.47l-.02.54c-.03.75-.05 1.5-.02 2.25.02.38.05.75.11 1.13.03.19.07.37.13.55.06.18.14.36.27.51l.01.01h.02l.01-.01c.18-.08.32-.22.44-.37s.22-.31.31-.48c.18-.33.33-.68.46-1.03.21-.55.39-1.11.56-1.67h.01v-.02c.05-.15.09-.3.13-.45.05-.18.11-.36.16-.54.03-.09.06-.18.09-.26.03-.09.05-.18.08-.27.01-.03.01-.06.02-.09.02.01.04.03.06.04l.12.09s-.04-.04-.11-.1c-.02-.02-.04-.03-.06-.05.03-.14.07-.29.11-.43.05-.18.11-.36.19-.52.08-.16.19-.31.33-.41.15-.1.3-.2.45-.31.15-.11.29-.22.4-.37.05-.07.1-.15.13-.23.05.06.11.11.16.17.26.25.5.49.74.72.24.23.47.43.68.63.22.19.41.36.59.51.18.15.33.28.46.38a11.02 11.02 0 0 0 .42.31s-.02-.04-.09-.1zm-4.65-.26c-.02.09-.05.18-.08.27l-.09.27c-.06.18-.11.36-.17.54-.03.12-.07.23-.1.35-.01-.03-.02-.06-.04-.09-.02-.05-.06-.1-.1-.15a1.274 1.274 0 0 0-.34-.28c-.07-.04-.14-.08-.22-.11-.08-.03-.16-.05-.24-.07a1.614 1.614 0 0 0-.71.02c-.07.02-.13.04-.19.06-.06.02-.11.05-.15.07-.04.03-.08.05-.11.07a.17.17 0 0 0-.06.06l-.02.02v.01s.01 0 .03-.01c.02-.01.04-.02.08-.03.02-.01.03-.01.05-.02.02-.01.04-.01.06-.02l.15-.03c.06-.01.12-.01.18-.02h.2c.07 0 .14.01.22.01l.22.03c.07.01.15.03.22.05l.21.06c.13.05.25.11.34.18.09.07.14.16.17.21.01.01.01.02.01.02-.18.58-.36 1.15-.57 1.71-.13.35-.28.69-.46 1.02-.09.16-.19.32-.3.47-.11.13-.23.26-.38.33-.11-.13-.18-.29-.23-.46-.06-.18-.1-.36-.13-.54-.06-.37-.09-.74-.11-1.11-.03-.75-.02-1.5.01-2.24l.02-.56c.01-.17 0-.34 0-.5.07-.02.14-.04.24-.06.15-.03.33-.05.53-.05.1 0 .2-.01.3-.01H14.44c.05 0 .11.01.15.01.1.01.19.02.29.04.09.02.18.05.26.09.08.04.16.08.22.12.08.05.15.1.21.14 0 .06-.01.1-.02.13zm1.52-2.17c-.11.14-.25.26-.39.36-.15.11-.3.2-.45.3-.16.11-.27.26-.35.43-.08.17-.14.35-.19.53-.04.13-.07.27-.1.4-.05-.05-.11-.1-.18-.16-.13-.1-.29-.21-.48-.3-.1-.04-.19-.08-.3-.11-.06-.02-.11-.03-.16-.04-.06-.01-.11-.02-.17-.02-.11-.01-.22 0-.32.01-.11.01-.21.03-.31.05-.2.04-.38.09-.53.14-.08.03-.15.06-.2.09.01-.36.07-.73.02-1.11-.02-.19-.07-.38-.17-.55-.1-.16-.21-.31-.31-.48-.09-.16-.17-.34-.21-.52-.02-.08-.03-.17-.03-.25.17-.08.34-.17.51-.26.34-.17.68-.35 1.02-.53.34-.18.68-.37 1.02-.55.05-.03.11-.06.16-.09.04.05.08.09.12.14.14.15.27.3.41.45l.01.02c.04.05.08.11.13.16.04.05.08.11.13.16l.13.15c.04.05.09.1.14.15l.14.15.14.14c.05.05.1.09.15.14.03.03.07.06.11.09l.09.09c.19.2.38.39.56.58-.04.09-.08.17-.14.24z"/><path class="st6" d="M15.04 21.79c-.02-.05-.13-.06-.16-.04-.1.06-.18.13-.26.2h-.01c-.45.21-.83.56-1.23.86-.07.05-.15.1-.23.15.22-.13.42-.34.62-.5.29-.24.58-.47.87-.71.05-.05-.13-.08-.16-.06-.34.15-.68.34-1.02.49.29-.26.33-.36.39-.49.12-.02.23-.05.31-.09l-.23-.07c.03-.06-.13-.08-.16-.06-.22.12-.47.16-.69.28-.07.04.1.1.15.07.07-.04.18-.07.29-.09-.21.18-.45.35-.51.63-.01.06.12.07.15.06.31-.1.61-.25.91-.4-.39.32-.76.61-1.14.94-.02.02 0 .04.01.05.17.13.35.04.51-.07.29-.19.55-.42.83-.63-.33.34-.67.66-1.02.98-.05.05.13.08.16.06.18-.08.36-.19.52-.3-.23.27-.47.53-.73.77-.05.05.12.08.15.07.19-.06.37-.14.55-.22-.25.24-.49.49-.72.76-.04.05.13.1.17.05.19-.2.37-.4.56-.59-.11.2-.22.4-.32.61-.12.12-.22.24-.31.39-.02.04.03.06.08.07l-.03.06c-.03.06.15.07.18.04.25-.24.32-.4.45-.71.28-.38.48-.79.68-1.24.02-.05-.07-.07-.13-.05.08-.19.16-.39.22-.59.05.03.13.02.13-.02.01-.21.24-.43.17-.66zm-.21.29c-.02-.02-.05-.02-.09-.02.04-.04.08-.08.13-.11-.01.04-.02.08-.04.13zm-.78.69c0 .01-.01.02-.01.03v.02c-.05.04-.11.08-.16.12.05-.06.11-.11.17-.17zm.44-.13c.03-.04-.03-.06-.08-.07a2 2 0 0 1 .19-.22c-.1.36-.24.7-.4 1.03-.19.11-.39.2-.59.29.31-.31.61-.65.88-1.03z"/><path class="st1" d="M17.36 16.58c.04-.02.09-.03.13-.04.09-.02.18-.03.27-.04.09-.01.18-.01.27-.01h.27c.09 0 .18.01.26.01l.27-.01h.54c.36 0 .72.01 1.07-.01.09-.01.18-.01.27-.02l.13-.01.14-.02.54-.08c.36-.05.72-.11 1.08-.17.36-.06.72-.14 1.07-.23.35-.1.7-.21 1.03-.36.26-.12.51-.27.71-.45-.03 0-.06-.01-.09-.01-.05 0-.11-.01-.16-.01h-.32c-.05 0-.11.01-.16.01l-.33.03c-.11.01-.22.03-.33.05-.11.02-.22.04-.33.07-.11.02-.22.05-.33.07l-.32.08c.19-.05.38-.1.57-.16.05-.01.1-.03.15-.04l.24-.08c.11-.03.21-.07.32-.1l.12-.03c.1-.03.2-.06.29-.08.19-.06.38-.1.58-.15l.29-.07c.09-.02.19-.05.28-.07.19-.05.37-.11.56-.18.18-.07.37-.14.55-.22.18-.08.36-.16.54-.25l.54-.26c.18-.09.36-.18.54-.26.37-.17.74-.32 1.11-.49.18-.08.36-.17.54-.26.09-.05.17-.1.26-.15.04-.03.08-.05.12-.08l.12-.08c.17-.12.34-.23.5-.34.11-.08.21-.16.31-.25-.28-.06-.57-.1-.86-.12-.35-.03-.71-.05-1.06-.05-.35 0-.71.01-1.06.02-.35.02-.71.04-1.06.08-.18.01-.35.04-.52.05-.17.02-.35.04-.52.07l-.52.08-.51.09-.25.05-.25.06-.26.06-.12.03-.13.03c-.34.09-.67.17-1 .26-.66.18-1.32.37-1.97.59-.32.11-.64.22-.96.34-.16.06-.32.12-.47.19-.16.06-.31.13-.47.19-.15.07-.3.13-.46.2-.15.07-.31.14-.46.21l-.46.21-.45.21c-.3.14-.6.29-.88.47-.14.09-.28.18-.4.28-.13.11-.24.22-.33.36h-.01s-.03.1-.03.18c0 .08.16.14.3.22.14.08.83.55.83.55v-.05c0-.01.01-.03.02-.04l-.01-.01c.03-.02.08-.04.12-.06z"/><path class="st2" d="M31.83 11.67c-.35-.08-.71-.14-1.07-.18-.36-.04-.72-.06-1.08-.07-.36-.01-.72-.01-1.08 0-.36.01-.71.03-1.07.05-.18.01-.35.03-.53.04-.18.01-.35.04-.53.05l-.53.07c-.18.03-.35.05-.53.08l-.26.05c-.09.02-.17.03-.26.05l-.26.05-.06.01-.07.01-.13.03c-.34.08-.68.16-1.02.25-.34.09-.67.18-1 .28-.33.1-.66.2-.99.31a19.168 19.168 0 0 0-1.93.75c-.32.15-.62.3-.91.46l-.45.24c-.15.08-.3.16-.44.25-.15.08-.29.18-.43.27-.14.09-.28.19-.41.3-.13.11-.26.22-.38.35-.06.06-.11.13-.16.2s-.08.15-.11.23h.02c.09-.14.2-.26.33-.36.13-.11.26-.2.4-.28.28-.17.58-.32.88-.47l.45-.21.46-.21c.16-.07.31-.14.46-.21.15-.07.31-.14.46-.2.15-.06.31-.13.47-.19.16-.06.31-.13.47-.19.32-.12.64-.23.96-.34.65-.22 1.3-.41 1.97-.59.33-.09.67-.18 1-.26l.13-.03.12-.03.26-.06c.09-.02.17-.04.25-.06l.25-.05.51-.09.52-.08c.17-.02.35-.05.52-.07.17-.02.35-.04.52-.05.35-.03.7-.06 1.06-.08.35-.02.71-.03 1.06-.02.35 0 .71.02 1.06.05.29.03.58.07.86.12-.1.09-.2.17-.31.25-.16.12-.33.23-.5.34l-.12.08c-.04.03-.08.05-.12.08-.08.05-.17.1-.26.15-.17.09-.35.18-.54.26-.36.16-.74.31-1.11.49-.19.09-.36.18-.54.26l-.54.25c-.18.09-.36.17-.54.25a9 9 0 0 1-1.11.4c-.09.03-.19.05-.28.07l-.29.07c-.19.05-.38.09-.58.15-.1.03-.2.06-.29.08l-.12.03c-.11.03-.22.06-.32.1l-.24.08c-.05.01-.1.03-.15.04-.19.06-.38.11-.57.16l.57-.15h.02c-.2.05-.39.11-.59.15l.32-.08c.11-.03.22-.05.33-.07.11-.02.22-.04.33-.07.11-.02.22-.04.33-.05.11-.01.22-.03.33-.03.05 0 .11-.01.16-.01h.32c.05 0 .11.01.16.01.03 0 .06.01.09.01-.21.18-.45.33-.71.45-.33.15-.68.26-1.03.36-.35.1-.71.17-1.07.23-.36.06-.72.12-1.08.17l-.54.08-.14.02-.13.01c-.09.01-.18.01-.27.02-.36.02-.71.01-1.07.01h-.54l-.27.01c-.09 0-.18 0-.26-.01h-.27c-.09 0-.18 0-.27.01-.09.01-.18.02-.27.04-.05.01-.09.02-.13.04-.04.02-.09.04-.12.08l.01.01c.07-.04.16-.04.25-.05.09 0 .17 0 .26.01s.17.01.26.02l.26.03c.09.01.18.01.27.02h.27c.18 0 .36.01.53.01.36.01.72.02 1.09.01.09 0 .18-.01.28-.01l.14-.01.14-.02.55-.07c.36-.05.73-.1 1.1-.17.37-.07.73-.15 1.1-.25.36-.1.73-.23 1.07-.39.35-.17.68-.38.94-.68l.14-.15-.2-.03c-.05-.01-.09-.01-.14-.02l.09-.02.3-.06c.2-.04.39-.1.59-.16.19-.06.39-.13.58-.2.19-.07.38-.15.56-.23.19-.08.37-.17.55-.25l.54-.26c.36-.17.73-.33 1.1-.52.18-.09.37-.19.54-.3.09-.05.18-.11.26-.17.04-.03.09-.06.13-.09l.12-.09c.16-.12.32-.24.49-.36.16-.12.33-.26.47-.4l.1-.1-.17-.04z"/><path class="st1" d="M13.76 15.42a1.79 1.79 0 0 0-.19-.45c-.09-.14-.19-.27-.29-.4-.21-.25-.44-.49-.68-.72-.12-.12-.24-.23-.36-.34l-.37-.34c-.13-.12-.25-.23-.37-.35-.12-.12-.25-.22-.37-.34-.13-.11-.25-.22-.38-.33-.13-.11-.26-.22-.39-.32-.26-.21-.53-.42-.8-.63-.54-.41-1.11-.8-1.68-1.18-.31-.2-.6-.39-.89-.58l-.11-.07-.11-.06-.22-.14c-.07-.05-.15-.09-.22-.13l-.23-.13c-.15-.09-.3-.17-.45-.25l-.47-.24c-.16-.08-.31-.16-.47-.23-.16-.07-.32-.15-.48-.22-.32-.14-.65-.27-.98-.4-.33-.13-.66-.25-1-.36-.34-.11-.68-.2-1.02-.28-.29-.07-.57-.12-.86-.16.06.12.14.23.22.34.11.16.24.32.36.48l.09.12c.03.04.06.07.09.11.06.07.13.15.2.22.14.14.28.28.43.42.29.27.6.53.9.81l.42.42.43.42c.14.14.29.27.43.4.15.13.3.26.45.38.15.12.31.24.47.35.08.06.16.11.25.16l.25.16c.17.1.33.21.5.33l.29.2c.02.02.05.03.07.05l.28.19.21.15c.04.03.09.06.13.09.16.11.32.22.49.33l-.28-.17c-.09-.06-.19-.12-.29-.17-.1-.06-.19-.11-.29-.17l-.3-.15c-.1-.05-.2-.09-.3-.14l-.15-.06-.15-.06c-.05-.02-.1-.03-.15-.05a.75.75 0 0 0-.16-.04c-.03-.01-.06-.01-.09-.02.14.24.33.45.53.65.26.25.56.46.86.67.3.2.62.39.94.56.32.17.65.34.97.5l.49.24.12.06.12.05c.08.03.16.07.25.1.33.13.67.24 1.02.35.17.05.34.11.51.17l.25.09c.08.03.17.05.25.08l.26.08c.08.03.17.06.25.1.08.04.17.07.25.12.04.02.08.05.11.08.04.03.07.07.09.11l-.01.01c0 .01.01.03 0 .04l-.02.04s.8-.23.96-.26c.15-.03.32-.04.35-.12.05-.07.05-.17.04-.17h.01-.01z"/><path class="st2" d="M13.74 15.17c-.02-.08-.05-.16-.08-.24-.07-.16-.15-.31-.25-.45-.09-.14-.19-.28-.3-.42-.11-.13-.21-.27-.33-.39-.11-.13-.23-.25-.34-.38l-.35-.37c-.23-.24-.47-.49-.72-.73s-.51-.46-.78-.68c-.27-.22-.54-.43-.82-.64-.28-.21-.56-.41-.84-.61-.29-.2-.57-.39-.86-.58-.3-.18-.59-.37-.89-.55l-.11-.07-.06-.03-.06-.04-.22-.13a1.71 1.71 0 0 1-.23-.13l-.24-.12c-.16-.09-.31-.17-.47-.25l-.48-.23c-.16-.07-.32-.15-.49-.22-.16-.06-.32-.14-.49-.2-.33-.14-.66-.26-1-.38-.34-.13-.67-.24-1.02-.34-.35-.1-.69-.2-1.05-.28-.35-.08-.71-.14-1.07-.17l-.18-.01.07.16c.09.19.2.36.32.53.12.17.24.33.35.49l.09.13.09.12c.07.08.13.16.2.24.13.16.28.31.42.45.29.29.59.56.88.84l.43.41c.15.14.29.28.44.41.15.14.3.27.46.4.16.13.32.25.48.37.16.12.33.23.51.33.09.05.18.1.26.15l.08.04c-.05-.01-.09-.02-.14-.02l-.2-.03.08.19c.15.36.41.67.68.94.28.27.58.5.89.71.31.21.64.4.96.58.33.18.66.34.99.5l.5.24.12.06.13.06c.09.04.17.07.26.1.35.13.69.23 1.04.33.17.05.34.1.51.16.09.03.16.06.26.08.09.02.18.05.26.07l.26.06.26.06c.09.02.17.04.25.07.08.03.17.06.22.12l.01-.01a.244.244 0 0 0-.09-.11c-.04-.03-.08-.06-.11-.08a1.15 1.15 0 0 0-.25-.12c-.08-.04-.17-.07-.25-.1l-.26-.08c-.09-.03-.17-.05-.25-.08l-.25-.09c-.17-.06-.34-.12-.51-.17-.34-.11-.68-.22-1.02-.35-.08-.03-.16-.07-.25-.1l-.12-.05-.12-.06-.49-.24c-.33-.16-.65-.33-.97-.5-.32-.17-.64-.36-.94-.56-.3-.2-.6-.42-.86-.67-.21-.2-.4-.41-.53-.65.03.01.06.01.09.02.05.01.1.03.16.04.05.01.1.03.15.05l.15.06.15.06c.1.04.2.09.3.14l.3.15c.1.05.19.11.29.17.09.06.19.11.29.17l.28.17c-.15-.11-.32-.22-.48-.33-.04-.03-.09-.06-.13-.09l-.21-.15a2.75 2.75 0 0 0-.28-.19c-.02-.02-.05-.03-.07-.05l-.29-.2c-.16-.11-.33-.22-.5-.33l-.24-.15c-.08-.05-.17-.1-.25-.16-.16-.11-.32-.23-.47-.35-.15-.12-.3-.25-.45-.38-.15-.13-.29-.27-.43-.4l-.44-.42c-.14-.14-.28-.28-.43-.42-.3-.28-.6-.54-.9-.81-.14-.14-.29-.27-.42-.42-.07-.07-.14-.14-.2-.22-.03-.04-.06-.07-.09-.11l-.09-.12C.83 7.43.7 7.27.58 7.11.51 7 .43 6.89.37 6.77c.29.04.57.09.86.15.34.09.68.18 1.02.29.34.11.67.23 1 .36.33.13.66.26.98.4.16.07.32.14.48.22.16.07.32.15.47.23l.46.24c.16.08.31.16.46.25l.22.13c.08.04.16.08.23.13l.22.14.11.07.11.07.87.57c.57.38 1.14.77 1.68 1.18.27.21.54.41.8.63.13.11.26.21.39.32.13.11.26.22.38.33.12.11.25.22.37.34.12.12.24.23.37.35l.37.34c.12.11.25.23.36.34.24.23.47.47.68.72.1.13.21.26.29.4.09.14.16.29.19.45h.02c.01-.09 0-.17-.02-.25z"/></svg>