<svg id="Layer_1" xmlns="http://www.w3.org/2000/svg" viewBox="0 0 32 32"><style>.st0{fill:#464342}</style><path class="st0" d="M2.27 16c0 5.43 3.16 10.13 7.74 12.35L3.46 10.41A13.73 13.73 0 0 0 2.27 16zM25.27 15.31c0-1.7-.61-2.87-1.13-3.79-.7-1.13-1.35-2.09-1.35-3.22 0-1.26.96-2.44 2.3-2.44.06 0 .12.01.18.01-2.44-2.24-5.7-3.6-9.27-3.6-4.8 0-9.01 2.46-11.47 6.19.32.01.63.02.88.02 1.44 0 3.66-.17 3.66-.17.74-.05.83 1.04.09 1.12 0 0-.74.09-1.57.13l5 14.87 3-9.01-2.14-5.86c-.74-.04-1.44-.13-1.44-.13-.74-.04-.65-1.17.09-1.13 0 0 2.27.17 3.61.17 1.44 0 3.66-.17 3.66-.17.74-.04.83 1.04.09 1.13 0 0-.74.09-1.57.13l4.96 14.75 1.37-4.57c.59-1.89 1.05-3.26 1.05-4.43z"/><path class="st0" d="M16.24 17.2l-4.12 11.97c1.23.36 2.53.56 3.88.56 1.6 0 3.13-.28 4.56-.78a1.14 1.14 0 0 1-.1-.19L16.24 17.2zM28.04 9.41c.06.44.09.91.09 1.41 0 1.39-.26 2.96-1.04 4.92L22.9 27.86c4.08-2.38 6.82-6.8 6.82-11.86.01-2.39-.6-4.63-1.68-6.59z"/><path class="st0" d="M16 0C7.18 0 0 7.18 0 16s7.18 16 16 16 16-7.18 16-16S24.82 0 16 0zm0 31.27C7.58 31.27.73 24.42.73 16S7.58.73 16 .73 31.27 7.58 31.27 16 24.42 31.27 16 31.27z"/></svg>