<svg id="图层_1" data-name="图层 1" xmlns="http://www.w3.org/2000/svg" viewBox="0 0 512 512"><defs><style>.cls-1{fill:#fff;}.cls-2{fill:#1b2d3e;}.cls-3{fill:#26a8d2;}.cls-4,.cls-7{opacity:0.1;}.cls-5,.cls-7{fill:#030000;}.cls-6{fill:#79b3c0;}</style></defs><title>依赖服务</title><circle class="cls-1" cx="360.22" cy="48.78" r="22.17"/><circle class="cls-2" cx="363.01" cy="44.19" r="8.94"/><path class="cls-3" d="M156.78,334.14c-9.35,0-17.6-3.73-22.7-9.44a29.41,29.41,0,0,1-17.81,9.05c.87,3.06,2,6.48,3.35,10.38a28,28,0,0,0,10.76-7.26c5.14,5.76,13.48,9.53,22.91,9.53s17.77-3.76,22.91-9.53c.18.2.39.38.58.57,2.28-3.22,4.43-6.37,6.39-9.4a25.49,25.49,0,0,1-3.7-3.34C174.38,330.41,166.12,334.14,156.78,334.14Z"/><path class="cls-3" d="M130.38,349.72a26.72,26.72,0,0,1-6.64,5.31q1.53,3.84,3.34,8.15c.45-.44.92-.86,1.33-1.32,4.6,5.15,11.72,8.71,19.89,9.48q6.4-6.45,11.9-12.79a34.38,34.38,0,0,1-6.91.7C143.86,359.25,135.52,355.48,130.38,349.72Z"/><path class="cls-3" d="M244.95,359.25c-9.44,0-17.77-3.76-22.91-9.53-5.14,5.76-13.48,9.53-22.91,9.53A33,33,0,0,1,184.66,356q-2.08,5.58-4.2,10.62A32.76,32.76,0,0,0,198,371.5c9.55,0,18-3.81,23.19-9.64,5.21,5.83,13.64,9.64,23.19,9.64h.08q1.88-6.07,3.65-12.41C247,359.18,246,359.25,244.95,359.25Z"/><path class="cls-3" d="M195.39,397c9.35,0,17.6-3.73,22.7-9.44a29.38,29.38,0,0,0,17.69,9q2.28-6,4.47-12.36a30.24,30.24,0,0,1-19.1-9.38c-5.21,5.83-13.64,9.64-23.19,9.64a31.48,31.48,0,0,1-21.82-8.29A137.46,137.46,0,0,1,167.39,392a26,26,0,0,0,5.3-4.46C177.79,393.27,186,397,195.39,397Z"/><path class="cls-3" d="M137.62,381.5a30.08,30.08,0,0,1-3.36-1.81c.52,1.15,1,2.28,1.56,3.47C136.44,382.6,137,382.05,137.62,381.5Z"/><path class="cls-3" d="M224.86,324.7c-5.09,5.71-13.35,9.44-22.7,9.44a33.65,33.65,0,0,1-9.84-1.45q-1.81,6.24-3.73,12a33.8,33.8,0,0,0,10.52,1.67c9.44,0,17.77-3.76,22.91-9.53,5.14,5.76,13.48,9.53,22.91,9.53a34.39,34.39,0,0,0,6.61-.66c1-4,1.94-8.12,2.84-12.3a34.07,34.07,0,0,1-6.84.7C238.21,334.14,230,330.41,224.86,324.7Z"/><path class="cls-3" d="M351.29,13.78C303.8.59,237.84,12.9,207.06,19.06s-80,3.52-86.19,3.52c7,13.19,22.87,22,28.14,24.62s12.31,4.4,30.78-.88,41.33-8.79,53.65-7C209.7,43.69,124.39,62.15,92.73,111.4c31.66-11.43,66-7,74.75-5.28-29.9,3.52-62.44,16.71-74.75,26.38s-15,9.67-15.83,60.68c34.3-20.23,79.15-25.5,88.82-24.62-30.78,9.67-65.08,37.82-72.11,47.49s-15,21.11,4.4,72.12c33.42-38.7,71.24-55.41,79.15-58-22.72,19.79-44.82,48.12-54.61,64.14a28.74,28.74,0,0,0,12.63-8c5.21,5.83,13.64,9.64,23.19,9.64s18-3.81,23.19-9.64c5.21,5.83,13.64,9.64,23.19,9.64s18-3.81,23.19-9.64c5.21,5.83,13.64,9.64,23.19,9.64a34.38,34.38,0,0,0,9.89-1.44c5.35-42.37,5.6-90.87-2.94-145.26-7-47.49-1.76-87.95,41.33-98.5-17.59,13.19-20.23,24.62-21.11,31.66h42.21c25.28,0,45.73-1.32,58.92,21.11C407.57,76.22,398.78,27,351.29,13.78Zm10.3,46.54a11.5,11.5,0,0,1-10.91-7.95l0,.06c0-.15-.06-.29-.09-.44a11.33,11.33,0,0,1-.37-1.81c-1.39-6.58-3-10.81-5.94-13h17.34a11.54,11.54,0,1,1,0,23.09Z"/><path class="cls-3" d="M221.29,430.22a26.55,26.55,0,0,1-6-4.93c-5.14,5.76-13.48,9.53-22.91,9.53s-17.77-3.76-22.91-9.53a28.2,28.2,0,0,1-11.71,7.61c2.2,6.47,5.47,14.28,9.76,24.12,10.55,25.5,6.16,46.61,6.16,46.61S197.83,478.55,221.29,430.22Z"/><path class="cls-3" d="M227.93,299.28c-5.21,5.83-13.64,9.64-23.19,9.64a34.81,34.81,0,0,1-6.21-.58q-1.42,6.38-3,12.44a34.09,34.09,0,0,0,6.6.65c9.35,0,17.6-3.73,22.7-9.44,5.09,5.71,13.35,9.44,22.69,9.44a33.71,33.71,0,0,0,9.49-1.36q1.09-5.95,2.05-12.07a34.73,34.73,0,0,1-8,.93C241.57,308.92,233.13,305.11,227.93,299.28Z"/><path class="cls-3" d="M158.37,308.92c-9.55,0-18-3.81-23.19-9.64-4.6,5.15-11.72,8.71-19.89,9.48a24.85,24.85,0,0,0-1.58,12.55c8.38-.56,15.71-4.09,20.38-9.32,5.09,5.71,13.35,9.44,22.7,9.44s17.6-3.73,22.7-9.44a27.34,27.34,0,0,0,9.48,6.73c2.38-4,4.48-7.73,6.32-11.13a29,29,0,0,1-13.72-8.31C176.35,305.11,167.92,308.92,158.37,308.92Z"/><path class="cls-3" d="M192.35,422c9.44,0,17.77-3.76,22.91-9.53a28,28,0,0,0,10.91,7.32q2.5-5.55,5-11.46a28.29,28.29,0,0,1-13-8c-5.09,5.71-13.35,9.44-22.7,9.44s-17.6-3.73-22.7-9.44a29.23,29.23,0,0,1-17,8.93,24.13,24.13,0,0,0-1,11.76,29,29,0,0,0,14.74-8.51C174.58,418.22,182.91,422,192.35,422Z"/><g class="cls-4"><path class="cls-5" d="M152.46,104.26c5.55-18.49,13.62-34,23.45-49.48C144.83,66,110.41,83.89,92.73,111.4,114.42,103.57,137.34,103.17,152.46,104.26Z"/><path class="cls-5" d="M144.31,177.73c-23.7,12.49-45.28,30.88-50.7,38.33-7,9.67-15,21.11,4.4,72.12a226.09,226.09,0,0,1,52.61-44.71C146.87,218.24,144.83,196.6,144.31,177.73Z"/><path class="cls-5" d="M151.13,108.92c-24.66,5.4-48.32,15.67-58.4,23.59-12.31,9.67-15,9.67-15.83,60.68,22.13-13.05,48.65-19.87,67.28-22.84C144,145.81,146.52,126,151.13,108.92Z"/><path class="cls-5" d="M172.38,387.87c-.14-1.17-.27-2.33-.41-3.51q-2.33,4.24-4.58,7.66A26.12,26.12,0,0,0,172.38,387.87Z"/><path class="cls-5" d="M176.2,430.68a26.73,26.73,0,0,1-6.77-5.39,28.2,28.2,0,0,1-11.71,7.61c2.2,6.47,5.47,14.28,9.76,24.12a92.16,92.16,0,0,1,7.06,35.85C177.12,473.88,177.43,453.13,176.2,430.68Z"/><path class="cls-5" d="M169.43,412.45a26.45,26.45,0,0,0,5.87,4.82q-.61-7.79-1.43-15.83c-.39-.39-.81-.76-1.17-1.17a29.23,29.23,0,0,1-17,8.93,24.13,24.13,0,0,0-1,11.76A29,29,0,0,0,169.43,412.45Z"/><path class="cls-5" d="M135.82,383.15c.62-.55,1.21-1.1,1.82-1.65a29.87,29.87,0,0,1-3.37-1.82C134.78,380.84,135.28,382,135.82,383.15Z"/><path class="cls-5" d="M134.08,312c5.09,5.71,13.35,9.44,22.7,9.44a34.1,34.1,0,0,0,6.12-.57q-.94-6-1.91-12.06c-.87.06-1.73.13-2.62.13-9.55,0-18-3.81-23.19-9.64-4.6,5.15-11.72,8.71-19.89,9.48a24.85,24.85,0,0,0-1.58,12.55C122.08,320.74,129.41,317.21,134.08,312Z"/><path class="cls-5" d="M153.29,359.25c-9.44,0-17.77-3.76-22.91-9.53a26.72,26.72,0,0,1-6.64,5.31q1.53,3.84,3.34,8.15c.45-.44.92-.86,1.33-1.32,4.6,5.16,11.72,8.72,19.9,9.48q6.4-6.45,11.89-12.79A34.42,34.42,0,0,1,153.29,359.25Z"/><path class="cls-5" d="M153.29,346.4a33.37,33.37,0,0,0,13.12-2.63q-.79-5.27-1.61-10.63a33.79,33.79,0,0,1-8,1c-9.35,0-17.6-3.73-22.7-9.44a29.41,29.41,0,0,1-17.81,9.05c.87,3.06,2,6.48,3.35,10.38a27.94,27.94,0,0,0,10.76-7.26C135.52,342.64,143.86,346.4,153.29,346.4Z"/><path class="cls-5" d="M122.55,294.27a28.74,28.74,0,0,0,12.64-8c5.21,5.83,13.64,9.64,23.19,9.64l.56,0Q155.72,276,152.39,255C139.54,269.5,128.65,284.28,122.55,294.27Z"/></g><path class="cls-6" d="M311.67,264.34a25.41,25.41,0,0,1-19.33,8.36,27.64,27.64,0,0,1-8-1.18c-.33,4-.68,7.62-1,10.67a27,27,0,0,0,7.5,1.3A239.13,239.13,0,0,0,315.74,268,22.3,22.3,0,0,1,311.67,264.34Z"/><path class="cls-6" d="M285.13,260.45a27.75,27.75,0,0,0,7.22,1,25.41,25.41,0,0,0,19.33-8.36,24.42,24.42,0,0,0,13.4,7.72c2-1.67,3.87-3.35,5.54-5a35.42,35.42,0,0,1-2.5,5.5,28.4,28.4,0,0,0,2.88.15,25.41,25.41,0,0,0,19.33-8.36,26.53,26.53,0,0,0,38.66,0,23.86,23.86,0,0,0,10.48,6.9c2.69-56.55-5.31-105.35-14.33-124.39-17.81-37.6-31-40.24-57.38-40.24H275c-4.23,18-1.1,45.07,6.38,81.13C286.59,201.66,286.53,235.65,285.13,260.45Z"/><path class="cls-7" d="M285.4,255c16.39-27.77,20.77-66.56,21.59-80.5s-1.43-36.57,19.92-79.14H275c-4.23,18-1.1,45.07,6.38,81.13C286.22,199.86,286.51,230.83,285.4,255Z"/><path class="cls-3" d="M380.26,429l-39.72,39.72c-18,18-48.23,18-67.15,0-18-18-18-48.23,0-67.15l39.72-39.72a9.36,9.36,0,0,0-13.24-13.24l-39.72,39.72c-25.54,25.54-25.54,68.1,0,93.63s68.09,25.54,93.63,0l39.72-39.72a9.14,9.14,0,0,0,0-13.24,11.36,11.36,0,0,0-13.24,0ZM367,282.4,327.3,322.12a9.36,9.36,0,1,0,13.24,13.24l39.72-39.72c18-18,48.23-18,67.15,0,18,18,18,48.23,0,67.15l-39.72,39.72a9.36,9.36,0,0,0,13.24,13.24L460.65,376c25.54-25.54,25.54-68.1,0-93.63s-68.1-25.54-93.63,0Zm0,0"/><path class="cls-3" d="M320.68,422.37a13.71,13.71,0,0,0,19.86,0l60.53-60.53A14,14,0,0,0,381.21,342l-60.53,60.53c-5.67,5.68-5.67,15.13,0,19.86Zm0,0"/><path class="cls-6" d="M307.92,331.78a21.61,21.61,0,0,1-1.89-1.94,25.41,25.41,0,0,1-19.33,8.36h0c1.71,2.39,3.87,5.28,6.26,8.41Z"/><path class="cls-6" d="M286.7,326.94A25.41,25.41,0,0,0,306,318.58a23.51,23.51,0,0,0,8.86,6.3l8.83-8.74a24.63,24.63,0,0,1-16-8.09,25.11,25.11,0,0,1-19.1,8.26,27.4,27.4,0,0,1-6-.67,16.33,16.33,0,0,0-1.82,10.6A27.61,27.61,0,0,0,286.7,326.94Z"/><path class="cls-6" d="M307.67,296.93a25.11,25.11,0,0,0,19.1,8.26,27.07,27.07,0,0,0,9.87-1.84l14.57-14.42a21.4,21.4,0,0,1-2.61-2.56,26,26,0,0,1-37.84,0,22.52,22.52,0,0,1-6.57,5.15c-4.75,5.09-9.29,9.77-12.87,13.52A24.68,24.68,0,0,0,307.67,296.93Z"/><path class="cls-6" d="M348.6,275.35a23.23,23.23,0,0,0,9.7,6.57l9.4-9.3a25.1,25.1,0,0,1-17.36-8.28A25.41,25.41,0,0,1,331,272.69a27.42,27.42,0,0,1-9.32-1.63c-2,2.68-4.2,5.42-6.51,8.15a25.94,25.94,0,0,0,14.5,4.32A24.87,24.87,0,0,0,348.6,275.35Z"/></svg>