<svg id="图层_1" data-name="图层 1" xmlns="http://www.w3.org/2000/svg" viewBox="0 0 512 512"><defs><style>.cls-1{fill:#22b0cf;}.cls-2{fill:#1c91a6;}</style></defs><title>EAMS监控</title><path class="cls-1" d="M491.47,223.33c-38.88-47.7-133.1-127-235.61-127-102.8,0-197,79.3-235.62,127-8.87,10.77-13.45,22.58-13.74,34.4.29,11.82,5.16,23.63,13.74,34.4,38.59,47.7,132.81,127,235.62,127s196.73-79.29,235.61-127c8.87-10.77,13.74-22.58,14-34.4-.59-11.81-5.16-23.63-14-34.4ZM256,358.55c-57.4,0-104-45.16-104-100.83S198.56,156.9,256,156.9s104,45.16,104,100.83S313.34,358.55,256,358.55Zm0,0"/><polygon class="cls-2" points="225.81 230.35 221.06 227.56 216.31 230.35 216.31 235.94 221.06 238.74 225.81 235.94 225.81 230.35"/><polygon class="cls-2" points="198.66 272.02 198.66 283.55 208.84 289.31 219.02 283.55 219.02 272.02 208.84 266.25 198.66 272.02"/><polygon class="cls-2" points="184.18 256.5 184.18 263.94 190.51 267.65 196.85 263.94 196.85 256.5 190.51 252.79 184.18 256.5"/><polygon class="cls-2" points="195.94 225.37 195.94 221 192.1 218.82 188.25 221 188.25 225.37 192.1 227.56 195.94 225.37"/><polygon class="cls-2" points="190.06 245.18 200.47 251.14 210.88 245.18 210.88 233.27 200.47 227.31 190.06 233.27 190.06 245.18"/><path class="cls-1" d="M280.86,204.12l-24.39,14.14L232,204.12l-30.35,17.56v.07l11.87,6.84L232,218l18.49,10.64h0L231.8,239.08v21.46l-18.36-10.64v0l-11.75,6.83v.1l24.24,14.14v28.41L256.4,317l30.48-17.69V270.72l24.24-13.92V221.68ZM256.4,281.49v21.61l-18.73-10.72V270.94l.42-.15,18.43-10.51L275,271.06Zm43-52.88-18.73,10.46v21.46l-18.36-10.64V228.6L280.83,218l18.55,10.64Z"/></svg>