<?xml version="1.0" encoding="UTF-8" standalone="no"?>
<svg width="128px" height="27px" viewBox="0 0 128 27" version="1.1" xmlns="http://www.w3.org/2000/svg" xmlns:xlink="http://www.w3.org/1999/xlink">
    <!-- Generator: Sketch 39.1 (31720) - http://www.bohemiancoding.com/sketch -->
    <title>OPENSHIFT CONTAINER</title>
    <desc>Created with Sketch.</desc>
    <defs></defs>
    <g id="Page-1" stroke="none" stroke-width="1" fill="none" fill-rule="evenodd">
        <path d="M12.6669922,6.91552734 C12.6669922,8.95752974 12.1661834,10.5097603 11.1645508,11.5722656 C10.1629182,12.6347709 8.69646148,13.1660156 6.76513672,13.1660156 C4.86148137,13.1660156 3.40194193,12.632004 2.38647461,11.5639648 C1.37100729,10.4959256 0.86328125,8.94092818 0.86328125,6.89892578 C0.86328125,4.87905891 1.36824039,3.33651249 2.37817383,2.27124023 C3.38810726,1.20596798 4.8559474,0.673339844 6.78173828,0.673339844 C8.71306304,0.673339844 10.1767528,1.20181763 11.1728516,2.25878906 C12.1689503,3.31576049 12.6669922,4.86799106 12.6669922,6.91552734 L12.6669922,6.91552734 Z M4.31640625,6.91552734 C4.31640625,9.26189324 5.13264158,10.4350586 6.76513672,10.4350586 C7.59521899,10.4350586 8.21085411,10.150068 8.61206055,9.58007812 C9.01326698,9.0100883 9.21386719,8.12191358 9.21386719,6.91552734 C9.21386719,5.70360722 9.01050008,4.80851526 8.60375977,4.23022461 C8.19701945,3.65193396 7.58968503,3.36279297 6.78173828,3.36279297 C5.13817538,3.36279297 4.31640625,4.54702592 4.31640625,6.91552734 L4.31640625,6.91552734 Z M27.6655273,4.72412109 C27.6655273,6.07992214 27.2657104,7.12719357 26.4660645,7.8659668 C25.6664185,8.60474002 24.5306063,8.97412109 23.0585938,8.97412109 L22.137207,8.97412109 L22.137207,13 L18.8583984,13 L18.8583984,0.864257812 L23.0585938,0.864257812 C24.591479,0.864257812 25.7425092,1.19905264 26.5117188,1.86865234 C27.2809283,2.53825205 27.6655273,3.49006544 27.6655273,4.72412109 L27.6655273,4.72412109 Z M22.137207,6.30126953 L22.7348633,6.30126953 C23.2273788,6.30126953 23.618895,6.16292456 23.9094238,5.88623047 C24.1999526,5.60953638 24.3452148,5.22770426 24.3452148,4.74072266 C24.3452148,3.92170814 23.8914433,3.51220703 22.9838867,3.51220703 L22.137207,3.51220703 L22.137207,6.30126953 Z M40.8046875,13 L33.5996094,13 L33.5996094,0.864257812 L40.8046875,0.864257812 L40.8046875,3.49560547 L36.878418,3.49560547 L36.878418,5.40478516 L40.5141602,5.40478516 L40.5141602,8.03613281 L36.878418,8.03613281 L36.878418,10.3271484 L40.8046875,10.3271484 L40.8046875,13 Z M58.484375,13 L54.1845703,13 L49.7519531,4.45019531 L49.6772461,4.45019531 C49.7823898,5.7949286 49.8349609,6.82144828 49.8349609,7.52978516 L49.8349609,13 L46.9296875,13 L46.9296875,0.864257812 L51.2128906,0.864257812 L55.6289062,9.29785156 L55.6787109,9.29785156 C55.6012366,8.07486368 55.5625,7.09261438 55.5625,6.35107422 L55.5625,0.864257812 L58.484375,0.864257812 L58.484375,13 Z M73.0429688,9.31445312 C73.0429688,10.0670611 72.8520527,10.7352673 72.4702148,11.3190918 C72.088377,11.9029163 71.537764,12.3566878 70.8183594,12.6804199 C70.0989547,13.004152 69.2550504,13.1660156 68.2866211,13.1660156 C67.4786743,13.1660156 66.800784,13.1092942 66.2529297,12.9958496 C65.7050754,12.882405 65.1350941,12.6845717 64.5429688,12.4023438 L64.5429688,9.48046875 C65.1682974,9.8014339 65.8185188,10.0518383 66.4936523,10.2316895 C67.1687859,10.4115406 67.7885714,10.5014648 68.3530273,10.5014648 C68.8400089,10.5014648 69.196939,10.4170744 69.4238281,10.248291 C69.6507173,10.0795076 69.7641602,9.86230602 69.7641602,9.59667969 C69.7641602,9.43066323 69.7185063,9.28540101 69.6271973,9.16088867 C69.5358882,9.03637633 69.3892425,8.91048241 69.1872559,8.78320312 C68.9852692,8.65592384 68.4471072,8.3958353 67.5727539,8.00292969 C66.7814088,7.64322737 66.1879089,7.29459804 65.7922363,6.95703125 C65.3965638,6.61946446 65.1032724,6.23209854 64.9123535,5.79492188 C64.7214346,5.35774521 64.6259766,4.84033502 64.6259766,4.24267578 C64.6259766,3.12483165 65.0327108,2.25325833 65.8461914,1.62792969 C66.659672,1.00260104 67.7774994,0.689941406 69.199707,0.689941406 C70.4558982,0.689941406 71.7369726,0.980465845 73.0429688,1.56152344 L72.0385742,4.09326172 C70.9041284,3.57307683 69.924646,3.31298828 69.1000977,3.31298828 C68.6739888,3.31298828 68.364096,3.38769457 68.1704102,3.53710938 C67.9767243,3.68652418 67.8798828,3.87190645 67.8798828,4.09326172 C67.8798828,4.33121864 68.0030098,4.54426989 68.2492676,4.73242188 C68.4955253,4.92057386 69.1637315,5.26366938 70.2539062,5.76171875 C71.2998099,6.23209871 72.026121,6.73705785 72.4328613,7.27661133 C72.8396016,7.81616481 73.0429688,8.49543861 73.0429688,9.31445312 L73.0429688,9.31445312 Z M89.3198242,13 L86.0244141,13 L86.0244141,8.05273438 L82.2143555,8.05273438 L82.2143555,13 L78.9189453,13 L78.9189453,0.864257812 L82.2143555,0.864257812 L82.2143555,5.36328125 L86.0244141,5.36328125 L86.0244141,0.864257812 L89.3198242,0.864257812 L89.3198242,13 Z M95.9428711,13 L95.9428711,0.864257812 L99.2382812,0.864257812 L99.2382812,13 L95.9428711,13 Z M109.090332,13 L105.861328,13 L105.861328,0.864257812 L113.033203,0.864257812 L113.033203,3.49560547 L109.090332,3.49560547 L109.090332,5.81152344 L112.726074,5.81152344 L112.726074,8.44287109 L109.090332,8.44287109 L109.090332,13 Z M124.379395,13 L121.100586,13 L121.100586,3.54541016 L118.137207,3.54541016 L118.137207,0.864257812 L127.334473,0.864257812 L127.334473,3.54541016 L124.379395,3.54541016 L124.379395,13 Z M4.44189453,18.8510742 C3.57893449,18.8510742 2.89770758,19.1384249 2.39819336,19.7131348 C1.89867914,20.2878447 1.64892578,21.074702 1.64892578,22.0737305 C1.64892578,23.1014049 1.88972741,23.8954236 2.37133789,24.4558105 C2.85294837,25.0161975 3.53954632,25.2963867 4.43115234,25.2963867 C4.97900665,25.2963867 5.60383764,25.1979177 6.30566406,25.0009766 L6.30566406,25.8012695 C5.76139051,26.0053721 5.0900105,26.1074219 4.29150391,26.1074219 C3.1349226,26.1074219 2.24243478,25.7565139 1.61401367,25.0546875 C0.985592561,24.3528611 0.671386719,23.355638 0.671386719,22.0629883 C0.671386719,21.2537394 0.822671013,20.5447622 1.12524414,19.9360352 C1.42781727,19.3273082 1.86466186,18.8582373 2.43579102,18.5288086 C3.00692017,18.1993799 3.67919535,18.034668 4.45263672,18.034668 C5.27620854,18.034668 5.99592791,18.1850571 6.61181641,18.4858398 L6.22509766,19.2700195 C5.63069364,18.9907213 5.03629854,18.8510742 4.44189453,18.8510742 L4.44189453,18.8510742 Z M14.8349609,22.0629883 C14.8349609,23.3198305 14.5171744,24.3081019 13.8815918,25.027832 C13.2460092,25.7475622 12.3624731,26.1074219 11.230957,26.1074219 C10.0743757,26.1074219 9.18188791,25.7538284 8.5534668,25.0466309 C7.92504569,24.3394333 7.61083984,23.341315 7.61083984,22.0522461 C7.61083984,20.7739194 7.92594086,19.7829625 8.55615234,19.0793457 C9.18636383,18.3757289 10.0815372,18.0239258 11.2416992,18.0239258 C12.3696345,18.0239258 13.2504851,18.3819951 13.8842773,19.0981445 C14.5180696,19.8142939 14.8349609,20.8025653 14.8349609,22.0629883 L14.8349609,22.0629883 Z M8.57763672,22.0629883 C8.57763672,23.1264702 8.80411557,23.9330213 9.25708008,24.482666 C9.71004458,25.0323107 10.367997,25.3071289 11.230957,25.3071289 C12.1010786,25.3071289 12.7581358,25.0332059 13.2021484,24.4853516 C13.6461611,23.9374973 13.8681641,23.1300509 13.8681641,22.0629883 C13.8681641,21.0066679 13.6470562,20.2054878 13.204834,19.6594238 C12.7626117,19.1133599 12.10824,18.840332 11.2416992,18.840332 C10.3715777,18.840332 9.71004458,19.1151502 9.25708008,19.6647949 C8.80411557,20.2144396 8.57763672,21.0138294 8.57763672,22.0629883 L8.57763672,22.0629883 Z M22.7197266,26 L21.6777344,26 L17.3862305,19.409668 L17.3432617,19.409668 C17.4005537,20.1831093 17.4291992,20.8920866 17.4291992,21.5366211 L17.4291992,26 L16.5859375,26 L16.5859375,18.1474609 L17.6171875,18.1474609 L21.8979492,24.7109375 L21.940918,24.7109375 C21.9337565,24.6142573 21.9176434,24.3036322 21.8925781,23.7790527 C21.8675129,23.2544733 21.8585612,22.8793957 21.8657227,22.6538086 L21.8657227,18.1474609 L22.7197266,18.1474609 L22.7197266,26 Z M27.2958984,26 L26.3828125,26 L26.3828125,18.9584961 L23.8959961,18.9584961 L23.8959961,18.1474609 L29.7827148,18.1474609 L29.7827148,18.9584961 L27.2958984,18.9584961 L27.2958984,26 Z M35.9003906,26 L34.9228516,23.5024414 L31.7753906,23.5024414 L30.8085938,26 L29.8847656,26 L32.9892578,18.1152344 L33.7573242,18.1152344 L36.8457031,26 L35.9003906,26 Z M34.6381836,22.6806641 L33.7250977,20.2475586 C33.606933,19.9396143 33.4851894,19.5618512 33.3598633,19.1142578 C33.2810868,19.4580095 33.168295,19.8357727 33.0214844,20.2475586 L32.0976562,22.6806641 L34.6381836,22.6806641 Z M37.925293,26 L37.925293,18.1474609 L38.8383789,18.1474609 L38.8383789,26 L37.925293,26 Z M47.1259766,26 L46.0839844,26 L41.7924805,19.409668 L41.7495117,19.409668 C41.8068037,20.1831093 41.8354492,20.8920866 41.8354492,21.5366211 L41.8354492,26 L40.9921875,26 L40.9921875,18.1474609 L42.0234375,18.1474609 L46.3041992,24.7109375 L46.347168,24.7109375 C46.3400065,24.6142573 46.3238934,24.3036322 46.2988281,23.7790527 C46.2737629,23.2544733 46.2648112,22.8793957 46.2719727,22.6538086 L46.2719727,18.1474609 L47.1259766,18.1474609 L47.1259766,26 Z M53.6625977,26 L49.2851562,26 L49.2851562,18.1474609 L53.6625977,18.1474609 L53.6625977,18.9584961 L50.1982422,18.9584961 L50.1982422,21.4882812 L53.453125,21.4882812 L53.453125,22.2939453 L50.1982422,22.2939453 L50.1982422,25.1835938 L53.6625977,25.1835938 L53.6625977,26 Z M56.315918,22.734375 L56.315918,26 L55.402832,26 L55.402832,18.1474609 L57.5566406,18.1474609 C58.5198616,18.1474609 59.2315244,18.3318666 59.6916504,18.7006836 C60.1517764,19.0695005 60.3818359,19.624508 60.3818359,20.3657227 C60.3818359,21.4041393 59.855474,22.1059552 58.8027344,22.4711914 L60.9350586,26 L59.8554688,26 L57.9541016,22.734375 L56.315918,22.734375 Z M56.315918,21.9501953 L57.5673828,21.9501953 C58.2119173,21.9501953 58.6845688,21.8221855 58.9853516,21.5661621 C59.2861343,21.3101387 59.4365234,20.9261093 59.4365234,20.4140625 C59.4365234,19.8948542 59.2834488,19.5206717 58.9772949,19.2915039 C58.671141,19.0623361 58.1796909,18.9477539 57.5029297,18.9477539 L56.315918,18.9477539 L56.315918,21.9501953 Z M70.0390625,20.4355469 C70.0390625,21.2304727 69.767825,21.8418761 69.2253418,22.2697754 C68.6828586,22.6976747 67.9067433,22.9116211 66.8969727,22.9116211 L65.9731445,22.9116211 L65.9731445,26 L65.0600586,26 L65.0600586,18.1474609 L67.0957031,18.1474609 C69.0579525,18.1474609 70.0390625,18.9101486 70.0390625,20.4355469 L70.0390625,20.4355469 Z M65.9731445,22.1274414 L66.7949219,22.1274414 C67.6041707,22.1274414 68.1896141,21.9967461 68.5512695,21.7353516 C68.912925,21.473957 69.09375,21.0550159 69.09375,20.4785156 C69.09375,19.9593073 68.9236671,19.5725924 68.5834961,19.3183594 C68.2433251,19.0641263 67.7133825,18.9370117 66.9936523,18.9370117 L65.9731445,18.9370117 L65.9731445,22.1274414 Z M71.6826172,26 L71.6826172,18.1474609 L72.5957031,18.1474609 L72.5957031,25.1728516 L76.0600586,25.1728516 L76.0600586,26 L71.6826172,26 Z M82.328125,26 L81.3505859,23.5024414 L78.203125,23.5024414 L77.2363281,26 L76.3125,26 L79.4169922,18.1152344 L80.1850586,18.1152344 L83.2734375,26 L82.328125,26 Z M81.065918,22.6806641 L80.152832,20.2475586 C80.0346674,19.9396143 79.9129238,19.5618512 79.7875977,19.1142578 C79.7088212,19.4580095 79.5960294,19.8357727 79.4492188,20.2475586 L78.5253906,22.6806641 L81.065918,22.6806641 Z M86.7700195,26 L85.8569336,26 L85.8569336,18.9584961 L83.3701172,18.9584961 L83.3701172,18.1474609 L89.2568359,18.1474609 L89.2568359,18.9584961 L86.7700195,18.9584961 L86.7700195,26 Z M91.3515625,26 L90.4384766,26 L90.4384766,18.1474609 L94.815918,18.1474609 L94.815918,18.9584961 L91.3515625,18.9584961 L91.3515625,21.8320312 L94.6064453,21.8320312 L94.6064453,22.6430664 L91.3515625,22.6430664 L91.3515625,26 Z M102.931641,22.0629883 C102.931641,23.3198305 102.613854,24.3081019 101.978271,25.027832 C101.342689,25.7475622 100.459153,26.1074219 99.3276367,26.1074219 C98.1710554,26.1074219 97.2785676,25.7538284 96.6501465,25.0466309 C96.0217254,24.3394333 95.7075195,23.341315 95.7075195,22.0522461 C95.7075195,20.7739194 96.0226205,19.7829625 96.652832,19.0793457 C97.2830435,18.3757289 98.1782169,18.0239258 99.3383789,18.0239258 C100.466314,18.0239258 101.347165,18.3819951 101.980957,19.0981445 C102.614749,19.8142939 102.931641,20.8025653 102.931641,22.0629883 L102.931641,22.0629883 Z M96.6743164,22.0629883 C96.6743164,23.1264702 96.9007953,23.9330213 97.3537598,24.482666 C97.8067243,25.0323107 98.4646767,25.3071289 99.3276367,25.3071289 C100.197758,25.3071289 100.854815,25.0332059 101.298828,24.4853516 C101.742841,23.9374973 101.964844,23.1300509 101.964844,22.0629883 C101.964844,21.0066679 101.743736,20.2054878 101.301514,19.6594238 C100.859291,19.1133599 100.20492,18.840332 99.3383789,18.840332 C98.4682574,18.840332 97.8067243,19.1151502 97.3537598,19.6647949 C96.9007953,20.2144396 96.6743164,21.0138294 96.6743164,22.0629883 L96.6743164,22.0629883 Z M105.595703,22.734375 L105.595703,26 L104.682617,26 L104.682617,18.1474609 L106.836426,18.1474609 C107.799647,18.1474609 108.51131,18.3318666 108.971436,18.7006836 C109.431562,19.0695005 109.661621,19.624508 109.661621,20.3657227 C109.661621,21.4041393 109.135259,22.1059552 108.08252,22.4711914 L110.214844,26 L109.135254,26 L107.233887,22.734375 L105.595703,22.734375 Z M105.595703,21.9501953 L106.847168,21.9501953 C107.491702,21.9501953 107.964354,21.8221855 108.265137,21.5661621 C108.565919,21.3101387 108.716309,20.9261093 108.716309,20.4140625 C108.716309,19.8948542 108.563234,19.5206717 108.25708,19.2915039 C107.950926,19.0623361 107.459476,18.9477539 106.782715,18.9477539 L105.595703,18.9477539 L105.595703,21.9501953 Z M114.95752,26 L112.293457,19.0390625 L112.250488,19.0390625 C112.300619,19.5904975 112.325684,20.2457644 112.325684,21.0048828 L112.325684,26 L111.482422,26 L111.482422,18.1474609 L112.857422,18.1474609 L115.344238,24.625 L115.387207,24.625 L117.895508,18.1474609 L119.259766,18.1474609 L119.259766,26 L118.34668,26 L118.34668,20.9404297 C118.34668,20.3603487 118.371745,19.7301466 118.421875,19.0498047 L118.378906,19.0498047 L115.693359,26 L114.95752,26 Z" id="OPENSHIFT-CONTAINER" fill="#FFFFFF"></path>
    </g>
</svg>