<?xml version="1.0" encoding="UTF-8" standalone="no"?>
<svg width="320px" height="14px" viewBox="0 0 320 14" version="1.1" xmlns="http://www.w3.org/2000/svg" xmlns:xlink="http://www.w3.org/1999/xlink">
    <!-- Generator: Sketch 39.1 (31720) - http://www.bohemiancoding.com/sketch -->
    <title>Group</title>
    <desc>Created with Sketch.</desc>
    <defs></defs>
    <g id="Page-1" stroke="none" stroke-width="1" fill="none" fill-rule="evenodd">
        <g id="Group" fill="#FFFFFF">
            <path d="M12.6669922,6.91552734 C12.6669922,8.95752974 12.1661834,10.5097603 11.1645508,11.5722656 C10.1629182,12.6347709 8.69646148,13.1660156 6.76513672,13.1660156 C4.86148137,13.1660156 3.40194193,12.632004 2.38647461,11.5639648 C1.37100729,10.4959256 0.86328125,8.94092818 0.86328125,6.89892578 C0.86328125,4.87905891 1.36824039,3.33651249 2.37817383,2.27124023 C3.38810726,1.20596798 4.8559474,0.673339844 6.78173828,0.673339844 C8.71306304,0.673339844 10.1767528,1.20181763 11.1728516,2.25878906 C12.1689503,3.31576049 12.6669922,4.86799106 12.6669922,6.91552734 L12.6669922,6.91552734 Z M4.31640625,6.91552734 C4.31640625,9.26189324 5.13264158,10.4350586 6.76513672,10.4350586 C7.59521899,10.4350586 8.21085411,10.150068 8.61206055,9.58007812 C9.01326698,9.0100883 9.21386719,8.12191358 9.21386719,6.91552734 C9.21386719,5.70360722 9.01050008,4.80851526 8.60375977,4.23022461 C8.19701945,3.65193396 7.58968503,3.36279297 6.78173828,3.36279297 C5.13817538,3.36279297 4.31640625,4.54702592 4.31640625,6.91552734 L4.31640625,6.91552734 Z M27.6655273,4.72412109 C27.6655273,6.07992214 27.2657104,7.12719357 26.4660645,7.8659668 C25.6664185,8.60474002 24.5306063,8.97412109 23.0585938,8.97412109 L22.137207,8.97412109 L22.137207,13 L18.8583984,13 L18.8583984,0.864257812 L23.0585938,0.864257812 C24.591479,0.864257812 25.7425092,1.19905264 26.5117188,1.86865234 C27.2809283,2.53825205 27.6655273,3.49006544 27.6655273,4.72412109 L27.6655273,4.72412109 Z M22.137207,6.30126953 L22.7348633,6.30126953 C23.2273788,6.30126953 23.618895,6.16292456 23.9094238,5.88623047 C24.1999526,5.60953638 24.3452148,5.22770426 24.3452148,4.74072266 C24.3452148,3.92170814 23.8914433,3.51220703 22.9838867,3.51220703 L22.137207,3.51220703 L22.137207,6.30126953 Z M40.8046875,13 L33.5996094,13 L33.5996094,0.864257812 L40.8046875,0.864257812 L40.8046875,3.49560547 L36.878418,3.49560547 L36.878418,5.40478516 L40.5141602,5.40478516 L40.5141602,8.03613281 L36.878418,8.03613281 L36.878418,10.3271484 L40.8046875,10.3271484 L40.8046875,13 Z M58.484375,13 L54.1845703,13 L49.7519531,4.45019531 L49.6772461,4.45019531 C49.7823898,5.7949286 49.8349609,6.82144828 49.8349609,7.52978516 L49.8349609,13 L46.9296875,13 L46.9296875,0.864257812 L51.2128906,0.864257812 L55.6289062,9.29785156 L55.6787109,9.29785156 C55.6012366,8.07486368 55.5625,7.09261438 55.5625,6.35107422 L55.5625,0.864257812 L58.484375,0.864257812 L58.484375,13 Z M73.0429688,9.31445312 C73.0429688,10.0670611 72.8520527,10.7352673 72.4702148,11.3190918 C72.088377,11.9029163 71.537764,12.3566878 70.8183594,12.6804199 C70.0989547,13.004152 69.2550504,13.1660156 68.2866211,13.1660156 C67.4786743,13.1660156 66.800784,13.1092942 66.2529297,12.9958496 C65.7050754,12.882405 65.1350941,12.6845717 64.5429688,12.4023438 L64.5429688,9.48046875 C65.1682974,9.8014339 65.8185188,10.0518383 66.4936523,10.2316895 C67.1687859,10.4115406 67.7885714,10.5014648 68.3530273,10.5014648 C68.8400089,10.5014648 69.196939,10.4170744 69.4238281,10.248291 C69.6507173,10.0795076 69.7641602,9.86230602 69.7641602,9.59667969 C69.7641602,9.43066323 69.7185063,9.28540101 69.6271973,9.16088867 C69.5358882,9.03637633 69.3892425,8.91048241 69.1872559,8.78320312 C68.9852692,8.65592384 68.4471072,8.3958353 67.5727539,8.00292969 C66.7814088,7.64322737 66.1879089,7.29459804 65.7922363,6.95703125 C65.3965638,6.61946446 65.1032724,6.23209854 64.9123535,5.79492188 C64.7214346,5.35774521 64.6259766,4.84033502 64.6259766,4.24267578 C64.6259766,3.12483165 65.0327108,2.25325833 65.8461914,1.62792969 C66.659672,1.00260104 67.7774994,0.689941406 69.199707,0.689941406 C70.4558982,0.689941406 71.7369726,0.980465845 73.0429688,1.56152344 L72.0385742,4.09326172 C70.9041284,3.57307683 69.924646,3.31298828 69.1000977,3.31298828 C68.6739888,3.31298828 68.364096,3.38769457 68.1704102,3.53710938 C67.9767243,3.68652418 67.8798828,3.87190645 67.8798828,4.09326172 C67.8798828,4.33121864 68.0030098,4.54426989 68.2492676,4.73242188 C68.4955253,4.92057386 69.1637315,5.26366938 70.2539062,5.76171875 C71.2998099,6.23209871 72.026121,6.73705785 72.4328613,7.27661133 C72.8396016,7.81616481 73.0429688,8.49543861 73.0429688,9.31445312 L73.0429688,9.31445312 Z M89.3198242,13 L86.0244141,13 L86.0244141,8.05273438 L82.2143555,8.05273438 L82.2143555,13 L78.9189453,13 L78.9189453,0.864257812 L82.2143555,0.864257812 L82.2143555,5.36328125 L86.0244141,5.36328125 L86.0244141,0.864257812 L89.3198242,0.864257812 L89.3198242,13 Z M95.9428711,13 L95.9428711,0.864257812 L99.2382812,0.864257812 L99.2382812,13 L95.9428711,13 Z M109.090332,13 L105.861328,13 L105.861328,0.864257812 L113.033203,0.864257812 L113.033203,3.49560547 L109.090332,3.49560547 L109.090332,5.81152344 L112.726074,5.81152344 L112.726074,8.44287109 L109.090332,8.44287109 L109.090332,13 Z M124.379395,13 L121.100586,13 L121.100586,3.54541016 L118.137207,3.54541016 L118.137207,0.864257812 L127.334473,0.864257812 L127.334473,3.54541016 L124.379395,3.54541016 L124.379395,13 Z" id="OPENSHIFT"></path>
            <path d="M141.864746,1.95166016 C140.531081,1.95166016 139.478275,2.39574751 138.706299,3.28393555 C137.934322,4.17212358 137.54834,5.38817587 137.54834,6.93212891 C137.54834,8.52035299 137.920488,9.74747288 138.664795,10.6135254 C139.409102,11.4795779 140.470208,11.9125977 141.848145,11.9125977 C142.694828,11.9125977 143.660476,11.7604182 144.745117,11.4560547 L144.745117,12.6928711 C143.903967,13.0083024 142.86638,13.1660156 141.632324,13.1660156 C139.84488,13.1660156 138.465581,12.6237033 137.494385,11.5390625 C136.523189,10.4544217 136.037598,8.91325869 136.037598,6.91552734 C136.037598,5.66487005 136.271401,4.56917788 136.739014,3.62841797 C137.206627,2.68765806 137.88175,1.96273041 138.764404,1.45361328 C139.647058,0.944496152 140.686029,0.689941406 141.881348,0.689941406 C143.15414,0.689941406 144.266434,0.922360957 145.218262,1.38720703 L144.620605,2.59912109 C143.701981,2.16747831 142.78337,1.95166016 141.864746,1.95166016 L141.864746,1.95166016 Z M157.926758,6.91552734 C157.926758,8.85791987 157.435633,10.3852483 156.453369,11.4975586 C155.471105,12.6098688 154.10564,13.1660156 152.356934,13.1660156 C150.56949,13.1660156 149.19019,12.619553 148.218994,11.5266113 C147.247798,10.4336697 146.762207,8.89112324 146.762207,6.89892578 C146.762207,4.92332997 147.249181,3.39185114 148.223145,2.30444336 C149.197108,1.21703558 150.580557,0.673339844 152.373535,0.673339844 C154.116708,0.673339844 155.478022,1.22671973 156.45752,2.33349609 C157.437017,3.44027246 157.926758,4.96760094 157.926758,6.91552734 L157.926758,6.91552734 Z M148.256348,6.91552734 C148.256348,8.55909025 148.60636,9.80557844 149.306396,10.6550293 C150.006433,11.5044802 151.023268,11.9291992 152.356934,11.9291992 C153.701667,11.9291992 154.717119,11.5058636 155.40332,10.6591797 C156.089522,9.81249577 156.432617,8.56462413 156.432617,6.91552734 C156.432617,5.2830322 156.090905,4.04484471 155.407471,3.20092773 C154.724036,2.35701075 153.712735,1.93505859 152.373535,1.93505859 C151.028802,1.93505859 150.006433,2.35977765 149.306396,3.20922852 C148.60636,4.05867938 148.256348,5.29409997 148.256348,6.91552734 L148.256348,6.91552734 Z M170.112305,13 L168.501953,13 L161.869629,2.81494141 L161.803223,2.81494141 C161.891765,4.01025988 161.936035,5.10595205 161.936035,6.10205078 L161.936035,13 L160.632812,13 L160.632812,0.864257812 L162.226562,0.864257812 L168.842285,11.0078125 L168.908691,11.0078125 C168.897624,10.8583977 168.872722,10.3783406 168.833984,9.56762695 C168.795247,8.75691326 168.781413,8.17724784 168.79248,7.82861328 L168.79248,0.864257812 L170.112305,0.864257812 L170.112305,13 Z M177.18457,13 L175.773438,13 L175.773438,2.11767578 L171.930176,2.11767578 L171.930176,0.864257812 L181.027832,0.864257812 L181.027832,2.11767578 L177.18457,2.11767578 L177.18457,13 Z M190.482422,13 L188.97168,9.14013672 L184.107422,9.14013672 L182.613281,13 L181.185547,13 L185.983398,0.814453125 L187.17041,0.814453125 L191.943359,13 L190.482422,13 Z M188.531738,7.87011719 L187.120605,4.10986328 C186.937987,3.63394944 186.749838,3.05013367 186.556152,2.35839844 C186.434407,2.88965109 186.260092,3.47346687 186.033203,4.10986328 L184.605469,7.87011719 L188.531738,7.87011719 Z M193.611816,13 L193.611816,0.864257812 L195.022949,0.864257812 L195.022949,13 L193.611816,13 Z M207.831055,13 L206.220703,13 L199.588379,2.81494141 L199.521973,2.81494141 C199.610515,4.01025988 199.654785,5.10595205 199.654785,6.10205078 L199.654785,13 L198.351562,13 L198.351562,0.864257812 L199.945312,0.864257812 L206.561035,11.0078125 L206.627441,11.0078125 C206.616374,10.8583977 206.591472,10.3783406 206.552734,9.56762695 C206.513997,8.75691326 206.500163,8.17724784 206.51123,7.82861328 L206.51123,0.864257812 L207.831055,0.864257812 L207.831055,13 Z M217.933105,13 L211.167969,13 L211.167969,0.864257812 L217.933105,0.864257812 L217.933105,2.11767578 L212.579102,2.11767578 L212.579102,6.02734375 L217.609375,6.02734375 L217.609375,7.27246094 L212.579102,7.27246094 L212.579102,11.7382812 L217.933105,11.7382812 L217.933105,13 Z M222.033691,7.953125 L222.033691,13 L220.622559,13 L220.622559,0.864257812 L223.951172,0.864257812 C225.439786,0.864257812 226.539629,1.14924845 227.250732,1.71923828 C227.961836,2.28922811 228.317383,3.14696693 228.317383,4.29248047 C228.317383,5.8973062 227.503914,6.98193077 225.876953,7.54638672 L229.172363,13 L227.503906,13 L224.56543,7.953125 L222.033691,7.953125 Z M222.033691,6.74121094 L223.967773,6.74121094 C224.963872,6.74121094 225.694334,6.54337763 226.15918,6.14770508 C226.624026,5.75203253 226.856445,5.1585326 226.856445,4.3671875 C226.856445,3.56477463 226.619875,2.98649266 226.146729,2.63232422 C225.673582,2.27815578 224.914068,2.10107422 223.868164,2.10107422 L222.033691,2.10107422 L222.033691,6.74121094 Z M243.242188,4.40039062 C243.242188,5.62891239 242.823002,6.57380854 241.984619,7.23510742 C241.146236,7.8964063 239.946785,8.22705078 238.38623,8.22705078 L236.958496,8.22705078 L236.958496,13 L235.547363,13 L235.547363,0.864257812 L238.693359,0.864257812 C241.725927,0.864257812 243.242188,2.04295696 243.242188,4.40039062 L243.242188,4.40039062 Z M236.958496,7.01513672 L238.228516,7.01513672 C239.479173,7.01513672 240.383949,6.81315306 240.942871,6.40917969 C241.501793,6.00520631 241.78125,5.35775185 241.78125,4.46679688 C241.78125,3.66438401 241.518395,3.06673374 240.992676,2.67382812 C240.466957,2.28092251 239.647955,2.08447266 238.535645,2.08447266 L236.958496,2.08447266 L236.958496,7.01513672 Z M245.782227,13 L245.782227,0.864257812 L247.193359,0.864257812 L247.193359,11.7216797 L252.547363,11.7216797 L252.547363,13 L245.782227,13 Z M262.234375,13 L260.723633,9.14013672 L255.859375,9.14013672 L254.365234,13 L252.9375,13 L257.735352,0.814453125 L258.922363,0.814453125 L263.695312,13 L262.234375,13 Z M260.283691,7.87011719 L258.872559,4.10986328 C258.68994,3.63394944 258.501791,3.05013367 258.308105,2.35839844 C258.18636,2.88965109 258.012045,3.47346687 257.785156,4.10986328 L256.357422,7.87011719 L260.283691,7.87011719 Z M269.099121,13 L267.687988,13 L267.687988,2.11767578 L263.844727,2.11767578 L263.844727,0.864257812 L272.942383,0.864257812 L272.942383,2.11767578 L269.099121,2.11767578 L269.099121,13 Z M276.179688,13 L274.768555,13 L274.768555,0.864257812 L281.533691,0.864257812 L281.533691,2.11767578 L276.179688,2.11767578 L276.179688,6.55859375 L281.209961,6.55859375 L281.209961,7.81201172 L276.179688,7.81201172 L276.179688,13 Z M294.076172,6.91552734 C294.076172,8.85791987 293.585047,10.3852483 292.602783,11.4975586 C291.620519,12.6098688 290.255054,13.1660156 288.506348,13.1660156 C286.718904,13.1660156 285.339604,12.619553 284.368408,11.5266113 C283.397212,10.4336697 282.911621,8.89112324 282.911621,6.89892578 C282.911621,4.92332997 283.398595,3.39185114 284.372559,2.30444336 C285.346522,1.21703558 286.729972,0.673339844 288.522949,0.673339844 C290.266122,0.673339844 291.627437,1.22671973 292.606934,2.33349609 C293.586431,3.44027246 294.076172,4.96760094 294.076172,6.91552734 L294.076172,6.91552734 Z M284.405762,6.91552734 C284.405762,8.55909025 284.755774,9.80557844 285.455811,10.6550293 C286.155847,11.5044802 287.172682,11.9291992 288.506348,11.9291992 C289.851081,11.9291992 290.866533,11.5058636 291.552734,10.6591797 C292.238936,9.81249577 292.582031,8.56462413 292.582031,6.91552734 C292.582031,5.2830322 292.240319,4.04484471 291.556885,3.20092773 C290.87345,2.35701075 289.862149,1.93505859 288.522949,1.93505859 C287.178216,1.93505859 286.155847,2.35977765 285.455811,3.20922852 C284.755774,4.05867938 284.405762,5.29409997 284.405762,6.91552734 L284.405762,6.91552734 Z M298.193359,7.953125 L298.193359,13 L296.782227,13 L296.782227,0.864257812 L300.11084,0.864257812 C301.599454,0.864257812 302.699297,1.14924845 303.4104,1.71923828 C304.121504,2.28922811 304.477051,3.14696693 304.477051,4.29248047 C304.477051,5.8973062 303.663582,6.98193077 302.036621,7.54638672 L305.332031,13 L303.663574,13 L300.725098,7.953125 L298.193359,7.953125 Z M298.193359,6.74121094 L300.127441,6.74121094 C301.12354,6.74121094 301.854002,6.54337763 302.318848,6.14770508 C302.783694,5.75203253 303.016113,5.1585326 303.016113,4.3671875 C303.016113,3.56477463 302.779543,2.98649266 302.306396,2.63232422 C301.83325,2.27815578 301.073736,2.10107422 300.027832,2.10107422 L298.193359,2.10107422 L298.193359,6.74121094 Z M312.661621,13 L308.544434,2.2421875 L308.478027,2.2421875 C308.555502,3.0944053 308.594238,4.10709049 308.594238,5.28027344 L308.594238,13 L307.291016,13 L307.291016,0.864257812 L309.416016,0.864257812 L313.259277,10.875 L313.325684,10.875 L317.202148,0.864257812 L319.310547,0.864257812 L319.310547,13 L317.899414,13 L317.899414,5.18066406 C317.899414,4.28417521 317.938151,3.31022661 318.015625,2.25878906 L317.949219,2.25878906 L313.798828,13 L312.661621,13 Z" id="CONTAINER-PLATFORM"></path>
        </g>
    </g>
</svg>