<?xml version="1.0" encoding="utf-8"?>
<!-- Generator: Adobe Illustrator 22.0.1, SVG Export Plug-In . SVG Version: 6.00 Build 0)  -->
<svg version="1.1" id="Layer_1" xmlns="http://www.w3.org/2000/svg" xmlns:xlink="http://www.w3.org/1999/xlink" x="0px" y="0px"
	 viewBox="0 0 181.9 193.7" style="enable-background:new 0 0 181.9 193.7;" xml:space="preserve">
<style type="text/css">
	.st0{fill:#BB1C29;}
	.st1{fill:#E12434;}
	.st2{fill:#960F1B;}
</style>
<g>
	<g>
		<path d="M47,165.3l-2.6-5.3h-1.8v5.3h-4.3v-15.7h7c0.9,0,1.7,0.1,2.5,0.3c0.8,0.2,1.4,0.5,1.9,0.9c0.5,0.4,1,0.9,1.2,1.6
			c0.3,0.6,0.4,1.4,0.4,2.4c0,1.2-0.3,2.1-0.8,2.9c-0.5,0.7-1.2,1.3-2.1,1.7l3.1,6H47z M46.8,153.7c-0.3-0.3-0.8-0.5-1.5-0.5h-2.6
			v3.4h2.6c0.7,0,1.2-0.1,1.5-0.4c0.3-0.3,0.5-0.7,0.5-1.3C47.2,154.4,47.1,154,46.8,153.7z"/>
		<path d="M55.1,165.3v-15.7h12v3.6h-7.7v2.1h4.6v3.6h-4.6v2.7h7.9v3.6H55.1z"/>
		<path d="M83.7,161.2c-0.4,1-0.9,1.8-1.6,2.4s-1.6,1.1-2.7,1.3c-1.1,0.3-2.3,0.4-3.7,0.4h-5.1v-15.7h5.5c1.2,0,2.3,0.1,3.3,0.4
			c1,0.3,1.8,0.7,2.5,1.3c0.7,0.6,1.2,1.4,1.6,2.4c0.4,1,0.6,2.2,0.6,3.7C84.3,158.9,84.1,160.1,83.7,161.2z M79.6,155.6
			c-0.1-0.5-0.3-0.9-0.6-1.3c-0.3-0.3-0.7-0.6-1.1-0.7c-0.5-0.2-1-0.2-1.7-0.2h-1.1v8.2h0.9c0.7,0,1.2-0.1,1.7-0.2
			c0.5-0.1,0.9-0.4,1.2-0.7c0.3-0.3,0.5-0.7,0.7-1.3c0.1-0.5,0.2-1.2,0.2-2C79.8,156.8,79.8,156.2,79.6,155.6z"/>
		<path d="M104.9,165.3v-6.2h-4.9v6.2h-4.4v-15.7h4.4v5.7h4.9v-5.7h4.4v15.7H104.9z"/>
		<path d="M123.3,165.3l-0.9-2.8h-4.7l-0.9,2.8h-4.7l5.7-15.7h4.4l5.7,15.7H123.3z M121.1,158.1c-0.1-0.5-0.3-0.9-0.4-1.3
			c-0.1-0.4-0.2-0.7-0.3-1c-0.1-0.3-0.2-0.6-0.2-0.8c-0.1-0.2-0.1-0.5-0.2-0.8c0,0.3-0.1,0.5-0.2,0.8c-0.1,0.3-0.1,0.5-0.2,0.8
			c-0.1,0.3-0.2,0.6-0.3,1c-0.1,0.4-0.2,0.8-0.4,1.3l-0.3,1h2.6L121.1,158.1z"/>
		<path d="M136.9,153.5v11.9h-4.3v-11.9h-4.4v-3.8h13.1v3.8H136.9z"/>
		<path d="M147.1,152.4c-0.1,0.2-0.2,0.5-0.4,0.6c-0.2,0.2-0.4,0.3-0.6,0.4c-0.2,0.1-0.5,0.2-0.8,0.2s-0.6-0.1-0.8-0.2
			c-0.2-0.1-0.5-0.2-0.6-0.4c-0.2-0.2-0.3-0.4-0.4-0.6c-0.1-0.2-0.2-0.5-0.2-0.8s0.1-0.6,0.2-0.8c0.1-0.2,0.2-0.5,0.4-0.6
			c0.2-0.2,0.4-0.3,0.6-0.4c0.2-0.1,0.5-0.2,0.8-0.2s0.6,0.1,0.8,0.2c0.2,0.1,0.5,0.2,0.6,0.4c0.2,0.2,0.3,0.4,0.4,0.6
			c0.1,0.2,0.2,0.5,0.2,0.8S147.2,152.1,147.1,152.4z M146.8,150.9c-0.1-0.2-0.2-0.4-0.4-0.5c-0.2-0.2-0.3-0.3-0.5-0.4
			c-0.2-0.1-0.4-0.1-0.7-0.1c-0.2,0-0.5,0-0.7,0.1c-0.2,0.1-0.4,0.2-0.5,0.4c-0.2,0.2-0.3,0.3-0.4,0.5c-0.1,0.2-0.1,0.4-0.1,0.7
			c0,0.2,0,0.5,0.1,0.7c0.1,0.2,0.2,0.4,0.4,0.5c0.2,0.2,0.3,0.3,0.5,0.4c0.2,0.1,0.4,0.1,0.7,0.1c0.2,0,0.5,0,0.7-0.1
			c0.2-0.1,0.4-0.2,0.5-0.4c0.2-0.2,0.3-0.3,0.4-0.5c0.1-0.2,0.1-0.4,0.1-0.7C146.9,151.3,146.9,151.1,146.8,150.9z M146,151.5
			c-0.1,0.1-0.2,0.2-0.3,0.2l0.5,0.9h-0.4l-0.4-0.9h-0.4v0.9h-0.4v-2.2h1c0.1,0,0.2,0,0.3,0c0.1,0,0.2,0.1,0.2,0.1
			c0.1,0.1,0.1,0.1,0.2,0.2c0,0.1,0.1,0.2,0.1,0.3C146.2,151.3,146.1,151.4,146,151.5z M145.7,150.9c-0.1-0.1-0.2-0.1-0.3-0.1h-0.6
			v0.6h0.6c0.1,0,0.2,0,0.3-0.1c0.1-0.1,0.1-0.1,0.1-0.2C145.8,151,145.8,150.9,145.7,150.9z"/>
		<path d="M18.8,186.4c-0.5,1.5-1.1,2.8-2,3.8c-0.9,1.1-1.9,1.9-3.1,2.5c-1.2,0.6-2.5,0.9-4,0.9c-1.5,0-2.8-0.3-4-0.9
			c-1.2-0.6-2.2-1.4-3.1-2.5c-0.9-1.1-1.5-2.4-2-3.8C0.2,185,0,183.4,0,181.6c0-1.8,0.2-3.4,0.7-4.9c0.5-1.5,1.1-2.8,2-3.8
			c0.9-1.1,1.9-1.9,3.1-2.5c1.2-0.6,2.5-0.9,4-0.9c1.5,0,2.8,0.3,4,0.9c1.2,0.6,2.2,1.4,3.1,2.5c0.9,1.1,1.5,2.4,2,3.8
			s0.7,3.1,0.7,4.9C19.5,183.3,19.3,184.9,18.8,186.4z M16.3,177.6c-0.4-1.2-0.9-2.2-1.5-3.1c-0.6-0.9-1.4-1.5-2.3-2
			c-0.9-0.5-1.8-0.7-2.9-0.7c-1,0-1.9,0.2-2.8,0.7c-0.9,0.5-1.6,1.1-2.2,1.9c-0.6,0.8-1.1,1.9-1.5,3.1c-0.4,1.2-0.5,2.5-0.5,4
			c0,1.5,0.2,2.8,0.6,4c0.4,1.2,0.9,2.2,1.5,3.1c0.6,0.9,1.4,1.5,2.3,2c0.9,0.5,1.8,0.7,2.9,0.7c1,0,1.9-0.2,2.8-0.7
			c0.9-0.5,1.6-1.1,2.3-1.9c0.6-0.8,1.1-1.9,1.5-3.1c0.4-1.2,0.5-2.5,0.5-4C16.9,180.1,16.7,178.8,16.3,177.6z"/>
		<path d="M41.4,180c-0.4,0.9-0.9,1.7-1.6,2.3c-0.7,0.6-1.5,1.1-2.5,1.4c-1,0.3-2.1,0.5-3.2,0.5h-5.7v9.2h-2.6v-23.5h8.8
			c1.1,0,2.1,0.1,3,0.4c0.9,0.3,1.7,0.7,2.4,1.3c0.7,0.6,1.2,1.3,1.6,2.2c0.4,0.9,0.6,1.9,0.6,3.1C42,178,41.8,179,41.4,180z
			 M38.1,173.4c-0.9-0.8-2.1-1.2-3.7-1.2h-6.1v9.5h5.7c3.5,0,5.3-1.6,5.3-4.8C39.4,175.4,38.9,174.3,38.1,173.4z"/>
		<path d="M47.5,193.3v-23.5h14.2v2.4H50.1v7.4h6.7v2.4h-6.7v9h12.1v2.4H47.5z"/>
		<path d="M82.6,193.3l-10.2-16.1c-0.1-0.2-0.3-0.4-0.4-0.7c-0.2-0.3-0.3-0.6-0.5-0.8c-0.2-0.3-0.3-0.5-0.5-0.8
			c-0.1-0.2-0.3-0.4-0.3-0.6v1.6v17.4h-2.6v-23.5h2.6l10.2,16.4c0.1,0.2,0.3,0.4,0.4,0.7c0.2,0.3,0.3,0.6,0.5,0.8
			c0.2,0.3,0.3,0.5,0.5,0.8c0.1,0.2,0.3,0.4,0.3,0.6v-1.6v-17.7h2.6v23.5H82.6z"/>
		<path d="M106.2,189.7c-0.3,0.8-0.9,1.5-1.5,2.1c-0.7,0.6-1.5,1-2.5,1.4c-1,0.3-2.1,0.5-3.3,0.5c-1.6,0-3.1-0.3-4.4-0.9
			c-1.4-0.6-2.5-1.4-3.4-2.3l1.7-1.9c0.9,0.9,1.9,1.5,2.9,2c1,0.5,2.1,0.8,3.4,0.8c1.6,0,2.8-0.4,3.7-1.1c0.9-0.7,1.4-1.7,1.4-3
			c0-0.5-0.1-1-0.3-1.5c-0.2-0.4-0.5-0.9-0.9-1.2c-0.4-0.4-1-0.8-1.7-1.1c-0.7-0.4-1.6-0.7-2.7-1.1c-1.3-0.4-2.3-0.9-3.2-1.4
			c-0.9-0.5-1.6-1-2.1-1.5c-0.5-0.5-0.9-1.1-1.1-1.8c-0.2-0.6-0.4-1.4-0.4-2.2c0-0.9,0.2-1.8,0.5-2.5c0.4-0.7,0.9-1.4,1.5-1.9
			c0.6-0.5,1.4-0.9,2.3-1.2c0.9-0.3,1.9-0.4,3-0.4c1.6,0,2.9,0.2,4,0.7c1.1,0.4,2.2,1.1,3.1,1.8l-1.7,2c-0.9-0.7-1.7-1.3-2.6-1.6
			c-0.9-0.4-1.9-0.6-3.1-0.6c-0.8,0-1.5,0.1-2.1,0.3c-0.6,0.2-1.1,0.4-1.4,0.8c-0.4,0.3-0.6,0.7-0.8,1.1c-0.2,0.4-0.3,0.9-0.3,1.3
			c0,0.5,0.1,0.9,0.2,1.3c0.1,0.4,0.4,0.8,0.8,1.1c0.4,0.4,1,0.7,1.7,1.1c0.7,0.4,1.7,0.8,2.9,1.2c1.3,0.5,2.4,0.9,3.3,1.4
			c0.9,0.5,1.6,1,2.1,1.5c0.5,0.6,0.9,1.2,1.1,1.8c0.2,0.7,0.3,1.4,0.3,2.3C106.7,188.1,106.6,188.9,106.2,189.7z"/>
		<path d="M127.5,193.3v-11.1h-11.7v11.1h-2.6v-23.5h2.6v10h11.7v-10h2.6v23.5H127.5z"/>
		<path d="M137.5,193.3v-23.5h2.6v23.5H137.5z"/>
		<path d="M150.1,172.2v7.8h6.4v2.4h-6.4v10.9h-2.6v-23.5h13.8v2.4H150.1z"/>
		<path d="M174.9,172.2v21.1h-2.6v-21.1h-6.9v-2.4h16.5v2.4H174.9z"/>
	</g>
	<g>
		<path class="st0" d="M61,59.4l-23.2,8.4c0.3,3.7,0.9,7.4,1.8,11l22-8C60.9,67.1,60.7,63.3,61,59.4"/>
		<path class="st0" d="M163.4,33.8c-1.6-3.3-3.5-6.6-5.7-9.6l-23.2,8.4c2.7,2.8,5,5.9,6.8,9.2L163.4,33.8z"/>
		<path class="st1" d="M112.4,27.2c4.8,2.2,9,5.3,12.5,8.9l23.2-8.4c-6.4-9-15.2-16.5-25.9-21.5C89.1-9.2,49.6,5.1,34.1,38.3
			c-5,10.7-6.9,22.1-6,33.1l23.2-8.4c0.4-5,1.6-10,3.9-14.9C65.2,26.6,90.9,17.2,112.4,27.2"/>
		<path class="st1" d="M41.1,78.3l-22,8c2,8,5.5,15.7,10.3,22.4l23.1-8.4C46.6,94.3,42.6,86.5,41.1,78.3"/>
		<path class="st1" d="M137.1,69.6c-0.4,5-1.6,10-3.9,14.9c-10,21.5-35.7,30.9-57.2,20.8c-4.8-2.3-9-5.3-12.5-8.9l-23.1,8.4
			c6.4,9,15.1,16.5,25.8,21.5c33.1,15.4,72.6,1.1,88.1-32.1c5-10.7,6.8-22.1,6-33.1L137.1,69.6z"/>
		<path class="st1" d="M142.8,41.3l-22,8c4.1,7.3,6,15.8,5.4,24.2l23.1-8.4C148.6,56.8,146.4,48.7,142.8,41.3"/>
		<path class="st2" d="M60.9,64.1c-0.1-1.5,0-3.1,0.1-4.7l-23.2,8.4c0.1,1.5,0.3,3,0.5,4.4L60.9,64.1z"/>
		<path class="st2" d="M160,27.7c-0.7-1.2-1.5-2.4-2.3-3.5l-23.2,8.4c1,1,2,2.1,2.9,3.3L160,27.7z"/>
		<path class="st0" d="M40.3,104.8c1.8,2.5,3.8,4.9,5.9,7.2l25.2-9.2c-2.9-1.8-5.6-4-7.9-6.4L40.3,104.8z M160.2,61.2l-23.1,8.4
			c-0.2,3.3-0.9,6.7-2,10l25.2-9.2C160.5,67.3,160.5,64.2,160.2,61.2"/>
	</g>
</g>
</svg>
